<svg width="158" height="46" fill="none" xmlns="http://www.w3.org/2000/svg"><path d="M49.675-41.495a1.517 1.517 0 01-.924 1.4 1.498 1.498 0 01-1.641-.323 1.512 1.512 0 01-.329-1.647 1.51 1.51 0 011.39-.934 1.489 1.489 0 011.063.438 1.502 1.502 0 01.441 1.066zm15.333 0a1.517 1.517 0 01-.924 1.4 1.498 1.498 0 01-1.641-.323 1.513 1.513 0 011.061-2.581 1.5 1.5 0 011.061.44c.282.282.441.664.443 1.064zm15.326 0a1.51 1.51 0 01-.924 1.39 1.49 1.49 0 01-1.632-.326A1.507 1.507 0 0178.837-43c.397 0 .778.159 1.059.441.28.282.438.665.438 1.064zm15.333 0a1.516 1.516 0 01-.933 1.404 1.498 1.498 0 01-1.646-.341A1.514 1.514 0 0194.202-43a1.505 1.505 0 011.465 1.504zM49.675-29.498a1.516 1.516 0 01-.924 1.4 1.497 1.497 0 01-1.641-.323 1.513 1.513 0 011.061-2.582 1.493 1.493 0 011.39.928c.075.183.114.379.114.577zm15.333 0a1.516 1.516 0 01-.924 1.4 1.497 1.497 0 01-1.641-.323 1.514 1.514 0 011.061-2.582 1.5 1.5 0 011.061.44c.282.283.441.665.443 1.065zm15.326 0a1.51 1.51 0 01-.924 1.39 1.49 1.49 0 01-1.632-.326 1.507 1.507 0 011.059-2.569c.397 0 .778.159 1.059.441.28.282.438.665.438 1.064zm15.333 0a1.516 1.516 0 01-.925 1.401 1.497 1.497 0 01-1.642-.326 1.513 1.513 0 011.07-2.58c.397 0 .778.159 1.058.441.281.282.44.665.44 1.064zm-45.992 12.01a1.516 1.516 0 01-.928 1.396 1.498 1.498 0 01-1.64-.328 1.512 1.512 0 01-.325-1.646 1.51 1.51 0 011.39-.933 1.49 1.49 0 011.065.44 1.506 1.506 0 01.438 1.07zm15.333 0a1.515 1.515 0 01-.928 1.396 1.498 1.498 0 01-1.64-.328A1.513 1.513 0 0163.505-19a1.5 1.5 0 011.063.443c.283.284.441.668.441 1.069zm15.326 0a1.51 1.51 0 01-.929 1.385 1.492 1.492 0 01-1.63-.33 1.506 1.506 0 01-.321-1.639 1.502 1.502 0 011.383-.927 1.492 1.492 0 011.385.933c.075.183.113.38.112.578zm15.333 0a1.516 1.516 0 01-.938 1.4 1.497 1.497 0 01-1.643-.346 1.514 1.514 0 01.27-2.33 1.5 1.5 0 01.846-.235c.393.008.766.171 1.04.454.274.283.427.662.425 1.057zM49.675-5.498a1.515 1.515 0 01-.937 1.387 1.497 1.497 0 01-1.635-.336 1.513 1.513 0 011.068-2.575 1.497 1.497 0 011.393.942c.075.185.113.383.111.582zm15.333 0a1.516 1.516 0 01-.937 1.387 1.497 1.497 0 01-1.635-.336 1.514 1.514 0 011.068-2.575 1.504 1.504 0 011.392.943c.075.184.113.382.112.581zm15.326 0a1.51 1.51 0 01-.938 1.376 1.491 1.491 0 01-1.625-.339 1.507 1.507 0 011.066-2.561 1.498 1.498 0 011.387.943c.075.185.112.382.11.581zm15.333 0a1.516 1.516 0 01-.947 1.39 1.497 1.497 0 01-1.639-.354 1.513 1.513 0 011.121-2.56 1.5 1.5 0 011.043.46c.274.286.426.668.422 1.064zm16.008-35.997a1.508 1.508 0 01-1.793 1.49 1.503 1.503 0 01-1.185-1.186A1.511 1.511 0 01110.171-43a1.488 1.488 0 011.063.438 1.507 1.507 0 01.441 1.066zm15.333 0a1.508 1.508 0 01-1.793 1.49 1.5 1.5 0 01-.772-.413 1.517 1.517 0 01.225-2.326 1.497 1.497 0 011.897.185c.282.282.441.664.443 1.064zm15.326 0a1.5 1.5 0 01-1.789 1.476 1.492 1.492 0 01-.767-.412 1.512 1.512 0 01-.325-1.64 1.492 1.492 0 012.443-.488c.281.282.438.665.438 1.064zm15.333 0a1.503 1.503 0 01-1.808 1.486 1.501 1.501 0 01-1.175-1.207 1.516 1.516 0 01.672-1.548c.252-.161.547-.243.846-.235a1.505 1.505 0 011.465 1.504zm-45.992 11.997a1.507 1.507 0 01-1.793 1.49 1.504 1.504 0 01-1.185-1.186 1.51 1.51 0 011.474-1.809 1.492 1.492 0 011.063.439 1.508 1.508 0 01.441 1.066zm15.333 0a1.507 1.507 0 01-1.793 1.49 1.5 1.5 0 01-.772-.413 1.517 1.517 0 01-.329-1.647 1.509 1.509 0 011.39-.935 1.5 1.5 0 011.061.44c.282.283.441.665.443 1.065zm15.326 0a1.499 1.499 0 01-1.789 1.476 1.492 1.492 0 01-.767-.412 1.512 1.512 0 01-.325-1.64 1.493 1.493 0 012.443-.488c.281.282.438.665.438 1.064zm15.333 0a1.517 1.517 0 01-.925 1.401 1.499 1.499 0 01-1.642-.326 1.512 1.512 0 01-.325-1.65 1.508 1.508 0 011.395-.93c.397 0 .778.159 1.059.441.28.282.438.665.438 1.064zm-45.992 12.01a1.517 1.517 0 01-.928 1.396 1.499 1.499 0 01-1.639-.328 1.508 1.508 0 01-.326-1.646 1.5 1.5 0 011.389-.933 1.491 1.491 0 011.391.931c.076.184.114.381.113.58zm15.333 0a1.517 1.517 0 01-.928 1.396 1.499 1.499 0 01-1.639-.328 1.508 1.508 0 01-.412-.773 1.513 1.513 0 01.639-1.551 1.503 1.503 0 012.34 1.256zm15.326 0a1.51 1.51 0 01-.929 1.385 1.489 1.489 0 01-1.629-.33 1.503 1.503 0 01-.408-.77 1.5 1.5 0 01.638-1.543 1.491 1.491 0 012.216.68c.075.183.113.38.112.578zm15.333 0a1.515 1.515 0 01-.938 1.4 1.496 1.496 0 01-1.643-.346 1.516 1.516 0 01.27-2.33 1.5 1.5 0 011.886.22c.274.282.427.661.425 1.056zm-45.992 11.99a1.51 1.51 0 01-1.805 1.467 1.502 1.502 0 01-1.175-1.19 1.52 1.52 0 01.642-1.547 1.498 1.498 0 012.227.688c.075.185.113.383.111.582zm15.333 0a1.518 1.518 0 01-.937 1.387 1.498 1.498 0 01-1.635-.336 1.514 1.514 0 011.068-2.575 1.508 1.508 0 011.391.943c.076.184.114.382.113.581zm15.326 0a1.51 1.51 0 01-.938 1.376 1.488 1.488 0 01-1.625-.339 1.508 1.508 0 011.066-2.561 1.493 1.493 0 011.064.45 1.506 1.506 0 01.433 1.074zm15.333 0a1.516 1.516 0 01-.947 1.39 1.497 1.497 0 01-1.639-.354 1.512 1.512 0 01-.294-1.658 1.508 1.508 0 011.415-.902 1.5 1.5 0 011.043.46c.274.286.426.668.422 1.064zM49.675 8.505a1.517 1.517 0 01-.924 1.4 1.497 1.497 0 01-1.641-.323 1.513 1.513 0 01-.329-1.647A1.509 1.509 0 0148.171 7a1.491 1.491 0 011.39.927c.075.183.114.379.114.577zm15.333 0a1.517 1.517 0 01-.924 1.4 1.498 1.498 0 01-1.641-.323 1.513 1.513 0 011.061-2.581 1.5 1.5 0 011.061.44c.282.282.441.664.443 1.064zm15.326 0a1.51 1.51 0 01-.924 1.39 1.49 1.49 0 01-1.632-.326A1.507 1.507 0 0178.837 7a1.495 1.495 0 011.497 1.504zm15.333 0a1.517 1.517 0 01-.933 1.404 1.497 1.497 0 01-1.646-.341A1.514 1.514 0 0194.202 7a1.505 1.505 0 011.465 1.504zM49.675 20.502a1.516 1.516 0 01-.924 1.4 1.497 1.497 0 01-1.641-.323 1.513 1.513 0 011.061-2.582 1.493 1.493 0 011.39.928c.075.183.114.379.114.577zm15.333 0a1.516 1.516 0 01-.924 1.4 1.497 1.497 0 01-1.641-.323 1.514 1.514 0 011.061-2.582 1.5 1.5 0 011.061.44c.282.283.441.665.443 1.065zm15.326 0a1.51 1.51 0 01-.924 1.39 1.49 1.49 0 01-1.632-.326 1.507 1.507 0 011.059-2.569c.397 0 .778.159 1.059.441.28.282.438.665.438 1.064zm15.333 0a1.516 1.516 0 01-.925 1.401 1.498 1.498 0 01-1.642-.326 1.513 1.513 0 011.07-2.58c.397 0 .778.159 1.058.441.281.282.44.665.44 1.064zm-45.992 12.01a1.516 1.516 0 01-.928 1.396 1.498 1.498 0 01-1.64-.328 1.512 1.512 0 01-.325-1.646 1.51 1.51 0 011.39-.933 1.49 1.49 0 011.065.44 1.505 1.505 0 01.438 1.07zm15.333 0a1.516 1.516 0 01-.928 1.396 1.498 1.498 0 01-1.64-.328A1.513 1.513 0 0163.505 31a1.5 1.5 0 011.063.443c.283.284.441.668.441 1.069zm15.326 0a1.51 1.51 0 01-.929 1.385 1.492 1.492 0 01-1.63-.33 1.506 1.506 0 01-.321-1.639 1.502 1.502 0 011.383-.927 1.492 1.492 0 011.385.933c.075.183.113.38.112.578zm15.333 0a1.516 1.516 0 01-.938 1.4 1.497 1.497 0 01-1.643-.346 1.514 1.514 0 01.27-2.33 1.5 1.5 0 01.846-.235c.393.008.766.171 1.04.454.274.283.427.662.425 1.057zm-45.992 11.99a1.515 1.515 0 01-.937 1.387 1.497 1.497 0 01-1.635-.336 1.513 1.513 0 011.068-2.575 1.497 1.497 0 011.068.447 1.511 1.511 0 01.436 1.077zm15.333 0a1.516 1.516 0 01-.937 1.387 1.498 1.498 0 01-1.635-.336 1.514 1.514 0 011.068-2.575 1.506 1.506 0 011.392.943c.075.184.113.382.112.581zm15.326 0a1.51 1.51 0 01-.938 1.376 1.492 1.492 0 01-1.625-.339 1.507 1.507 0 011.066-2.561 1.5 1.5 0 011.387.943c.075.185.112.382.11.581zm15.333 0a1.516 1.516 0 01-.947 1.39 1.498 1.498 0 01-1.639-.354 1.514 1.514 0 011.121-2.56 1.5 1.5 0 011.043.46c.274.286.426.668.422 1.064zm16.008-35.997a1.508 1.508 0 01-1.793 1.49 1.503 1.503 0 01-1.185-1.186A1.51 1.51 0 01110.171 7a1.49 1.49 0 011.063.438 1.508 1.508 0 01.441 1.066zm15.333 0a1.508 1.508 0 01-1.793 1.49 1.5 1.5 0 01-.772-.413 1.517 1.517 0 01-.329-1.647 1.509 1.509 0 011.39-.934 1.5 1.5 0 011.061.44c.282.282.441.664.443 1.064zm15.326 0a1.5 1.5 0 01-1.789 1.476 1.492 1.492 0 01-.767-.412 1.512 1.512 0 01-.325-1.64 1.492 1.492 0 012.443-.488c.281.282.438.665.438 1.064zm15.333 0a1.504 1.504 0 01-1.808 1.486 1.501 1.501 0 01-1.175-1.207 1.516 1.516 0 01.672-1.548c.252-.161.547-.243.846-.235a1.505 1.505 0 011.465 1.504zm-45.992 11.997a1.507 1.507 0 01-1.793 1.49 1.504 1.504 0 01-1.185-1.186 1.51 1.51 0 011.474-1.809 1.492 1.492 0 011.063.439 1.508 1.508 0 01.441 1.066zm15.333 0a1.507 1.507 0 01-1.793 1.49 1.5 1.5 0 01-.772-.413 1.517 1.517 0 01-.329-1.647 1.509 1.509 0 011.39-.935 1.5 1.5 0 011.061.44c.282.283.441.665.443 1.065zm15.326 0a1.499 1.499 0 01-1.789 1.476 1.492 1.492 0 01-.767-.412 1.512 1.512 0 01-.325-1.64 1.493 1.493 0 012.443-.488c.281.282.438.665.438 1.064zm15.333 0a1.517 1.517 0 01-.925 1.401 1.5 1.5 0 01-2.054-1.101 1.513 1.513 0 01.644-1.553 1.505 1.505 0 011.897.189c.28.282.438.665.438 1.064zm-45.992 12.01a1.509 1.509 0 01-.928 1.396 1.499 1.499 0 01-1.639-.328 1.508 1.508 0 01-.326-1.646 1.5 1.5 0 011.389-.933 1.491 1.491 0 011.391.931c.076.184.114.381.113.58zm15.333 0a1.514 1.514 0 01-.928 1.396 1.499 1.499 0 01-1.639-.328 1.508 1.508 0 01-.412-.773 1.513 1.513 0 01.639-1.551 1.503 1.503 0 012.34 1.256zm15.326 0a1.51 1.51 0 01-.929 1.385 1.489 1.489 0 01-1.629-.33 1.503 1.503 0 01-.408-.77 1.5 1.5 0 01.638-1.543 1.491 1.491 0 012.216.68c.075.183.113.38.112.578zm15.333 0a1.515 1.515 0 01-.938 1.4 1.496 1.496 0 01-1.643-.346 1.516 1.516 0 01.27-2.33 1.5 1.5 0 011.886.22c.274.282.427.661.425 1.056zm-45.992 11.99a1.51 1.51 0 01-1.805 1.467 1.503 1.503 0 01-1.175-1.19 1.52 1.52 0 01.642-1.547 1.498 1.498 0 012.227.688c.075.185.113.383.111.582zm15.333 0a1.518 1.518 0 01-.937 1.387 1.498 1.498 0 01-1.635-.336 1.514 1.514 0 011.068-2.575 1.51 1.51 0 011.504 1.524zm15.326 0a1.51 1.51 0 01-.938 1.376 1.49 1.49 0 01-1.625-.339 1.508 1.508 0 011.066-2.561 1.495 1.495 0 011.064.45 1.506 1.506 0 01.433 1.074zm15.333 0a1.516 1.516 0 01-.947 1.39 1.497 1.497 0 01-1.639-.354 1.512 1.512 0 01-.294-1.658 1.509 1.509 0 011.415-.902 1.5 1.5 0 011.043.46c.274.286.426.668.422 1.064zM3.008-41.495a1.516 1.516 0 01-.924 1.4 1.498 1.498 0 01-1.641-.323 1.513 1.513 0 011.061-2.581 1.5 1.5 0 011.061.44c.282.282.441.664.443 1.064zm15.326 0a1.51 1.51 0 01-.924 1.39 1.49 1.49 0 01-1.632-.326A1.507 1.507 0 0116.837-43c.397 0 .778.159 1.059.441.28.282.438.665.438 1.064zm15.333 0a1.516 1.516 0 01-.933 1.404 1.498 1.498 0 01-1.646-.341A1.514 1.514 0 0132.202-43a1.505 1.505 0 011.465 1.504zM3.008-29.498a1.516 1.516 0 01-.924 1.4 1.497 1.497 0 01-1.641-.323 1.513 1.513 0 011.061-2.582 1.5 1.5 0 011.061.44c.282.283.441.665.443 1.065zm15.326 0a1.51 1.51 0 01-.924 1.39 1.49 1.49 0 01-1.632-.326 1.507 1.507 0 011.059-2.569c.397 0 .778.159 1.059.441.28.282.438.665.438 1.064zm15.333 0a1.516 1.516 0 01-.925 1.401 1.497 1.497 0 01-1.642-.326 1.513 1.513 0 011.07-2.58c.397 0 .778.159 1.058.441.281.282.44.665.44 1.064zM3.008-17.488a1.516 1.516 0 01-.928 1.396 1.498 1.498 0 01-1.64-.328A1.513 1.513 0 011.505-19a1.5 1.5 0 011.063.443c.283.284.441.668.441 1.069zm15.326 0a1.51 1.51 0 01-.929 1.385 1.492 1.492 0 01-1.63-.33 1.506 1.506 0 01-.321-1.639 1.502 1.502 0 011.383-.927 1.492 1.492 0 011.385.933c.075.183.113.38.112.578zm15.333 0a1.516 1.516 0 01-.938 1.4 1.497 1.497 0 01-1.643-.346 1.514 1.514 0 01.27-2.33 1.5 1.5 0 01.846-.235c.393.008.766.171 1.04.454.274.283.427.662.425 1.057zM3.008-5.498a1.516 1.516 0 01-.937 1.387 1.497 1.497 0 01-1.635-.336 1.513 1.513 0 011.068-2.575 1.504 1.504 0 011.391.943c.076.184.114.382.113.581zm15.326 0a1.51 1.51 0 01-.938 1.376 1.491 1.491 0 01-1.625-.339 1.507 1.507 0 011.066-2.561 1.498 1.498 0 011.387.943c.075.185.112.382.11.581zm15.333 0a1.516 1.516 0 01-.947 1.39 1.497 1.497 0 01-1.639-.354 1.513 1.513 0 011.121-2.56 1.5 1.5 0 011.043.46c.274.286.426.668.422 1.064zM3.008 8.505a1.516 1.516 0 01-.924 1.4 1.498 1.498 0 01-1.641-.323 1.513 1.513 0 011.061-2.581 1.5 1.5 0 011.061.44c.282.282.441.664.443 1.064zm15.326 0a1.51 1.51 0 01-.924 1.39 1.49 1.49 0 01-1.632-.326A1.507 1.507 0 0116.837 7a1.495 1.495 0 011.497 1.504zm15.333 0a1.517 1.517 0 01-.933 1.404 1.497 1.497 0 01-1.646-.341A1.514 1.514 0 0132.202 7a1.505 1.505 0 011.465 1.504zM3.008 20.502a1.516 1.516 0 01-.924 1.4 1.497 1.497 0 01-1.641-.323 1.513 1.513 0 011.061-2.582 1.5 1.5 0 011.061.44c.282.283.441.665.443 1.065zm15.326 0a1.51 1.51 0 01-.924 1.39 1.49 1.49 0 01-1.632-.326 1.507 1.507 0 011.059-2.569c.397 0 .778.159 1.059.441.28.282.438.665.438 1.064zm15.333 0a1.516 1.516 0 01-.925 1.401 1.498 1.498 0 01-1.642-.326 1.513 1.513 0 011.07-2.58c.397 0 .778.159 1.058.441.281.282.44.665.44 1.064zM3.008 32.512a1.516 1.516 0 01-.928 1.396 1.498 1.498 0 01-1.64-.328A1.513 1.513 0 011.505 31a1.5 1.5 0 011.063.443c.283.284.441.668.441 1.069zm15.326 0a1.51 1.51 0 01-.929 1.385 1.492 1.492 0 01-1.63-.33 1.506 1.506 0 01-.321-1.639 1.502 1.502 0 011.383-.927 1.492 1.492 0 011.385.933c.075.183.113.38.112.578zm15.333 0a1.516 1.516 0 01-.938 1.4 1.497 1.497 0 01-1.643-.346 1.514 1.514 0 01.27-2.33 1.5 1.5 0 01.846-.235c.393.008.766.171 1.04.454.274.283.427.662.425 1.057zM3.008 44.502a1.516 1.516 0 01-.937 1.387 1.498 1.498 0 01-1.635-.336 1.513 1.513 0 011.068-2.575 1.506 1.506 0 011.391.943c.076.184.114.382.113.581zm15.326 0a1.51 1.51 0 01-.938 1.376 1.492 1.492 0 01-1.625-.339 1.507 1.507 0 011.066-2.561 1.5 1.5 0 011.387.943c.075.185.112.382.11.581zm15.333 0a1.516 1.516 0 01-.947 1.39 1.498 1.498 0 01-1.639-.354 1.514 1.514 0 011.121-2.56 1.5 1.5 0 011.043.46c.274.286.426.668.422 1.064z" fill="#fff"/></svg>