<svg width="44" height="49" fill="none" xmlns="http://www.w3.org/2000/svg"><path d="M42.345 47l-4.812-4.83m0 0a7.732 7.732 0 00.506-10.35 7.681 7.681 0 00-4.442-2.672 7.66 7.66 0 00-5.123.762 7.706 7.706 0 00-3.477 3.852 7.743 7.743 0 00-.254 5.193 7.713 7.713 0 003.085 4.175 7.663 7.663 0 009.705-.96zM19.93 47h-.612c-7.307 0-10.965 0-13.502-1.795A9.202 9.202 0 013.9 43.393C2 40.995 2 37.543 2 30.636V24.91c0-6.667 0-10.002 1.051-12.664 1.69-4.281 5.263-7.656 9.795-9.254C15.661 2 19.186 2 26.247 2c4.03 0 6.047 0 7.657.567 2.589.913 4.63 2.842 5.596 5.287.603 1.522.603 3.427.603 7.237V24.5M2 24.5c0-1.989.787-3.896 2.188-5.303a7.456 7.456 0 015.283-2.196c1.492 0 3.252.26 4.702-.129a3.74 3.74 0 001.675-.972 3.761 3.761 0 00.967-1.683c.388-1.455.128-3.222.128-4.72 0-1.989.788-3.895 2.19-5.301A7.456 7.456 0 0124.412 2" stroke="#000" stroke-width="2.328" stroke-linecap="round" stroke-linejoin="round"/></svg>