<svg width="48" height="40" fill="none" xmlns="http://www.w3.org/2000/svg"><g clip-path="url(#clip0_55_1867)" fill="#030100"><path d="M9.547 38.393c.865 0 1.565-.703 1.565-1.57 0-.868-.7-1.57-1.565-1.57-.864 0-1.564.702-1.564 1.57 0 .867.7 1.57 1.564 1.57zm10.323 0c.865 0 1.565-.703 1.565-1.57 0-.868-.7-1.57-1.565-1.57-.864 0-1.564.702-1.564 1.57 0 .867.7 1.57 1.564 1.57zm-5.47.001c.626 0 1.133-.508 1.133-1.136 0-.627-.507-1.136-1.132-1.136-.625 0-1.132.509-1.132 1.136 0 .628.507 1.136 1.132 1.136zM5.288 8.505c0 .627-.507 1.136-1.132 1.136a1.134 1.134 0 01-1.133-1.136 1.134 1.134 0 112.265 0zm39.054-6.233c.625 0 1.132-.509 1.132-1.136C45.474.509 44.967 0 44.342 0c-.626 0-1.133.509-1.133 1.136 0 .627.507 1.136 1.133 1.136zm-19.117 36.11c.626 0 1.132-.508 1.132-1.136 0-.627-.506-1.136-1.132-1.136-.625 0-1.132.509-1.132 1.136 0 .627.507 1.136 1.132 1.136zm4.928.011c.864 0 1.564-.703 1.564-1.57 0-.868-.7-1.57-1.564-1.57-.864 0-1.565.702-1.565 1.57 0 .867.7 1.57 1.565 1.57z"/><path d="M30.172 40H9.567A3.175 3.175 0 016.4 36.822a3.175 3.175 0 013.167-3.177h20.605a3.175 3.175 0 013.167 3.177A3.175 3.175 0 0130.172 40zM9.567 34.531a2.29 2.29 0 00-2.284 2.291 2.29 2.29 0 002.284 2.292h20.605a2.29 2.29 0 002.284-2.292 2.29 2.29 0 00-2.284-2.291H9.567zm21.266-1.715H8.286a1.199 1.199 0 010-2.396h22.547a1.199 1.199 0 010 2.396zM8.622 22.815H1.046c-.578 0-1.046.47-1.046 1.05v4.53c0 .58.468 1.05 1.046 1.05h7.576c.578 0 1.046-.47 1.046-1.05v-4.53c0-.58-.468-1.05-1.046-1.05zm18.281-6.293h-6.782c-.636 0-1.157.523-1.157 1.16v1.575h2.26a1.03 1.03 0 011.025 1.03l.007 9.12h7.784c.635 0 1.156-.522 1.156-1.16 0 0-2.862-9.816-3.134-10.562-.272-.746-.521-1.161-1.157-1.161l-.002-.002z"/><path d="M26.552 17.31h-2.194v10.407h4.726a.938.938 0 00.934-.938s-2.311-7.928-2.532-8.53c-.22-.603-.42-.938-.934-.938zm-6.357 2.994H11.76c-.64 0-1.157.52-1.157 1.16v6.818a1.16 1.16 0 001.157 1.161h8.436c.64 0 1.157-.52 1.157-1.16v-6.818a1.16 1.16 0 00-1.157-1.161zm-3.548-.53h-4.254a.444.444 0 01-.338-.156L3.622 9.655a.446.446 0 01.263-.725l3.723-.627a.441.441 0 01.41.15l8.968 10.59a.444.444 0 01-.338.731zm-4.051-.886h3.096l-8.186-9.67-2.71.458 7.802 9.212h-.002zm17.831 3.785a.44.44 0 01-.35-.71L43.005 4.93l.118-2.242-2.453.583-11.11 15.163a.441.441 0 01-.619.094.445.445 0 01-.093-.62l11.207-15.29a.44.44 0 01.255-.169l3.184-.757a.439.439 0 01.542.454l-.157 2.969a.44.44 0 01-.09.244L30.776 22.5a.437.437 0 01-.351.174h.002z"/><path d="M5.464 23.864h-1.41a.442.442 0 01-.44-.443V9.403a.44.44 0 01.788-.273l1.408 1.797a.44.44 0 01.096.275v12.22a.442.442 0 01-.442.442zm-.968-.886h.527V11.354l-.527-.671v12.295zm40.352-3.624H43.44a.442.442 0 01-.441-.443V2.271a.45.45 0 01.166-.346L44.573.8a.438.438 0 01.466-.051.444.444 0 01.25.398V18.91a.442.442 0 01-.442.443h.001zm-.967-.886h.526V2.066l-.526.42v15.982z"/><path d="M4.187 9.82a.442.442 0 01-.432-.36l-.269-1.388a.44.44 0 01.355-.52L44.636.208a.445.445 0 01.422.714l-1.267 1.58a.443.443 0 01-.265.157L4.266 9.813a.401.401 0 01-.079.007zm.251-1.475l.1.518 38.668-7.045.424-.528L4.44 8.345h-.002z"/><path d="M12.124 19.33h-.003a.443.443 0 01-.438-.447l.035-4.43-4.065-.245a.442.442 0 01-.415-.443V8.739a.442.442 0 11.883 0v4.607l4.069.245c.235.014.417.21.415.447l-.04 4.85a.443.443 0 01-.44.44v.001zm17.144-.681a.443.443 0 01-.113-.87l4.874-1.308-.985-3.95a.442.442 0 01.307-.534l4.904-1.398-.842-4.119a.445.445 0 01.334-.52l5.593-1.29a.443.443 0 01.198.865l-5.173 1.192.839 4.097a.445.445 0 01-.313.516l-4.886 1.393.987 3.955a.443.443 0 01-.315.535l-5.294 1.422a.429.429 0 01-.115.015v-.001zm15.072 9.118c-.9 0-1.812-.512-2.045-1.544-.292-1.292.687-2.178 1.425-2.571v-.91a.442.442 0 11.883 0v1.191c0 .181-.11.344-.277.412-.057.023-1.415.591-1.17 1.683.18.798 1.014.925 1.498.817.198-.044.832-.24.687-.907a.442.442 0 11.862-.188c.201.932-.357 1.738-1.358 1.96a2.298 2.298 0 01-.505.055v.002z"/><path d="M45.804 22.744h-3.248l-1.492-4.166.821-2.015h4.59l.747 2.091-1.418 4.09z"/><path d="M42.862 19.017a.464.464 0 10-.002-.927.464.464 0 00.002.927zm2.626 0a.464.464 0 10-.002-.927.464.464 0 00.002.927zm-32.961 4.585a.443.443 0 00-.442.443v3.814a.443.443 0 10.883 0v-3.814a.442.442 0 00-.441-.443zm1.966 0a.442.442 0 00-.442.443v3.814a.442.442 0 10.883 0v-3.814a.442.442 0 00-.441-.443zm1.964 0a.442.442 0 00-.442.443v3.814a.442.442 0 10.883 0v-3.814a.442.442 0 00-.441-.443z"/></g><defs><clipPath id="clip0_55_1867"><path fill="#fff" d="M0 0h47.222v40H0z"/></clipPath></defs></svg>