<svg width="44" height="38" fill="none" xmlns="http://www.w3.org/2000/svg"><path d="M35.75 35.286h-16.5V24.429H16.5v10.857H8.25V24.429H5.5v10.857c0 .72.29 1.41.805 1.919A2.769 2.769 0 008.25 38h27.5c.73 0 1.429-.286 1.944-.795.516-.509.806-1.2.806-1.92V24.43h-2.75v10.857zm7.961-22.706l-5.61-11.074A2.727 2.727 0 0037.088.408 2.777 2.777 0 0035.64 0H8.36c-.512 0-1.013.141-1.448.408A2.727 2.727 0 005.9 1.506L.289 12.581c-.192.379-.29.797-.289 1.221v4.18a2.693 2.693 0 00.633 1.737 6.417 6.417 0 002.194 1.61c.84.374 1.751.566 2.673.562a6.543 6.543 0 004.125-1.452 6.556 6.556 0 004.125 1.456 6.556 6.556 0 004.125-1.456A6.556 6.556 0 0022 21.895a6.556 6.556 0 004.125-1.456 6.556 6.556 0 004.125 1.456 6.556 6.556 0 004.125-1.456 6.547 6.547 0 004.634 1.434 6.52 6.52 0 004.345-2.14A2.693 2.693 0 0044 17.996v-4.194a2.684 2.684 0 00-.289-1.221zM38.5 19.177a3.723 3.723 0 01-1.687-.408 3.673 3.673 0 01-1.31-1.125l-1.128-1.52-1.114 1.52a3.714 3.714 0 01-1.32 1.105 3.766 3.766 0 01-3.368 0 3.715 3.715 0 01-1.32-1.105l-1.128-1.52-1.114 1.52a3.714 3.714 0 01-1.32 1.105 3.766 3.766 0 01-3.368 0 3.715 3.715 0 01-1.32-1.105l-1.128-1.52-1.114 1.52a3.715 3.715 0 01-1.32 1.105 3.766 3.766 0 01-3.368 0 3.715 3.715 0 01-1.32-1.105l-1.128-1.52-1.127 1.52c-.34.473-.79.859-1.31 1.125a3.72 3.72 0 01-1.688.408 3.671 3.671 0 01-1.506-.303 3.628 3.628 0 01-1.244-.89v-4.18L8.36 2.713h27.28l5.61 11.075v4.152a3.668 3.668 0 01-1.24.91 3.713 3.713 0 01-1.51.325z" fill="#030100"/></svg>