<svg width="531" height="193" viewBox="0 0 531 193" fill="none" xmlns="http://www.w3.org/2000/svg">
<path d="M155.273 141.379H132.861V183.859L92.2852 192.062V141.379H7.61719L0 128.195L70.459 0.460938L112.5 11.1543L44.9707 119.992L92.2852 117.502V83.3711L132.861 74.1426V115.305L160.107 113.84L155.273 141.379Z" fill="#FFC100"/>
<path d="M266.455 182.248C252.002 182.248 239.307 179.123 228.369 172.873C217.432 166.623 208.887 156.955 202.734 143.869C196.582 130.686 193.506 114.133 193.506 94.2109C193.506 63.7422 199.951 40.5 212.842 24.4844C225.732 8.46875 245.41 0.460938 271.875 0.460938C285.449 0.460938 297.656 3.53711 308.496 9.68945C319.434 15.7441 328.076 25.1191 334.424 37.8145C340.869 50.4121 344.092 66.1348 344.092 84.9824C344.092 117.697 337.695 142.111 324.902 158.225C312.207 174.24 292.725 182.248 266.455 182.248ZM244.336 138.303C245.703 143.283 247.803 147.971 250.635 152.365C253.467 156.662 256.787 160.129 260.596 162.766C264.404 165.305 268.359 166.574 272.461 166.574C276.27 166.574 279.346 166.281 281.689 165.695C284.033 165.012 285.889 163.84 287.256 162.18C290.869 158.273 293.799 150.461 296.045 138.742C298.389 126.926 299.561 114.572 299.561 101.682C299.561 72.7754 296.729 51.3398 291.064 37.375C288.428 31.2227 284.766 26.1445 280.078 22.1406C275.488 18.0391 270.117 15.9883 263.965 15.9883C257.422 15.9883 252.93 17.4043 250.488 20.2363C247.168 23.8496 244.287 31.2715 241.846 42.502C239.502 53.7324 238.33 65.8418 238.33 78.8301C238.33 105.979 240.332 125.803 244.336 138.303Z" fill="#FFC100"/>
<path d="M525.586 141.379H503.174V183.859L462.598 192.062V141.379H377.93L370.312 128.195L440.771 0.460938L482.812 11.1543L415.283 119.992L462.598 117.502V83.3711L503.174 74.1426V115.305L530.42 113.84L525.586 141.379Z" fill="#FFC100"/>
</svg>
