<svg width="158" height="46" viewBox="0 0 158 46" fill="none" xmlns="http://www.w3.org/2000/svg">
<path d="M49.6751 -41.495C49.6764 -41.1958 49.5893 -40.9031 49.4249 -40.6537C49.2604 -40.4044 49.0259 -40.2097 48.7512 -40.0943C48.4765 -39.9789 48.1739 -39.9481 47.8818 -40.0056C47.5896 -40.0632 47.321 -40.2066 47.11 -40.4177C46.899 -40.6287 46.7551 -40.8979 46.6966 -41.1912C46.638 -41.4845 46.6674 -41.7887 46.7811 -42.0652C46.8947 -42.3417 47.0874 -42.578 47.3349 -42.7444C47.5824 -42.9107 47.8734 -42.9995 48.1712 -42.9995C48.3684 -43.0004 48.5638 -42.9621 48.7462 -42.8868C48.9286 -42.8116 49.0945 -42.7009 49.2342 -42.5611C49.374 -42.4214 49.4849 -42.2552 49.5605 -42.0722C49.6362 -41.8893 49.6751 -41.6931 49.6751 -41.495Z" fill="white"/>
<path d="M65.008 -41.495C65.0093 -41.1958 64.9221 -40.9031 64.7577 -40.6537C64.5932 -40.4044 64.3588 -40.2097 64.0841 -40.0943C63.8094 -39.9789 63.5068 -39.9481 63.2146 -40.0056C62.9224 -40.0632 62.6538 -40.2066 62.4428 -40.4177C62.2319 -40.6287 62.0879 -40.8979 62.0294 -41.1912C61.9708 -41.4845 62.0002 -41.7887 62.1139 -42.0652C62.2275 -42.3417 62.4203 -42.578 62.6677 -42.7444C62.9152 -42.9107 63.2062 -42.9995 63.504 -42.9995C63.9017 -42.9995 64.2833 -42.8412 64.5652 -42.5592C64.847 -42.2773 65.0062 -41.8946 65.008 -41.495Z" fill="white"/>
<path d="M80.3343 -41.495C80.3343 -41.1974 80.2465 -40.9065 80.0819 -40.6591C79.9174 -40.4117 79.6835 -40.2189 79.4099 -40.105C79.1363 -39.9911 78.8352 -39.9613 78.5447 -40.0194C78.2542 -40.0774 77.9874 -40.2207 77.7779 -40.4311C77.5685 -40.6415 77.4259 -40.9096 77.3681 -41.2015C77.3103 -41.4933 77.34 -41.7958 77.4533 -42.0707C77.5667 -42.3456 77.7586 -42.5806 78.0049 -42.7459C78.2511 -42.9113 78.5406 -42.9995 78.8368 -42.9995C79.234 -42.9995 79.6149 -42.841 79.8957 -42.5588C80.1765 -42.2767 80.3343 -41.894 80.3343 -41.495Z" fill="white"/>
<path d="M95.6671 -41.495C95.6683 -41.1942 95.5801 -40.8999 95.4139 -40.6498C95.2476 -40.3996 95.0108 -40.205 94.7338 -40.0909C94.4568 -39.9768 94.1523 -39.9483 93.8591 -40.0091C93.5659 -40.0699 93.2974 -40.2173 93.088 -40.4323C92.8787 -40.6473 92.738 -40.9202 92.6839 -41.216C92.6298 -41.5119 92.6649 -41.8172 92.7845 -42.0929C92.9042 -42.3686 93.103 -42.6022 93.3556 -42.7637C93.6081 -42.9252 93.9029 -43.0073 94.2022 -42.9995C94.5937 -42.9909 94.9663 -42.8287 95.2401 -42.5474C95.5139 -42.2662 95.6672 -41.8884 95.6671 -41.495Z" fill="white"/>
<path d="M49.6751 -29.4982C49.6764 -29.199 49.5893 -28.9062 49.4249 -28.6569C49.2604 -28.4075 49.0259 -28.2128 48.7512 -28.0975C48.4765 -27.9821 48.1739 -27.9512 47.8818 -28.0088C47.5896 -28.0664 47.321 -28.2098 47.11 -28.4208C46.899 -28.6319 46.7551 -28.9011 46.6966 -29.1944C46.638 -29.4877 46.6674 -29.7919 46.7811 -30.0683C46.8947 -30.3448 47.0874 -30.5812 47.3349 -30.7475C47.5824 -30.9139 47.8734 -31.0027 48.1712 -31.0027C48.3684 -31.0035 48.5638 -30.9652 48.7462 -30.89C48.9286 -30.8148 49.0945 -30.7041 49.2342 -30.5643C49.374 -30.4245 49.4849 -30.2584 49.5605 -30.0754C49.6362 -29.8925 49.6751 -29.6963 49.6751 -29.4982Z" fill="white"/>
<path d="M65.008 -29.4982C65.0093 -29.199 64.9221 -28.9062 64.7577 -28.6569C64.5932 -28.4075 64.3588 -28.2128 64.0841 -28.0975C63.8094 -27.9821 63.5068 -27.9512 63.2146 -28.0088C62.9224 -28.0664 62.6538 -28.2098 62.4428 -28.4208C62.2319 -28.6319 62.0879 -28.9011 62.0294 -29.1944C61.9708 -29.4877 62.0002 -29.7919 62.1139 -30.0683C62.2275 -30.3448 62.4203 -30.5812 62.6677 -30.7475C62.9152 -30.9139 63.2062 -31.0027 63.504 -31.0027C63.9017 -31.0027 64.2833 -30.8444 64.5652 -30.5624C64.847 -30.2804 65.0062 -29.8978 65.008 -29.4982Z" fill="white"/>
<path d="M80.3343 -29.4982C80.3343 -29.2006 80.2465 -28.9097 80.0819 -28.6623C79.9174 -28.4149 79.6835 -28.222 79.4099 -28.1082C79.1363 -27.9943 78.8352 -27.9645 78.5447 -28.0226C78.2542 -28.0806 77.9874 -28.2239 77.7779 -28.4343C77.5685 -28.6447 77.4259 -28.9128 77.3681 -29.2046C77.3103 -29.4965 77.34 -29.799 77.4533 -30.0739C77.5667 -30.3488 77.7586 -30.5838 78.0049 -30.7491C78.2511 -30.9144 78.5406 -31.0027 78.8368 -31.0027C79.234 -31.0027 79.6149 -30.8442 79.8957 -30.562C80.1765 -30.2799 80.3343 -29.8972 80.3343 -29.4982Z" fill="white"/>
<path d="M95.6671 -29.4982C95.6684 -29.1987 95.5811 -28.9057 95.4164 -28.6562C95.2516 -28.4067 95.0168 -28.212 94.7417 -28.0969C94.4666 -27.9817 94.1637 -27.9512 93.8713 -28.0093C93.579 -28.0674 93.3104 -28.2114 93.0997 -28.4232C92.8889 -28.6349 92.7456 -28.9047 92.6877 -29.1984C92.6299 -29.4922 92.6603 -29.7965 92.7749 -30.0729C92.8895 -30.3493 93.0833 -30.5852 93.3316 -30.7507C93.58 -30.9163 93.8716 -31.004 94.1696 -31.0027C94.5668 -31.0027 94.9477 -30.8442 95.2285 -30.562C95.5093 -30.2799 95.6671 -29.8972 95.6671 -29.4982Z" fill="white"/>
<path d="M49.6751 -17.4882C49.6751 -17.1894 49.5869 -16.8972 49.4217 -16.6488C49.2564 -16.4003 49.0215 -16.2066 48.7467 -16.0922C48.4719 -15.9779 48.1695 -15.9479 47.8777 -16.0062C47.586 -16.0645 47.318 -16.2085 47.1077 -16.4198C46.8973 -16.6311 46.7541 -16.9003 46.6961 -17.1935C46.638 -17.4866 46.6678 -17.7904 46.7817 -18.0665C46.8955 -18.3426 47.0883 -18.5786 47.3356 -18.7446C47.5829 -18.9107 47.8737 -18.9993 48.1712 -18.9993C48.3689 -19.0002 48.5649 -18.9617 48.7477 -18.886C48.9306 -18.8104 49.0967 -18.6991 49.2366 -18.5587C49.3764 -18.4182 49.4871 -18.2512 49.5624 -18.0675C49.6377 -17.8838 49.676 -17.6869 49.6751 -17.4882Z" fill="white"/>
<path d="M65.008 -17.4882C65.008 -17.1894 64.9198 -16.8972 64.7545 -16.6488C64.5892 -16.4003 64.3544 -16.2066 64.0795 -16.0922C63.8047 -15.9779 63.5023 -15.9479 63.2106 -16.0062C62.9188 -16.0645 62.6508 -16.2085 62.4405 -16.4198C62.2302 -16.6311 62.0869 -16.9003 62.0289 -17.1935C61.9709 -17.4866 62.0007 -17.7904 62.1145 -18.0665C62.2283 -18.3426 62.4211 -18.5786 62.6684 -18.7446C62.9158 -18.9107 63.2065 -18.9993 63.504 -18.9993C63.9029 -18.9993 64.2854 -18.8401 64.5675 -18.5567C64.8495 -18.2733 65.008 -17.889 65.008 -17.4882Z" fill="white"/>
<path d="M80.3343 -17.4882C80.333 -17.191 80.2441 -16.9007 80.0788 -16.6542C79.9134 -16.4076 79.6791 -16.2158 79.4054 -16.1029C79.1316 -15.9901 78.8308 -15.9612 78.5407 -16.02C78.2507 -16.0788 77.9844 -16.2226 77.7757 -16.4333C77.5669 -16.6439 77.4249 -16.912 77.3677 -17.2037C77.3104 -17.4953 77.3404 -17.7975 77.454 -18.072C77.5675 -18.3466 77.7594 -18.5812 78.0055 -18.7462C78.2517 -18.9112 78.5409 -18.9993 78.8368 -18.9993C79.034 -18.9993 79.2293 -18.9602 79.4114 -18.8842C79.5935 -18.8081 79.7589 -18.6967 79.898 -18.5563C80.0371 -18.4159 80.1473 -18.2493 80.2222 -18.066C80.2971 -17.8827 80.3351 -17.6864 80.3343 -17.4882Z" fill="white"/>
<path d="M95.6671 -17.4882C95.667 -17.1877 95.5777 -16.8941 95.4107 -16.6448C95.2436 -16.3955 95.0064 -16.202 94.7293 -16.0889C94.4522 -15.9757 94.1478 -15.9482 93.8551 -16.0097C93.5623 -16.0713 93.2944 -16.2192 93.0858 -16.4344C92.8771 -16.6497 92.737 -16.9226 92.6834 -17.2183C92.6299 -17.5139 92.6653 -17.8189 92.7852 -18.0942C92.905 -18.3695 93.1039 -18.6027 93.3563 -18.7639C93.6087 -18.9252 93.9032 -19.0071 94.2022 -18.9993C94.5948 -18.9907 94.9684 -18.8275 95.2424 -18.5449C95.5164 -18.2623 95.6689 -17.8828 95.6671 -17.4882Z" fill="white"/>
<path d="M49.6751 -5.49797C49.6726 -5.19968 49.5822 -4.90883 49.4154 -4.66207C49.2486 -4.4153 49.0128 -4.22367 48.7377 -4.1113C48.4627 -3.99894 48.1607 -3.97087 47.8699 -4.03065C47.579 -4.09042 47.3122 -4.23536 47.1032 -4.44719C46.8941 -4.65903 46.7522 -4.92828 46.6952 -5.22104C46.6382 -5.51379 46.6687 -5.81694 46.783 -6.09229C46.8972 -6.36763 47.0899 -6.60286 47.337 -6.76832C47.584 -6.93379 47.8743 -7.02209 48.1712 -7.0221C48.3698 -7.02211 48.5664 -6.98259 48.7497 -6.90584C48.9331 -6.82908 49.0994 -6.71661 49.2393 -6.57491C49.3791 -6.4332 49.4896 -6.26508 49.5644 -6.08024C49.6392 -5.8954 49.6769 -5.6975 49.6751 -5.49797Z" fill="white"/>
<path d="M65.008 -5.49797C65.0054 -5.19968 64.915 -4.90883 64.7482 -4.66207C64.5814 -4.4153 64.3456 -4.22367 64.0706 -4.1113C63.7955 -3.99894 63.4936 -3.97087 63.2027 -4.03065C62.9118 -4.09042 62.645 -4.23536 62.436 -4.44719C62.227 -4.65903 62.085 -4.92828 62.028 -5.22104C61.971 -5.51379 62.0016 -5.81694 62.1158 -6.09229C62.23 -6.36763 62.4227 -6.60286 62.6698 -6.76832C62.9168 -6.93379 63.2071 -7.02209 63.504 -7.0221C63.7023 -7.02124 63.8986 -6.98114 64.0815 -6.90408C64.2645 -6.82702 64.4305 -6.71452 64.5702 -6.57299C64.7098 -6.43146 64.8204 -6.26368 64.8955 -6.07922C64.9706 -5.89477 65.0088 -5.69726 65.008 -5.49797Z" fill="white"/>
<path d="M80.3343 -5.49797C80.3304 -5.20127 80.2393 -4.91234 80.0725 -4.66752C79.9056 -4.4227 79.6704 -4.23292 79.3965 -4.12205C79.1225 -4.01118 78.8221 -3.98417 78.5329 -4.04442C78.2437 -4.10467 77.9787 -4.24949 77.7712 -4.46066C77.5638 -4.67183 77.4231 -4.93992 77.3669 -5.23122C77.3106 -5.52251 77.3414 -5.82401 77.4553 -6.09778C77.5692 -6.37156 77.7611 -6.60537 78.0069 -6.76984C78.2527 -6.93431 78.5415 -7.02207 78.8368 -7.0221C79.0349 -7.02124 79.2308 -6.9811 79.4134 -6.90396C79.596 -6.82682 79.7616 -6.71421 79.9007 -6.57259C80.0398 -6.43097 80.1498 -6.26314 80.2242 -6.07873C80.2986 -5.89431 80.336 -5.69695 80.3343 -5.49797Z" fill="white"/>
<path d="M95.6671 -5.49797C95.6644 -5.19803 95.573 -4.90569 95.4044 -4.65815C95.2357 -4.41062 94.9976 -4.21911 94.7203 -4.108C94.443 -3.99689 94.1391 -3.97121 93.8472 -4.03424C93.5553 -4.09727 93.2887 -4.24614 93.0813 -4.46191C92.8739 -4.67767 92.7351 -4.95057 92.6826 -5.24584C92.6301 -5.54111 92.6663 -5.84541 92.7865 -6.11997C92.9067 -6.39453 93.1055 -6.62693 93.3577 -6.78759C93.6098 -6.94824 93.9037 -7.02988 94.2022 -7.0221C94.5965 -7.01182 94.9711 -6.8463 95.2451 -6.56121C95.5191 -6.27611 95.6707 -5.89427 95.6671 -5.49797Z" fill="white"/>
<path d="M111.675 -41.495C111.676 -41.1958 111.589 -40.9031 111.425 -40.6537C111.26 -40.4044 111.026 -40.2097 110.751 -40.0943C110.477 -39.9789 110.174 -39.9481 109.882 -40.0056C109.59 -40.0632 109.321 -40.2066 109.11 -40.4177C108.899 -40.6287 108.755 -40.8979 108.697 -41.1912C108.638 -41.4845 108.667 -41.7887 108.781 -42.0652C108.895 -42.3417 109.087 -42.578 109.335 -42.7444C109.582 -42.9107 109.873 -42.9995 110.171 -42.9995C110.368 -43.0004 110.564 -42.9621 110.746 -42.8868C110.929 -42.8116 111.095 -42.7009 111.234 -42.5611C111.374 -42.4214 111.485 -42.2552 111.561 -42.0722C111.636 -41.8893 111.675 -41.6931 111.675 -41.495Z" fill="white"/>
<path d="M127.008 -41.495C127.009 -41.1958 126.922 -40.9031 126.758 -40.6537C126.593 -40.4044 126.359 -40.2097 126.084 -40.0943C125.809 -39.9789 125.507 -39.9481 125.215 -40.0056C124.922 -40.0632 124.654 -40.2066 124.443 -40.4177C124.232 -40.6287 124.088 -40.8979 124.029 -41.1912C123.971 -41.4845 124 -41.7887 124.114 -42.0652C124.228 -42.3417 124.42 -42.578 124.668 -42.7444C124.915 -42.9107 125.206 -42.9995 125.504 -42.9995C125.902 -42.9995 126.283 -42.8412 126.565 -42.5592C126.847 -42.2773 127.006 -41.8946 127.008 -41.495Z" fill="white"/>
<path d="M142.334 -41.495C142.334 -41.1974 142.246 -40.9065 142.082 -40.6591C141.917 -40.4117 141.684 -40.2189 141.41 -40.105C141.136 -39.9911 140.835 -39.9613 140.545 -40.0194C140.254 -40.0774 139.987 -40.2207 139.778 -40.4311C139.569 -40.6415 139.426 -40.9096 139.368 -41.2015C139.31 -41.4933 139.34 -41.7958 139.453 -42.0707C139.567 -42.3456 139.759 -42.5806 140.005 -42.7459C140.251 -42.9113 140.541 -42.9995 140.837 -42.9995C141.234 -42.9995 141.615 -42.841 141.896 -42.5588C142.177 -42.2767 142.334 -41.894 142.334 -41.495Z" fill="white"/>
<path d="M157.667 -41.495C157.668 -41.1942 157.58 -40.8999 157.414 -40.6498C157.248 -40.3996 157.011 -40.205 156.734 -40.0909C156.457 -39.9768 156.152 -39.9483 155.859 -40.0091C155.566 -40.0699 155.297 -40.2173 155.088 -40.4323C154.879 -40.6473 154.738 -40.9202 154.684 -41.216C154.63 -41.5119 154.665 -41.8172 154.785 -42.0929C154.904 -42.3686 155.103 -42.6022 155.356 -42.7637C155.608 -42.9252 155.903 -43.0073 156.202 -42.9995C156.594 -42.9909 156.966 -42.8287 157.24 -42.5474C157.514 -42.2662 157.667 -41.8884 157.667 -41.495Z" fill="white"/>
<path d="M111.675 -29.4982C111.676 -29.199 111.589 -28.9062 111.425 -28.6569C111.26 -28.4075 111.026 -28.2128 110.751 -28.0975C110.477 -27.9821 110.174 -27.9512 109.882 -28.0088C109.59 -28.0664 109.321 -28.2098 109.11 -28.4208C108.899 -28.6319 108.755 -28.9011 108.697 -29.1944C108.638 -29.4877 108.667 -29.7919 108.781 -30.0683C108.895 -30.3448 109.087 -30.5812 109.335 -30.7475C109.582 -30.9139 109.873 -31.0027 110.171 -31.0027C110.368 -31.0035 110.564 -30.9652 110.746 -30.89C110.929 -30.8148 111.095 -30.7041 111.234 -30.5643C111.374 -30.4245 111.485 -30.2584 111.561 -30.0754C111.636 -29.8925 111.675 -29.6963 111.675 -29.4982Z" fill="white"/>
<path d="M127.008 -29.4982C127.009 -29.199 126.922 -28.9062 126.758 -28.6569C126.593 -28.4075 126.359 -28.2128 126.084 -28.0975C125.809 -27.9821 125.507 -27.9512 125.215 -28.0088C124.922 -28.0664 124.654 -28.2098 124.443 -28.4208C124.232 -28.6319 124.088 -28.9011 124.029 -29.1944C123.971 -29.4877 124 -29.7919 124.114 -30.0683C124.228 -30.3448 124.42 -30.5812 124.668 -30.7475C124.915 -30.9139 125.206 -31.0027 125.504 -31.0027C125.902 -31.0027 126.283 -30.8444 126.565 -30.5624C126.847 -30.2804 127.006 -29.8978 127.008 -29.4982Z" fill="white"/>
<path d="M142.334 -29.4982C142.334 -29.2006 142.246 -28.9097 142.082 -28.6623C141.917 -28.4149 141.684 -28.222 141.41 -28.1082C141.136 -27.9943 140.835 -27.9645 140.545 -28.0226C140.254 -28.0806 139.987 -28.2239 139.778 -28.4343C139.569 -28.6447 139.426 -28.9128 139.368 -29.2046C139.31 -29.4965 139.34 -29.799 139.453 -30.0739C139.567 -30.3488 139.759 -30.5838 140.005 -30.7491C140.251 -30.9144 140.541 -31.0027 140.837 -31.0027C141.234 -31.0027 141.615 -30.8442 141.896 -30.562C142.177 -30.2799 142.334 -29.8972 142.334 -29.4982Z" fill="white"/>
<path d="M157.667 -29.4982C157.668 -29.1987 157.581 -28.9057 157.416 -28.6562C157.252 -28.4067 157.017 -28.212 156.742 -28.0969C156.467 -27.9817 156.164 -27.9512 155.871 -28.0093C155.579 -28.0674 155.31 -28.2114 155.1 -28.4232C154.889 -28.6349 154.746 -28.9047 154.688 -29.1984C154.63 -29.4922 154.66 -29.7965 154.775 -30.0729C154.89 -30.3493 155.083 -30.5852 155.332 -30.7507C155.58 -30.9163 155.872 -31.004 156.17 -31.0027C156.567 -31.0027 156.948 -30.8442 157.229 -30.562C157.509 -30.2799 157.667 -29.8972 157.667 -29.4982Z" fill="white"/>
<path d="M111.675 -17.4882C111.675 -17.1894 111.587 -16.8972 111.422 -16.6488C111.256 -16.4003 111.022 -16.2066 110.747 -16.0922C110.472 -15.9779 110.169 -15.9479 109.878 -16.0062C109.586 -16.0645 109.318 -16.2085 109.108 -16.4198C108.897 -16.6311 108.754 -16.9003 108.696 -17.1935C108.638 -17.4866 108.668 -17.7904 108.782 -18.0665C108.895 -18.3426 109.088 -18.5786 109.336 -18.7446C109.583 -18.9107 109.874 -18.9993 110.171 -18.9993C110.369 -19.0002 110.565 -18.9617 110.748 -18.886C110.931 -18.8104 111.097 -18.6991 111.237 -18.5587C111.376 -18.4182 111.487 -18.2512 111.562 -18.0675C111.638 -17.8838 111.676 -17.6869 111.675 -17.4882Z" fill="white"/>
<path d="M127.008 -17.4882C127.008 -17.1894 126.92 -16.8972 126.755 -16.6488C126.589 -16.4003 126.354 -16.2066 126.08 -16.0922C125.805 -15.9779 125.502 -15.9479 125.211 -16.0062C124.919 -16.0645 124.651 -16.2085 124.441 -16.4198C124.23 -16.6311 124.087 -16.9003 124.029 -17.1935C123.971 -17.4866 124.001 -17.7904 124.114 -18.0665C124.228 -18.3426 124.421 -18.5786 124.668 -18.7446C124.916 -18.9107 125.207 -18.9993 125.504 -18.9993C125.903 -18.9993 126.285 -18.8401 126.567 -18.5567C126.85 -18.2733 127.008 -17.889 127.008 -17.4882Z" fill="white"/>
<path d="M142.334 -17.4882C142.333 -17.191 142.244 -16.9007 142.079 -16.6542C141.913 -16.4076 141.679 -16.2158 141.405 -16.1029C141.132 -15.9901 140.831 -15.9612 140.541 -16.02C140.251 -16.0788 139.984 -16.2226 139.776 -16.4333C139.567 -16.6439 139.425 -16.912 139.368 -17.2037C139.31 -17.4953 139.34 -17.7975 139.454 -18.072C139.567 -18.3466 139.759 -18.5812 140.006 -18.7462C140.252 -18.9112 140.541 -18.9993 140.837 -18.9993C141.034 -18.9993 141.229 -18.9602 141.411 -18.8842C141.594 -18.8081 141.759 -18.6967 141.898 -18.5563C142.037 -18.4159 142.147 -18.2493 142.222 -18.066C142.297 -17.8827 142.335 -17.6864 142.334 -17.4882Z" fill="white"/>
<path d="M157.667 -17.4882C157.667 -17.1877 157.578 -16.8941 157.411 -16.6448C157.244 -16.3955 157.006 -16.202 156.729 -16.0889C156.452 -15.9757 156.148 -15.9482 155.855 -16.0097C155.562 -16.0713 155.294 -16.2192 155.086 -16.4344C154.877 -16.6497 154.737 -16.9226 154.683 -17.2183C154.63 -17.5139 154.665 -17.8189 154.785 -18.0942C154.905 -18.3695 155.104 -18.6027 155.356 -18.7639C155.609 -18.9252 155.903 -19.0071 156.202 -18.9993C156.595 -18.9907 156.968 -18.8275 157.242 -18.5449C157.516 -18.2623 157.669 -17.8828 157.667 -17.4882Z" fill="white"/>
<path d="M111.675 -5.49797C111.673 -5.19968 111.582 -4.90883 111.415 -4.66207C111.249 -4.4153 111.013 -4.22367 110.738 -4.1113C110.463 -3.99894 110.161 -3.97087 109.87 -4.03065C109.579 -4.09042 109.312 -4.23536 109.103 -4.44719C108.894 -4.65903 108.752 -4.92828 108.695 -5.22104C108.638 -5.51379 108.669 -5.81694 108.783 -6.09229C108.897 -6.36763 109.09 -6.60286 109.337 -6.76832C109.584 -6.93379 109.874 -7.02209 110.171 -7.0221C110.37 -7.02211 110.566 -6.98259 110.75 -6.90584C110.933 -6.82908 111.099 -6.71661 111.239 -6.57491C111.379 -6.4332 111.49 -6.26508 111.564 -6.08024C111.639 -5.8954 111.677 -5.6975 111.675 -5.49797Z" fill="white"/>
<path d="M127.008 -5.49797C127.005 -5.19968 126.915 -4.90883 126.748 -4.66207C126.581 -4.4153 126.346 -4.22367 126.071 -4.1113C125.796 -3.99894 125.494 -3.97087 125.203 -4.03065C124.912 -4.09042 124.645 -4.23536 124.436 -4.44719C124.227 -4.65903 124.085 -4.92828 124.028 -5.22104C123.971 -5.51379 124.002 -5.81694 124.116 -6.09229C124.23 -6.36763 124.423 -6.60286 124.67 -6.76832C124.917 -6.93379 125.207 -7.02209 125.504 -7.0221C125.702 -7.02124 125.899 -6.98114 126.082 -6.90408C126.264 -6.82702 126.431 -6.71452 126.57 -6.57299C126.71 -6.43146 126.82 -6.26368 126.895 -6.07922C126.971 -5.89477 127.009 -5.69726 127.008 -5.49797Z" fill="white"/>
<path d="M142.334 -5.49797C142.33 -5.20127 142.239 -4.91234 142.072 -4.66752C141.906 -4.4227 141.67 -4.23292 141.396 -4.12205C141.123 -4.01118 140.822 -3.98417 140.533 -4.04442C140.244 -4.10467 139.979 -4.24949 139.771 -4.46066C139.564 -4.67183 139.423 -4.93992 139.367 -5.23122C139.311 -5.52251 139.341 -5.82401 139.455 -6.09778C139.569 -6.37156 139.761 -6.60537 140.007 -6.76984C140.253 -6.93431 140.541 -7.02207 140.837 -7.0221C141.035 -7.02124 141.231 -6.9811 141.413 -6.90396C141.596 -6.82682 141.762 -6.71421 141.901 -6.57259C142.04 -6.43097 142.15 -6.26314 142.224 -6.07873C142.299 -5.89431 142.336 -5.69695 142.334 -5.49797Z" fill="white"/>
<path d="M157.667 -5.49797C157.664 -5.19803 157.573 -4.90569 157.404 -4.65815C157.236 -4.41062 156.998 -4.21911 156.72 -4.108C156.443 -3.99689 156.139 -3.97121 155.847 -4.03424C155.555 -4.09727 155.289 -4.24614 155.081 -4.46191C154.874 -4.67767 154.735 -4.95057 154.683 -5.24584C154.63 -5.54111 154.666 -5.84541 154.787 -6.11997C154.907 -6.39453 155.106 -6.62693 155.358 -6.78759C155.61 -6.94824 155.904 -7.02988 156.202 -7.0221C156.597 -7.01182 156.971 -6.8463 157.245 -6.56121C157.519 -6.27611 157.671 -5.89427 157.667 -5.49797Z" fill="white"/>
<path d="M49.6751 8.50502C49.6764 8.80415 49.5893 9.09694 49.4249 9.34629C49.2604 9.59564 49.0259 9.79033 48.7512 9.9057C48.4765 10.0211 48.1739 10.0519 47.8818 9.99437C47.5896 9.93681 47.321 9.79341 47.11 9.58235C46.899 9.37129 46.7551 9.10206 46.6966 8.80877C46.638 8.51547 46.6674 8.21132 46.7811 7.93483C46.8947 7.65834 47.0874 7.42196 47.3349 7.25563C47.5824 7.0893 47.8734 7.00051 48.1712 7.00051C48.3684 6.99965 48.5638 7.03793 48.7462 7.11315C48.9286 7.18837 49.0945 7.29906 49.2342 7.43885C49.374 7.57864 49.4849 7.74479 49.5605 7.92775C49.6362 8.11072 49.6751 8.30689 49.6751 8.50502Z" fill="white"/>
<path d="M65.008 8.50502C65.0093 8.80415 64.9221 9.09694 64.7577 9.34629C64.5932 9.59564 64.3588 9.79033 64.0841 9.9057C63.8094 10.0211 63.5068 10.0519 63.2146 9.99437C62.9224 9.93681 62.6538 9.79341 62.4428 9.58235C62.2319 9.37129 62.0879 9.10206 62.0294 8.80877C61.9708 8.51547 62.0002 8.21132 62.1139 7.93483C62.2275 7.65834 62.4203 7.42196 62.6677 7.25563C62.9152 7.0893 63.2062 7.00051 63.504 7.00051C63.9017 7.00051 64.2833 7.15881 64.5652 7.44077C64.847 7.72273 65.0062 8.1054 65.008 8.50502Z" fill="white"/>
<path d="M80.3343 8.50502C80.3343 8.80259 80.2465 9.09346 80.0819 9.34088C79.9174 9.58829 79.6835 9.78113 79.4099 9.895C79.1363 10.0089 78.8352 10.0387 78.5447 9.98062C78.2542 9.92257 77.9874 9.77928 77.7779 9.56887C77.5685 9.35846 77.4259 9.09038 77.3681 8.79853C77.3103 8.50669 77.34 8.20418 77.4533 7.92927C77.5667 7.65435 77.7586 7.41938 78.0049 7.25407C78.2511 7.08875 78.5406 7.00051 78.8368 7.00051C79.234 7.00051 79.6149 7.15902 79.8957 7.44117C80.1765 7.72332 80.3343 8.106 80.3343 8.50502Z" fill="white"/>
<path d="M95.6671 8.50502C95.6683 8.80581 95.5801 9.1001 95.4139 9.35023C95.2476 9.60037 95.0108 9.79496 94.7338 9.90909C94.4568 10.0232 94.1523 10.0517 93.8591 9.99089C93.5659 9.93008 93.2974 9.78273 93.088 9.56772C92.8787 9.35271 92.738 9.07981 92.6839 8.78397C92.6298 8.48814 92.6649 8.18282 92.7845 7.9071C92.9042 7.63139 93.103 7.39782 93.3556 7.23631C93.6081 7.0748 93.9029 6.9927 94.2022 7.00051C94.5937 7.00906 94.9663 7.17134 95.2401 7.45257C95.5139 7.7338 95.6672 8.1116 95.6671 8.50502Z" fill="white"/>
<path d="M49.6751 20.5018C49.6764 20.801 49.5893 21.0938 49.4249 21.3431C49.2604 21.5925 49.0259 21.7872 48.7512 21.9025C48.4765 22.0179 48.1739 22.0488 47.8818 21.9912C47.5896 21.9336 47.321 21.7902 47.11 21.5792C46.899 21.3681 46.7551 21.0989 46.6966 20.8056C46.638 20.5123 46.6674 20.2081 46.7811 19.9317C46.8947 19.6552 47.0874 19.4188 47.3349 19.2525C47.5824 19.0861 47.8734 18.9973 48.1712 18.9973C48.3684 18.9965 48.5638 19.0348 48.7462 19.11C48.9286 19.1852 49.0945 19.2959 49.2342 19.4357C49.374 19.5755 49.4849 19.7416 49.5605 19.9246C49.6362 20.1075 49.6751 20.3037 49.6751 20.5018Z" fill="white"/>
<path d="M65.008 20.5018C65.0093 20.801 64.9221 21.0938 64.7577 21.3431C64.5932 21.5925 64.3588 21.7872 64.0841 21.9025C63.8094 22.0179 63.5068 22.0488 63.2146 21.9912C62.9224 21.9336 62.6538 21.7902 62.4428 21.5792C62.2319 21.3681 62.0879 21.0989 62.0294 20.8056C61.9708 20.5123 62.0002 20.2081 62.1139 19.9317C62.2275 19.6552 62.4203 19.4188 62.6677 19.2525C62.9152 19.0861 63.2062 18.9973 63.504 18.9973C63.9017 18.9973 64.2833 19.1556 64.5652 19.4376C64.847 19.7196 65.0062 20.1022 65.008 20.5018Z" fill="white"/>
<path d="M80.3343 20.5018C80.3343 20.7994 80.2465 21.0903 80.0819 21.3377C79.9174 21.5851 79.6835 21.778 79.4099 21.8918C79.1363 22.0057 78.8352 22.0355 78.5447 21.9774C78.2542 21.9194 77.9874 21.7761 77.7779 21.5657C77.5685 21.3553 77.4259 21.0872 77.3681 20.7954C77.3103 20.5035 77.34 20.201 77.4533 19.9261C77.5667 19.6512 77.7586 19.4162 78.0049 19.2509C78.2511 19.0856 78.5406 18.9973 78.8368 18.9973C79.234 18.9973 79.6149 19.1558 79.8957 19.438C80.1765 19.7201 80.3343 20.1028 80.3343 20.5018Z" fill="white"/>
<path d="M95.6671 20.5018C95.6684 20.8013 95.5811 21.0943 95.4164 21.3438C95.2516 21.5933 95.0168 21.788 94.7417 21.9032C94.4666 22.0183 94.1637 22.0488 93.8713 21.9907C93.579 21.9326 93.3104 21.7886 93.0997 21.5768C92.8889 21.3651 92.7456 21.0953 92.6877 20.8016C92.6299 20.5078 92.6603 20.2035 92.7749 19.9271C92.8895 19.6507 93.0833 19.4148 93.3316 19.2493C93.58 19.0837 93.8716 18.996 94.1696 18.9973C94.5668 18.9973 94.9477 19.1558 95.2285 19.438C95.5093 19.7201 95.6671 20.1028 95.6671 20.5018Z" fill="white"/>
<path d="M49.6751 32.5117C49.6751 32.8106 49.5869 33.1028 49.4217 33.3512C49.2564 33.5997 49.0215 33.7934 48.7467 33.9078C48.4719 34.0221 48.1695 34.0521 47.8777 33.9938C47.586 33.9355 47.318 33.7915 47.1077 33.5802C46.8973 33.3689 46.7541 33.0997 46.6961 32.8065C46.638 32.5134 46.6678 32.2096 46.7817 31.9335C46.8955 31.6574 47.0883 31.4214 47.3356 31.2554C47.5829 31.0893 47.8737 31.0007 48.1712 31.0007C48.3689 30.9998 48.5649 31.0383 48.7477 31.114C48.9306 31.1896 49.0967 31.3009 49.2366 31.4413C49.3764 31.5818 49.4871 31.7487 49.5624 31.9325C49.6377 32.1162 49.676 32.3131 49.6751 32.5117Z" fill="white"/>
<path d="M65.008 32.5117C65.008 32.8106 64.9198 33.1028 64.7545 33.3512C64.5892 33.5997 64.3544 33.7934 64.0795 33.9078C63.8047 34.0221 63.5023 34.0521 63.2106 33.9938C62.9188 33.9355 62.6508 33.7915 62.4405 33.5802C62.2302 33.3689 62.0869 33.0997 62.0289 32.8065C61.9709 32.5134 62.0007 32.2096 62.1145 31.9335C62.2283 31.6574 62.4211 31.4214 62.6684 31.2554C62.9158 31.0893 63.2065 31.0007 63.504 31.0007C63.9029 31.0007 64.2854 31.1599 64.5675 31.4433C64.8495 31.7267 65.008 32.111 65.008 32.5117Z" fill="white"/>
<path d="M80.3343 32.5117C80.333 32.809 80.2441 33.0993 80.0788 33.3458C79.9134 33.5924 79.6791 33.7842 79.4054 33.8971C79.1316 34.0099 78.8308 34.0388 78.5407 33.98C78.2507 33.9212 77.9844 33.7774 77.7757 33.5667C77.5669 33.3561 77.4249 33.088 77.3677 32.7963C77.3104 32.5047 77.3404 32.2025 77.454 31.928C77.5675 31.6534 77.7594 31.4188 78.0055 31.2538C78.2517 31.0888 78.5409 31.0007 78.8368 31.0007C79.034 31.0007 79.2293 31.0398 79.4114 31.1158C79.5935 31.1919 79.7589 31.3033 79.898 31.4437C80.0371 31.5841 80.1473 31.7507 80.2222 31.934C80.2971 32.1173 80.3351 32.3136 80.3343 32.5117Z" fill="white"/>
<path d="M95.6671 32.5118C95.667 32.8123 95.5777 33.1059 95.4107 33.3552C95.2436 33.6045 95.0064 33.798 94.7293 33.9111C94.4522 34.0243 94.1478 34.0518 93.8551 33.9903C93.5623 33.9287 93.2944 33.7808 93.0858 33.5656C92.8771 33.3503 92.737 33.0774 92.6834 32.7817C92.6299 32.4861 92.6653 32.1811 92.7852 31.9058C92.905 31.6305 93.1039 31.3973 93.3563 31.2361C93.6087 31.0748 93.9032 30.9929 94.2022 31.0007C94.5948 31.0093 94.9684 31.1725 95.2424 31.4551C95.5164 31.7377 95.6689 32.1172 95.6671 32.5118Z" fill="white"/>
<path d="M49.6751 44.502C49.6726 44.8003 49.5822 45.0912 49.4154 45.3379C49.2486 45.5847 49.0128 45.7763 48.7377 45.8887C48.4627 46.0011 48.1607 46.0291 47.8699 45.9694C47.579 45.9096 47.3122 45.7646 47.1032 45.5528C46.8941 45.341 46.7522 45.0717 46.6952 44.779C46.6382 44.4862 46.6687 44.1831 46.783 43.9077C46.8972 43.6324 47.0899 43.3971 47.337 43.2317C47.584 43.0662 47.8743 42.9779 48.1712 42.9779C48.3698 42.9779 48.5664 43.0174 48.7497 43.0942C48.9331 43.1709 49.0994 43.2834 49.2393 43.4251C49.3791 43.5668 49.4896 43.7349 49.5644 43.9198C49.6392 44.1046 49.6769 44.3025 49.6751 44.502Z" fill="white"/>
<path d="M65.008 44.502C65.0054 44.8003 64.915 45.0912 64.7482 45.3379C64.5814 45.5847 64.3456 45.7763 64.0706 45.8887C63.7955 46.0011 63.4936 46.0291 63.2027 45.9694C62.9118 45.9096 62.645 45.7646 62.436 45.5528C62.227 45.341 62.085 45.0717 62.028 44.779C61.971 44.4862 62.0016 44.1831 62.1158 43.9077C62.23 43.6324 62.4227 43.3971 62.6698 43.2317C62.9168 43.0662 63.2071 42.9779 63.504 42.9779C63.7023 42.9788 63.8986 43.0189 64.0815 43.0959C64.2645 43.173 64.4305 43.2855 64.5702 43.427C64.7098 43.5686 64.8204 43.7363 64.8955 43.9208C64.9706 44.1052 65.0088 44.3027 65.008 44.502Z" fill="white"/>
<path d="M80.3343 44.502C80.3304 44.7987 80.2393 45.0877 80.0725 45.3325C79.9056 45.5773 79.6704 45.7671 79.3965 45.878C79.1225 45.9888 78.8221 46.0158 78.5329 45.9556C78.2437 45.8953 77.9787 45.7505 77.7712 45.5393C77.5638 45.3282 77.4231 45.0601 77.3669 44.7688C77.3106 44.4775 77.3414 44.176 77.4553 43.9022C77.5692 43.6284 77.7611 43.3946 78.0069 43.2302C78.2527 43.0657 78.5415 42.9779 78.8368 42.9779C79.0349 42.9788 79.2308 43.0189 79.4134 43.096C79.596 43.1732 79.7616 43.2858 79.9007 43.4274C80.0398 43.569 80.1498 43.7369 80.2242 43.9213C80.2986 44.1057 80.336 44.3031 80.3343 44.502Z" fill="white"/>
<path d="M95.6671 44.502C95.6644 44.802 95.573 45.0943 95.4044 45.3419C95.2357 45.5894 94.9976 45.7809 94.7203 45.892C94.443 46.0031 94.1391 46.0288 93.8472 45.9658C93.5553 45.9027 93.2887 45.7539 93.0813 45.5381C92.8739 45.3223 92.7351 45.0494 92.6826 44.7542C92.6301 44.4589 92.6663 44.1546 92.7865 43.88C92.9067 43.6055 93.1055 43.3731 93.3577 43.2124C93.6098 43.0518 93.9037 42.9701 94.2022 42.9779C94.5965 42.9882 94.9711 43.1537 95.2451 43.4388C95.5191 43.7239 95.6707 44.1057 95.6671 44.502Z" fill="white"/>
<path d="M111.675 8.50502C111.676 8.80415 111.589 9.09694 111.425 9.34629C111.26 9.59564 111.026 9.79033 110.751 9.9057C110.477 10.0211 110.174 10.0519 109.882 9.99437C109.59 9.93681 109.321 9.79341 109.11 9.58235C108.899 9.37129 108.755 9.10206 108.697 8.80877C108.638 8.51547 108.667 8.21132 108.781 7.93483C108.895 7.65834 109.087 7.42196 109.335 7.25563C109.582 7.0893 109.873 7.00051 110.171 7.00051C110.368 6.99965 110.564 7.03793 110.746 7.11315C110.929 7.18837 111.095 7.29906 111.234 7.43885C111.374 7.57864 111.485 7.74479 111.561 7.92775C111.636 8.11072 111.675 8.30689 111.675 8.50502Z" fill="white"/>
<path d="M127.008 8.50502C127.009 8.80415 126.922 9.09694 126.758 9.34629C126.593 9.59564 126.359 9.79033 126.084 9.9057C125.809 10.0211 125.507 10.0519 125.215 9.99437C124.922 9.93681 124.654 9.79341 124.443 9.58235C124.232 9.37129 124.088 9.10206 124.029 8.80877C123.971 8.51547 124 8.21132 124.114 7.93483C124.228 7.65834 124.42 7.42196 124.668 7.25563C124.915 7.0893 125.206 7.00051 125.504 7.00051C125.902 7.00051 126.283 7.15881 126.565 7.44077C126.847 7.72273 127.006 8.1054 127.008 8.50502Z" fill="white"/>
<path d="M142.334 8.50502C142.334 8.80259 142.246 9.09346 142.082 9.34088C141.917 9.58829 141.684 9.78113 141.41 9.895C141.136 10.0089 140.835 10.0387 140.545 9.98062C140.254 9.92257 139.987 9.77928 139.778 9.56887C139.569 9.35846 139.426 9.09038 139.368 8.79853C139.31 8.50669 139.34 8.20418 139.453 7.92927C139.567 7.65435 139.759 7.41938 140.005 7.25407C140.251 7.08875 140.541 7.00051 140.837 7.00051C141.234 7.00051 141.615 7.15902 141.896 7.44117C142.177 7.72332 142.334 8.106 142.334 8.50502Z" fill="white"/>
<path d="M157.667 8.50502C157.668 8.80581 157.58 9.1001 157.414 9.35023C157.248 9.60037 157.011 9.79496 156.734 9.90909C156.457 10.0232 156.152 10.0517 155.859 9.99089C155.566 9.93008 155.297 9.78273 155.088 9.56772C154.879 9.35271 154.738 9.07981 154.684 8.78397C154.63 8.48814 154.665 8.18282 154.785 7.9071C154.904 7.63139 155.103 7.39782 155.356 7.23631C155.608 7.0748 155.903 6.9927 156.202 7.00051C156.594 7.00906 156.966 7.17134 157.24 7.45257C157.514 7.7338 157.667 8.1116 157.667 8.50502Z" fill="white"/>
<path d="M111.675 20.5018C111.676 20.801 111.589 21.0938 111.425 21.3431C111.26 21.5925 111.026 21.7872 110.751 21.9025C110.477 22.0179 110.174 22.0488 109.882 21.9912C109.59 21.9336 109.321 21.7902 109.11 21.5792C108.899 21.3681 108.755 21.0989 108.697 20.8056C108.638 20.5123 108.667 20.2081 108.781 19.9317C108.895 19.6552 109.087 19.4188 109.335 19.2525C109.582 19.0861 109.873 18.9973 110.171 18.9973C110.368 18.9965 110.564 19.0348 110.746 19.11C110.929 19.1852 111.095 19.2959 111.234 19.4357C111.374 19.5755 111.485 19.7416 111.561 19.9246C111.636 20.1075 111.675 20.3037 111.675 20.5018Z" fill="white"/>
<path d="M127.008 20.5018C127.009 20.801 126.922 21.0938 126.758 21.3431C126.593 21.5925 126.359 21.7872 126.084 21.9025C125.809 22.0179 125.507 22.0488 125.215 21.9912C124.922 21.9336 124.654 21.7902 124.443 21.5792C124.232 21.3681 124.088 21.0989 124.029 20.8056C123.971 20.5123 124 20.2081 124.114 19.9317C124.228 19.6552 124.42 19.4188 124.668 19.2525C124.915 19.0861 125.206 18.9973 125.504 18.9973C125.902 18.9973 126.283 19.1556 126.565 19.4376C126.847 19.7196 127.006 20.1022 127.008 20.5018Z" fill="white"/>
<path d="M142.334 20.5018C142.334 20.7994 142.246 21.0903 142.082 21.3377C141.917 21.5851 141.684 21.778 141.41 21.8918C141.136 22.0057 140.835 22.0355 140.545 21.9774C140.254 21.9194 139.987 21.7761 139.778 21.5657C139.569 21.3553 139.426 21.0872 139.368 20.7954C139.31 20.5035 139.34 20.201 139.453 19.9261C139.567 19.6512 139.759 19.4162 140.005 19.2509C140.251 19.0856 140.541 18.9973 140.837 18.9973C141.234 18.9973 141.615 19.1558 141.896 19.438C142.177 19.7201 142.334 20.1028 142.334 20.5018Z" fill="white"/>
<path d="M157.667 20.5018C157.668 20.8013 157.581 21.0943 157.416 21.3438C157.252 21.5933 157.017 21.788 156.742 21.9032C156.467 22.0183 156.164 22.0488 155.871 21.9907C155.579 21.9326 155.31 21.7886 155.1 21.5768C154.889 21.3651 154.746 21.0953 154.688 20.8016C154.63 20.5078 154.66 20.2035 154.775 19.9271C154.89 19.6507 155.083 19.4148 155.332 19.2493C155.58 19.0837 155.872 18.996 156.17 18.9973C156.567 18.9973 156.948 19.1558 157.229 19.438C157.509 19.7201 157.667 20.1028 157.667 20.5018Z" fill="white"/>
<path d="M111.675 32.5117C111.675 32.8106 111.587 33.1028 111.422 33.3512C111.256 33.5997 111.022 33.7934 110.747 33.9078C110.472 34.0221 110.169 34.0521 109.878 33.9938C109.586 33.9355 109.318 33.7915 109.108 33.5802C108.897 33.3689 108.754 33.0997 108.696 32.8065C108.638 32.5134 108.668 32.2096 108.782 31.9335C108.895 31.6574 109.088 31.4214 109.336 31.2554C109.583 31.0893 109.874 31.0007 110.171 31.0007C110.369 30.9998 110.565 31.0383 110.748 31.114C110.931 31.1896 111.097 31.3009 111.237 31.4413C111.376 31.5818 111.487 31.7487 111.562 31.9325C111.638 32.1162 111.676 32.3131 111.675 32.5117Z" fill="white"/>
<path d="M127.008 32.5117C127.008 32.8106 126.92 33.1028 126.755 33.3512C126.589 33.5997 126.354 33.7934 126.08 33.9078C125.805 34.0221 125.502 34.0521 125.211 33.9938C124.919 33.9355 124.651 33.7915 124.441 33.5802C124.23 33.3689 124.087 33.0997 124.029 32.8065C123.971 32.5134 124.001 32.2096 124.114 31.9335C124.228 31.6574 124.421 31.4214 124.668 31.2554C124.916 31.0893 125.207 31.0007 125.504 31.0007C125.903 31.0007 126.285 31.1599 126.567 31.4433C126.85 31.7267 127.008 32.111 127.008 32.5117Z" fill="white"/>
<path d="M142.334 32.5117C142.333 32.809 142.244 33.0993 142.079 33.3458C141.913 33.5924 141.679 33.7842 141.405 33.8971C141.132 34.0099 140.831 34.0388 140.541 33.98C140.251 33.9212 139.984 33.7774 139.776 33.5667C139.567 33.3561 139.425 33.088 139.368 32.7963C139.31 32.5047 139.34 32.2025 139.454 31.928C139.567 31.6534 139.759 31.4188 140.006 31.2538C140.252 31.0888 140.541 31.0007 140.837 31.0007C141.034 31.0007 141.229 31.0398 141.411 31.1158C141.594 31.1919 141.759 31.3033 141.898 31.4437C142.037 31.5841 142.147 31.7507 142.222 31.934C142.297 32.1173 142.335 32.3136 142.334 32.5117Z" fill="white"/>
<path d="M157.667 32.5118C157.667 32.8123 157.578 33.1059 157.411 33.3552C157.244 33.6045 157.006 33.798 156.729 33.9111C156.452 34.0243 156.148 34.0518 155.855 33.9903C155.562 33.9287 155.294 33.7808 155.086 33.5656C154.877 33.3503 154.737 33.0774 154.683 32.7817C154.63 32.4861 154.665 32.1811 154.785 31.9058C154.905 31.6305 155.104 31.3973 155.356 31.2361C155.609 31.0748 155.903 30.9929 156.202 31.0007C156.595 31.0093 156.968 31.1725 157.242 31.4551C157.516 31.7377 157.669 32.1172 157.667 32.5118Z" fill="white"/>
<path d="M111.675 44.502C111.673 44.8003 111.582 45.0912 111.415 45.3379C111.249 45.5847 111.013 45.7763 110.738 45.8887C110.463 46.0011 110.161 46.0291 109.87 45.9694C109.579 45.9096 109.312 45.7646 109.103 45.5528C108.894 45.341 108.752 45.0717 108.695 44.779C108.638 44.4862 108.669 44.1831 108.783 43.9077C108.897 43.6324 109.09 43.3971 109.337 43.2317C109.584 43.0662 109.874 42.9779 110.171 42.9779C110.37 42.9779 110.566 43.0174 110.75 43.0942C110.933 43.1709 111.099 43.2834 111.239 43.4251C111.379 43.5668 111.49 43.7349 111.564 43.9198C111.639 44.1046 111.677 44.3025 111.675 44.502Z" fill="white"/>
<path d="M127.008 44.502C127.005 44.8003 126.915 45.0912 126.748 45.3379C126.581 45.5847 126.346 45.7763 126.071 45.8887C125.796 46.0011 125.494 46.0291 125.203 45.9694C124.912 45.9096 124.645 45.7646 124.436 45.5528C124.227 45.341 124.085 45.0717 124.028 44.779C123.971 44.4862 124.002 44.1831 124.116 43.9077C124.23 43.6324 124.423 43.3971 124.67 43.2317C124.917 43.0662 125.207 42.9779 125.504 42.9779C125.702 42.9788 125.899 43.0189 126.082 43.0959C126.264 43.173 126.431 43.2855 126.57 43.427C126.71 43.5686 126.82 43.7363 126.895 43.9208C126.971 44.1052 127.009 44.3027 127.008 44.502Z" fill="white"/>
<path d="M142.334 44.502C142.33 44.7987 142.239 45.0877 142.072 45.3325C141.906 45.5773 141.67 45.7671 141.396 45.878C141.123 45.9888 140.822 46.0158 140.533 45.9556C140.244 45.8953 139.979 45.7505 139.771 45.5393C139.564 45.3282 139.423 45.0601 139.367 44.7688C139.311 44.4775 139.341 44.176 139.455 43.9022C139.569 43.6284 139.761 43.3946 140.007 43.2302C140.253 43.0657 140.541 42.9779 140.837 42.9779C141.035 42.9788 141.231 43.0189 141.413 43.096C141.596 43.1732 141.762 43.2858 141.901 43.4274C142.04 43.569 142.15 43.7369 142.224 43.9213C142.299 44.1057 142.336 44.3031 142.334 44.502Z" fill="white"/>
<path d="M157.667 44.502C157.664 44.802 157.573 45.0943 157.404 45.3419C157.236 45.5894 156.998 45.7809 156.72 45.892C156.443 46.0031 156.139 46.0288 155.847 45.9658C155.555 45.9027 155.289 45.7539 155.081 45.5381C154.874 45.3223 154.735 45.0494 154.683 44.7542C154.63 44.4589 154.666 44.1546 154.787 43.88C154.907 43.6055 155.106 43.3731 155.358 43.2124C155.61 43.0518 155.904 42.9701 156.202 42.9779C156.597 42.9882 156.971 43.1537 157.245 43.4388C157.519 43.7239 157.671 44.1057 157.667 44.502Z" fill="white"/>
<path d="M3.00797 -41.495C3.00926 -41.1958 2.92215 -40.9031 2.75767 -40.6537C2.5932 -40.4044 2.35876 -40.2097 2.08406 -40.0943C1.80936 -39.9789 1.50676 -39.9481 1.21458 -40.0056C0.922411 -40.0632 0.65382 -40.2066 0.442832 -40.4177C0.231844 -40.6287 0.0879561 -40.8979 0.0293949 -41.1912C-0.0291663 -41.4845 0.000236012 -41.7887 0.113875 -42.0652C0.227514 -42.3417 0.420278 -42.578 0.667746 -42.7444C0.915214 -42.9107 1.20625 -42.9995 1.50399 -42.9995C1.90174 -42.9995 2.2833 -42.8412 2.56517 -42.5592C2.84703 -42.2773 3.00625 -41.8946 3.00797 -41.495Z" fill="white"/>
<path d="M18.3343 -41.495C18.3343 -41.1974 18.2465 -40.9065 18.0819 -40.6591C17.9174 -40.4117 17.6835 -40.2189 17.4099 -40.105C17.1362 -39.9911 16.8352 -39.9613 16.5447 -40.0194C16.2542 -40.0774 15.9874 -40.2207 15.7779 -40.4311C15.5685 -40.6415 15.4259 -40.9096 15.3681 -41.2015C15.3103 -41.4933 15.34 -41.7958 15.4533 -42.0707C15.5667 -42.3456 15.7586 -42.5806 16.0049 -42.7459C16.2511 -42.9113 16.5406 -42.9995 16.8368 -42.9995C17.234 -42.9995 17.6149 -42.841 17.8957 -42.5588C18.1765 -42.2767 18.3343 -41.894 18.3343 -41.495Z" fill="white"/>
<path d="M33.6671 -41.495C33.6683 -41.1942 33.5801 -40.8999 33.4139 -40.6498C33.2476 -40.3996 33.0108 -40.205 32.7338 -40.0909C32.4568 -39.9768 32.1522 -39.9483 31.8591 -40.0091C31.5659 -40.0699 31.2974 -40.2173 31.088 -40.4323C30.8787 -40.6473 30.738 -40.9202 30.6839 -41.216C30.6298 -41.5119 30.6649 -41.8172 30.7845 -42.0929C30.9042 -42.3686 31.103 -42.6022 31.3556 -42.7637C31.6081 -42.9252 31.9029 -43.0073 32.2022 -42.9995C32.5937 -42.9909 32.9663 -42.8287 33.2401 -42.5474C33.5139 -42.2662 33.6672 -41.8884 33.6671 -41.495Z" fill="white"/>
<path d="M3.00797 -29.4982C3.00926 -29.199 2.92215 -28.9062 2.75767 -28.6569C2.5932 -28.4075 2.35876 -28.2128 2.08406 -28.0975C1.80936 -27.9821 1.50676 -27.9512 1.21458 -28.0088C0.922411 -28.0664 0.65382 -28.2098 0.442832 -28.4208C0.231844 -28.6319 0.0879561 -28.9011 0.0293949 -29.1944C-0.0291663 -29.4877 0.000236012 -29.7919 0.113875 -30.0683C0.227514 -30.3448 0.420278 -30.5812 0.667746 -30.7475C0.915214 -30.9139 1.20625 -31.0027 1.50399 -31.0027C1.90174 -31.0027 2.2833 -30.8444 2.56517 -30.5624C2.84703 -30.2804 3.00625 -29.8978 3.00797 -29.4982Z" fill="white"/>
<path d="M18.3343 -29.4982C18.3343 -29.2006 18.2465 -28.9097 18.0819 -28.6623C17.9174 -28.4149 17.6835 -28.222 17.4099 -28.1082C17.1362 -27.9943 16.8352 -27.9645 16.5447 -28.0226C16.2542 -28.0806 15.9874 -28.2239 15.7779 -28.4343C15.5685 -28.6447 15.4259 -28.9128 15.3681 -29.2046C15.3103 -29.4965 15.34 -29.799 15.4533 -30.0739C15.5667 -30.3488 15.7586 -30.5838 16.0049 -30.7491C16.2511 -30.9144 16.5406 -31.0027 16.8368 -31.0027C17.234 -31.0027 17.6149 -30.8442 17.8957 -30.562C18.1765 -30.2799 18.3343 -29.8972 18.3343 -29.4982Z" fill="white"/>
<path d="M33.6671 -29.4982C33.6684 -29.1987 33.5811 -28.9057 33.4164 -28.6562C33.2516 -28.4067 33.0168 -28.212 32.7417 -28.0969C32.4666 -27.9817 32.1637 -27.9512 31.8713 -28.0093C31.579 -28.0674 31.3104 -28.2114 31.0997 -28.4232C30.8889 -28.6349 30.7456 -28.9047 30.6877 -29.1984C30.6299 -29.4922 30.6603 -29.7965 30.7749 -30.0729C30.8895 -30.3493 31.0833 -30.5852 31.3316 -30.7507C31.58 -30.9163 31.8716 -31.004 32.1696 -31.0027C32.5668 -31.0027 32.9477 -30.8442 33.2285 -30.562C33.5093 -30.2799 33.6671 -29.8972 33.6671 -29.4982Z" fill="white"/>
<path d="M3.00797 -17.4882C3.00797 -17.1894 2.91976 -16.8972 2.7545 -16.6488C2.58924 -16.4003 2.35435 -16.2066 2.07954 -16.0922C1.80472 -15.9779 1.50231 -15.9479 1.21057 -16.0062C0.918826 -16.0645 0.650848 -16.2085 0.440512 -16.4198C0.230176 -16.6311 0.0869306 -16.9003 0.028899 -17.1935C-0.0291326 -17.4866 0.000652537 -17.7904 0.114486 -18.0665C0.228319 -18.3426 0.421089 -18.5786 0.668418 -18.7446C0.915747 -18.9107 1.20653 -18.9993 1.50399 -18.9993C1.90287 -18.9993 2.28541 -18.8401 2.56747 -18.5567C2.84952 -18.2733 3.00797 -17.889 3.00797 -17.4882Z" fill="white"/>
<path d="M18.3343 -17.4882C18.333 -17.191 18.2441 -16.9007 18.0788 -16.6542C17.9134 -16.4076 17.6791 -16.2158 17.4054 -16.1029C17.1316 -15.9901 16.8308 -15.9612 16.5407 -16.02C16.2507 -16.0788 15.9844 -16.2226 15.7757 -16.4333C15.5669 -16.6439 15.4249 -16.912 15.3677 -17.2037C15.3104 -17.4953 15.3404 -17.7975 15.454 -18.072C15.5675 -18.3466 15.7594 -18.5812 16.0055 -18.7462C16.2517 -18.9112 16.5409 -18.9993 16.8368 -18.9993C17.034 -18.9993 17.2293 -18.9602 17.4114 -18.8842C17.5935 -18.8081 17.7589 -18.6967 17.898 -18.5563C18.0371 -18.4159 18.1473 -18.2493 18.2222 -18.066C18.297 -17.8827 18.3351 -17.6864 18.3343 -17.4882Z" fill="white"/>
<path d="M33.6671 -17.4882C33.667 -17.1877 33.5777 -16.8941 33.4107 -16.6448C33.2436 -16.3955 33.0064 -16.202 32.7293 -16.0889C32.4522 -15.9757 32.1478 -15.9482 31.8551 -16.0097C31.5623 -16.0713 31.2944 -16.2192 31.0858 -16.4344C30.8771 -16.6497 30.737 -16.9226 30.6834 -17.2183C30.6299 -17.5139 30.6653 -17.8189 30.7852 -18.0942C30.905 -18.3695 31.1038 -18.6027 31.3563 -18.7639C31.6087 -18.9252 31.9032 -19.0071 32.2022 -18.9993C32.5948 -18.9907 32.9684 -18.8275 33.2424 -18.5449C33.5164 -18.2623 33.6689 -17.8828 33.6671 -17.4882Z" fill="white"/>
<path d="M3.00797 -5.49797C3.0054 -5.19968 2.91501 -4.90883 2.7482 -4.66207C2.58138 -4.4153 2.3456 -4.22367 2.07057 -4.1113C1.79554 -3.99894 1.49356 -3.97087 1.20267 -4.03065C0.911792 -4.09042 0.645031 -4.23536 0.435996 -4.44719C0.226961 -4.65903 0.0850056 -4.92828 0.0280216 -5.22104C-0.0289624 -5.51379 0.00156925 -5.81694 0.115775 -6.09229C0.229981 -6.36763 0.422752 -6.60286 0.669791 -6.76832C0.91683 -6.93379 1.20709 -7.02209 1.50399 -7.0221C1.70235 -7.02124 1.8986 -6.98114 2.08153 -6.90408C2.26447 -6.82702 2.43051 -6.71452 2.57017 -6.57299C2.70982 -6.43146 2.82036 -6.26368 2.89548 -6.07922C2.9706 -5.89477 3.00883 -5.69726 3.00797 -5.49797Z" fill="white"/>
<path d="M18.3343 -5.49797C18.3304 -5.20127 18.2393 -4.91234 18.0725 -4.66752C17.9056 -4.4227 17.6704 -4.23292 17.3965 -4.12205C17.1225 -4.01118 16.8221 -3.98417 16.5329 -4.04442C16.2437 -4.10467 15.9787 -4.24949 15.7712 -4.46066C15.5638 -4.67183 15.4231 -4.93992 15.3669 -5.23122C15.3106 -5.52251 15.3414 -5.82401 15.4553 -6.09778C15.5692 -6.37156 15.7611 -6.60537 16.0069 -6.76984C16.2527 -6.93431 16.5415 -7.02207 16.8368 -7.0221C17.0349 -7.02124 17.2308 -6.9811 17.4134 -6.90396C17.596 -6.82682 17.7616 -6.71421 17.9007 -6.57259C18.0398 -6.43097 18.1498 -6.26314 18.2242 -6.07873C18.2986 -5.89431 18.336 -5.69695 18.3343 -5.49797Z" fill="white"/>
<path d="M33.6671 -5.49797C33.6644 -5.19803 33.573 -4.90569 33.4044 -4.65815C33.2357 -4.41062 32.9976 -4.21911 32.7203 -4.108C32.443 -3.99689 32.1391 -3.97121 31.8472 -4.03424C31.5553 -4.09727 31.2887 -4.24614 31.0813 -4.46191C30.8739 -4.67767 30.7351 -4.95057 30.6826 -5.24584C30.6301 -5.54111 30.6663 -5.84541 30.7865 -6.11997C30.9067 -6.39453 31.1055 -6.62693 31.3576 -6.78759C31.6098 -6.94824 31.9037 -7.02988 32.2022 -7.0221C32.5965 -7.01182 32.9711 -6.8463 33.2451 -6.56121C33.5191 -6.27611 33.6707 -5.89427 33.6671 -5.49797Z" fill="white"/>
<path d="M3.00797 8.50502C3.00926 8.80415 2.92215 9.09694 2.75767 9.34629C2.5932 9.59564 2.35876 9.79033 2.08406 9.9057C1.80936 10.0211 1.50676 10.0519 1.21458 9.99437C0.922411 9.93681 0.65382 9.79341 0.442832 9.58235C0.231844 9.37129 0.0879561 9.10206 0.0293949 8.80877C-0.0291663 8.51547 0.000236012 8.21132 0.113875 7.93483C0.227514 7.65834 0.420278 7.42196 0.667746 7.25563C0.915214 7.0893 1.20625 7.00051 1.50399 7.00051C1.90174 7.00051 2.2833 7.15881 2.56517 7.44077C2.84703 7.72273 3.00625 8.1054 3.00797 8.50502Z" fill="white"/>
<path d="M18.3343 8.50502C18.3343 8.80259 18.2465 9.09346 18.0819 9.34088C17.9174 9.58829 17.6835 9.78113 17.4099 9.895C17.1362 10.0089 16.8352 10.0387 16.5447 9.98062C16.2542 9.92257 15.9874 9.77928 15.7779 9.56887C15.5685 9.35846 15.4259 9.09038 15.3681 8.79853C15.3103 8.50669 15.34 8.20418 15.4533 7.92927C15.5667 7.65435 15.7586 7.41938 16.0049 7.25407C16.2511 7.08875 16.5406 7.00051 16.8368 7.00051C17.234 7.00051 17.6149 7.15902 17.8957 7.44117C18.1765 7.72332 18.3343 8.106 18.3343 8.50502Z" fill="white"/>
<path d="M33.6671 8.50502C33.6683 8.80581 33.5801 9.1001 33.4139 9.35023C33.2476 9.60037 33.0108 9.79496 32.7338 9.90909C32.4568 10.0232 32.1522 10.0517 31.8591 9.99089C31.5659 9.93008 31.2974 9.78273 31.088 9.56772C30.8787 9.35271 30.738 9.07981 30.6839 8.78397C30.6298 8.48814 30.6649 8.18282 30.7845 7.9071C30.9042 7.63139 31.103 7.39782 31.3556 7.23631C31.6081 7.0748 31.9029 6.9927 32.2022 7.00051C32.5937 7.00906 32.9663 7.17134 33.2401 7.45257C33.5139 7.7338 33.6672 8.1116 33.6671 8.50502Z" fill="white"/>
<path d="M3.00797 20.5018C3.00926 20.801 2.92215 21.0938 2.75767 21.3431C2.5932 21.5925 2.35876 21.7872 2.08406 21.9025C1.80936 22.0179 1.50676 22.0488 1.21458 21.9912C0.922411 21.9336 0.65382 21.7902 0.442832 21.5792C0.231844 21.3681 0.0879561 21.0989 0.0293949 20.8056C-0.0291663 20.5123 0.000236012 20.2081 0.113875 19.9317C0.227514 19.6552 0.420278 19.4188 0.667746 19.2525C0.915214 19.0861 1.20625 18.9973 1.50399 18.9973C1.90174 18.9973 2.2833 19.1556 2.56517 19.4376C2.84703 19.7196 3.00625 20.1022 3.00797 20.5018Z" fill="white"/>
<path d="M18.3343 20.5018C18.3343 20.7994 18.2465 21.0903 18.0819 21.3377C17.9174 21.5851 17.6835 21.778 17.4099 21.8918C17.1362 22.0057 16.8352 22.0355 16.5447 21.9774C16.2542 21.9194 15.9874 21.7761 15.7779 21.5657C15.5685 21.3553 15.4259 21.0872 15.3681 20.7954C15.3103 20.5035 15.34 20.201 15.4533 19.9261C15.5667 19.6512 15.7586 19.4162 16.0049 19.2509C16.2511 19.0856 16.5406 18.9973 16.8368 18.9973C17.234 18.9973 17.6149 19.1558 17.8957 19.438C18.1765 19.7201 18.3343 20.1028 18.3343 20.5018Z" fill="white"/>
<path d="M33.6671 20.5018C33.6684 20.8013 33.5811 21.0943 33.4164 21.3438C33.2516 21.5933 33.0168 21.788 32.7417 21.9032C32.4666 22.0183 32.1637 22.0488 31.8713 21.9907C31.579 21.9326 31.3104 21.7886 31.0997 21.5768C30.8889 21.3651 30.7456 21.0953 30.6877 20.8016C30.6299 20.5078 30.6603 20.2035 30.7749 19.9271C30.8895 19.6507 31.0833 19.4148 31.3316 19.2493C31.58 19.0837 31.8716 18.996 32.1696 18.9973C32.5668 18.9973 32.9477 19.1558 33.2285 19.438C33.5093 19.7201 33.6671 20.1028 33.6671 20.5018Z" fill="white"/>
<path d="M3.00797 32.5117C3.00797 32.8106 2.91976 33.1028 2.7545 33.3512C2.58924 33.5997 2.35435 33.7934 2.07954 33.9078C1.80472 34.0221 1.50231 34.0521 1.21057 33.9938C0.918826 33.9355 0.650848 33.7915 0.440512 33.5802C0.230176 33.3689 0.0869306 33.0997 0.028899 32.8065C-0.0291326 32.5134 0.000652537 32.2096 0.114486 31.9335C0.228319 31.6574 0.421089 31.4214 0.668418 31.2554C0.915747 31.0893 1.20653 31.0007 1.50399 31.0007C1.90287 31.0007 2.28541 31.1599 2.56747 31.4433C2.84952 31.7267 3.00797 32.111 3.00797 32.5117Z" fill="white"/>
<path d="M18.3343 32.5117C18.333 32.809 18.2441 33.0993 18.0788 33.3458C17.9134 33.5924 17.6791 33.7842 17.4054 33.8971C17.1316 34.0099 16.8308 34.0388 16.5407 33.98C16.2507 33.9212 15.9844 33.7774 15.7757 33.5667C15.5669 33.3561 15.4249 33.088 15.3677 32.7963C15.3104 32.5047 15.3404 32.2025 15.454 31.928C15.5675 31.6534 15.7594 31.4188 16.0055 31.2538C16.2517 31.0888 16.5409 31.0007 16.8368 31.0007C17.034 31.0007 17.2293 31.0398 17.4114 31.1158C17.5935 31.1919 17.7589 31.3033 17.898 31.4437C18.0371 31.5841 18.1473 31.7507 18.2222 31.934C18.297 32.1173 18.3351 32.3136 18.3343 32.5117Z" fill="white"/>
<path d="M33.6671 32.5118C33.667 32.8123 33.5777 33.1059 33.4107 33.3552C33.2436 33.6045 33.0064 33.798 32.7293 33.9111C32.4522 34.0243 32.1478 34.0518 31.8551 33.9903C31.5623 33.9287 31.2944 33.7808 31.0858 33.5656C30.8771 33.3503 30.737 33.0774 30.6834 32.7817C30.6299 32.4861 30.6653 32.1811 30.7852 31.9058C30.905 31.6305 31.1038 31.3973 31.3563 31.2361C31.6087 31.0748 31.9032 30.9929 32.2022 31.0007C32.5948 31.0093 32.9684 31.1725 33.2424 31.4551C33.5164 31.7377 33.6689 32.1172 33.6671 32.5118Z" fill="white"/>
<path d="M3.00797 44.502C3.0054 44.8003 2.91501 45.0912 2.7482 45.3379C2.58138 45.5847 2.3456 45.7763 2.07057 45.8887C1.79554 46.0011 1.49356 46.0291 1.20267 45.9694C0.911792 45.9096 0.645031 45.7646 0.435996 45.5528C0.226961 45.341 0.0850056 45.0717 0.0280216 44.779C-0.0289624 44.4862 0.00156925 44.1831 0.115775 43.9077C0.229981 43.6324 0.422752 43.3971 0.669791 43.2317C0.91683 43.0662 1.20709 42.9779 1.50399 42.9779C1.70235 42.9788 1.8986 43.0189 2.08153 43.0959C2.26447 43.173 2.43051 43.2855 2.57017 43.427C2.70982 43.5686 2.82036 43.7363 2.89548 43.9208C2.9706 44.1052 3.00883 44.3027 3.00797 44.502Z" fill="white"/>
<path d="M18.3343 44.502C18.3304 44.7987 18.2393 45.0877 18.0725 45.3325C17.9056 45.5773 17.6704 45.7671 17.3965 45.878C17.1225 45.9888 16.8221 46.0158 16.5329 45.9556C16.2437 45.8953 15.9787 45.7505 15.7712 45.5393C15.5638 45.3282 15.4231 45.0601 15.3669 44.7688C15.3106 44.4775 15.3414 44.176 15.4553 43.9022C15.5692 43.6284 15.7611 43.3946 16.0069 43.2302C16.2527 43.0657 16.5415 42.9779 16.8368 42.9779C17.0349 42.9788 17.2308 43.0189 17.4134 43.096C17.596 43.1732 17.7616 43.2858 17.9007 43.4274C18.0398 43.569 18.1498 43.7369 18.2242 43.9213C18.2986 44.1057 18.336 44.3031 18.3343 44.502Z" fill="white"/>
<path d="M33.6671 44.502C33.6644 44.802 33.573 45.0943 33.4044 45.3419C33.2357 45.5894 32.9976 45.7809 32.7203 45.892C32.443 46.0031 32.1391 46.0288 31.8472 45.9658C31.5553 45.9027 31.2887 45.7539 31.0813 45.5381C30.8739 45.3223 30.7351 45.0494 30.6826 44.7542C30.6301 44.4589 30.6663 44.1546 30.7865 43.88C30.9067 43.6055 31.1055 43.3731 31.3576 43.2124C31.6098 43.0518 31.9037 42.9701 32.2022 42.9779C32.5965 42.9882 32.9711 43.1537 33.2451 43.4388C33.5191 43.7239 33.6707 44.1057 33.6671 44.502Z" fill="white"/>
</svg>
