<svg width="44" height="49" viewBox="0 0 44 49" fill="none" xmlns="http://www.w3.org/2000/svg">
<path d="M42.3448 47L37.5326 42.1693M37.5326 42.1693C38.9731 40.7225 39.7825 38.7608 39.7829 36.7153C39.7831 34.9302 39.1667 33.2003 38.0387 31.8204C36.9107 30.4405 35.341 29.4959 33.5969 29.1475C31.8529 28.7992 30.0425 29.0688 28.4743 29.9102C26.9061 30.7517 25.677 32.113 24.9965 33.7621C24.3161 35.4113 24.2263 37.2463 24.7426 38.9545C25.2589 40.6626 26.3492 42.1382 27.8278 43.1298C29.3064 44.1214 31.0818 44.5677 32.8514 44.3925C34.621 44.2174 36.2754 43.4316 37.5326 42.1693ZM19.931 47H19.3191C12.0122 47 8.35431 47 5.81707 45.2045C5.09501 44.6962 4.44959 44.0862 3.90069 43.3932C2 40.9947 2 37.5433 2 30.6358V24.9095C2 18.2428 2 14.9082 3.05121 12.2465C4.74121 7.96475 8.31397 4.58975 12.846 2.99225C15.6612 2 19.1869 2 26.2472 2C30.2772 2 32.2945 2 33.9038 2.567C36.4926 3.4805 38.5345 5.40875 39.5005 7.8545C40.1034 9.3755 40.1034 11.2812 40.1034 15.0905V24.5M2 24.5C2 22.5111 2.78707 20.6036 4.18806 19.1972C5.58906 17.7908 7.48921 17.0007 9.47052 17.0007C10.9633 17.0007 12.7228 17.2617 14.1729 16.8725C14.8066 16.7013 15.3843 16.3659 15.8481 15.8999C16.3119 15.4339 16.6455 14.8537 16.8155 14.2175C17.2033 12.7617 16.9433 10.9955 16.9433 9.497C16.9439 7.50846 17.7312 5.60158 19.1321 4.19568C20.5331 2.78979 22.4329 2 24.4138 2" stroke="black" stroke-width="2.32759" stroke-linecap="round" stroke-linejoin="round"/>
</svg>
