<svg width="44" height="38" viewBox="0 0 44 38" fill="none" xmlns="http://www.w3.org/2000/svg">
<path d="M35.75 35.2857H19.25V24.4286H16.5V35.2857H8.25001V24.4286H5.50002V35.2857C5.50002 36.0056 5.78975 36.696 6.30547 37.205C6.8212 37.714 7.52067 38 8.25001 38H35.75C36.4793 38 37.1788 37.714 37.6945 37.205C38.2103 36.696 38.5 36.0056 38.5 35.2857V24.4286H35.75V35.2857Z" fill="#030100"/>
<path d="M43.7112 12.5807L38.1012 1.50643C37.8736 1.05421 37.5226 0.673646 37.0878 0.407522C36.653 0.141398 36.1516 0.000267957 35.64 0H8.36001C7.8484 0.000267957 7.347 0.141398 6.9122 0.407522C6.4774 0.673646 6.12643 1.05421 5.89877 1.50643L0.288771 12.5807C0.0972285 12.96 -0.00166143 13.3783 2.11159e-05 13.8021V17.9821C-0.00123429 18.6163 0.222548 19.231 0.632521 19.7193C1.23843 20.4048 1.98676 20.9536 2.82665 21.3283C3.66655 21.7029 4.57832 21.8948 5.50002 21.8907C7.00395 21.893 8.46201 21.3797 9.62501 20.4386C10.788 21.3803 12.2457 21.8949 13.75 21.8949C15.2543 21.8949 16.712 21.3803 17.875 20.4386C19.038 21.3803 20.4957 21.8949 22 21.8949C23.5043 21.8949 24.962 21.3803 26.125 20.4386C27.288 21.3803 28.7457 21.8949 30.25 21.8949C31.7543 21.8949 33.212 21.3803 34.375 20.4386C35.6732 21.4907 37.3341 22.005 39.0086 21.8734C40.683 21.7418 42.2406 20.9745 43.3537 19.7329C43.7687 19.2464 43.9974 18.6316 44 17.9957V13.8021C44.0017 13.3783 43.9028 12.96 43.7112 12.5807ZM38.5 19.1764C37.9127 19.1751 37.3342 19.0352 36.8128 18.7684C36.2914 18.5016 35.8422 18.1157 35.5025 17.6429L34.375 16.1229L33.2612 17.6429C32.9151 18.1085 32.4628 18.4871 31.9408 18.7481C31.4189 19.0091 30.842 19.1451 30.2569 19.1451C29.6718 19.1451 29.0949 19.0091 28.5729 18.7481C28.051 18.4871 27.5986 18.1085 27.2525 17.6429L26.125 16.1229L25.0112 17.6429C24.6651 18.1085 24.2128 18.4871 23.6908 18.7481C23.1689 19.0091 22.592 19.1451 22.0069 19.1451C21.4218 19.1451 20.8449 19.0091 20.3229 18.7481C19.801 18.4871 19.3486 18.1085 19.0025 17.6429L17.875 16.1229L16.7613 17.6429C16.4151 18.1085 15.9628 18.4871 15.4408 18.7481C14.9189 19.0091 14.342 19.1451 13.7569 19.1451C13.1718 19.1451 12.5949 19.0091 12.0729 18.7481C11.551 18.4871 11.0986 18.1085 10.7525 17.6429L9.62501 16.1229L8.49751 17.6429C8.15785 18.1157 7.70859 18.5016 7.18718 18.7684C6.66577 19.0352 6.08731 19.1751 5.50002 19.1764C4.98183 19.1826 4.4683 19.0793 3.99396 18.8733C3.51962 18.6673 3.09546 18.3634 2.75002 17.9821V13.8021L8.36001 2.71429H35.64L41.25 13.7886V17.9414C40.9066 18.3281 40.4838 18.6382 40.0097 18.8511C39.5355 19.064 39.0209 19.1749 38.5 19.1764Z" fill="#030100"/>
</svg>
