<svg width="48" height="40" viewBox="0 0 48 40" fill="none" xmlns="http://www.w3.org/2000/svg">
<g clip-path="url(#clip0_55_1867)">
<path d="M9.54744 38.3926C10.4116 38.3926 11.1122 37.6896 11.1122 36.8225C11.1122 35.9553 10.4116 35.2523 9.54744 35.2523C8.68324 35.2523 7.98267 35.9553 7.98267 36.8225C7.98267 37.6896 8.68324 38.3926 9.54744 38.3926Z" fill="#030100"/>
<path d="M19.8704 38.3926C20.7346 38.3926 21.4352 37.6896 21.4352 36.8225C21.4352 35.9553 20.7346 35.2523 19.8704 35.2523C19.0062 35.2523 18.3057 35.9553 18.3057 36.8225C18.3057 37.6896 19.0062 38.3926 19.8704 38.3926Z" fill="#030100"/>
<path d="M14.4009 38.3944C15.0261 38.3944 15.533 37.8858 15.533 37.2584C15.533 36.631 15.0261 36.1224 14.4009 36.1224C13.7756 36.1224 13.2688 36.631 13.2688 37.2584C13.2688 37.8858 13.7756 38.3944 14.4009 38.3944Z" fill="#030100"/>
<path d="M5.28759 8.50475C5.28759 9.1321 4.78072 9.64072 4.15551 9.64072C3.53031 9.64072 3.02344 9.1321 3.02344 8.50475C3.02344 7.87739 3.53031 7.36877 4.15551 7.36877C4.78072 7.36877 5.28759 7.87739 5.28759 8.50475Z" fill="#030100"/>
<path d="M44.3415 2.27194C44.9668 2.27194 45.4736 1.76335 45.4736 1.13597C45.4736 0.508592 44.9668 0 44.3415 0C43.7163 0 43.2095 0.508592 43.2095 1.13597C43.2095 1.76335 43.7163 2.27194 44.3415 2.27194Z" fill="#030100"/>
<path d="M25.2253 38.3821C25.8506 38.3821 26.3574 37.8735 26.3574 37.2461C26.3574 36.6187 25.8506 36.1101 25.2253 36.1101C24.6001 36.1101 24.0933 36.6187 24.0933 37.2461C24.0933 37.8735 24.6001 38.3821 25.2253 38.3821Z" fill="#030100"/>
<path d="M30.1527 38.3926C31.0169 38.3926 31.7174 37.6896 31.7174 36.8225C31.7174 35.9553 31.0169 35.2523 30.1527 35.2523C29.2885 35.2523 28.5879 35.9553 28.5879 36.8225C28.5879 37.6896 29.2885 38.3926 30.1527 38.3926Z" fill="#030100"/>
<path d="M30.1722 40H9.56702C7.82034 40 6.40039 38.5751 6.40039 36.8224C6.40039 35.0697 7.82034 33.6449 9.56702 33.6449H30.1722C31.9189 33.6449 33.3388 35.0697 33.3388 36.8224C33.3388 38.5751 31.9189 40 30.1722 40ZM9.56702 34.531C8.30779 34.531 7.28345 35.5589 7.28345 36.8224C7.28345 38.086 8.30779 39.1139 9.56702 39.1139H30.1722C31.4314 39.1139 32.4558 38.086 32.4558 36.8224C32.4558 35.5589 31.4314 34.531 30.1722 34.531H9.56702Z" fill="#030100"/>
<path d="M30.8326 32.8156H8.28642C7.62943 32.8156 7.09253 32.2768 7.09253 31.6176C7.09253 30.9583 7.62943 30.4196 8.28642 30.4196H30.8326C31.4896 30.4196 32.0265 30.9583 32.0265 31.6176C32.0265 32.2768 31.4896 32.8156 30.8326 32.8156Z" fill="#030100"/>
<path d="M8.62214 22.8151H1.04554C0.468103 22.8151 0 23.2848 0 23.8642V28.3957C0 28.9751 0.468103 29.4448 1.04554 29.4448H8.62214C9.19958 29.4448 9.66768 28.9751 9.66768 28.3957V23.8642C9.66768 23.2848 9.19958 22.8151 8.62214 22.8151Z" fill="#030100"/>
<path d="M26.903 16.5221H20.1212C19.4854 16.5221 18.9644 17.0449 18.9644 17.6829V19.2566H21.2232C21.7884 19.2566 22.2493 19.7209 22.2493 20.2862L22.2564 29.4077H30.0396C30.6754 29.4077 31.1964 28.8849 31.1964 28.2469C31.1964 28.2469 28.3336 18.4307 28.0616 17.6846C27.7896 16.9386 27.5406 16.5239 26.9048 16.5239L26.903 16.5221Z" fill="#030100"/>
<path d="M26.5517 17.3107H24.3582V27.7169H29.0843C29.5982 27.7169 30.0185 27.2952 30.0185 26.7795C30.0185 26.7795 27.7067 18.8507 27.4859 18.2482C27.2652 17.6456 27.0656 17.3107 26.5517 17.3107Z" fill="#030100"/>
<path d="M20.1953 20.304H11.7586C11.1197 20.304 10.6018 20.8237 10.6018 21.4647V28.2823C10.6018 28.9234 11.1197 29.4431 11.7586 29.4431H20.1953C20.8342 29.4431 21.3521 28.9234 21.3521 28.2823V21.4647C21.3521 20.8237 20.8342 20.304 20.1953 20.304Z" fill="#030100"/>
<path d="M16.6473 19.7741H12.3928C12.2639 19.7741 12.1402 19.7174 12.0555 19.6181L3.62053 9.65489C3.51809 9.53261 3.48807 9.36603 3.54282 9.21539C3.59757 9.06653 3.72826 8.95665 3.88368 8.93007L7.60664 8.30272C7.75852 8.27613 7.91571 8.33461 8.01637 8.45335L16.9847 19.0439C17.0959 19.1751 17.1207 19.3594 17.0483 19.5171C16.9758 19.6731 16.8204 19.7741 16.6473 19.7741ZM12.5959 18.888H15.6919L7.50597 9.21894L4.79676 9.67616L12.5977 18.888H12.5959Z" fill="#030100"/>
<path d="M30.4265 22.6734C30.3328 22.6734 30.2392 22.6432 30.1598 22.583C29.9655 22.4341 29.9284 22.1559 30.0768 21.9627L43.0047 4.93025L43.123 2.68843L40.6699 3.27148L29.5593 18.4343C29.4145 18.631 29.139 18.6735 28.9412 18.5282C28.7451 18.3829 28.7027 18.1064 28.8475 17.908L40.0553 2.61755C40.1171 2.53248 40.2072 2.474 40.3096 2.44919L43.4939 1.69247C43.6299 1.66057 43.7712 1.69247 43.8789 1.78285C43.9849 1.87146 44.0449 2.00792 44.0361 2.14615L43.8789 5.11456C43.8736 5.20317 43.8436 5.28823 43.7888 5.35912L30.7761 22.4997C30.6896 22.6149 30.5571 22.6734 30.4247 22.6734H30.4265Z" fill="#030100"/>
<path d="M5.46416 23.8642H4.05481C3.81109 23.8642 3.61328 23.6657 3.61328 23.4212V9.40317C3.61328 9.21355 3.73338 9.04696 3.90999 8.98493C4.0866 8.92291 4.2844 8.98139 4.40097 9.13025L5.81032 10.9272C5.87214 11.0052 5.90569 11.1009 5.90569 11.2019V23.4212C5.90569 23.6657 5.70789 23.8642 5.46416 23.8642ZM4.49634 22.9781H5.02264V11.3543L4.49634 10.6827V22.9763V22.9781Z" fill="#030100"/>
<path d="M44.8484 19.354H43.4391C43.1954 19.354 42.9976 19.1556 42.9976 18.911V2.27195C42.9976 2.13727 43.0594 2.00967 43.1636 1.9246L44.5729 0.801038C44.7054 0.694707 44.8873 0.675213 45.0392 0.749645C45.1911 0.824077 45.2882 0.978257 45.2882 1.14839V18.911C45.2882 19.1556 45.0904 19.354 44.8467 19.354H44.8484ZM43.8806 18.468H44.4069V2.06638L43.8806 2.48639V18.468Z" fill="#030100"/>
<path d="M4.18729 9.81964C3.98066 9.81964 3.79522 9.67255 3.7546 9.45988L3.48615 8.07226C3.46319 7.9553 3.48792 7.83479 3.55503 7.73732C3.62214 7.63985 3.72457 7.57251 3.84114 7.55124L44.6365 0.209075C44.8166 0.175404 45.0003 0.260469 45.0939 0.419965C45.1875 0.579462 45.1734 0.779719 45.0586 0.923266L43.7905 2.50228C43.7234 2.58558 43.6298 2.64051 43.5256 2.66001L4.26677 9.81255C4.24028 9.81787 4.21379 9.81964 4.18729 9.81964ZM4.43808 8.34518L4.53875 8.86266L43.2059 1.81822L43.6298 1.29011L4.43985 8.34518H4.43808Z" fill="#030100"/>
<path d="M12.1244 19.3293H12.1208C11.8771 19.3275 11.6811 19.1273 11.6828 18.8827L11.7182 14.4522L7.65258 14.2077C7.41946 14.1935 7.23755 14.0003 7.23755 13.7646V8.7387C7.23755 8.49414 7.43535 8.29565 7.67908 8.29565C7.9228 8.29565 8.1206 8.49414 8.1206 8.7387V13.3464L12.1897 13.5909C12.4246 13.6051 12.6065 13.8018 12.6048 14.0375L12.5659 18.888C12.5641 19.1308 12.3663 19.3275 12.1244 19.3275V19.3293Z" fill="#030100"/>
<path d="M29.2678 18.6487C29.0735 18.6487 28.8951 18.5176 28.8421 18.3209C28.7786 18.0852 28.9199 17.8424 29.1547 17.7786L34.0292 16.4707L33.0437 12.5205C32.9854 12.2884 33.1214 12.0527 33.351 11.9871L38.2555 10.5888L37.4131 6.47028C37.3654 6.23458 37.5137 6.0042 37.7469 5.94926L43.3401 4.65911C43.5786 4.60417 43.8152 4.75303 43.87 4.99228C43.9247 5.23152 43.7764 5.469 43.5379 5.52393L38.365 6.71661L39.2039 10.8139C39.2498 11.0407 39.1138 11.2658 38.8913 11.3296L34.0045 12.7226L34.9917 16.6781C35.05 16.912 34.9105 17.1512 34.6774 17.2133L29.3826 18.6346C29.3437 18.6452 29.3066 18.6505 29.2678 18.6505V18.6487Z" fill="#030100"/>
<path d="M44.3398 27.7666C43.4391 27.7666 42.5278 27.2545 42.2947 26.2231C42.0032 24.9311 42.9817 24.045 43.7199 23.6516V22.7425C43.7199 22.4979 43.9177 22.2994 44.1614 22.2994C44.4052 22.2994 44.603 22.4979 44.603 22.7425V23.9334C44.603 24.1142 44.4935 24.2772 44.3257 24.3445C44.2692 24.3676 42.911 24.9364 43.1565 26.0281C43.3367 26.8256 44.1703 26.9532 44.6542 26.8451C44.852 26.8008 45.486 26.6058 45.3412 25.9377C45.29 25.6985 45.4401 25.4628 45.6785 25.4114C45.9169 25.36 46.1518 25.5106 46.203 25.7499C46.4044 26.6821 45.8463 27.4884 44.8449 27.7099C44.6807 27.7471 44.5094 27.7649 44.3398 27.7649V27.7666Z" fill="#030100"/>
<path d="M45.804 22.7442H42.5561L41.0637 18.5778L41.885 16.5629H46.4751L47.2221 18.654L45.804 22.7442Z" fill="#030100"/>
<path d="M42.8616 19.0174C43.1172 19.0174 43.3244 18.8095 43.3244 18.5531C43.3244 18.2966 43.1172 18.0887 42.8616 18.0887C42.6061 18.0887 42.3989 18.2966 42.3989 18.5531C42.3989 18.8095 42.6061 19.0174 42.8616 19.0174Z" fill="#030100"/>
<path d="M45.4879 19.0174C45.7434 19.0174 45.9506 18.8095 45.9506 18.5531C45.9506 18.2966 45.7434 18.0887 45.4879 18.0887C45.2323 18.0887 45.0251 18.2966 45.0251 18.5531C45.0251 18.8095 45.2323 19.0174 45.4879 19.0174Z" fill="#030100"/>
<path d="M12.527 23.6019C12.2833 23.6019 12.0854 23.8004 12.0854 24.045V27.8587C12.0854 28.1033 12.2833 28.3018 12.527 28.3018C12.7707 28.3018 12.9685 28.1033 12.9685 27.8587V24.045C12.9685 23.8004 12.7707 23.6019 12.527 23.6019Z" fill="#030100"/>
<path d="M14.4926 23.6019C14.2488 23.6019 14.051 23.8004 14.051 24.045V27.8587C14.051 28.1033 14.2488 28.3018 14.4926 28.3018C14.7363 28.3018 14.9341 28.1033 14.9341 27.8587V24.045C14.9341 23.8004 14.7363 23.6019 14.4926 23.6019Z" fill="#030100"/>
<path d="M16.4567 23.6019C16.2129 23.6019 16.0151 23.8004 16.0151 24.045V27.8587C16.0151 28.1033 16.2129 28.3018 16.4567 28.3018C16.7004 28.3018 16.8982 28.1033 16.8982 27.8587V24.045C16.8982 23.8004 16.7004 23.6019 16.4567 23.6019Z" fill="#030100"/>
</g>
<defs>
<clipPath id="clip0_55_1867">
<rect width="47.2222" height="40" fill="white"/>
</clipPath>
</defs>
</svg>
