<svg width="159" height="115" fill="none" xmlns="http://www.w3.org/2000/svg"><path d="M159 71.875C159 95.702 139.941 115 116.411 115h-2.84c-6.281 0-11.357-5.139-11.357-11.5 0-6.36 5.076-11.5 11.357-11.5h2.84c10.966 0 19.875-9.02 19.875-20.125V69h-22.715c-12.528 0-22.714-10.314-22.714-23V23c0-12.686 10.186-23 22.714-23h22.715C148.814 0 159 10.314 159 23v48.875zm-90.857 0c0 23.827-19.059 43.125-42.59 43.125h-2.839c-6.282 0-11.357-5.139-11.357-11.5 0-6.36 5.075-11.5 11.357-11.5h2.84c10.966 0 19.875-9.02 19.875-20.125V69H22.714C10.186 69 0 58.686 0 46V23C0 10.314 10.186 0 22.714 0H45.43c12.528 0 22.714 10.314 22.714 23v48.875z" fill="#F7F6F6"/></svg>