<svg width="207" height="51" fill="none" xmlns="http://www.w3.org/2000/svg"><path d="M63.218 24.308c-1.613 0-3.065-.337-4.356-1.012a7.748 7.748 0 01-3.014-2.86c-.733-1.217-1.1-2.596-1.1-4.136s.367-2.919 1.1-4.136a7.591 7.591 0 013.014-2.838c1.29-.69 2.743-1.034 4.356-1.034 1.408 0 2.677.25 3.806.748a7.323 7.323 0 012.816 2.156l-2.772 2.508c-.997-1.203-2.207-1.804-3.63-1.804-.836 0-1.584.183-2.244.55a3.893 3.893 0 00-1.518 1.562c-.352.66-.528 1.423-.528 2.288 0 .865.176 1.635.528 2.31a3.93 3.93 0 001.518 1.54c.66.367 1.408.55 2.244.55 1.423 0 2.633-.601 3.63-1.804l2.772 2.508a7.323 7.323 0 01-2.816 2.156c-1.13.499-2.398.748-3.806.748zm13.008-.11c-1.466 0-2.61-.374-3.432-1.122-.806-.763-1.21-1.848-1.21-3.256V7.676h4.18V19.6c0 .44.11.777.33 1.012.235.235.558.352.968.352.338 0 .653-.073.946-.22l.176 3.146a6.286 6.286 0 01-1.958.308zm9.623-3.19c.572 0 1.063-.08 1.474-.242.425-.161.85-.425 1.276-.792l2.178 2.288c-1.13 1.29-2.816 1.936-5.06 1.936-1.393 0-2.618-.264-3.674-.792s-1.877-1.261-2.464-2.2c-.572-.939-.858-2.002-.858-3.19 0-1.173.286-2.222.858-3.146a5.97 5.97 0 012.354-2.2c1.012-.528 2.141-.792 3.388-.792 1.159 0 2.215.242 3.168.726a5.479 5.479 0 012.31 2.09c.572.91.858 1.995.858 3.256l-8.514 1.628c.455.953 1.357 1.43 2.706 1.43zm-.506-6.16c-.719 0-1.305.227-1.76.682-.455.44-.711 1.078-.77 1.914l4.84-.946a2.168 2.168 0 00-.836-1.188c-.41-.308-.902-.462-1.474-.462zm20.847-2.772v16.192h-4.18v-5.324c-.806.836-1.914 1.254-3.322 1.254-1.085 0-2.075-.25-2.97-.748a5.735 5.735 0 01-2.112-2.156c-.513-.939-.77-2.024-.77-3.256 0-1.232.257-2.31.77-3.234.528-.939 1.232-1.657 2.112-2.156.895-.513 1.885-.77 2.97-.77 1.57 0 2.743.462 3.52 1.386v-1.188h3.982zm-6.622 8.8c.734 0 1.335-.25 1.804-.748.47-.513.704-1.21.704-2.09 0-.88-.234-1.57-.704-2.068-.469-.513-1.07-.77-1.804-.77-.733 0-1.334.257-1.804.77-.47.499-.704 1.188-.704 2.068 0 .88.235 1.577.704 2.09.47.499 1.07.748 1.804.748zm21.853-8.8V24h-3.982v-1.276c-.44.484-.968.85-1.584 1.1a5.17 5.17 0 01-1.958.374c-1.54 0-2.772-.455-3.696-1.364-.909-.91-1.364-2.273-1.364-4.092v-6.666h4.18v5.984c0 .895.169 1.547.506 1.958.337.41.829.616 1.474.616.66 0 1.195-.227 1.606-.682.425-.47.638-1.18.638-2.134v-5.742h4.18zm2.692 0h4.18V24h-4.18V12.076zm2.09-1.32c-.762 0-1.378-.213-1.848-.638a2.052 2.052 0 01-.704-1.584c0-.63.235-1.159.704-1.584.47-.425 1.086-.638 1.848-.638.763 0 1.379.205 1.848.616.47.396.704.91.704 1.54 0 .66-.234 1.21-.704 1.65-.469.425-1.085.638-1.848.638zm12.309 1.122c1.085 0 2.068.257 2.948.77.895.499 1.599 1.217 2.112 2.156.528.924.792 2.002.792 3.234 0 1.232-.264 2.317-.792 3.256a5.524 5.524 0 01-2.112 2.156c-.88.499-1.863.748-2.948.748-1.393 0-2.501-.418-3.322-1.254v5.324h-4.18V12.076h3.982v1.188c.777-.924 1.951-1.386 3.52-1.386zm-.88 8.998c.733 0 1.335-.25 1.804-.748.469-.513.704-1.21.704-2.09 0-.88-.235-1.57-.704-2.068-.469-.513-1.071-.77-1.804-.77-.733 0-1.335.257-1.804.77-.469.499-.704 1.188-.704 2.068 0 .88.235 1.577.704 2.09.469.499 1.071.748 1.804.748zm24.207-8.998c1.467 0 2.633.44 3.498 1.32.88.88 1.32 2.207 1.32 3.982V24h-4.18v-6.138c0-.836-.161-1.452-.484-1.848-.308-.396-.748-.594-1.32-.594-.631 0-1.137.22-1.518.66-.381.44-.572 1.107-.572 2.002V24h-4.18v-6.138c0-1.628-.601-2.442-1.804-2.442-.645 0-1.159.22-1.54.66-.381.44-.572 1.107-.572 2.002V24h-4.18V12.076h3.982v1.254c.44-.484.961-.843 1.562-1.078a5.285 5.285 0 012.002-.374c.836 0 1.584.154 2.244.462.66.308 1.195.777 1.606 1.408a4.62 4.62 0 011.782-1.386 5.68 5.68 0 012.354-.484zm14.008 9.13c.572 0 1.063-.08 1.474-.242.425-.161.851-.425 1.276-.792l2.178 2.288c-1.129 1.29-2.816 1.936-5.06 1.936-1.393 0-2.618-.264-3.674-.792s-1.877-1.261-2.464-2.2c-.572-.939-.858-2.002-.858-3.19 0-1.173.286-2.222.858-3.146a5.973 5.973 0 012.354-2.2c1.012-.528 2.141-.792 3.388-.792 1.159 0 2.215.242 3.168.726a5.479 5.479 0 012.31 2.09c.572.91.858 1.995.858 3.256l-8.514 1.628c.455.953 1.357 1.43 2.706 1.43zm-.506-6.16c-.719 0-1.305.227-1.76.682-.455.44-.711 1.078-.77 1.914l4.84-.946a2.168 2.168 0 00-.836-1.188c-.411-.308-.902-.462-1.474-.462zm16.007-2.97c1.482 0 2.67.44 3.564 1.32.91.88 1.364 2.207 1.364 3.982V24h-4.18v-6.138c0-1.628-.652-2.442-1.958-2.442-.718 0-1.298.235-1.738.704-.425.47-.638 1.173-.638 2.112V24h-4.18V12.076h3.982v1.298a4.623 4.623 0 011.672-1.1 5.53 5.53 0 012.112-.396zm15.231 11.638c-.352.22-.785.389-1.298.506a7.003 7.003 0 01-1.606.176c-1.555 0-2.75-.381-3.586-1.144-.822-.763-1.232-1.9-1.232-3.41V9.414h4.18v3.102h2.706v3.124h-2.706v3.96c0 .44.11.777.33 1.012.22.235.52.352.902.352.484 0 .909-.125 1.276-.374l1.034 2.926z" fill="#fff"/><path d="M62.624 41l-1.716-2.46c-.072.008-.18.012-.324.012h-1.896V41h-1.56v-8.4h3.456c.728 0 1.36.12 1.896.36.544.24.96.584 1.248 1.032.288.448.432.98.432 1.596 0 .632-.156 1.176-.468 1.632-.304.456-.744.796-1.32 1.02L64.304 41h-1.68zm-.036-5.412c0-.536-.176-.948-.528-1.236-.352-.288-.868-.432-1.548-.432h-1.824v3.348h1.824c.68 0 1.196-.144 1.548-.432.352-.296.528-.712.528-1.248zm6.221 4.224c.696 0 1.276-.232 1.74-.696l.792.924c-.28.344-.64.604-1.08.78-.44.176-.936.264-1.488.264-.704 0-1.324-.14-1.86-.42a3.078 3.078 0 01-1.248-1.164 3.373 3.373 0 01-.432-1.704c0-.624.14-1.184.42-1.68.288-.504.68-.896 1.176-1.176a3.449 3.449 0 011.704-.42c.6 0 1.144.132 1.632.396.496.256.888.628 1.176 1.116.288.48.432 1.044.432 1.692l-4.908.96c.152.368.396.648.732.84.336.192.74.288 1.212.288zm-.276-4.092c-.552 0-1 .18-1.344.54-.336.36-.504.844-.504 1.452v.012l3.624-.696a1.695 1.695 0 00-.636-.948c-.312-.24-.692-.36-1.14-.36zm8.317-1.2c.809 0 1.457.236 1.945.708.487.472.731 1.172.731 2.1V41h-1.5v-3.48c0-.56-.132-.98-.395-1.26-.264-.288-.64-.432-1.129-.432-.551 0-.987.168-1.307.504-.32.328-.48.804-.48 1.428V41h-1.5v-6.408h1.427v.828c.249-.296.56-.52.937-.672.376-.152.8-.228 1.272-.228zm8.18 6.132a1.762 1.762 0 01-.649.324 2.828 2.828 0 01-.792.108c-.704 0-1.248-.184-1.632-.552-.384-.368-.576-.904-.576-1.608v-5.748h1.5v1.464h1.716v1.2h-1.716v3.048c0 .312.076.552.228.72.16.16.38.24.66.24.336 0 .616-.088.84-.264l.42 1.068zm7.292-6.06V41h-1.428v-.828a2.312 2.312 0 01-.924.684c-.36.152-.76.228-1.2.228a3.436 3.436 0 01-1.68-.408 2.954 2.954 0 01-1.152-1.152c-.272-.496-.408-1.072-.408-1.728 0-.656.136-1.228.408-1.716.28-.496.664-.88 1.152-1.152a3.436 3.436 0 011.68-.408c.416 0 .796.072 1.14.216.352.144.656.356.912.636v-.78h1.5zM88.938 39.8c.552 0 1.008-.184 1.368-.552.36-.368.54-.852.54-1.452s-.18-1.084-.54-1.452c-.36-.368-.816-.552-1.368-.552-.552 0-1.008.184-1.368.552-.352.368-.528.852-.528 1.452s.176 1.084.528 1.452c.36.368.816.552 1.368.552zm7.459 1.284c-.664 0-1.184-.18-1.56-.54-.368-.368-.552-.884-.552-1.548v-6.9h1.5v6.792c0 .64.3.96.9.96.2 0 .38-.04.54-.12l.072 1.2c-.28.104-.58.156-.9.156zm9.267.036c-.848 0-1.616-.184-2.304-.552a4.212 4.212 0 01-1.608-1.548c-.384-.656-.576-1.396-.576-2.22 0-.824.196-1.564.588-2.22a4.124 4.124 0 011.608-1.536c.688-.376 1.456-.564 2.304-.564.688 0 1.316.12 1.884.36.568.24 1.048.588 1.44 1.044l-1.008.948c-.608-.656-1.356-.984-2.244-.984-.576 0-1.092.128-1.548.384a2.682 2.682 0 00-1.068 1.044 3.017 3.017 0 00-.384 1.524c0 .568.128 1.076.384 1.524.256.448.612.8 1.068 1.056.456.248.972.372 1.548.372.888 0 1.636-.332 2.244-.996l1.008.96a3.823 3.823 0 01-1.452 1.044c-.568.24-1.196.36-1.884.36zm6.799-.036c-.664 0-1.184-.18-1.56-.54-.368-.368-.552-.884-.552-1.548v-6.9h1.5v6.792c0 .64.3.96.9.96.2 0 .38-.04.54-.12l.072 1.2c-.28.104-.58.156-.9.156zm8.066-6.492V41h-1.428v-.828a2.312 2.312 0 01-.924.684c-.36.152-.76.228-1.2.228a3.436 3.436 0 01-1.68-.408 2.954 2.954 0 01-1.152-1.152c-.272-.496-.408-1.072-.408-1.728 0-.656.136-1.228.408-1.716.28-.496.664-.88 1.152-1.152a3.436 3.436 0 011.68-.408c.416 0 .796.072 1.14.216.352.144.656.356.912.636v-.78h1.5zm-3.384 5.208c.552 0 1.008-.184 1.368-.552.36-.368.54-.852.54-1.452s-.18-1.084-.54-1.452c-.36-.368-.816-.552-1.368-.552-.552 0-1.008.184-1.368.552-.352.368-.528.852-.528 1.452s.176 1.084.528 1.452c.36.368.816.552 1.368.552zm7.327 1.284c-.52 0-1.028-.068-1.524-.204-.496-.136-.892-.308-1.188-.516l.576-1.14a3.84 3.84 0 001.032.468c.408.112.808.168 1.2.168.896 0 1.344-.236 1.344-.708 0-.224-.116-.38-.348-.468-.224-.088-.588-.172-1.092-.252a9.135 9.135 0 01-1.296-.276 2.052 2.052 0 01-.864-.54c-.24-.264-.36-.628-.36-1.092 0-.608.252-1.092.756-1.452.512-.368 1.2-.552 2.064-.552.44 0 .88.052 1.32.156.44.096.8.228 1.08.396l-.576 1.14a3.553 3.553 0 00-1.836-.48c-.44 0-.776.068-1.008.204-.224.128-.336.3-.336.516 0 .24.12.412.36.516.248.096.628.188 1.14.276.512.08.932.172 1.26.276.328.104.608.28.84.528.24.248.36.6.36 1.056 0 .6-.26 1.08-.78 1.44-.52.36-1.228.54-2.124.54zm6.176 0c-.52 0-1.028-.068-1.524-.204-.496-.136-.892-.308-1.188-.516l.576-1.14a3.84 3.84 0 001.032.468c.408.112.808.168 1.2.168.896 0 1.344-.236 1.344-.708 0-.224-.116-.38-.348-.468-.224-.088-.588-.172-1.092-.252a9.135 9.135 0 01-1.296-.276 2.052 2.052 0 01-.864-.54c-.24-.264-.36-.628-.36-1.092 0-.608.252-1.092.756-1.452.512-.368 1.2-.552 2.064-.552.44 0 .88.052 1.32.156.44.096.8.228 1.08.396l-.576 1.14a3.553 3.553 0 00-1.836-.48c-.44 0-.776.068-1.008.204-.224.128-.336.3-.336.516 0 .24.12.412.36.516.248.096.628.188 1.14.276.512.08.932.172 1.26.276.328.104.608.28.84.528.24.248.36.6.36 1.056 0 .6-.26 1.08-.78 1.44-.52.36-1.228.54-2.124.54zm4.195-6.492h1.5V41h-1.5v-6.408zm.756-1.056a.977.977 0 01-.684-.252.862.862 0 01-.276-.648c0-.256.092-.468.276-.636a.951.951 0 01.684-.264c.272 0 .5.084.684.252.184.16.276.364.276.612a.925.925 0 01-.96.936zm5.125-.312c-.632 0-.948.344-.948 1.032v.384h1.764v1.2h-1.728V41h-1.5v-6.768c0-.68.2-1.22.6-1.62.4-.4.968-.6 1.704-.6.568 0 1.016.116 1.344.348l-.42 1.128a1.345 1.345 0 00-.816-.264zm2.784 1.368h1.5V41h-1.5v-6.408zm.756-1.056a.977.977 0 01-.684-.252.862.862 0 01-.276-.648c0-.256.092-.468.276-.636a.951.951 0 01.684-.264c.272 0 .5.084.684.252.184.16.276.364.276.612a.925.925 0 01-.96.936zm5.756 6.276c.696 0 1.276-.232 1.74-.696l.792.924c-.28.344-.64.604-1.08.78-.44.176-.936.264-1.488.264-.704 0-1.324-.14-1.86-.42a3.078 3.078 0 01-1.248-1.164 3.373 3.373 0 01-.432-1.704c0-.624.14-1.184.42-1.68.288-.504.68-.896 1.176-1.176a3.449 3.449 0 011.704-.42c.6 0 1.144.132 1.632.396.496.256.888.628 1.176 1.116.288.48.432 1.044.432 1.692l-4.908.96c.152.368.396.648.732.84.336.192.74.288 1.212.288zm-.276-4.092c-.552 0-1 .18-1.344.54-.336.36-.504.844-.504 1.452v.012l3.624-.696a1.695 1.695 0 00-.636-.948c-.312-.24-.692-.36-1.14-.36zm10.957-3.624V41h-1.44v-.828a2.312 2.312 0 01-.924.684c-.36.152-.76.228-1.2.228a3.411 3.411 0 01-1.668-.408 2.954 2.954 0 01-1.152-1.152c-.28-.504-.42-1.08-.42-1.728 0-.648.14-1.22.42-1.716.28-.496.664-.88 1.152-1.152a3.411 3.411 0 011.668-.408c.424 0 .812.072 1.164.216.352.144.652.36.9.648v-3.288h1.5zm-3.384 7.704c.36 0 .684-.08.972-.24a1.82 1.82 0 00.684-.708c.168-.304.252-.656.252-1.056s-.084-.752-.252-1.056a1.736 1.736 0 00-.684-.696 1.893 1.893 0 00-.972-.252c-.36 0-.684.084-.972.252-.288.16-.516.392-.684.696a2.148 2.148 0 00-.252 1.056c0 .4.084.752.252 1.056.168.304.396.54.684.708.288.16.612.24.972.24zm8.807-7.2h1.56v7.08h4.392V41h-5.952v-8.4zm7.04 1.992h1.5V41h-1.5v-6.408zm.756-1.056a.977.977 0 01-.684-.252.862.862 0 01-.276-.648c0-.256.092-.468.276-.636a.951.951 0 01.684-.264c.272 0 .5.084.684.252.184.16.276.364.276.612a.925.925 0 01-.96.936zm4.692 7.548c-.52 0-1.028-.068-1.524-.204-.496-.136-.892-.308-1.188-.516l.576-1.14a3.84 3.84 0 001.032.468c.408.112.808.168 1.2.168.896 0 1.344-.236 1.344-.708 0-.224-.116-.38-.348-.468-.224-.088-.588-.172-1.092-.252a9.135 9.135 0 01-1.296-.276 2.052 2.052 0 01-.864-.54c-.24-.264-.36-.628-.36-1.092 0-.608.252-1.092.756-1.452.512-.368 1.2-.552 2.064-.552.44 0 .88.052 1.32.156.44.096.8.228 1.08.396l-.576 1.14a3.553 3.553 0 00-1.836-.48c-.44 0-.776.068-1.008.204-.224.128-.336.3-.336.516 0 .24.12.412.36.516.248.096.628.188 1.14.276.512.08.932.172 1.26.276.328.104.608.28.84.528.24.248.36.6.36 1.056 0 .6-.26 1.08-.78 1.44-.52.36-1.228.54-2.124.54zm7.796-.432a1.762 1.762 0 01-.648.324 2.828 2.828 0 01-.792.108c-.704 0-1.248-.184-1.632-.552-.384-.368-.576-.904-.576-1.608v-5.748h1.5v1.464h1.716v1.2h-1.716v3.048c0 .312.076.552.228.72.16.16.38.24.66.24.336 0 .616-.088.84-.264l.42 1.068zm1.24-6.06h1.5V41h-1.5v-6.408zm.756-1.056a.977.977 0 01-.684-.252.862.862 0 01-.276-.648c0-.256.092-.468.276-.636a.951.951 0 01.684-.264c.272 0 .5.084.684.252.184.16.276.364.276.612a.925.925 0 01-.96.936zm6.349.984c.808 0 1.456.236 1.944.708s.732 1.172.732 2.1V41h-1.5v-3.48c0-.56-.132-.98-.396-1.26-.264-.288-.64-.432-1.128-.432-.552 0-.988.168-1.308.504-.32.328-.48.804-.48 1.428V41h-1.5v-6.408h1.428v.828c.248-.296.56-.52.936-.672.376-.152.8-.228 1.272-.228zm10.997.072v5.436c0 2.256-1.152 3.384-3.456 3.384-.616 0-1.2-.08-1.752-.24-.552-.152-1.008-.376-1.368-.672l.672-1.128c.28.232.632.416 1.056.552.432.144.868.216 1.308.216.704 0 1.22-.16 1.548-.48.328-.32.492-.808.492-1.464v-.336c-.256.28-.568.492-.936.636a3.299 3.299 0 01-1.212.216c-.608 0-1.16-.128-1.656-.384a3.027 3.027 0 01-1.164-1.104c-.28-.472-.42-1.012-.42-1.62 0-.608.14-1.144.42-1.608a2.94 2.94 0 011.164-1.092 3.557 3.557 0 011.656-.384c.464 0 .884.076 1.26.228.384.152.704.384.96.696v-.852h1.428zm-3.42 4.848c.568 0 1.032-.168 1.392-.504.368-.344.552-.788.552-1.332 0-.536-.184-.972-.552-1.308-.36-.336-.824-.504-1.392-.504-.576 0-1.048.168-1.416.504-.36.336-.54.772-.54 1.308 0 .544.18.988.54 1.332.368.336.84.504 1.416.504z" fill="#7F7F7F"/><circle cx="24.5" cy="25.5" r="15.5" fill="#FFC100"/><mask id="mask0_5_161" style="mask-type:alpha" maskUnits="userSpaceOnUse" x="9" y="10" width="31" height="31"><circle cx="24.5" cy="25.5" r="15.5" fill="#000"/></mask><g mask="url(#mask0_5_161)"><path d="M15.184 25.225l.141-.608 4.764-2.715-.542-.98-4.9 2.164a.952.952 0 11-1.168 1.502l-.283 1.372 1.986-.735h.002zm10.565-3.418l-13.503 4.995L9.712 39h5.12l1.906-9.15a1.95 1.95 0 111.174-2.273l9.344-4.958-1.507-.812z" fill="#fff"/><path d="M16.016 26.566a1.471 1.471 0 100 2.942 1.471 1.471 0 000-2.942zm0 2.226a.756.756 0 01-.755-.755c0-.416.34-.755.755-.755.416 0 .755.34.755.755a.756.756 0 01-.755.755zm-1.946-5.611a.66.66 0 100 1.32.66.66 0 000-1.32zm0 1a.339.339 0 110-.678.339.339 0 010 .677zm17.157 5.074c-.427 0-.791-.255-.956-.62l-.49 1.087-3.696-.023-1.771-1.63h-.627l2.822 5.271h3.233l1.798-4.132c-.1.031-.206.05-.313.05v-.003zm0-1.625a.66.66 0 100 1.319.66.66 0 000-1.32zm0 .998a.339.339 0 11-.001-.677.339.339 0 010 .677zm-.457-6.104a.66.66 0 10-.001 1.32.66.66 0 000-1.32zm0 .999a.339.339 0 11-.001-.678.339.339 0 010 .678z" fill="#fff"/><path d="M31.776 23.757a1.163 1.163 0 01-1.456.498l.606 2.95a1.06 1.06 0 01.53-.018 1.045 1.045 0 01-.11 2.057l.058.275a.765.765 0 001.497-.318l-1.128-5.444h.003zm-7.039-5.324a.51.51 0 100 1.022.51.51 0 000-1.022z" fill="#fff"/><path d="M26.679 17.981c-1.708-1.636-4.51-1.163-5.586.943l8.567 4.61a1.16 1.16 0 011.243-1.502l-4.224-4.05zm-1.944 1.957a.993.993 0 11-.002-1.986.993.993 0 01.002 1.986zm-2.517-.028l-2.14 1.006.301.547 2.342-1.281-.503-.272z" fill="#fff"/><path d="M25.929 18.395l1.684-.58 4.71 4.467 1.148 5.216-1.004 1.448" stroke="#fff" stroke-width=".467" stroke-miterlimit="10"/><path d="M25.808 18.436l1.805-.622 4.71 4.468.598 2.718" stroke="#fff" stroke-width=".934" stroke-miterlimit="10"/></g><path fill-rule="evenodd" clip-rule="evenodd" d="M46.076 22.462l1.994.335c.536.091.93.556.93 1.1v3.2c0 .547-.394 1.008-.93 1.1l-2.017.338c-.455.075-.82.423-.907.875a21.114 21.114 0 01-.817 3.005 1.11 1.11 0 00.345 1.22l1.587 1.308c.42.348.53.946.257 1.418l-1.6 2.771c-.273.472-.846.68-1.357.488l-1.948-.728a1.104 1.104 0 00-1.223.305 21.289 21.289 0 01-2.19 2.183 1.105 1.105 0 00-.308 1.226l.732 1.955a1.119 1.119 0 01-.488 1.357l-2.772 1.6a1.115 1.115 0 01-1.418-.257l-1.33-1.617a1.111 1.111 0 00-1.217-.344 21.09 21.09 0 01-2.976.797 1.108 1.108 0 00-.878.907L27.2 49.07c-.091.536-.556.93-1.1.93h-3.2a1.114 1.114 0 01-1.1-.93l-.345-2.066a1.1 1.1 0 00-.878-.907 20.666 20.666 0 01-2.976-.797 1.103 1.103 0 00-1.217.345l-1.33 1.616c-.348.42-.947.53-1.418.257l-2.772-1.6a1.115 1.115 0 01-.488-1.357l.732-1.955a1.105 1.105 0 00-.309-1.226 21.325 21.325 0 01-2.189-2.183 1.104 1.104 0 00-1.223-.305l-1.948.728a1.119 1.119 0 01-1.357-.488l-1.6-2.77a1.115 1.115 0 01.257-1.42l1.587-1.307a1.11 1.11 0 00.345-1.22 20.98 20.98 0 01-.816-3.005 1.104 1.104 0 00-.908-.875L.93 28.197a1.117 1.117 0 01-.93-1.1v-3.2c0-.547.394-1.009.93-1.1l1.994-.335c.456-.075.823-.426.908-.882.195-1.04.465-2.052.806-3.034.15-.436.01-.921-.348-1.214l-1.554-1.281a1.116 1.116 0 01-.257-1.419l1.6-2.77c.273-.473.846-.68 1.356-.489l1.874.703c.433.162.924.042 1.226-.31a21.33 21.33 0 012.232-2.237c.348-.3.468-.79.306-1.223l-.7-1.867a1.119 1.119 0 01.488-1.357l2.771-1.6a1.115 1.115 0 011.419.257l1.258 1.525a1.11 1.11 0 001.22.345 21.09 21.09 0 013.068-.826c.452-.085.803-.452.878-.908L21.8 1.93c.091-.536.556-.93 1.1-.93h3.2c.547 0 1.009.394 1.1.93l.325 1.945a1.1 1.1 0 00.878.908c1.054.198 2.076.478 3.068.826a1.11 1.11 0 001.22-.345l1.258-1.525c.348-.42.947-.53 1.419-.257l2.77 1.6c.473.273.68.846.489 1.357l-.7 1.867c-.162.43-.042.92.306 1.223.8.69 1.545 1.438 2.232 2.238.299.351.793.471 1.226.309l1.874-.703a1.119 1.119 0 011.356.488l1.6 2.771a1.115 1.115 0 01-.257 1.419l-1.554 1.281a1.1 1.1 0 00-.349 1.213c.342.98.612 1.994.807 3.035.085.456.452.807.908.882zM42 25.5C42 35.165 34.165 43 24.5 43S7 35.165 7 25.5 14.835 8 24.5 8 42 15.835 42 25.5z" fill="#fff"/></svg>