<svg width="158" height="89" fill="none" xmlns="http://www.w3.org/2000/svg"><path d="M50.008 1.505a1.516 1.516 0 01-.924 1.4 1.498 1.498 0 01-1.641-.323 1.514 1.514 0 011.06-2.581 1.492 1.492 0 011.39.927c.076.183.115.379.115.577zm15.332 0a1.516 1.516 0 01-.923 1.4 1.498 1.498 0 01-1.641-.323 1.513 1.513 0 01-.33-1.647A1.51 1.51 0 0163.837 0a1.5 1.5 0 011.062.44c.282.282.441.664.443 1.064zm15.327 0a1.51 1.51 0 01-.924 1.39 1.49 1.49 0 01-1.632-.326A1.507 1.507 0 0179.17 0c.397 0 .778.158 1.058.44.281.282.44.665.44 1.064zm15.333 0a1.516 1.516 0 01-.933 1.404 1.497 1.497 0 01-1.646-.341A1.513 1.513 0 0194.535 0 1.505 1.505 0 0196 1.504zM50.008 13.502a1.516 1.516 0 01-.924 1.4 1.497 1.497 0 01-1.641-.323 1.514 1.514 0 011.06-2.582 1.493 1.493 0 011.39.928 1.5 1.5 0 01.115.577zm15.332 0a1.516 1.516 0 01-.923 1.4 1.497 1.497 0 01-1.641-.323 1.513 1.513 0 011.06-2.582 1.5 1.5 0 011.062.44c.282.283.441.665.443 1.065zm15.327 0a1.51 1.51 0 01-.924 1.39 1.49 1.49 0 01-1.632-.326 1.507 1.507 0 011.059-2.569c.397 0 .778.159 1.058.441.281.282.44.665.44 1.064zm15.333 0a1.516 1.516 0 01-.925 1.401 1.497 1.497 0 01-1.643-.326 1.513 1.513 0 011.07-2.58A1.498 1.498 0 0196 13.502zm-45.992 12.01a1.515 1.515 0 01-.928 1.396 1.498 1.498 0 01-1.64-.328A1.514 1.514 0 0148.504 24a1.49 1.49 0 011.065.441 1.505 1.505 0 01.439 1.07zm15.332 0a1.516 1.516 0 01-.928 1.396 1.498 1.498 0 01-1.639-.328 1.512 1.512 0 01-.326-1.646 1.51 1.51 0 011.39-.933 1.5 1.5 0 011.063.442c.282.284.44.668.44 1.069zm15.327 0a1.509 1.509 0 01-.929 1.385 1.491 1.491 0 01-1.63-.33A1.507 1.507 0 0179.17 24a1.491 1.491 0 011.385.933c.075.183.113.38.112.578zm15.333 0a1.516 1.516 0 01-.938 1.4 1.497 1.497 0 01-1.644-.346A1.513 1.513 0 0194.535 24c.393.008.766.171 1.04.454.274.283.427.662.425 1.057zm-45.992 11.99a1.515 1.515 0 01-.938 1.387 1.498 1.498 0 01-1.634-.336 1.513 1.513 0 011.068-2.575 1.497 1.497 0 011.068.447 1.51 1.51 0 01.436 1.077zm15.332 0a1.515 1.515 0 01-.937 1.387 1.498 1.498 0 01-1.634-.336 1.513 1.513 0 011.068-2.575 1.506 1.506 0 011.391.943c.075.184.114.382.113.581zm15.327 0a1.51 1.51 0 01-.938 1.376 1.491 1.491 0 01-1.625-.339 1.506 1.506 0 011.066-2.561 1.5 1.5 0 011.387.943c.074.185.112.382.11.581zm15.333 0a1.516 1.516 0 01-.947 1.39 1.498 1.498 0 01-1.639-.354 1.514 1.514 0 011.121-2.56A1.504 1.504 0 0196 37.502zm16.008-35.997a1.508 1.508 0 01-1.793 1.49 1.5 1.5 0 01-.772-.413 1.517 1.517 0 01-.329-1.647 1.502 1.502 0 012.894.57zm15.333 0a1.515 1.515 0 01-.924 1.4 1.499 1.499 0 01-1.641-.323 1.517 1.517 0 01-.329-1.647 1.502 1.502 0 012.894.57zm15.326 0a1.505 1.505 0 01-.924 1.39 1.493 1.493 0 01-2.042-1.096 1.512 1.512 0 01.637-1.545 1.49 1.49 0 011.89.187c.281.282.439.665.439 1.064zm15.333 0a1.51 1.51 0 01-.933 1.404 1.498 1.498 0 01-1.646-.341 1.523 1.523 0 01-.304-1.66 1.502 1.502 0 012.883.598zm-45.992 11.997a1.507 1.507 0 01-1.793 1.49 1.5 1.5 0 01-.772-.413 1.517 1.517 0 01-.329-1.647 1.502 1.502 0 012.894.57zm15.333 0a1.515 1.515 0 01-.924 1.4 1.498 1.498 0 01-1.641-.323 1.517 1.517 0 01-.329-1.647 1.502 1.502 0 012.894.57zm15.326 0a1.504 1.504 0 01-.924 1.39 1.493 1.493 0 01-2.042-1.097 1.512 1.512 0 01.637-1.544 1.49 1.49 0 011.89.187c.281.282.439.665.439 1.064zm15.333 0a1.517 1.517 0 01-.926 1.401 1.496 1.496 0 01-1.642-.326 1.513 1.513 0 01.232-2.328 1.5 1.5 0 011.897.189c.281.282.439.665.439 1.064zm-45.992 12.01a1.51 1.51 0 01-1.797 1.482 1.506 1.506 0 01-1.182-1.188 1.513 1.513 0 01.639-1.551 1.5 1.5 0 012.227.678c.075.183.114.38.113.579zm15.333 0a1.51 1.51 0 01-1.798 1.482 1.507 1.507 0 01-1.181-1.188 1.516 1.516 0 01.639-1.55 1.5 1.5 0 011.899.187c.282.284.441.668.441 1.069zm15.326 0a1.51 1.51 0 01-.929 1.385 1.492 1.492 0 01-1.63-.33 1.51 1.51 0 01.23-2.313 1.495 1.495 0 012.329 1.258zm15.333 0a1.508 1.508 0 01-1.812 1.478 1.516 1.516 0 01-.499-2.754c.252-.161.547-.243.846-.235.393.008.766.171 1.04.454.274.283.427.662.425 1.057zm-45.992 11.99a1.518 1.518 0 01-.937 1.387 1.5 1.5 0 01-1.635-.336 1.514 1.514 0 011.068-2.575 1.5 1.5 0 011.393.942c.075.185.113.383.111.582zm15.333 0a1.518 1.518 0 01-.938 1.387 1.498 1.498 0 01-1.634-.336 1.514 1.514 0 011.068-2.575 1.505 1.505 0 011.391.943c.075.184.114.382.113.581zm15.326 0a1.51 1.51 0 01-.938 1.376 1.49 1.49 0 01-1.625-.339 1.508 1.508 0 011.066-2.561 1.495 1.495 0 011.063.45 1.52 1.52 0 01.434 1.075zm15.333 0a1.515 1.515 0 01-.947 1.39 1.497 1.497 0 01-1.639-.354 1.521 1.521 0 01-.295-1.658 1.509 1.509 0 011.416-.902A1.504 1.504 0 01158 37.502zM50.008 51.505a1.516 1.516 0 01-.924 1.4 1.498 1.498 0 01-1.641-.323 1.513 1.513 0 011.06-2.581 1.49 1.49 0 011.064.438 1.503 1.503 0 01.44 1.066zm15.332 0a1.516 1.516 0 01-.923 1.4 1.498 1.498 0 01-1.641-.323 1.512 1.512 0 01-.33-1.647 1.51 1.51 0 011.39-.934 1.5 1.5 0 011.062.44c.282.282.441.664.443 1.064zm15.327 0a1.51 1.51 0 01-.924 1.39 1.49 1.49 0 01-1.632-.326A1.507 1.507 0 0179.17 50c.397 0 .778.159 1.058.441.281.282.44.665.44 1.064zm15.333 0a1.516 1.516 0 01-.933 1.404 1.498 1.498 0 01-1.646-.341A1.513 1.513 0 0194.535 50 1.505 1.505 0 0196 51.504zM50.008 63.502a1.516 1.516 0 01-.924 1.4 1.497 1.497 0 01-1.641-.323 1.514 1.514 0 011.06-2.582 1.493 1.493 0 011.39.928c.076.183.115.379.115.577zm15.332 0a1.516 1.516 0 01-.923 1.4 1.497 1.497 0 01-1.641-.323 1.513 1.513 0 011.06-2.582 1.5 1.5 0 011.062.44c.282.283.441.665.443 1.065zm15.327 0a1.51 1.51 0 01-.924 1.39 1.49 1.49 0 01-1.632-.326 1.507 1.507 0 011.059-2.569c.397 0 .778.159 1.058.441.281.282.44.665.44 1.064zm15.333 0a1.516 1.516 0 01-.925 1.401 1.498 1.498 0 01-1.643-.326 1.513 1.513 0 011.07-2.58A1.498 1.498 0 0196 63.502zm-45.992 12.01a1.516 1.516 0 01-.928 1.396 1.498 1.498 0 01-1.64-.328A1.514 1.514 0 0148.504 74a1.49 1.49 0 011.065.441 1.504 1.504 0 01.439 1.07zm15.332 0a1.516 1.516 0 01-.928 1.396 1.498 1.498 0 01-1.639-.328 1.512 1.512 0 01-.326-1.647 1.51 1.51 0 011.39-.932 1.5 1.5 0 011.063.442c.282.284.44.668.44 1.069zm15.327 0a1.509 1.509 0 01-.929 1.385 1.491 1.491 0 01-1.63-.33A1.507 1.507 0 0179.17 74a1.491 1.491 0 011.385.933c.075.183.113.38.112.578zm15.333 0a1.516 1.516 0 01-.938 1.4 1.497 1.497 0 01-1.644-.346A1.513 1.513 0 0194.535 74c.393.008.766.171 1.04.454.274.283.427.662.425 1.057zm-45.992 11.99a1.515 1.515 0 01-.938 1.387 1.498 1.498 0 01-1.634-.336 1.513 1.513 0 011.068-2.575 1.497 1.497 0 011.068.447 1.51 1.51 0 01.436 1.077zm15.332 0a1.515 1.515 0 01-.937 1.387 1.498 1.498 0 01-1.634-.336 1.513 1.513 0 011.068-2.575 1.506 1.506 0 011.391.943c.075.184.114.382.113.581zm15.327 0a1.51 1.51 0 01-.938 1.376 1.492 1.492 0 01-1.625-.339 1.506 1.506 0 011.066-2.561 1.5 1.5 0 011.387.943c.074.185.112.382.11.581zm15.333 0a1.517 1.517 0 01-.947 1.39 1.498 1.498 0 01-1.639-.354 1.514 1.514 0 011.121-2.56A1.504 1.504 0 0196 87.502zm16.008-35.997a1.508 1.508 0 01-1.793 1.49 1.5 1.5 0 01-.772-.413 1.517 1.517 0 01.225-2.326 1.497 1.497 0 011.411-.143 1.504 1.504 0 01.929 1.392zm15.333 0a1.515 1.515 0 01-.924 1.4 1.5 1.5 0 01-1.641-.323 1.517 1.517 0 01.225-2.326 1.497 1.497 0 011.897.185c.282.282.441.664.443 1.064zm15.326 0a1.505 1.505 0 01-.924 1.39 1.493 1.493 0 01-2.042-1.097 1.512 1.512 0 01.637-1.544 1.49 1.49 0 011.89.187c.281.282.439.665.439 1.064zm15.333 0a1.509 1.509 0 01-.933 1.404 1.499 1.499 0 01-1.646-.341 1.523 1.523 0 01-.304-1.66 1.502 1.502 0 012.883.598zm-45.992 11.997a1.507 1.507 0 01-1.793 1.49 1.5 1.5 0 01-.772-.413 1.517 1.517 0 01-.329-1.647 1.502 1.502 0 012.894.57zm15.333 0a1.515 1.515 0 01-.924 1.4 1.498 1.498 0 01-1.641-.323 1.517 1.517 0 01-.329-1.647 1.502 1.502 0 012.894.57zm15.326 0a1.504 1.504 0 01-.924 1.39 1.493 1.493 0 01-2.042-1.097 1.512 1.512 0 01.637-1.544 1.49 1.49 0 011.89.187c.281.282.439.665.439 1.064zm15.333 0a1.517 1.517 0 01-.926 1.401 1.497 1.497 0 01-1.642-.326 1.513 1.513 0 01.232-2.328 1.5 1.5 0 011.897.189c.281.282.439.665.439 1.064zm-45.992 12.01a1.51 1.51 0 01-1.797 1.482 1.506 1.506 0 01-1.182-1.188 1.513 1.513 0 01.639-1.551 1.5 1.5 0 012.227.677c.075.184.114.381.113.58zm15.333 0a1.51 1.51 0 01-1.798 1.482 1.507 1.507 0 01-1.181-1.188 1.516 1.516 0 01.639-1.55 1.5 1.5 0 011.899.187c.282.284.441.668.441 1.069zm15.326 0a1.51 1.51 0 01-.929 1.385 1.492 1.492 0 01-1.63-.33 1.51 1.51 0 01.23-2.313 1.495 1.495 0 012.329 1.258zm15.333 0a1.508 1.508 0 01-1.812 1.478 1.516 1.516 0 01-.499-2.754c.252-.161.547-.243.846-.235.393.008.766.171 1.04.454.274.283.427.662.425 1.057zm-45.992 11.99a1.518 1.518 0 01-.937 1.387 1.5 1.5 0 01-1.635-.336 1.514 1.514 0 011.068-2.575 1.5 1.5 0 011.393.942c.075.185.113.382.111.582zm15.333 0a1.518 1.518 0 01-.938 1.387 1.498 1.498 0 01-1.634-.336 1.514 1.514 0 011.068-2.575 1.505 1.505 0 011.391.943c.075.184.114.382.113.581zm15.326 0a1.51 1.51 0 01-.938 1.376 1.49 1.49 0 01-1.625-.339 1.508 1.508 0 011.066-2.561 1.495 1.495 0 011.063.45 1.52 1.52 0 01.434 1.075zm15.333 0a1.516 1.516 0 01-.947 1.39 1.497 1.497 0 01-1.639-.354 1.521 1.521 0 01-.295-1.658 1.509 1.509 0 011.416-.902A1.504 1.504 0 01158 87.502zM3.34 1.505a1.516 1.516 0 01-.923 1.4 1.497 1.497 0 01-1.641-.323A1.513 1.513 0 011.836.001a1.5 1.5 0 011.062.44c.282.282.441.664.443 1.064zm15.327 0a1.51 1.51 0 01-.924 1.39 1.49 1.49 0 01-1.632-.326A1.507 1.507 0 0117.17 0c.397 0 .778.158 1.058.44.281.282.44.665.44 1.064zm15.333 0a1.516 1.516 0 01-.933 1.404 1.497 1.497 0 01-1.646-.341A1.513 1.513 0 0132.535 0 1.505 1.505 0 0134 1.504zM3.34 13.502a1.516 1.516 0 01-.923 1.4 1.497 1.497 0 01-1.641-.323 1.513 1.513 0 011.06-2.582 1.5 1.5 0 011.062.44c.282.283.441.665.443 1.065zm15.327 0a1.51 1.51 0 01-.924 1.39 1.49 1.49 0 01-1.632-.326 1.507 1.507 0 011.059-2.569c.397 0 .778.159 1.058.441.281.282.44.665.44 1.064zm15.333 0a1.516 1.516 0 01-.925 1.401 1.497 1.497 0 01-1.643-.326 1.513 1.513 0 011.07-2.58A1.498 1.498 0 0134 13.502zM3.34 25.512a1.516 1.516 0 01-.928 1.396 1.498 1.498 0 01-1.639-.328A1.513 1.513 0 011.837 24a1.5 1.5 0 011.063.443c.282.284.44.668.44 1.069zm15.327 0a1.51 1.51 0 01-.929 1.385 1.491 1.491 0 01-1.63-.33A1.507 1.507 0 0117.17 24a1.491 1.491 0 011.385.933c.075.183.113.38.112.578zm15.333 0a1.516 1.516 0 01-.938 1.4 1.497 1.497 0 01-1.643-.346A1.513 1.513 0 0132.535 24c.393.008.766.171 1.04.454.274.283.427.662.425 1.057zM3.34 37.502a1.516 1.516 0 01-.937 1.387 1.498 1.498 0 01-1.634-.336 1.513 1.513 0 011.068-2.575 1.506 1.506 0 011.391.943c.075.184.114.382.113.581zm15.327 0a1.51 1.51 0 01-.938 1.376 1.491 1.491 0 01-1.625-.339 1.506 1.506 0 011.066-2.561 1.5 1.5 0 011.387.943c.074.185.112.382.11.581zm15.333 0a1.516 1.516 0 01-.947 1.39 1.498 1.498 0 01-1.639-.354 1.514 1.514 0 011.121-2.56A1.504 1.504 0 0134 37.502zM3.34 51.505a1.516 1.516 0 01-.923 1.4 1.498 1.498 0 01-1.641-.323 1.513 1.513 0 011.06-2.581 1.5 1.5 0 011.062.44c.282.282.441.664.443 1.064zm15.327 0a1.51 1.51 0 01-.924 1.39 1.49 1.49 0 01-1.632-.326A1.507 1.507 0 0117.17 50c.397 0 .778.159 1.058.441.281.282.44.665.44 1.064zm15.333 0a1.516 1.516 0 01-.933 1.404 1.498 1.498 0 01-1.646-.341A1.513 1.513 0 0132.535 50 1.505 1.505 0 0134 51.504zM3.34 63.502a1.516 1.516 0 01-.923 1.4 1.497 1.497 0 01-1.641-.323 1.513 1.513 0 011.06-2.582 1.5 1.5 0 011.062.44c.282.283.441.665.443 1.065zm15.327 0a1.51 1.51 0 01-.924 1.39 1.49 1.49 0 01-1.632-.326 1.507 1.507 0 011.059-2.569c.397 0 .778.159 1.058.441.281.282.44.665.44 1.064zm15.333 0a1.516 1.516 0 01-.925 1.401 1.498 1.498 0 01-1.643-.326 1.513 1.513 0 011.07-2.58A1.498 1.498 0 0134 63.502zM3.34 75.512a1.516 1.516 0 01-.928 1.396 1.498 1.498 0 01-1.639-.328A1.513 1.513 0 011.837 74a1.5 1.5 0 011.063.443c.282.284.44.668.44 1.069zm15.327 0a1.51 1.51 0 01-.929 1.385 1.491 1.491 0 01-1.63-.33A1.507 1.507 0 0117.17 74a1.491 1.491 0 011.385.933c.075.183.113.38.112.578zm15.333 0a1.516 1.516 0 01-.938 1.4 1.497 1.497 0 01-1.643-.346A1.513 1.513 0 0132.535 74c.393.008.766.171 1.04.454.274.283.427.662.425 1.057zM3.34 87.502a1.516 1.516 0 01-.937 1.387 1.498 1.498 0 01-1.634-.336 1.513 1.513 0 011.068-2.575 1.506 1.506 0 011.391.943c.075.184.114.382.113.581zm15.327 0a1.51 1.51 0 01-.938 1.376 1.492 1.492 0 01-1.625-.339 1.506 1.506 0 011.066-2.561 1.5 1.5 0 011.387.943c.074.185.112.382.11.581zm15.333 0a1.517 1.517 0 01-.947 1.39 1.498 1.498 0 01-1.639-.354 1.514 1.514 0 011.121-2.56A1.504 1.504 0 0134 87.502z" fill="#C5C5C5"/></svg>