<svg width="40" height="32" fill="none" xmlns="http://www.w3.org/2000/svg"><path d="M10.832 6.857A1.147 1.147 0 009.686 8a1.141 1.141 0 001.146 1.143h13.75A1.147 1.147 0 0025.729 8a1.141 1.141 0 00-1.146-1.143h-13.75zm6.949 8c-.413-.832-.94-1.6-1.554-2.285h15.23a1.147 1.147 0 011.146 1.143 1.141 1.141 0 01-1.145 1.142H17.78zm1.072 4.572c0 .387-.02.768-.062 1.143h8.083a1.147 1.147 0 001.146-1.143 1.142 1.142 0 00-1.146-1.143h-8.083c.042.375.062.756.062 1.143zM5.103 5.714v4.014c-.809.286-1.579.671-2.292 1.148V5.714c0-1.515.604-2.969 1.678-4.04A5.737 5.737 0 018.541 0h25.208c1.52 0 2.977.602 4.051 1.674a5.707 5.707 0 011.678 4.04v16a5.707 5.707 0 01-1.678 4.041 5.736 5.736 0 01-4.05 1.674H21.421l-2.291-2.286h14.618c.912 0 1.786-.361 2.431-1.004a3.424 3.424 0 001.007-2.424v-16c0-.91-.362-1.782-1.007-2.425a3.442 3.442 0 00-2.43-1.004H8.54c-.911 0-1.785.361-2.43 1.004a3.424 3.424 0 00-1.007 2.424zM8.541 27.43a8.007 8.007 0 004.803-1.593l5.844 5.829a1.145 1.145 0 001.25.248 1.146 1.146 0 00.62-1.493 1.143 1.143 0 00-.248-.372l-5.843-5.828a7.986 7.986 0 00-.271-9.923 8.04 8.04 0 00-9.744-2.021 8.01 8.01 0 00-3.675 3.765 7.981 7.981 0 002.288 9.66A8.034 8.034 0 008.54 27.43zm0-2.286a5.737 5.737 0 01-4.052-1.673 5.707 5.707 0 010-8.082 5.737 5.737 0 018.103 0 5.707 5.707 0 010 8.082 5.737 5.737 0 01-4.051 1.673z" fill="#030100"/></svg>