<svg width="33" height="30" fill="none" xmlns="http://www.w3.org/2000/svg"><path d="M32.115 9.618a3.54 3.54 0 00-1.197-.9 3.482 3.482 0 00-1.455-.318h-8.25V6c0-1.591-.62-3.117-1.725-4.243A5.84 5.84 0 0015.32 0c-.22 0-.434.062-.62.179a1.193 1.193 0 00-.435.484L8.7 12H2.357c-.625 0-1.225.253-1.667.703-.442.45-.69 1.06-.69 1.697v13.2c0 .636.248 1.247.69 1.697.442.45 1.042.703 1.667.703h25.338a3.5 3.5 0 002.34-.9 3.62 3.62 0 001.17-2.25l1.767-14.4a3.662 3.662 0 00-.129-1.51 3.617 3.617 0 00-.728-1.322zM2.357 14.4H8.25v13.2H2.357V14.4zm28.276-2.25l-1.768 14.4c-.036.29-.174.557-.39.75-.215.194-.492.3-.78.3H10.607V13.483L16.015 2.47a3.525 3.525 0 012.04 1.248A3.64 3.64 0 0118.858 6v3.6c0 .318.124.623.345.848.22.226.52.352.833.352h9.428a1.16 1.16 0 01.884.406 1.206 1.206 0 01.286.944z" fill="#000"/></svg>