<svg width="207" height="51" viewBox="0 0 207 51" fill="none" xmlns="http://www.w3.org/2000/svg">
<path d="M63.218 24.308C61.6047 24.308 60.1527 23.9707 58.862 23.296C57.586 22.6067 56.5813 21.6533 55.848 20.436C55.1147 19.2187 54.748 17.84 54.748 16.3C54.748 14.76 55.1147 13.3813 55.848 12.164C56.5813 10.9467 57.586 10.0007 58.862 9.326C60.1527 8.63667 61.6047 8.292 63.218 8.292C64.626 8.292 65.8947 8.54133 67.024 9.04C68.1533 9.53867 69.092 10.2573 69.84 11.196L67.068 13.704C66.0707 12.5013 64.8607 11.9 63.438 11.9C62.602 11.9 61.854 12.0833 61.194 12.45C60.5487 12.8167 60.0427 13.3373 59.676 14.012C59.324 14.672 59.148 15.4347 59.148 16.3C59.148 17.1653 59.324 17.9353 59.676 18.61C60.0427 19.27 60.5487 19.7833 61.194 20.15C61.854 20.5167 62.602 20.7 63.438 20.7C64.8607 20.7 66.0707 20.0987 67.068 18.896L69.84 21.404C69.092 22.3427 68.1533 23.0613 67.024 23.56C65.8947 24.0587 64.626 24.308 63.218 24.308ZM76.2262 24.198C74.7595 24.198 73.6155 23.824 72.7942 23.076C71.9875 22.3133 71.5842 21.228 71.5842 19.82V7.676H75.7642V19.6C75.7642 20.04 75.8742 20.3773 76.0942 20.612C76.3289 20.8467 76.6515 20.964 77.0622 20.964C77.3995 20.964 77.7149 20.8907 78.0082 20.744L78.1842 23.89C77.5535 24.0953 76.9009 24.198 76.2262 24.198ZM85.849 21.008C86.421 21.008 86.9123 20.9273 87.323 20.766C87.7483 20.6047 88.1736 20.3407 88.599 19.974L90.777 22.262C89.6476 23.5527 87.961 24.198 85.717 24.198C84.3236 24.198 83.099 23.934 82.043 23.406C80.987 22.878 80.1656 22.1447 79.579 21.206C79.007 20.2673 78.721 19.204 78.721 18.016C78.721 16.8427 79.007 15.794 79.579 14.87C80.151 13.9313 80.9356 13.198 81.933 12.67C82.945 12.142 84.0743 11.878 85.321 11.878C86.4796 11.878 87.5356 12.12 88.489 12.604C89.457 13.0733 90.227 13.77 90.799 14.694C91.371 15.6033 91.657 16.6887 91.657 17.95L83.143 19.578C83.5976 20.5313 84.4996 21.008 85.849 21.008ZM85.343 14.848C84.6243 14.848 84.0376 15.0753 83.583 15.53C83.1283 15.97 82.8716 16.608 82.813 17.444L87.653 16.498C87.5063 15.9993 87.2276 15.6033 86.817 15.31C86.4063 15.002 85.915 14.848 85.343 14.848ZM106.19 12.076V28.268H102.01V22.944C101.204 23.78 100.096 24.198 98.6882 24.198C97.6029 24.198 96.6129 23.9487 95.7182 23.45C94.8382 22.9367 94.1342 22.218 93.6062 21.294C93.0929 20.3553 92.8362 19.27 92.8362 18.038C92.8362 16.806 93.0929 15.728 93.6062 14.804C94.1342 13.8653 94.8382 13.1467 95.7182 12.648C96.6129 12.1347 97.6029 11.878 98.6882 11.878C100.258 11.878 101.431 12.34 102.208 13.264V12.076H106.19ZM99.5682 20.876C100.302 20.876 100.903 20.6267 101.372 20.128C101.842 19.6147 102.076 18.918 102.076 18.038C102.076 17.158 101.842 16.4687 101.372 15.97C100.903 15.4567 100.302 15.2 99.5682 15.2C98.8349 15.2 98.2335 15.4567 97.7642 15.97C97.2949 16.4687 97.0602 17.158 97.0602 18.038C97.0602 18.918 97.2949 19.6147 97.7642 20.128C98.2335 20.6267 98.8349 20.876 99.5682 20.876ZM121.421 12.076V24H117.439V22.724C116.999 23.208 116.471 23.5747 115.855 23.824C115.239 24.0733 114.586 24.198 113.897 24.198C112.357 24.198 111.125 23.7433 110.201 22.834C109.292 21.9247 108.837 20.5607 108.837 18.742V12.076H113.017V18.06C113.017 18.9547 113.186 19.6073 113.523 20.018C113.86 20.4287 114.352 20.634 114.997 20.634C115.657 20.634 116.192 20.4067 116.603 19.952C117.028 19.4827 117.241 18.7713 117.241 17.818V12.076H121.421ZM124.113 12.076H128.293V24H124.113V12.076ZM126.203 10.756C125.441 10.756 124.825 10.5433 124.355 10.118C123.886 9.69267 123.651 9.16467 123.651 8.534C123.651 7.90333 123.886 7.37533 124.355 6.95C124.825 6.52467 125.441 6.312 126.203 6.312C126.966 6.312 127.582 6.51733 128.051 6.928C128.521 7.324 128.755 7.83733 128.755 8.468C128.755 9.128 128.521 9.678 128.051 10.118C127.582 10.5433 126.966 10.756 126.203 10.756ZM138.512 11.878C139.597 11.878 140.58 12.1347 141.46 12.648C142.355 13.1467 143.059 13.8653 143.572 14.804C144.1 15.728 144.364 16.806 144.364 18.038C144.364 19.27 144.1 20.3553 143.572 21.294C143.059 22.218 142.355 22.9367 141.46 23.45C140.58 23.9487 139.597 24.198 138.512 24.198C137.119 24.198 136.011 23.78 135.19 22.944V28.268H131.01V12.076H134.992V13.264C135.769 12.34 136.943 11.878 138.512 11.878ZM137.632 20.876C138.365 20.876 138.967 20.6267 139.436 20.128C139.905 19.6147 140.14 18.918 140.14 18.038C140.14 17.158 139.905 16.4687 139.436 15.97C138.967 15.4567 138.365 15.2 137.632 15.2C136.899 15.2 136.297 15.4567 135.828 15.97C135.359 16.4687 135.124 17.158 135.124 18.038C135.124 18.918 135.359 19.6147 135.828 20.128C136.297 20.6267 136.899 20.876 137.632 20.876ZM161.839 11.878C163.306 11.878 164.472 12.318 165.337 13.198C166.217 14.078 166.657 15.4053 166.657 17.18V24H162.477V17.862C162.477 17.026 162.316 16.41 161.993 16.014C161.685 15.618 161.245 15.42 160.673 15.42C160.042 15.42 159.536 15.64 159.155 16.08C158.774 16.52 158.583 17.1873 158.583 18.082V24H154.403V17.862C154.403 16.234 153.802 15.42 152.599 15.42C151.954 15.42 151.44 15.64 151.059 16.08C150.678 16.52 150.487 17.1873 150.487 18.082V24H146.307V12.076H150.289V13.33C150.729 12.846 151.25 12.4867 151.851 12.252C152.467 12.0027 153.134 11.878 153.853 11.878C154.689 11.878 155.437 12.032 156.097 12.34C156.757 12.648 157.292 13.1173 157.703 13.748C158.172 13.1467 158.766 12.6847 159.485 12.362C160.204 12.0393 160.988 11.878 161.839 11.878ZM175.847 21.008C176.419 21.008 176.91 20.9273 177.321 20.766C177.746 20.6047 178.172 20.3407 178.597 19.974L180.775 22.262C179.646 23.5527 177.959 24.198 175.715 24.198C174.322 24.198 173.097 23.934 172.041 23.406C170.985 22.878 170.164 22.1447 169.577 21.206C169.005 20.2673 168.719 19.204 168.719 18.016C168.719 16.8427 169.005 15.794 169.577 14.87C170.149 13.9313 170.934 13.198 171.931 12.67C172.943 12.142 174.072 11.878 175.319 11.878C176.478 11.878 177.534 12.12 178.487 12.604C179.455 13.0733 180.225 13.77 180.797 14.694C181.369 15.6033 181.655 16.6887 181.655 17.95L173.141 19.578C173.596 20.5313 174.498 21.008 175.847 21.008ZM175.341 14.848C174.622 14.848 174.036 15.0753 173.581 15.53C173.126 15.97 172.87 16.608 172.811 17.444L177.651 16.498C177.504 15.9993 177.226 15.6033 176.815 15.31C176.404 15.002 175.913 14.848 175.341 14.848ZM191.348 11.878C192.83 11.878 194.018 12.318 194.912 13.198C195.822 14.078 196.276 15.4053 196.276 17.18V24H192.096V17.862C192.096 16.234 191.444 15.42 190.138 15.42C189.42 15.42 188.84 15.6547 188.4 16.124C187.975 16.5933 187.762 17.2973 187.762 18.236V24H183.582V12.076H187.564V13.374C188.034 12.89 188.591 12.5233 189.236 12.274C189.882 12.01 190.586 11.878 191.348 11.878ZM206.579 23.516C206.227 23.736 205.794 23.9047 205.281 24.022C204.782 24.1393 204.247 24.198 203.675 24.198C202.12 24.198 200.925 23.8167 200.089 23.054C199.267 22.2913 198.857 21.1547 198.857 19.644V9.414H203.037V12.516H205.743V15.64H203.037V19.6C203.037 20.04 203.147 20.3773 203.367 20.612C203.587 20.8467 203.887 20.964 204.269 20.964C204.753 20.964 205.178 20.8393 205.545 20.59L206.579 23.516Z" fill="black"/>
<path d="M62.6241 41.0001L60.9081 38.5401C60.8361 38.5481 60.7281 38.5521 60.5841 38.5521H58.6881V41.0001H57.1281V32.6001H60.5841C61.3121 32.6001 61.9441 32.7201 62.4801 32.9601C63.0241 33.2001 63.4401 33.5441 63.7281 33.9921C64.0161 34.4401 64.1601 34.9721 64.1601 35.5881C64.1601 36.2201 64.0041 36.7641 63.6921 37.2201C63.3881 37.6761 62.9481 38.0161 62.3721 38.2401L64.3041 41.0001H62.6241ZM62.5881 35.5881C62.5881 35.0521 62.4121 34.6401 62.0601 34.3521C61.7081 34.0641 61.1921 33.9201 60.5121 33.9201H58.6881V37.2681H60.5121C61.1921 37.2681 61.7081 37.1241 62.0601 36.8361C62.4121 36.5401 62.5881 36.1241 62.5881 35.5881Z" fill="#878787"/>
<path d="M68.8094 39.8121C69.5054 39.8121 70.0854 39.5801 70.5494 39.1161L71.3414 40.0401C71.0614 40.3841 70.7014 40.6441 70.2614 40.8201C69.8214 40.9961 69.3254 41.0841 68.7734 41.0841C68.0694 41.0841 67.4494 40.9441 66.9134 40.6641C66.3774 40.3841 65.9614 39.9961 65.6654 39.5001C65.3774 38.9961 65.2334 38.4281 65.2334 37.7961C65.2334 37.1721 65.3734 36.6121 65.6534 36.1161C65.9414 35.6121 66.3334 35.2201 66.8294 34.9401C67.3334 34.6601 67.9014 34.5201 68.5334 34.5201C69.1334 34.5201 69.6774 34.6521 70.1654 34.9161C70.6614 35.1721 71.0534 35.5441 71.3414 36.0321C71.6294 36.5121 71.7734 37.0761 71.7734 37.7241L66.8654 38.6841C67.0174 39.0521 67.2614 39.3321 67.5974 39.5241C67.9334 39.7161 68.3374 39.8121 68.8094 39.8121ZM68.5334 35.7201C67.9814 35.7201 67.5334 35.9001 67.1894 36.2601C66.8534 36.6201 66.6854 37.1041 66.6854 37.7121V37.7241L70.3094 37.0281C70.2054 36.6361 69.9934 36.3201 69.6734 36.0801C69.3614 35.8401 68.9814 35.7201 68.5334 35.7201Z" fill="#878787"/>
<path d="M76.8505 34.5201C77.6585 34.5201 78.3065 34.7561 78.7945 35.2281C79.2825 35.7001 79.5265 36.4001 79.5265 37.3281V41.0001H78.0265V37.5201C78.0265 36.9601 77.8945 36.5401 77.6305 36.2601C77.3665 35.9721 76.9905 35.8281 76.5025 35.8281C75.9505 35.8281 75.5145 35.9961 75.1945 36.3321C74.8745 36.6601 74.7145 37.1361 74.7145 37.7601V41.0001H73.2145V34.5921H74.6425V35.4201C74.8905 35.1241 75.2025 34.9001 75.5785 34.7481C75.9545 34.5961 76.3785 34.5201 76.8505 34.5201Z" fill="#878787"/>
<path d="M85.0294 40.6521C84.8534 40.7961 84.6374 40.9041 84.3814 40.9761C84.1334 41.0481 83.8694 41.0841 83.5894 41.0841C82.8854 41.0841 82.3414 40.9001 81.9574 40.5321C81.5734 40.1641 81.3814 39.6281 81.3814 38.9241V33.1761H82.8814V34.6401H84.5974V35.8401H82.8814V38.8881C82.8814 39.2001 82.9574 39.4401 83.1094 39.6081C83.2694 39.7681 83.4894 39.8481 83.7694 39.8481C84.1054 39.8481 84.3854 39.7601 84.6094 39.5841L85.0294 40.6521Z" fill="#878787"/>
<path d="M92.3223 34.5921V41.0001H90.8943V40.1721C90.6463 40.4761 90.3383 40.7041 89.9703 40.8561C89.6103 41.0081 89.2103 41.0841 88.7703 41.0841C88.1463 41.0841 87.5863 40.9481 87.0903 40.6761C86.6023 40.4041 86.2183 40.0201 85.9383 39.5241C85.6663 39.0281 85.5303 38.4521 85.5303 37.7961C85.5303 37.1401 85.6663 36.5681 85.9383 36.0801C86.2183 35.5841 86.6023 35.2001 87.0903 34.9281C87.5863 34.6561 88.1463 34.5201 88.7703 34.5201C89.1863 34.5201 89.5663 34.5921 89.9103 34.7361C90.2623 34.8801 90.5663 35.0921 90.8223 35.3721V34.5921H92.3223ZM88.9383 39.8001C89.4903 39.8001 89.9463 39.6161 90.3063 39.2481C90.6663 38.8801 90.8463 38.3961 90.8463 37.7961C90.8463 37.1961 90.6663 36.7121 90.3063 36.3441C89.9463 35.9761 89.4903 35.7921 88.9383 35.7921C88.3863 35.7921 87.9303 35.9761 87.5703 36.3441C87.2183 36.7121 87.0423 37.1961 87.0423 37.7961C87.0423 38.3961 87.2183 38.8801 87.5703 39.2481C87.9303 39.6161 88.3863 39.8001 88.9383 39.8001Z" fill="#878787"/>
<path d="M96.3968 41.0841C95.7328 41.0841 95.2128 40.9041 94.8368 40.5441C94.4688 40.1761 94.2848 39.6601 94.2848 38.9961V32.0961H95.7848V38.8881C95.7848 39.5281 96.0848 39.8481 96.6848 39.8481C96.8848 39.8481 97.0648 39.8081 97.2248 39.7281L97.2968 40.9281C97.0168 41.0321 96.7168 41.0841 96.3968 41.0841Z" fill="#878787"/>
<path d="M105.664 41.1201C104.816 41.1201 104.048 40.9361 103.36 40.5681C102.68 40.1921 102.144 39.6761 101.752 39.0201C101.368 38.3641 101.176 37.6241 101.176 36.8001C101.176 35.9761 101.372 35.2361 101.764 34.5801C102.156 33.9241 102.692 33.4121 103.372 33.0441C104.06 32.6681 104.828 32.4801 105.676 32.4801C106.364 32.4801 106.992 32.6001 107.56 32.8401C108.128 33.0801 108.608 33.4281 109 33.8841L107.992 34.8321C107.384 34.1761 106.636 33.8481 105.748 33.8481C105.172 33.8481 104.656 33.9761 104.2 34.2321C103.744 34.4801 103.388 34.8281 103.132 35.2761C102.876 35.7241 102.748 36.2321 102.748 36.8001C102.748 37.3681 102.876 37.8761 103.132 38.3241C103.388 38.7721 103.744 39.1241 104.2 39.3801C104.656 39.6281 105.172 39.7521 105.748 39.7521C106.636 39.7521 107.384 39.4201 107.992 38.7561L109 39.7161C108.608 40.1721 108.124 40.5201 107.548 40.7601C106.98 41.0001 106.352 41.1201 105.664 41.1201Z" fill="#878787"/>
<path d="M112.463 41.0841C111.799 41.0841 111.279 40.9041 110.903 40.5441C110.535 40.1761 110.351 39.6601 110.351 38.9961V32.0961H111.851V38.8881C111.851 39.5281 112.151 39.8481 112.751 39.8481C112.951 39.8481 113.131 39.8081 113.291 39.7281L113.363 40.9281C113.083 41.0321 112.783 41.0841 112.463 41.0841Z" fill="#878787"/>
<path d="M120.529 34.5921V41.0001H119.101V40.1721C118.853 40.4761 118.545 40.7041 118.177 40.8561C117.817 41.0081 117.417 41.0841 116.977 41.0841C116.353 41.0841 115.793 40.9481 115.297 40.6761C114.809 40.4041 114.425 40.0201 114.145 39.5241C113.873 39.0281 113.737 38.4521 113.737 37.7961C113.737 37.1401 113.873 36.5681 114.145 36.0801C114.425 35.5841 114.809 35.2001 115.297 34.9281C115.793 34.6561 116.353 34.5201 116.977 34.5201C117.393 34.5201 117.773 34.5921 118.117 34.7361C118.469 34.8801 118.773 35.0921 119.029 35.3721V34.5921H120.529ZM117.145 39.8001C117.697 39.8001 118.153 39.6161 118.513 39.2481C118.873 38.8801 119.053 38.3961 119.053 37.7961C119.053 37.1961 118.873 36.7121 118.513 36.3441C118.153 35.9761 117.697 35.7921 117.145 35.7921C116.593 35.7921 116.137 35.9761 115.777 36.3441C115.425 36.7121 115.249 37.1961 115.249 37.7961C115.249 38.3961 115.425 38.8801 115.777 39.2481C116.137 39.6161 116.593 39.8001 117.145 39.8001Z" fill="#878787"/>
<path d="M124.472 41.0841C123.952 41.0841 123.444 41.0161 122.948 40.8801C122.452 40.7441 122.056 40.5721 121.76 40.3641L122.336 39.2241C122.624 39.4161 122.968 39.5721 123.368 39.6921C123.776 39.8041 124.176 39.8601 124.568 39.8601C125.464 39.8601 125.912 39.6241 125.912 39.1521C125.912 38.9281 125.796 38.7721 125.564 38.6841C125.34 38.5961 124.976 38.5121 124.472 38.4321C123.944 38.3521 123.512 38.2601 123.176 38.1561C122.848 38.0521 122.56 37.8721 122.312 37.6161C122.072 37.3521 121.952 36.9881 121.952 36.5241C121.952 35.9161 122.204 35.4321 122.708 35.0721C123.22 34.7041 123.908 34.5201 124.772 34.5201C125.212 34.5201 125.652 34.5721 126.092 34.6761C126.532 34.7721 126.892 34.9041 127.172 35.0721L126.596 36.2121C126.052 35.8921 125.44 35.7321 124.76 35.7321C124.32 35.7321 123.984 35.8001 123.752 35.9361C123.528 36.0641 123.416 36.2361 123.416 36.4521C123.416 36.6921 123.536 36.8641 123.776 36.9681C124.024 37.0641 124.404 37.1561 124.916 37.2441C125.428 37.3241 125.848 37.4161 126.176 37.5201C126.504 37.6241 126.784 37.8001 127.016 38.0481C127.256 38.2961 127.376 38.6481 127.376 39.1041C127.376 39.7041 127.116 40.1841 126.596 40.5441C126.076 40.9041 125.368 41.0841 124.472 41.0841Z" fill="#878787"/>
<path d="M130.648 41.0841C130.128 41.0841 129.62 41.0161 129.124 40.8801C128.628 40.7441 128.232 40.5721 127.936 40.3641L128.512 39.2241C128.8 39.4161 129.144 39.5721 129.544 39.6921C129.952 39.8041 130.352 39.8601 130.744 39.8601C131.64 39.8601 132.088 39.6241 132.088 39.1521C132.088 38.9281 131.972 38.7721 131.74 38.6841C131.516 38.5961 131.152 38.5121 130.648 38.4321C130.12 38.3521 129.688 38.2601 129.352 38.1561C129.024 38.0521 128.736 37.8721 128.488 37.6161C128.248 37.3521 128.128 36.9881 128.128 36.5241C128.128 35.9161 128.38 35.4321 128.884 35.0721C129.396 34.7041 130.084 34.5201 130.948 34.5201C131.388 34.5201 131.828 34.5721 132.268 34.6761C132.708 34.7721 133.068 34.9041 133.348 35.0721L132.772 36.2121C132.228 35.8921 131.616 35.7321 130.936 35.7321C130.496 35.7321 130.16 35.8001 129.928 35.9361C129.704 36.0641 129.592 36.2361 129.592 36.4521C129.592 36.6921 129.712 36.8641 129.952 36.9681C130.2 37.0641 130.58 37.1561 131.092 37.2441C131.604 37.3241 132.024 37.4161 132.352 37.5201C132.68 37.6241 132.96 37.8001 133.192 38.0481C133.432 38.2961 133.552 38.6481 133.552 39.1041C133.552 39.7041 133.292 40.1841 132.772 40.5441C132.252 40.9041 131.544 41.0841 130.648 41.0841Z" fill="#878787"/>
<path d="M134.843 34.5921H136.343V41.0001H134.843V34.5921ZM135.599 33.5361C135.327 33.5361 135.099 33.4521 134.915 33.2841C134.731 33.1081 134.639 32.8921 134.639 32.6361C134.639 32.3801 134.731 32.1681 134.915 32.0001C135.099 31.8241 135.327 31.7361 135.599 31.7361C135.871 31.7361 136.099 31.8201 136.283 31.9881C136.467 32.1481 136.559 32.3521 136.559 32.6001C136.559 32.8641 136.467 33.0881 136.283 33.2721C136.107 33.4481 135.879 33.5361 135.599 33.5361Z" fill="#878787"/>
<path d="M140.724 33.2241C140.092 33.2241 139.776 33.5681 139.776 34.2561V34.6401H141.54V35.8401H139.812V41.0001H138.312V34.2321C138.312 33.5521 138.512 33.0121 138.912 32.6121C139.312 32.2121 139.88 32.0121 140.616 32.0121C141.184 32.0121 141.632 32.1281 141.96 32.3601L141.54 33.4881C141.3 33.3121 141.028 33.2241 140.724 33.2241ZM143.508 34.5921H145.008V41.0001H143.508V34.5921ZM144.264 33.5361C143.992 33.5361 143.764 33.4521 143.58 33.2841C143.396 33.1081 143.304 32.8921 143.304 32.6361C143.304 32.3801 143.396 32.1681 143.58 32.0001C143.764 31.8241 143.992 31.7361 144.264 31.7361C144.536 31.7361 144.764 31.8201 144.948 31.9881C145.132 32.1481 145.224 32.3521 145.224 32.6001C145.224 32.8641 145.132 33.0881 144.948 33.2721C144.772 33.4481 144.544 33.5361 144.264 33.5361Z" fill="#878787"/>
<path d="M150.02 39.8121C150.716 39.8121 151.296 39.5801 151.76 39.1161L152.552 40.0401C152.272 40.3841 151.912 40.6441 151.472 40.8201C151.032 40.9961 150.536 41.0841 149.984 41.0841C149.28 41.0841 148.66 40.9441 148.124 40.6641C147.588 40.3841 147.172 39.9961 146.876 39.5001C146.588 38.9961 146.444 38.4281 146.444 37.7961C146.444 37.1721 146.584 36.6121 146.864 36.1161C147.152 35.6121 147.544 35.2201 148.04 34.9401C148.544 34.6601 149.112 34.5201 149.744 34.5201C150.344 34.5201 150.888 34.6521 151.376 34.9161C151.872 35.1721 152.264 35.5441 152.552 36.0321C152.84 36.5121 152.984 37.0761 152.984 37.7241L148.076 38.6841C148.228 39.0521 148.472 39.3321 148.808 39.5241C149.144 39.7161 149.548 39.8121 150.02 39.8121ZM149.744 35.7201C149.192 35.7201 148.744 35.9001 148.4 36.2601C148.064 36.6201 147.896 37.1041 147.896 37.7121V37.7241L151.52 37.0281C151.416 36.6361 151.204 36.3201 150.884 36.0801C150.572 35.8401 150.192 35.7201 149.744 35.7201Z" fill="#878787"/>
<path d="M160.701 32.0961V41.0001H159.261V40.1721C159.013 40.4761 158.705 40.7041 158.337 40.8561C157.977 41.0081 157.577 41.0841 157.137 41.0841C156.521 41.0841 155.965 40.9481 155.469 40.6761C154.981 40.4041 154.597 40.0201 154.317 39.5241C154.037 39.0201 153.897 38.4441 153.897 37.7961C153.897 37.1481 154.037 36.5761 154.317 36.0801C154.597 35.5841 154.981 35.2001 155.469 34.9281C155.965 34.6561 156.521 34.5201 157.137 34.5201C157.561 34.5201 157.949 34.5921 158.301 34.7361C158.653 34.8801 158.953 35.0961 159.201 35.3841V32.0961H160.701ZM157.317 39.8001C157.677 39.8001 158.001 39.7201 158.289 39.5601C158.577 39.3921 158.805 39.1561 158.973 38.8521C159.141 38.5481 159.225 38.1961 159.225 37.7961C159.225 37.3961 159.141 37.0441 158.973 36.7401C158.805 36.4361 158.577 36.2041 158.289 36.0441C158.001 35.8761 157.677 35.7921 157.317 35.7921C156.957 35.7921 156.633 35.8761 156.345 36.0441C156.057 36.2041 155.829 36.4361 155.661 36.7401C155.493 37.0441 155.409 37.3961 155.409 37.7961C155.409 38.1961 155.493 38.5481 155.661 38.8521C155.829 39.1561 156.057 39.3921 156.345 39.5601C156.633 39.7201 156.957 39.8001 157.317 39.8001Z" fill="#878787"/>
<path d="M166.124 32.6001H167.684V39.6801H172.076V41.0001H166.124V32.6001Z" fill="#878787"/>
<path d="M173.164 34.5921H174.664V41.0001H173.164V34.5921ZM173.92 33.5361C173.648 33.5361 173.42 33.4521 173.236 33.2841C173.052 33.1081 172.96 32.8921 172.96 32.6361C172.96 32.3801 173.052 32.1681 173.236 32.0001C173.42 31.8241 173.648 31.7361 173.92 31.7361C174.192 31.7361 174.42 31.8201 174.604 31.9881C174.788 32.1481 174.88 32.3521 174.88 32.6001C174.88 32.8641 174.788 33.0881 174.604 33.2721C174.428 33.4481 174.2 33.5361 173.92 33.5361Z" fill="#878787"/>
<path d="M178.612 41.0841C178.092 41.0841 177.584 41.0161 177.088 40.8801C176.592 40.7441 176.196 40.5721 175.9 40.3641L176.476 39.2241C176.764 39.4161 177.108 39.5721 177.508 39.6921C177.916 39.8041 178.316 39.8601 178.708 39.8601C179.604 39.8601 180.052 39.6241 180.052 39.1521C180.052 38.9281 179.936 38.7721 179.704 38.6841C179.48 38.5961 179.116 38.5121 178.612 38.4321C178.084 38.3521 177.652 38.2601 177.316 38.1561C176.988 38.0521 176.7 37.8721 176.452 37.6161C176.212 37.3521 176.092 36.9881 176.092 36.5241C176.092 35.9161 176.344 35.4321 176.848 35.0721C177.36 34.7041 178.048 34.5201 178.912 34.5201C179.352 34.5201 179.792 34.5721 180.232 34.6761C180.672 34.7721 181.032 34.9041 181.312 35.0721L180.736 36.2121C180.192 35.8921 179.58 35.7321 178.9 35.7321C178.46 35.7321 178.124 35.8001 177.892 35.9361C177.668 36.0641 177.556 36.2361 177.556 36.4521C177.556 36.6921 177.676 36.8641 177.916 36.9681C178.164 37.0641 178.544 37.1561 179.056 37.2441C179.568 37.3241 179.988 37.4161 180.316 37.5201C180.644 37.6241 180.924 37.8001 181.156 38.0481C181.396 38.2961 181.516 38.6481 181.516 39.1041C181.516 39.7041 181.256 40.1841 180.736 40.5441C180.216 40.9041 179.508 41.0841 178.612 41.0841Z" fill="#878787"/>
<path d="M186.408 40.6521C186.232 40.7961 186.016 40.9041 185.76 40.9761C185.512 41.0481 185.248 41.0841 184.968 41.0841C184.264 41.0841 183.72 40.9001 183.336 40.5321C182.952 40.1641 182.76 39.6281 182.76 38.9241V33.1761H184.26V34.6401H185.976V35.8401H184.26V38.8881C184.26 39.2001 184.336 39.4401 184.488 39.6081C184.648 39.7681 184.868 39.8481 185.148 39.8481C185.484 39.8481 185.764 39.7601 185.988 39.5841L186.408 40.6521Z" fill="#878787"/>
<path d="M187.648 34.5921H189.148V41.0001H187.648V34.5921ZM188.404 33.5361C188.132 33.5361 187.904 33.4521 187.72 33.2841C187.536 33.1081 187.444 32.8921 187.444 32.6361C187.444 32.3801 187.536 32.1681 187.72 32.0001C187.904 31.8241 188.132 31.7361 188.404 31.7361C188.676 31.7361 188.904 31.8201 189.088 31.9881C189.272 32.1481 189.364 32.3521 189.364 32.6001C189.364 32.8641 189.272 33.0881 189.088 33.2721C188.912 33.4481 188.684 33.5361 188.404 33.5361Z" fill="#878787"/>
<path d="M194.753 34.5201C195.561 34.5201 196.209 34.7561 196.697 35.2281C197.185 35.7001 197.429 36.4001 197.429 37.3281V41.0001H195.929V37.5201C195.929 36.9601 195.797 36.5401 195.533 36.2601C195.269 35.9721 194.893 35.8281 194.405 35.8281C193.853 35.8281 193.417 35.9961 193.097 36.3321C192.777 36.6601 192.617 37.1361 192.617 37.7601V41.0001H191.117V34.5921H192.545V35.4201C192.793 35.1241 193.105 34.9001 193.481 34.7481C193.857 34.5961 194.281 34.5201 194.753 34.5201Z" fill="#878787"/>
<path d="M205.75 34.5921V40.0281C205.75 42.2841 204.598 43.4121 202.294 43.4121C201.678 43.4121 201.094 43.3321 200.542 43.1721C199.99 43.0201 199.534 42.7961 199.174 42.5001L199.846 41.3721C200.126 41.6041 200.478 41.7881 200.902 41.9241C201.334 42.0681 201.77 42.1401 202.21 42.1401C202.914 42.1401 203.43 41.9801 203.758 41.6601C204.086 41.3401 204.25 40.8521 204.25 40.1961V39.8601C203.994 40.1401 203.682 40.3521 203.314 40.4961C202.946 40.6401 202.542 40.7121 202.102 40.7121C201.494 40.7121 200.942 40.5841 200.446 40.3281C199.958 40.0641 199.57 39.6961 199.282 39.2241C199.002 38.7521 198.862 38.2121 198.862 37.6041C198.862 36.9961 199.002 36.4601 199.282 35.9961C199.57 35.5241 199.958 35.1601 200.446 34.9041C200.942 34.6481 201.494 34.5201 202.102 34.5201C202.566 34.5201 202.986 34.5961 203.362 34.7481C203.746 34.9001 204.066 35.1321 204.322 35.4441V34.5921H205.75ZM202.33 39.4401C202.898 39.4401 203.362 39.2721 203.722 38.9361C204.09 38.5921 204.274 38.1481 204.274 37.6041C204.274 37.0681 204.09 36.6321 203.722 36.2961C203.362 35.9601 202.898 35.7921 202.33 35.7921C201.754 35.7921 201.282 35.9601 200.914 36.2961C200.554 36.6321 200.374 37.0681 200.374 37.6041C200.374 38.1481 200.554 38.5921 200.914 38.9361C201.282 39.2721 201.754 39.4401 202.33 39.4401Z" fill="#878787"/>
<circle cx="24.5" cy="25.5" r="15.5" fill="black"/>
<mask id="mask0_41_1873" style="mask-type:alpha" maskUnits="userSpaceOnUse" x="9" y="10" width="31" height="31">
<circle cx="24.5" cy="25.5" r="15.5" fill="black"/>
</mask>
<g mask="url(#mask0_41_1873)">
<path d="M15.1841 25.2253L15.3254 24.6167L20.089 21.9024L19.5471 20.9214L14.6474 23.0862C14.876 23.2608 15.0223 23.533 15.0223 23.8412C15.0223 24.3676 14.5961 24.7939 14.0696 24.7939C13.8462 24.7939 13.6433 24.7169 13.479 24.5885L13.1965 25.9598L15.1816 25.2253H15.1841Z" fill="white"/>
<path d="M25.7488 21.8073L12.2463 26.8021L9.71167 39.0001H14.8322L16.7377 29.8503C16.5143 29.9402 16.2729 29.989 16.0161 29.989C14.9375 29.989 14.0644 29.1159 14.0644 28.0373C14.0644 26.9587 14.9375 26.0856 16.0161 26.0856C16.9354 26.0856 17.7033 26.7225 17.9113 27.5776L27.2562 22.6188L25.7488 21.8073Z" fill="white"/>
<path d="M16.0162 26.5658C15.2047 26.5658 14.5448 27.2232 14.5448 28.0373C14.5448 28.8514 15.2022 29.5088 16.0162 29.5088C16.8303 29.5088 17.4877 28.8514 17.4877 28.0373C17.4877 27.2232 16.8303 26.5658 16.0162 26.5658ZM16.0162 28.7923C15.6002 28.7923 15.2612 28.4533 15.2612 28.0373C15.2612 27.6213 15.6002 27.2823 16.0162 27.2823C16.4322 27.2823 16.7712 27.6213 16.7712 28.0373C16.7712 28.4533 16.4322 28.7923 16.0162 28.7923Z" fill="white"/>
<path d="M14.0698 23.1813C13.7051 23.1813 13.4098 23.4766 13.4098 23.8413C13.4098 24.2059 13.7051 24.5013 14.0698 24.5013C14.4344 24.5013 14.7297 24.2059 14.7297 23.8413C14.7297 23.4766 14.4344 23.1813 14.0698 23.1813ZM14.0698 24.1803C13.8823 24.1803 13.7308 24.0288 13.7308 23.8413C13.7308 23.6538 13.8823 23.5023 14.0698 23.5023C14.2572 23.5023 14.4087 23.6538 14.4087 23.8413C14.4087 24.0288 14.2572 24.1803 14.0698 24.1803Z" fill="white"/>
<path d="M31.2265 29.2546C30.8002 29.2546 30.4356 29.0004 30.2712 28.6357L29.7807 29.722L26.0854 29.6989L24.3135 28.0682H23.6869L26.5091 33.3403H29.7422L31.5398 29.2084C31.4397 29.2392 31.3344 29.2572 31.2265 29.2572V29.2546Z" fill="white"/>
<path d="M31.2265 27.6291C30.8619 27.6291 30.5666 27.9244 30.5666 28.2891C30.5666 28.6537 30.8619 28.949 31.2265 28.949C31.5912 28.949 31.8865 28.6537 31.8865 28.2891C31.8865 27.9244 31.5912 27.6291 31.2265 27.6291ZM31.2265 28.628C31.0391 28.628 30.8876 28.4765 30.8876 28.2891C30.8876 28.1016 31.0391 27.9501 31.2265 27.9501C31.414 27.9501 31.5655 28.1016 31.5655 28.2891C31.5655 28.4765 31.414 28.628 31.2265 28.628Z" fill="white"/>
<path d="M30.7694 22.5239C30.4048 22.5239 30.1094 22.8192 30.1094 23.1839C30.1094 23.5485 30.4048 23.8439 30.7694 23.8439C31.1341 23.8439 31.4294 23.5485 31.4294 23.1839C31.4294 22.8192 31.1341 22.5239 30.7694 22.5239ZM30.7694 23.5229C30.582 23.5229 30.4304 23.3713 30.4304 23.1839C30.4304 22.9964 30.582 22.8449 30.7694 22.8449C30.9569 22.8449 31.1084 22.9964 31.1084 23.1839C31.1084 23.3713 30.9569 23.5229 30.7694 23.5229Z" fill="white"/>
<path d="M31.7761 23.7566C31.5757 24.1058 31.2008 24.3446 30.7668 24.3446C30.6076 24.3446 30.4587 24.3138 30.32 24.2548L30.926 27.2054C31.0904 27.1566 31.2676 27.1463 31.4551 27.1874C31.8839 27.285 32.2152 27.6522 32.2614 28.0888C32.3256 28.6768 31.9019 29.1802 31.3446 29.2444L31.4037 29.5191C31.4807 29.871 31.7915 30.12 32.151 30.12C32.6363 30.12 32.9984 29.6758 32.9008 29.2007L31.7735 23.7566H31.7761Z" fill="white"/>
<path d="M24.7372 18.4331C24.4547 18.4331 24.2262 18.6617 24.2262 18.9441C24.2262 19.2266 24.4547 19.4552 24.7372 19.4552C25.0197 19.4552 25.2482 19.2266 25.2482 18.9441C25.2482 18.6617 25.0197 18.4331 24.7372 18.4331Z" fill="white"/>
<path d="M26.6786 17.9811C24.9709 16.3453 22.1692 16.8178 21.0932 18.9236L29.66 23.5331C29.6241 23.4227 29.6061 23.3046 29.6061 23.1839C29.6061 22.5419 30.1248 22.0232 30.7668 22.0232C30.8131 22.0232 30.8593 22.0257 30.9029 22.0309L26.6786 17.9811ZM24.7346 19.938C24.1851 19.938 23.7408 19.4937 23.7408 18.9441C23.7408 18.3946 24.1851 17.9503 24.7346 17.9503C25.2842 17.9503 25.7284 18.3946 25.7284 18.9441C25.7284 19.4937 25.2842 19.938 24.7346 19.938Z" fill="white"/>
<path d="M22.218 19.9097L20.0788 20.9164L20.3793 21.4633L22.7213 20.1819L22.218 19.9097Z" fill="white"/>
<path d="M25.9287 18.3946L27.6133 17.8142L32.323 22.2825L33.4709 27.4981L32.4668 28.9465" stroke="white" stroke-width="0.466908" stroke-miterlimit="10"/>
<path d="M25.8081 18.4357L27.6134 17.8142L32.3231 22.2825L32.9214 24.9995" stroke="white" stroke-width="0.933816" stroke-miterlimit="10"/>
</g>
<path fill-rule="evenodd" clip-rule="evenodd" d="M46.0757 22.4619L48.0697 22.7969C48.6064 22.888 49 23.3532 49 23.8964V27.0971C49 27.6436 48.6064 28.1055 48.0697 28.1966L46.053 28.5349C45.5976 28.6097 45.2333 28.9577 45.1455 29.4099C44.947 30.441 44.6705 31.4428 44.329 32.4154C44.1761 32.8546 44.316 33.3392 44.6738 33.6352L46.2612 34.9428C46.6808 35.2909 46.7914 35.8894 46.5181 36.3611L44.9178 39.1324C44.6445 39.6041 44.072 39.8123 43.5613 39.6204L41.6129 38.8917C41.1803 38.7291 40.6924 38.8494 40.3899 39.1975C39.7133 39.9782 38.9814 40.7068 38.2007 41.3801C37.8494 41.6826 37.7291 42.1738 37.8917 42.6064L38.6236 44.5613C38.8123 45.072 38.6073 45.6445 38.1357 45.9178L35.3643 47.5181C34.8927 47.7914 34.2909 47.6808 33.9461 47.2612L32.6157 45.6445C32.3197 45.29 31.835 45.1468 31.3992 45.2997C30.4363 45.6348 29.4442 45.9015 28.4229 46.0967C27.9707 46.1845 27.6194 46.5488 27.5446 47.0042L27.1998 49.0697C27.1087 49.6064 26.6436 50 26.1004 50H22.8996C22.3532 50 21.8913 49.6064 21.8002 49.0697L21.4554 47.0042C21.3806 46.5488 21.0325 46.1812 20.5771 46.0967C19.5558 45.9047 18.5637 45.6348 17.6008 45.2997C17.1617 45.1468 16.677 45.2867 16.3843 45.6445L15.0539 47.2612C14.7059 47.6808 14.1073 47.7914 13.6357 47.5181L10.8643 45.9178C10.3927 45.6445 10.1845 45.072 10.3764 44.5613L11.1083 42.6064C11.2709 42.1738 11.1506 41.6826 10.7993 41.3801C10.0186 40.7068 9.28671 39.9782 8.61013 39.1975C8.30762 38.8494 7.8197 38.7291 7.38708 38.8917L5.43866 39.6204C4.92797 39.809 4.35548 39.6041 4.08225 39.1324L2.48188 36.3611C2.20864 35.8894 2.31924 35.2876 2.73885 34.9428L4.32621 33.6352C4.68402 33.3392 4.82388 32.8513 4.671 32.4154C4.32946 31.4461 4.05297 30.441 3.85455 29.4099C3.76673 28.9577 3.40242 28.6097 2.94703 28.5349L0.930297 28.1966C0.393587 28.1055 0 27.6403 0 27.0971V23.8964C0 23.3499 0.393587 22.888 0.930297 22.7969L2.92426 22.4619C3.37965 22.3871 3.74721 22.0358 3.83178 21.5804C4.02695 20.5395 4.29693 19.5279 4.63848 18.5455C4.7881 18.1097 4.64823 17.625 4.29043 17.3322L2.7356 16.0507C2.31599 15.7026 2.20539 15.1041 2.47862 14.6324L4.079 11.8611C4.35223 11.3894 4.92472 11.1812 5.43541 11.3731L7.30902 12.0757C7.74164 12.2384 8.23281 12.118 8.53532 11.7667C9.22165 10.9665 9.9698 10.2184 10.7667 9.52881C11.1148 9.22955 11.2351 8.73838 11.0725 8.30576L10.3731 6.43866C10.1845 5.92797 10.3894 5.35548 10.8611 5.08225L13.6324 3.48188C14.1041 3.20864 14.7059 3.31924 15.0507 3.73885L16.3095 5.26441C16.6055 5.62221 17.0934 5.76208 17.5293 5.6092C18.5214 5.26115 19.546 4.98141 20.5967 4.78299C21.0488 4.69842 21.4001 4.33086 21.4749 3.87546L21.8002 1.9303C21.8913 1.39359 22.3564 1 22.8996 1H26.1004C26.6468 1 27.1087 1.39359 27.1998 1.9303L27.5251 3.87546C27.5999 4.33086 27.948 4.69842 28.4033 4.78299C29.4573 4.98141 30.4786 5.26115 31.4707 5.6092C31.9099 5.76208 32.3945 5.62221 32.6905 5.26441L33.9493 3.73885C34.2974 3.31924 34.8959 3.20864 35.3676 3.48188L38.1389 5.08225C38.6106 5.35548 38.8188 5.92797 38.6269 6.43866L37.9275 8.30576C37.7649 8.73513 37.8852 9.2263 38.2333 9.52881C39.0335 10.2184 39.7783 10.9665 40.4647 11.7667C40.7639 12.118 41.2584 12.2384 41.691 12.0757L43.5646 11.3731C44.0753 11.1845 44.6478 11.3894 44.921 11.8611L46.5214 14.6324C46.7946 15.1041 46.684 15.7059 46.2644 16.0507L44.7096 17.3322C44.3518 17.625 44.2086 18.1097 44.3615 18.5455C44.7031 19.5246 44.973 20.5395 45.1682 21.5804C45.2528 22.0358 45.6204 22.3871 46.0757 22.4619ZM42 25.5C42 35.165 34.165 43 24.5 43C14.835 43 7 35.165 7 25.5C7 15.835 14.835 8 24.5 8C34.165 8 42 15.835 42 25.5Z" fill="#FFC100"/>
</svg>
