<svg width="207" height="51" viewBox="0 0 207 51" fill="none" xmlns="http://www.w3.org/2000/svg">
<path d="M63.218 24.308C61.6047 24.308 60.1527 23.9707 58.862 23.296C57.586 22.6067 56.5813 21.6533 55.848 20.436C55.1147 19.2187 54.748 17.84 54.748 16.3C54.748 14.76 55.1147 13.3813 55.848 12.164C56.5813 10.9467 57.586 10.0007 58.862 9.326C60.1527 8.63667 61.6047 8.292 63.218 8.292C64.626 8.292 65.8947 8.54133 67.024 9.04C68.1533 9.53867 69.092 10.2573 69.84 11.196L67.068 13.704C66.0707 12.5013 64.8607 11.9 63.438 11.9C62.602 11.9 61.854 12.0833 61.194 12.45C60.5487 12.8167 60.0427 13.3373 59.676 14.012C59.324 14.672 59.148 15.4347 59.148 16.3C59.148 17.1653 59.324 17.9353 59.676 18.61C60.0427 19.27 60.5487 19.7833 61.194 20.15C61.854 20.5167 62.602 20.7 63.438 20.7C64.8607 20.7 66.0707 20.0987 67.068 18.896L69.84 21.404C69.092 22.3427 68.1533 23.0613 67.024 23.56C65.8947 24.0587 64.626 24.308 63.218 24.308ZM76.2262 24.198C74.7595 24.198 73.6155 23.824 72.7942 23.076C71.9875 22.3133 71.5842 21.228 71.5842 19.82V7.676H75.7642V19.6C75.7642 20.04 75.8742 20.3773 76.0942 20.612C76.3289 20.8467 76.6515 20.964 77.0622 20.964C77.3995 20.964 77.7149 20.8907 78.0082 20.744L78.1842 23.89C77.5535 24.0953 76.9009 24.198 76.2262 24.198ZM85.849 21.008C86.421 21.008 86.9123 20.9273 87.323 20.766C87.7483 20.6047 88.1736 20.3407 88.599 19.974L90.777 22.262C89.6476 23.5527 87.961 24.198 85.717 24.198C84.3236 24.198 83.099 23.934 82.043 23.406C80.987 22.878 80.1656 22.1447 79.579 21.206C79.007 20.2673 78.721 19.204 78.721 18.016C78.721 16.8427 79.007 15.794 79.579 14.87C80.151 13.9313 80.9356 13.198 81.933 12.67C82.945 12.142 84.0743 11.878 85.321 11.878C86.4796 11.878 87.5356 12.12 88.489 12.604C89.457 13.0733 90.227 13.77 90.799 14.694C91.371 15.6033 91.657 16.6887 91.657 17.95L83.143 19.578C83.5976 20.5313 84.4996 21.008 85.849 21.008ZM85.343 14.848C84.6243 14.848 84.0376 15.0753 83.583 15.53C83.1283 15.97 82.8716 16.608 82.813 17.444L87.653 16.498C87.5063 15.9993 87.2276 15.6033 86.817 15.31C86.4063 15.002 85.915 14.848 85.343 14.848ZM106.19 12.076V28.268H102.01V22.944C101.204 23.78 100.096 24.198 98.6882 24.198C97.6029 24.198 96.6129 23.9487 95.7182 23.45C94.8382 22.9367 94.1342 22.218 93.6062 21.294C93.0929 20.3553 92.8362 19.27 92.8362 18.038C92.8362 16.806 93.0929 15.728 93.6062 14.804C94.1342 13.8653 94.8382 13.1467 95.7182 12.648C96.6129 12.1347 97.6029 11.878 98.6882 11.878C100.258 11.878 101.431 12.34 102.208 13.264V12.076H106.19ZM99.5682 20.876C100.302 20.876 100.903 20.6267 101.372 20.128C101.842 19.6147 102.076 18.918 102.076 18.038C102.076 17.158 101.842 16.4687 101.372 15.97C100.903 15.4567 100.302 15.2 99.5682 15.2C98.8349 15.2 98.2335 15.4567 97.7642 15.97C97.2949 16.4687 97.0602 17.158 97.0602 18.038C97.0602 18.918 97.2949 19.6147 97.7642 20.128C98.2335 20.6267 98.8349 20.876 99.5682 20.876ZM121.421 12.076V24H117.439V22.724C116.999 23.208 116.471 23.5747 115.855 23.824C115.239 24.0733 114.586 24.198 113.897 24.198C112.357 24.198 111.125 23.7433 110.201 22.834C109.292 21.9247 108.837 20.5607 108.837 18.742V12.076H113.017V18.06C113.017 18.9547 113.186 19.6073 113.523 20.018C113.86 20.4287 114.352 20.634 114.997 20.634C115.657 20.634 116.192 20.4067 116.603 19.952C117.028 19.4827 117.241 18.7713 117.241 17.818V12.076H121.421ZM124.113 12.076H128.293V24H124.113V12.076ZM126.203 10.756C125.441 10.756 124.825 10.5433 124.355 10.118C123.886 9.69267 123.651 9.16467 123.651 8.534C123.651 7.90333 123.886 7.37533 124.355 6.95C124.825 6.52467 125.441 6.312 126.203 6.312C126.966 6.312 127.582 6.51733 128.051 6.928C128.521 7.324 128.755 7.83733 128.755 8.468C128.755 9.128 128.521 9.678 128.051 10.118C127.582 10.5433 126.966 10.756 126.203 10.756ZM138.512 11.878C139.597 11.878 140.58 12.1347 141.46 12.648C142.355 13.1467 143.059 13.8653 143.572 14.804C144.1 15.728 144.364 16.806 144.364 18.038C144.364 19.27 144.1 20.3553 143.572 21.294C143.059 22.218 142.355 22.9367 141.46 23.45C140.58 23.9487 139.597 24.198 138.512 24.198C137.119 24.198 136.011 23.78 135.19 22.944V28.268H131.01V12.076H134.992V13.264C135.769 12.34 136.943 11.878 138.512 11.878ZM137.632 20.876C138.365 20.876 138.967 20.6267 139.436 20.128C139.905 19.6147 140.14 18.918 140.14 18.038C140.14 17.158 139.905 16.4687 139.436 15.97C138.967 15.4567 138.365 15.2 137.632 15.2C136.899 15.2 136.297 15.4567 135.828 15.97C135.359 16.4687 135.124 17.158 135.124 18.038C135.124 18.918 135.359 19.6147 135.828 20.128C136.297 20.6267 136.899 20.876 137.632 20.876ZM161.839 11.878C163.306 11.878 164.472 12.318 165.337 13.198C166.217 14.078 166.657 15.4053 166.657 17.18V24H162.477V17.862C162.477 17.026 162.316 16.41 161.993 16.014C161.685 15.618 161.245 15.42 160.673 15.42C160.042 15.42 159.536 15.64 159.155 16.08C158.774 16.52 158.583 17.1873 158.583 18.082V24H154.403V17.862C154.403 16.234 153.802 15.42 152.599 15.42C151.954 15.42 151.44 15.64 151.059 16.08C150.678 16.52 150.487 17.1873 150.487 18.082V24H146.307V12.076H150.289V13.33C150.729 12.846 151.25 12.4867 151.851 12.252C152.467 12.0027 153.134 11.878 153.853 11.878C154.689 11.878 155.437 12.032 156.097 12.34C156.757 12.648 157.292 13.1173 157.703 13.748C158.172 13.1467 158.766 12.6847 159.485 12.362C160.204 12.0393 160.988 11.878 161.839 11.878ZM175.847 21.008C176.419 21.008 176.91 20.9273 177.321 20.766C177.746 20.6047 178.172 20.3407 178.597 19.974L180.775 22.262C179.646 23.5527 177.959 24.198 175.715 24.198C174.322 24.198 173.097 23.934 172.041 23.406C170.985 22.878 170.164 22.1447 169.577 21.206C169.005 20.2673 168.719 19.204 168.719 18.016C168.719 16.8427 169.005 15.794 169.577 14.87C170.149 13.9313 170.934 13.198 171.931 12.67C172.943 12.142 174.072 11.878 175.319 11.878C176.478 11.878 177.534 12.12 178.487 12.604C179.455 13.0733 180.225 13.77 180.797 14.694C181.369 15.6033 181.655 16.6887 181.655 17.95L173.141 19.578C173.596 20.5313 174.498 21.008 175.847 21.008ZM175.341 14.848C174.622 14.848 174.036 15.0753 173.581 15.53C173.126 15.97 172.87 16.608 172.811 17.444L177.651 16.498C177.504 15.9993 177.226 15.6033 176.815 15.31C176.404 15.002 175.913 14.848 175.341 14.848ZM191.348 11.878C192.83 11.878 194.018 12.318 194.912 13.198C195.822 14.078 196.276 15.4053 196.276 17.18V24H192.096V17.862C192.096 16.234 191.444 15.42 190.138 15.42C189.42 15.42 188.84 15.6547 188.4 16.124C187.975 16.5933 187.762 17.2973 187.762 18.236V24H183.582V12.076H187.564V13.374C188.034 12.89 188.591 12.5233 189.236 12.274C189.882 12.01 190.586 11.878 191.348 11.878ZM206.579 23.516C206.227 23.736 205.794 23.9047 205.281 24.022C204.782 24.1393 204.247 24.198 203.675 24.198C202.12 24.198 200.925 23.8167 200.089 23.054C199.267 22.2913 198.857 21.1547 198.857 19.644V9.414H203.037V12.516H205.743V15.64H203.037V19.6C203.037 20.04 203.147 20.3773 203.367 20.612C203.587 20.8467 203.887 20.964 204.269 20.964C204.753 20.964 205.178 20.8393 205.545 20.59L206.579 23.516Z" fill="white"/>
<path d="M62.624 41L60.908 38.54C60.836 38.548 60.728 38.552 60.584 38.552H58.688V41H57.128V32.6H60.584C61.312 32.6 61.944 32.72 62.48 32.96C63.024 33.2 63.44 33.544 63.728 33.992C64.016 34.44 64.16 34.972 64.16 35.588C64.16 36.22 64.004 36.764 63.692 37.22C63.388 37.676 62.948 38.016 62.372 38.24L64.304 41H62.624ZM62.588 35.588C62.588 35.052 62.412 34.64 62.06 34.352C61.708 34.064 61.192 33.92 60.512 33.92H58.688V37.268H60.512C61.192 37.268 61.708 37.124 62.06 36.836C62.412 36.54 62.588 36.124 62.588 35.588ZM68.8093 39.812C69.5053 39.812 70.0853 39.58 70.5493 39.116L71.3413 40.04C71.0613 40.384 70.7013 40.644 70.2613 40.82C69.8213 40.996 69.3253 41.084 68.7733 41.084C68.0693 41.084 67.4493 40.944 66.9133 40.664C66.3773 40.384 65.9613 39.996 65.6653 39.5C65.3773 38.996 65.2333 38.428 65.2333 37.796C65.2333 37.172 65.3733 36.612 65.6533 36.116C65.9413 35.612 66.3333 35.22 66.8293 34.94C67.3333 34.66 67.9013 34.52 68.5333 34.52C69.1333 34.52 69.6773 34.652 70.1653 34.916C70.6613 35.172 71.0533 35.544 71.3413 36.032C71.6293 36.512 71.7733 37.076 71.7733 37.724L66.8653 38.684C67.0173 39.052 67.2613 39.332 67.5973 39.524C67.9333 39.716 68.3373 39.812 68.8093 39.812ZM68.5333 35.72C67.9813 35.72 67.5333 35.9 67.1893 36.26C66.8533 36.62 66.6853 37.104 66.6853 37.712V37.724L70.3093 37.028C70.2053 36.636 69.9933 36.32 69.6733 36.08C69.3613 35.84 68.9813 35.72 68.5333 35.72ZM76.8505 34.52C77.6585 34.52 78.3065 34.756 78.7945 35.228C79.2825 35.7 79.5265 36.4 79.5265 37.328V41H78.0265V37.52C78.0265 36.96 77.8945 36.54 77.6305 36.26C77.3665 35.972 76.9905 35.828 76.5025 35.828C75.9505 35.828 75.5145 35.996 75.1945 36.332C74.8745 36.66 74.7145 37.136 74.7145 37.76V41H73.2145V34.592H74.6425V35.42C74.8905 35.124 75.2025 34.9 75.5785 34.748C75.9545 34.596 76.3785 34.52 76.8505 34.52ZM85.0293 40.652C84.8533 40.796 84.6373 40.904 84.3813 40.976C84.1333 41.048 83.8693 41.084 83.5893 41.084C82.8853 41.084 82.3413 40.9 81.9573 40.532C81.5733 40.164 81.3813 39.628 81.3813 38.924V33.176H82.8813V34.64H84.5973V35.84H82.8813V38.888C82.8813 39.2 82.9573 39.44 83.1093 39.608C83.2693 39.768 83.4893 39.848 83.7693 39.848C84.1053 39.848 84.3853 39.76 84.6093 39.584L85.0293 40.652ZM92.3222 34.592V41H90.8942V40.172C90.6462 40.476 90.3382 40.704 89.9702 40.856C89.6102 41.008 89.2102 41.084 88.7702 41.084C88.1462 41.084 87.5862 40.948 87.0902 40.676C86.6022 40.404 86.2182 40.02 85.9382 39.524C85.6662 39.028 85.5302 38.452 85.5302 37.796C85.5302 37.14 85.6662 36.568 85.9382 36.08C86.2182 35.584 86.6022 35.2 87.0902 34.928C87.5862 34.656 88.1462 34.52 88.7702 34.52C89.1862 34.52 89.5662 34.592 89.9102 34.736C90.2622 34.88 90.5662 35.092 90.8222 35.372V34.592H92.3222ZM88.9382 39.8C89.4902 39.8 89.9462 39.616 90.3062 39.248C90.6662 38.88 90.8462 38.396 90.8462 37.796C90.8462 37.196 90.6662 36.712 90.3062 36.344C89.9462 35.976 89.4902 35.792 88.9382 35.792C88.3862 35.792 87.9302 35.976 87.5702 36.344C87.2182 36.712 87.0422 37.196 87.0422 37.796C87.0422 38.396 87.2182 38.88 87.5702 39.248C87.9302 39.616 88.3862 39.8 88.9382 39.8ZM96.3968 41.084C95.7328 41.084 95.2128 40.904 94.8368 40.544C94.4688 40.176 94.2848 39.66 94.2848 38.996V32.096H95.7848V38.888C95.7848 39.528 96.0848 39.848 96.6848 39.848C96.8848 39.848 97.0648 39.808 97.2248 39.728L97.2968 40.928C97.0168 41.032 96.7168 41.084 96.3968 41.084ZM105.664 41.12C104.816 41.12 104.048 40.936 103.36 40.568C102.68 40.192 102.144 39.676 101.752 39.02C101.368 38.364 101.176 37.624 101.176 36.8C101.176 35.976 101.372 35.236 101.764 34.58C102.156 33.924 102.692 33.412 103.372 33.044C104.06 32.668 104.828 32.48 105.676 32.48C106.364 32.48 106.992 32.6 107.56 32.84C108.128 33.08 108.608 33.428 109 33.884L107.992 34.832C107.384 34.176 106.636 33.848 105.748 33.848C105.172 33.848 104.656 33.976 104.2 34.232C103.744 34.48 103.388 34.828 103.132 35.276C102.876 35.724 102.748 36.232 102.748 36.8C102.748 37.368 102.876 37.876 103.132 38.324C103.388 38.772 103.744 39.124 104.2 39.38C104.656 39.628 105.172 39.752 105.748 39.752C106.636 39.752 107.384 39.42 107.992 38.756L109 39.716C108.608 40.172 108.124 40.52 107.548 40.76C106.98 41 106.352 41.12 105.664 41.12ZM112.463 41.084C111.799 41.084 111.279 40.904 110.903 40.544C110.535 40.176 110.351 39.66 110.351 38.996V32.096H111.851V38.888C111.851 39.528 112.151 39.848 112.751 39.848C112.951 39.848 113.131 39.808 113.291 39.728L113.363 40.928C113.083 41.032 112.783 41.084 112.463 41.084ZM120.529 34.592V41H119.101V40.172C118.853 40.476 118.545 40.704 118.177 40.856C117.817 41.008 117.417 41.084 116.977 41.084C116.353 41.084 115.793 40.948 115.297 40.676C114.809 40.404 114.425 40.02 114.145 39.524C113.873 39.028 113.737 38.452 113.737 37.796C113.737 37.14 113.873 36.568 114.145 36.08C114.425 35.584 114.809 35.2 115.297 34.928C115.793 34.656 116.353 34.52 116.977 34.52C117.393 34.52 117.773 34.592 118.117 34.736C118.469 34.88 118.773 35.092 119.029 35.372V34.592H120.529ZM117.145 39.8C117.697 39.8 118.153 39.616 118.513 39.248C118.873 38.88 119.053 38.396 119.053 37.796C119.053 37.196 118.873 36.712 118.513 36.344C118.153 35.976 117.697 35.792 117.145 35.792C116.593 35.792 116.137 35.976 115.777 36.344C115.425 36.712 115.249 37.196 115.249 37.796C115.249 38.396 115.425 38.88 115.777 39.248C116.137 39.616 116.593 39.8 117.145 39.8ZM124.472 41.084C123.952 41.084 123.444 41.016 122.948 40.88C122.452 40.744 122.056 40.572 121.76 40.364L122.336 39.224C122.624 39.416 122.968 39.572 123.368 39.692C123.776 39.804 124.176 39.86 124.568 39.86C125.464 39.86 125.912 39.624 125.912 39.152C125.912 38.928 125.796 38.772 125.564 38.684C125.34 38.596 124.976 38.512 124.472 38.432C123.944 38.352 123.512 38.26 123.176 38.156C122.848 38.052 122.56 37.872 122.312 37.616C122.072 37.352 121.952 36.988 121.952 36.524C121.952 35.916 122.204 35.432 122.708 35.072C123.22 34.704 123.908 34.52 124.772 34.52C125.212 34.52 125.652 34.572 126.092 34.676C126.532 34.772 126.892 34.904 127.172 35.072L126.596 36.212C126.052 35.892 125.44 35.732 124.76 35.732C124.32 35.732 123.984 35.8 123.752 35.936C123.528 36.064 123.416 36.236 123.416 36.452C123.416 36.692 123.536 36.864 123.776 36.968C124.024 37.064 124.404 37.156 124.916 37.244C125.428 37.324 125.848 37.416 126.176 37.52C126.504 37.624 126.784 37.8 127.016 38.048C127.256 38.296 127.376 38.648 127.376 39.104C127.376 39.704 127.116 40.184 126.596 40.544C126.076 40.904 125.368 41.084 124.472 41.084ZM130.648 41.084C130.128 41.084 129.62 41.016 129.124 40.88C128.628 40.744 128.232 40.572 127.936 40.364L128.512 39.224C128.8 39.416 129.144 39.572 129.544 39.692C129.952 39.804 130.352 39.86 130.744 39.86C131.64 39.86 132.088 39.624 132.088 39.152C132.088 38.928 131.972 38.772 131.74 38.684C131.516 38.596 131.152 38.512 130.648 38.432C130.12 38.352 129.688 38.26 129.352 38.156C129.024 38.052 128.736 37.872 128.488 37.616C128.248 37.352 128.128 36.988 128.128 36.524C128.128 35.916 128.38 35.432 128.884 35.072C129.396 34.704 130.084 34.52 130.948 34.52C131.388 34.52 131.828 34.572 132.268 34.676C132.708 34.772 133.068 34.904 133.348 35.072L132.772 36.212C132.228 35.892 131.616 35.732 130.936 35.732C130.496 35.732 130.16 35.8 129.928 35.936C129.704 36.064 129.592 36.236 129.592 36.452C129.592 36.692 129.712 36.864 129.952 36.968C130.2 37.064 130.58 37.156 131.092 37.244C131.604 37.324 132.024 37.416 132.352 37.52C132.68 37.624 132.96 37.8 133.192 38.048C133.432 38.296 133.552 38.648 133.552 39.104C133.552 39.704 133.292 40.184 132.772 40.544C132.252 40.904 131.544 41.084 130.648 41.084ZM134.843 34.592H136.343V41H134.843V34.592ZM135.599 33.536C135.327 33.536 135.099 33.452 134.915 33.284C134.731 33.108 134.639 32.892 134.639 32.636C134.639 32.38 134.731 32.168 134.915 32C135.099 31.824 135.327 31.736 135.599 31.736C135.871 31.736 136.099 31.82 136.283 31.988C136.467 32.148 136.559 32.352 136.559 32.6C136.559 32.864 136.467 33.088 136.283 33.272C136.107 33.448 135.879 33.536 135.599 33.536ZM140.724 33.224C140.092 33.224 139.776 33.568 139.776 34.256V34.64H141.54V35.84H139.812V41H138.312V34.232C138.312 33.552 138.512 33.012 138.912 32.612C139.312 32.212 139.88 32.012 140.616 32.012C141.184 32.012 141.632 32.128 141.96 32.36L141.54 33.488C141.3 33.312 141.028 33.224 140.724 33.224ZM143.508 34.592H145.008V41H143.508V34.592ZM144.264 33.536C143.992 33.536 143.764 33.452 143.58 33.284C143.396 33.108 143.304 32.892 143.304 32.636C143.304 32.38 143.396 32.168 143.58 32C143.764 31.824 143.992 31.736 144.264 31.736C144.536 31.736 144.764 31.82 144.948 31.988C145.132 32.148 145.224 32.352 145.224 32.6C145.224 32.864 145.132 33.088 144.948 33.272C144.772 33.448 144.544 33.536 144.264 33.536ZM150.02 39.812C150.716 39.812 151.296 39.58 151.76 39.116L152.552 40.04C152.272 40.384 151.912 40.644 151.472 40.82C151.032 40.996 150.536 41.084 149.984 41.084C149.28 41.084 148.66 40.944 148.124 40.664C147.588 40.384 147.172 39.996 146.876 39.5C146.588 38.996 146.444 38.428 146.444 37.796C146.444 37.172 146.584 36.612 146.864 36.116C147.152 35.612 147.544 35.22 148.04 34.94C148.544 34.66 149.112 34.52 149.744 34.52C150.344 34.52 150.888 34.652 151.376 34.916C151.872 35.172 152.264 35.544 152.552 36.032C152.84 36.512 152.984 37.076 152.984 37.724L148.076 38.684C148.228 39.052 148.472 39.332 148.808 39.524C149.144 39.716 149.548 39.812 150.02 39.812ZM149.744 35.72C149.192 35.72 148.744 35.9 148.4 36.26C148.064 36.62 147.896 37.104 147.896 37.712V37.724L151.52 37.028C151.416 36.636 151.204 36.32 150.884 36.08C150.572 35.84 150.192 35.72 149.744 35.72ZM160.701 32.096V41H159.261V40.172C159.013 40.476 158.705 40.704 158.337 40.856C157.977 41.008 157.577 41.084 157.137 41.084C156.521 41.084 155.965 40.948 155.469 40.676C154.981 40.404 154.597 40.02 154.317 39.524C154.037 39.02 153.897 38.444 153.897 37.796C153.897 37.148 154.037 36.576 154.317 36.08C154.597 35.584 154.981 35.2 155.469 34.928C155.965 34.656 156.521 34.52 157.137 34.52C157.561 34.52 157.949 34.592 158.301 34.736C158.653 34.88 158.953 35.096 159.201 35.384V32.096H160.701ZM157.317 39.8C157.677 39.8 158.001 39.72 158.289 39.56C158.577 39.392 158.805 39.156 158.973 38.852C159.141 38.548 159.225 38.196 159.225 37.796C159.225 37.396 159.141 37.044 158.973 36.74C158.805 36.436 158.577 36.204 158.289 36.044C158.001 35.876 157.677 35.792 157.317 35.792C156.957 35.792 156.633 35.876 156.345 36.044C156.057 36.204 155.829 36.436 155.661 36.74C155.493 37.044 155.409 37.396 155.409 37.796C155.409 38.196 155.493 38.548 155.661 38.852C155.829 39.156 156.057 39.392 156.345 39.56C156.633 39.72 156.957 39.8 157.317 39.8ZM166.124 32.6H167.684V39.68H172.076V41H166.124V32.6ZM173.164 34.592H174.664V41H173.164V34.592ZM173.92 33.536C173.648 33.536 173.42 33.452 173.236 33.284C173.052 33.108 172.96 32.892 172.96 32.636C172.96 32.38 173.052 32.168 173.236 32C173.42 31.824 173.648 31.736 173.92 31.736C174.192 31.736 174.42 31.82 174.604 31.988C174.788 32.148 174.88 32.352 174.88 32.6C174.88 32.864 174.788 33.088 174.604 33.272C174.428 33.448 174.2 33.536 173.92 33.536ZM178.612 41.084C178.092 41.084 177.584 41.016 177.088 40.88C176.592 40.744 176.196 40.572 175.9 40.364L176.476 39.224C176.764 39.416 177.108 39.572 177.508 39.692C177.916 39.804 178.316 39.86 178.708 39.86C179.604 39.86 180.052 39.624 180.052 39.152C180.052 38.928 179.936 38.772 179.704 38.684C179.48 38.596 179.116 38.512 178.612 38.432C178.084 38.352 177.652 38.26 177.316 38.156C176.988 38.052 176.7 37.872 176.452 37.616C176.212 37.352 176.092 36.988 176.092 36.524C176.092 35.916 176.344 35.432 176.848 35.072C177.36 34.704 178.048 34.52 178.912 34.52C179.352 34.52 179.792 34.572 180.232 34.676C180.672 34.772 181.032 34.904 181.312 35.072L180.736 36.212C180.192 35.892 179.58 35.732 178.9 35.732C178.46 35.732 178.124 35.8 177.892 35.936C177.668 36.064 177.556 36.236 177.556 36.452C177.556 36.692 177.676 36.864 177.916 36.968C178.164 37.064 178.544 37.156 179.056 37.244C179.568 37.324 179.988 37.416 180.316 37.52C180.644 37.624 180.924 37.8 181.156 38.048C181.396 38.296 181.516 38.648 181.516 39.104C181.516 39.704 181.256 40.184 180.736 40.544C180.216 40.904 179.508 41.084 178.612 41.084ZM186.408 40.652C186.232 40.796 186.016 40.904 185.76 40.976C185.512 41.048 185.248 41.084 184.968 41.084C184.264 41.084 183.72 40.9 183.336 40.532C182.952 40.164 182.76 39.628 182.76 38.924V33.176H184.26V34.64H185.976V35.84H184.26V38.888C184.26 39.2 184.336 39.44 184.488 39.608C184.648 39.768 184.868 39.848 185.148 39.848C185.484 39.848 185.764 39.76 185.988 39.584L186.408 40.652ZM187.648 34.592H189.148V41H187.648V34.592ZM188.404 33.536C188.132 33.536 187.904 33.452 187.72 33.284C187.536 33.108 187.444 32.892 187.444 32.636C187.444 32.38 187.536 32.168 187.72 32C187.904 31.824 188.132 31.736 188.404 31.736C188.676 31.736 188.904 31.82 189.088 31.988C189.272 32.148 189.364 32.352 189.364 32.6C189.364 32.864 189.272 33.088 189.088 33.272C188.912 33.448 188.684 33.536 188.404 33.536ZM194.753 34.52C195.561 34.52 196.209 34.756 196.697 35.228C197.185 35.7 197.429 36.4 197.429 37.328V41H195.929V37.52C195.929 36.96 195.797 36.54 195.533 36.26C195.269 35.972 194.893 35.828 194.405 35.828C193.853 35.828 193.417 35.996 193.097 36.332C192.777 36.66 192.617 37.136 192.617 37.76V41H191.117V34.592H192.545V35.42C192.793 35.124 193.105 34.9 193.481 34.748C193.857 34.596 194.281 34.52 194.753 34.52ZM205.75 34.592V40.028C205.75 42.284 204.598 43.412 202.294 43.412C201.678 43.412 201.094 43.332 200.542 43.172C199.99 43.02 199.534 42.796 199.174 42.5L199.846 41.372C200.126 41.604 200.478 41.788 200.902 41.924C201.334 42.068 201.77 42.14 202.21 42.14C202.914 42.14 203.43 41.98 203.758 41.66C204.086 41.34 204.25 40.852 204.25 40.196V39.86C203.994 40.14 203.682 40.352 203.314 40.496C202.946 40.64 202.542 40.712 202.102 40.712C201.494 40.712 200.942 40.584 200.446 40.328C199.958 40.064 199.57 39.696 199.282 39.224C199.002 38.752 198.862 38.212 198.862 37.604C198.862 36.996 199.002 36.46 199.282 35.996C199.57 35.524 199.958 35.16 200.446 34.904C200.942 34.648 201.494 34.52 202.102 34.52C202.566 34.52 202.986 34.596 203.362 34.748C203.746 34.9 204.066 35.132 204.322 35.444V34.592H205.75ZM202.33 39.44C202.898 39.44 203.362 39.272 203.722 38.936C204.09 38.592 204.274 38.148 204.274 37.604C204.274 37.068 204.09 36.632 203.722 36.296C203.362 35.96 202.898 35.792 202.33 35.792C201.754 35.792 201.282 35.96 200.914 36.296C200.554 36.632 200.374 37.068 200.374 37.604C200.374 38.148 200.554 38.592 200.914 38.936C201.282 39.272 201.754 39.44 202.33 39.44Z" fill="#7F7F7F"/>
<circle cx="24.5" cy="25.5" r="15.5" fill="#FFC100"/>
<mask id="mask0_5_161" style="mask-type:alpha" maskUnits="userSpaceOnUse" x="9" y="10" width="31" height="31">
<circle cx="24.5" cy="25.5" r="15.5" fill="black"/>
</mask>
<g mask="url(#mask0_5_161)">
<path d="M15.1841 25.2253L15.3254 24.6167L20.089 21.9024L19.5471 20.9214L14.6474 23.0862C14.876 23.2608 15.0223 23.533 15.0223 23.8412C15.0223 24.3676 14.5961 24.7939 14.0696 24.7939C13.8462 24.7939 13.6433 24.7169 13.479 24.5885L13.1965 25.9598L15.1816 25.2253H15.1841Z" fill="white"/>
<path d="M25.7488 21.8073L12.2463 26.8021L9.71167 39.0001H14.8322L16.7377 29.8503C16.5143 29.9402 16.2729 29.989 16.0161 29.989C14.9375 29.989 14.0644 29.1159 14.0644 28.0373C14.0644 26.9587 14.9375 26.0856 16.0161 26.0856C16.9354 26.0856 17.7033 26.7225 17.9113 27.5776L27.2562 22.6188L25.7488 21.8073Z" fill="white"/>
<path d="M16.0162 26.5658C15.2047 26.5658 14.5448 27.2232 14.5448 28.0373C14.5448 28.8514 15.2022 29.5088 16.0162 29.5088C16.8303 29.5088 17.4877 28.8514 17.4877 28.0373C17.4877 27.2232 16.8303 26.5658 16.0162 26.5658ZM16.0162 28.7923C15.6002 28.7923 15.2612 28.4533 15.2612 28.0373C15.2612 27.6213 15.6002 27.2823 16.0162 27.2823C16.4322 27.2823 16.7712 27.6213 16.7712 28.0373C16.7712 28.4533 16.4322 28.7923 16.0162 28.7923Z" fill="white"/>
<path d="M14.0698 23.1813C13.7051 23.1813 13.4098 23.4766 13.4098 23.8413C13.4098 24.2059 13.7051 24.5013 14.0698 24.5013C14.4344 24.5013 14.7297 24.2059 14.7297 23.8413C14.7297 23.4766 14.4344 23.1813 14.0698 23.1813ZM14.0698 24.1803C13.8823 24.1803 13.7308 24.0288 13.7308 23.8413C13.7308 23.6538 13.8823 23.5023 14.0698 23.5023C14.2572 23.5023 14.4087 23.6538 14.4087 23.8413C14.4087 24.0288 14.2572 24.1803 14.0698 24.1803Z" fill="white"/>
<path d="M31.2265 29.2546C30.8002 29.2546 30.4356 29.0004 30.2712 28.6357L29.7807 29.722L26.0854 29.6989L24.3135 28.0682H23.6869L26.5091 33.3403H29.7422L31.5398 29.2084C31.4397 29.2392 31.3344 29.2572 31.2265 29.2572V29.2546Z" fill="white"/>
<path d="M31.2265 27.6291C30.8619 27.6291 30.5666 27.9244 30.5666 28.2891C30.5666 28.6537 30.8619 28.949 31.2265 28.949C31.5912 28.949 31.8865 28.6537 31.8865 28.2891C31.8865 27.9244 31.5912 27.6291 31.2265 27.6291ZM31.2265 28.628C31.0391 28.628 30.8876 28.4765 30.8876 28.2891C30.8876 28.1016 31.0391 27.9501 31.2265 27.9501C31.414 27.9501 31.5655 28.1016 31.5655 28.2891C31.5655 28.4765 31.414 28.628 31.2265 28.628Z" fill="white"/>
<path d="M30.7694 22.5239C30.4048 22.5239 30.1094 22.8192 30.1094 23.1839C30.1094 23.5485 30.4048 23.8439 30.7694 23.8439C31.1341 23.8439 31.4294 23.5485 31.4294 23.1839C31.4294 22.8192 31.1341 22.5239 30.7694 22.5239ZM30.7694 23.5229C30.582 23.5229 30.4304 23.3713 30.4304 23.1839C30.4304 22.9964 30.582 22.8449 30.7694 22.8449C30.9569 22.8449 31.1084 22.9964 31.1084 23.1839C31.1084 23.3713 30.9569 23.5229 30.7694 23.5229Z" fill="white"/>
<path d="M31.7761 23.7566C31.5757 24.1058 31.2008 24.3446 30.7668 24.3446C30.6076 24.3446 30.4587 24.3138 30.32 24.2548L30.926 27.2054C31.0904 27.1566 31.2676 27.1463 31.4551 27.1874C31.8839 27.285 32.2152 27.6522 32.2614 28.0888C32.3256 28.6768 31.9019 29.1802 31.3446 29.2444L31.4037 29.5191C31.4807 29.871 31.7915 30.12 32.151 30.12C32.6363 30.12 32.9984 29.6758 32.9008 29.2007L31.7735 23.7566H31.7761Z" fill="white"/>
<path d="M24.7372 18.4331C24.4547 18.4331 24.2262 18.6617 24.2262 18.9441C24.2262 19.2266 24.4547 19.4552 24.7372 19.4552C25.0197 19.4552 25.2482 19.2266 25.2482 18.9441C25.2482 18.6617 25.0197 18.4331 24.7372 18.4331Z" fill="white"/>
<path d="M26.6786 17.9811C24.9709 16.3453 22.1692 16.8178 21.0932 18.9236L29.66 23.5331C29.6241 23.4227 29.6061 23.3046 29.6061 23.1839C29.6061 22.5419 30.1248 22.0232 30.7668 22.0232C30.8131 22.0232 30.8593 22.0257 30.9029 22.0309L26.6786 17.9811ZM24.7346 19.938C24.1851 19.938 23.7408 19.4937 23.7408 18.9441C23.7408 18.3946 24.1851 17.9503 24.7346 17.9503C25.2842 17.9503 25.7284 18.3946 25.7284 18.9441C25.7284 19.4937 25.2842 19.938 24.7346 19.938Z" fill="white"/>
<path d="M22.218 19.9097L20.0788 20.9164L20.3793 21.4633L22.7213 20.1819L22.218 19.9097Z" fill="white"/>
<path d="M25.9287 18.3946L27.6133 17.8142L32.323 22.2825L33.4709 27.4981L32.4668 28.9465" stroke="white" stroke-width="0.466908" stroke-miterlimit="10"/>
<path d="M25.8081 18.4357L27.6134 17.8142L32.3231 22.2825L32.9214 24.9995" stroke="white" stroke-width="0.933816" stroke-miterlimit="10"/>
</g>
<path fill-rule="evenodd" clip-rule="evenodd" d="M46.0757 22.4619L48.0697 22.7969C48.6064 22.888 49 23.3532 49 23.8964V27.0971C49 27.6436 48.6064 28.1055 48.0697 28.1966L46.053 28.5349C45.5976 28.6097 45.2333 28.9577 45.1455 29.4099C44.947 30.441 44.6705 31.4428 44.329 32.4154C44.1761 32.8546 44.316 33.3392 44.6738 33.6352L46.2612 34.9428C46.6808 35.2909 46.7914 35.8894 46.5181 36.3611L44.9178 39.1324C44.6445 39.6041 44.072 39.8123 43.5613 39.6204L41.6129 38.8917C41.1803 38.7291 40.6924 38.8494 40.3899 39.1975C39.7133 39.9782 38.9814 40.7068 38.2007 41.3801C37.8494 41.6826 37.7291 42.1738 37.8917 42.6064L38.6236 44.5613C38.8123 45.072 38.6073 45.6445 38.1357 45.9178L35.3643 47.5181C34.8927 47.7914 34.2909 47.6808 33.9461 47.2612L32.6157 45.6445C32.3197 45.29 31.835 45.1468 31.3992 45.2997C30.4363 45.6348 29.4442 45.9015 28.4229 46.0967C27.9707 46.1845 27.6194 46.5488 27.5446 47.0042L27.1998 49.0697C27.1087 49.6064 26.6436 50 26.1004 50H22.8996C22.3532 50 21.8913 49.6064 21.8002 49.0697L21.4554 47.0042C21.3806 46.5488 21.0325 46.1812 20.5771 46.0967C19.5558 45.9047 18.5637 45.6348 17.6008 45.2997C17.1617 45.1468 16.677 45.2867 16.3843 45.6445L15.0539 47.2612C14.7059 47.6808 14.1073 47.7914 13.6357 47.5181L10.8643 45.9178C10.3927 45.6445 10.1845 45.072 10.3764 44.5613L11.1083 42.6064C11.2709 42.1738 11.1506 41.6826 10.7993 41.3801C10.0186 40.7068 9.28671 39.9782 8.61013 39.1975C8.30762 38.8494 7.8197 38.7291 7.38708 38.8917L5.43866 39.6204C4.92797 39.809 4.35548 39.6041 4.08225 39.1324L2.48188 36.3611C2.20864 35.8894 2.31924 35.2876 2.73885 34.9428L4.32621 33.6352C4.68402 33.3392 4.82388 32.8513 4.671 32.4154C4.32946 31.4461 4.05297 30.441 3.85455 29.4099C3.76673 28.9577 3.40242 28.6097 2.94703 28.5349L0.930297 28.1966C0.393587 28.1055 0 27.6403 0 27.0971V23.8964C0 23.3499 0.393587 22.888 0.930297 22.7969L2.92426 22.4619C3.37965 22.3871 3.74721 22.0358 3.83178 21.5804C4.02695 20.5395 4.29693 19.5279 4.63848 18.5455C4.7881 18.1097 4.64823 17.625 4.29043 17.3322L2.7356 16.0507C2.31599 15.7026 2.20539 15.1041 2.47862 14.6324L4.079 11.8611C4.35223 11.3894 4.92472 11.1812 5.43541 11.3731L7.30902 12.0757C7.74164 12.2384 8.23281 12.118 8.53532 11.7667C9.22165 10.9665 9.9698 10.2184 10.7667 9.52881C11.1148 9.22955 11.2351 8.73838 11.0725 8.30576L10.3731 6.43866C10.1845 5.92797 10.3894 5.35548 10.8611 5.08225L13.6324 3.48188C14.1041 3.20864 14.7059 3.31924 15.0507 3.73885L16.3095 5.26441C16.6055 5.62221 17.0934 5.76208 17.5293 5.6092C18.5214 5.26115 19.546 4.98141 20.5967 4.78299C21.0488 4.69842 21.4001 4.33086 21.4749 3.87546L21.8002 1.9303C21.8913 1.39359 22.3564 1 22.8996 1H26.1004C26.6468 1 27.1087 1.39359 27.1998 1.9303L27.5251 3.87546C27.5999 4.33086 27.948 4.69842 28.4033 4.78299C29.4573 4.98141 30.4786 5.26115 31.4707 5.6092C31.9099 5.76208 32.3945 5.62221 32.6905 5.26441L33.9493 3.73885C34.2974 3.31924 34.8959 3.20864 35.3676 3.48188L38.1389 5.08225C38.6106 5.35548 38.8188 5.92797 38.6269 6.43866L37.9275 8.30576C37.7649 8.73513 37.8852 9.2263 38.2333 9.52881C39.0335 10.2184 39.7783 10.9665 40.4647 11.7667C40.7639 12.118 41.2584 12.2384 41.691 12.0757L43.5646 11.3731C44.0753 11.1845 44.6478 11.3894 44.921 11.8611L46.5214 14.6324C46.7946 15.1041 46.684 15.7059 46.2644 16.0507L44.7096 17.3322C44.3518 17.625 44.2086 18.1097 44.3615 18.5455C44.7031 19.5246 44.973 20.5395 45.1682 21.5804C45.2528 22.0358 45.6204 22.3871 46.0757 22.4619ZM42 25.5C42 35.165 34.165 43 24.5 43C14.835 43 7 35.165 7 25.5C7 15.835 14.835 8 24.5 8C34.165 8 42 15.835 42 25.5Z" fill="white"/>
</svg>
