<svg width="18" height="18" fill="none" xmlns="http://www.w3.org/2000/svg"><path d="M2 15.222h-.667H2zM3.778 1V.333 1zm11.91 0v.667V1zm.534.533h.667-.667zm-.666 11.657a.667.667 0 101.333 0h-1.333zm.666.921a.667.667 0 000-1.333v1.333zm0 3.556a.667.667 0 000-1.334v1.334zM6.444 3.889a.667.667 0 000 1.333V3.89zm5.334 1.333a.667.667 0 100-1.333v1.333zm-9.111 10V2.778H1.333v12.444h1.334zm0-12.444c0-.295.117-.578.325-.786L2.05 1.05a2.444 2.444 0 00-.716 1.729h1.334zm.325-.786c.208-.208.491-.325.786-.325V.333c-.649 0-1.27.258-1.729.716l.943.943zm.786-.325h11.91V.333H3.779v1.334zm11.91 0a.133.133 0 01-.093-.04l.942-.942a1.2 1.2 0 00-.848-.352v1.334zm-.093-.04a.133.133 0 01-.04-.094h1.334a1.2 1.2 0 00-.352-.848l-.942.943zm-.04-.094V13.19h1.334V1.533h-1.333zM3.779 14.111h12.444v-1.333H3.778v1.333zm0 3.556h12.444v-1.334H3.778v1.334zm0-1.334c-.295 0-.578-.117-.786-.325l-.943.943c.459.458 1.08.716 1.729.716v-1.334zm-.786-.325a1.111 1.111 0 01-.325-.786H1.333c0 .649.258 1.27.716 1.729l.943-.943zm-.325-.786c0-.294.117-.577.325-.785l-.943-.943a2.445 2.445 0 00-.716 1.728h1.334zm.325-.785c.208-.209.491-.326.786-.326v-1.333c-.649 0-1.27.257-1.729.716l.943.943zm3.452-9.215h5.334V3.89H6.444v1.333z" fill="#000"/></svg>