<svg width="18" height="20" fill="none" xmlns="http://www.w3.org/2000/svg"><path d="M5.22.28a.72.72 0 01.72.72v1.08h5.76V1a.72.72 0 011.44 0v1.08h1.98a2.52 2.52 0 012.52 2.52v12.6a2.52 2.52 0 01-2.52 2.52H2.52A2.52 2.52 0 010 17.2V4.6a2.52 2.52 0 012.52-2.52H4.5V1a.72.72 0 01.72-.72zM4.5 3.52H2.52A1.08 1.08 0 001.44 4.6v2.88H16.2V4.6a1.08 1.08 0 00-1.08-1.08h-1.98V4.6a.72.72 0 01-1.44 0V3.52H5.94V4.6a.72.72 0 01-1.44 0V3.52zm11.7 5.4H1.44v8.28c0 .597.484 1.08 1.08 1.08h12.6a1.08 1.08 0 001.08-1.08V8.92z" fill="#01129F"/></svg>