<svg width="30" height="25" fill="none" xmlns="http://www.w3.org/2000/svg"><path d="M28.823 3.14h-1.78V1.256c0-.698-.538-1.256-1.21-1.256H1.209C.537 0 0 .558 0 1.256v18.947c0 .698.537 1.257 1.21 1.257h1.78v1.884c0 .698.537 1.256 1.21 1.256h24.59c.671 0 1.209-.558 1.209-1.256V4.43c.033-.697-.504-1.29-1.176-1.29zM1.243 1.221l24.59.035v12.946l-5.51-3.978a.592.592 0 00-.671 0l-4.871 3.454L9.27 8.06c-.235-.209-.57-.244-.806-.034L1.21 14.27l.034-13.05zm-.067 18.982v-4.326L8.8 9.317l5.476 5.583a.594.594 0 00.773.07l4.938-3.49 5.845 4.222v4.501s0 .035-.034.035l-24.623-.035zm27.647 3.21L4.199 23.38v-1.885h21.634c.672 0 1.21-.558 1.21-1.256V4.397l1.813.034-.033 18.983z" fill="#4B4B4B"/><path d="M18.577 3.175c-1.478 0-2.654 1.256-2.654 2.757 0 1.5 1.176 2.757 2.654 2.757s2.654-1.257 2.654-2.757c0-1.5-1.21-2.757-2.654-2.757zm0 4.292c-.806 0-1.478-.698-1.478-1.535 0-.838.672-1.535 1.478-1.535.806 0 1.478.697 1.478 1.535 0 .837-.672 1.535-1.478 1.535z" fill="#4B4B4B"/></svg>