<svg width="24" height="23" fill="none" xmlns="http://www.w3.org/2000/svg"><path d="M.2 1A.8.8 0 011 .2h4a.8.8 0 01.784.643L6.656 5.2H23a.8.8 0 01.786.95l-1.601 8.396a2.8 2.8 0 01-2.792 2.254H9.687a2.8 2.8 0 01-2.792-2.254L5.224 6.195a.795.795 0 01-.015-.074L4.344 1.8H1A.8.8 0 01.2 1zm6.777 5.8l1.488 7.434a1.2 1.2 0 001.2.966h9.75a1.2 1.2 0 001.2-.963v-.003L22.033 6.8H6.977zM9 20.8a.2.2 0 100 .4.2.2 0 000-.4zm-1.8.2a1.8 1.8 0 113.6 0 1.8 1.8 0 01-3.6 0zm12.8-.2a.2.2 0 100 .4.2.2 0 000-.4zm-1.8.2a1.8 1.8 0 113.6 0 1.8 1.8 0 01-3.6 0z" fill="#010705"/></svg>