<svg width="22" height="22" fill="none" xmlns="http://www.w3.org/2000/svg"><path d="M1.932 10.111h4.22A16.19 16.19 0 018.98 2.114a9.118 9.118 0 00-7.047 7.997zM11 2.371a14.411 14.411 0 00-3.064 7.74h6.128A14.411 14.411 0 0011 2.371zm3.064 9.518H7.936A14.411 14.411 0 0011 19.629a14.411 14.411 0 003.064-7.74zm-7.911 0H1.932a9.118 9.118 0 007.047 7.997 16.19 16.19 0 01-2.826-7.997zm6.868 7.997a9.118 9.118 0 007.047-7.997h-4.22a16.19 16.19 0 01-2.827 7.997zm7.047-9.775a9.118 9.118 0 00-7.047-7.997 16.19 16.19 0 012.826 7.997h4.221zM.111 11C.111 4.986 4.986.111 11 .111 17.014.111 21.889 4.986 21.889 11c0 6.014-4.875 10.889-10.889 10.889C4.986 21.889.111 17.014.111 11z" fill="#000"/></svg>