<svg width="16" height="12" fill="none" xmlns="http://www.w3.org/2000/svg"><path d="M.35 1A.65.65 0 011 .35h.009a.65.65 0 110 1.3H1A.65.65 0 01.35 1zm2.444 0a.65.65 0 01.65-.65H15a.65.65 0 110 1.3H3.444a.65.65 0 01-.65-.65zM.35 6A.65.65 0 011 5.35h.009a.65.65 0 110 1.3H1A.65.65 0 01.35 6zm2.444 0a.65.65 0 01.65-.65H15a.65.65 0 110 1.3H3.444a.65.65 0 01-.65-.65zM.35 11a.65.65 0 01.65-.65h.009a.65.65 0 110 1.3H1A.65.65 0 01.35 11zm2.444 0a.65.65 0 01.65-.65H15a.65.65 0 110 1.3H3.444a.65.65 0 01-.65-.65z" fill="#000"/></svg>