<svg width="16" height="20" fill="none" xmlns="http://www.w3.org/2000/svg"><path d="M8 0C4.834 0 2.3 2.5 2.3 5.625v2.5C1.224 8.125.4 8.938.4 10v8.125C.4 19.188 1.224 20 2.3 20h11.4c1.077 0 1.9-.813 1.9-1.875V10c0-1.063-.823-1.875-1.9-1.875v-2.5C13.7 2.5 11.167 0 8 0zm6.334 10v8.125c0 .375-.254.625-.634.625H2.3c-.38 0-.633-.25-.633-.625V10c0-.375.253-.625.633-.625h11.4c.38 0 .634.25.634.625zM3.567 8.125v-2.5C3.567 3.187 5.53 1.25 8 1.25c2.47 0 4.434 1.938 4.434 4.375v2.5H3.567z" fill="#fff"/><path d="M8 11.25c-1.076 0-1.9.813-1.9 1.875 0 .813.507 1.5 1.267 1.75v1.375c0 .375.253.625.633.625s.634-.25.634-.625v-1.375a1.823 1.823 0 001.266-1.75c0-1.063-.823-1.875-1.9-1.875zm0 2.5c-.38 0-.633-.25-.633-.625S7.62 12.5 8 12.5s.634.25.634.625-.254.625-.634.625z" fill="#fff"/></svg>