<svg version="1.1" id="Layer_1" xmlns="http://www.w3.org/2000/svg" x="0" y="0" viewBox="0 0 27 25" xml:space="preserve"><path d="M20.6 24.7c-5.8 0-11.5-2.8-15.7-7.8C1.5 13-.3 8.4.4 5.2l.1-.3c1.2-2 2.8-3.4 4.9-4.6L6 0l5.1 6.4-2.3 3.7c.2.7 1 2.3 2.6 3.8 1.8 1.7 3.8 2.4 4.5 2.7l4-2.1 7.2 4.9-.4.6c-1.2 2-2.8 3.5-5 4.6l-.1.1h-1zM1.8 5.6C1.4 8.3 3 12.5 6 16c4.1 4.8 9.6 7.5 15.1 7.3 1.6-.9 2.9-1.9 3.8-3.4l-5.2-3.6-3.7 2-.3-.1c-.1 0-2.9-.8-5.4-3.1-2.4-2.2-3.1-4.8-3.1-4.9l-.1-.2 2.1-3.4L5.6 2C4 2.9 2.8 4.1 1.8 5.6zm18.9 5l-.2-.7c-.4-1.9-2-3.4-4.1-3.8l-.7-.1.3-1.5.7.1c2.7.5 4.8 2.4 5.3 4.9l.2.7-1.5.4zm4.6 0l-.1-.7c-.5-4.3-4.1-7.6-8.8-8.1l-.7-.1.2-1.5.7.1c5.4.6 9.5 4.4 10.1 9.4l.1.7-1.5.2z" fill="#debb67"/></svg>