<svg version="1.1" id="Layer_1" xmlns="http://www.w3.org/2000/svg" x="0" y="0" viewBox="0 0 18 18" xml:space="preserve"><path d="M14.6 16.6h-.2c-2.3-.2-4.4-1-6.3-2.2-1.8-1.1-3.3-2.6-4.4-4.4-1.3-2-2.1-4.2-2.3-6.4 0-.3 0-.6.1-.8.1-.3.2-.5.4-.7.2-.2.4-.4.7-.5.3-.1.5-.2.8-.2h2.1c.5 0 1 .2 1.3.5.4.3.6.8.7 1.2.1.7.2 1.3.5 1.9.1.4.2.7.1 1.1-.1.4-.3.7-.6 1l-.5.6c.8 1.3 2 2.5 3.3 3.3l.6-.6c.3-.3.6-.5 1-.5.4-.1.8-.1 1.1.1.6.2 1.2.4 1.8.5.5.1.9.3 1.3.7.3.4.5.8.5 1.3v2.1c0 .3-.1.6-.2.8-.1.3-.3.5-.5.7-.2.2-.4.3-.7.4-.2.1-.4.1-.6.1zm-9.1-14H3.4c-.1 0-.2 0-.3.1-.1 0-.2.1-.3.2-.1 0-.1.1-.2.2v.3c.2 2.1.9 4.1 2.1 5.8 1 1.6 2.4 3 4 4 1.7 1.1 3.7 1.8 5.8 2.1h.3c.1 0 .2-.1.3-.2.1-.1.1-.2.2-.3 0-.1.1-.2.1-.3v-2.1c0-.2-.1-.4-.2-.5-.1-.2-.3-.2-.5-.3-.7-.1-1.4-.3-2.1-.5-.1-.1-.3-.1-.5 0-.1 0-.3.1-.4.2l-.9.9c-.2.2-.5.2-.7.1-1.9-1.1-3.4-2.6-4.4-4.4-.2-.3-.1-.6.1-.8l.9-.9c.1-.1.1-.2.2-.4v-.5c-.3-.6-.5-1.3-.6-2 0-.2-.1-.4-.3-.5-.1-.1-.3-.2-.5-.2z" fill="#4b4b4b"/></svg>