<svg width="13" height="17" fill="none" xmlns="http://www.w3.org/2000/svg"><path d="M6.906 0C3.433 0 0 2.33 0 6.1c0 2.398 1.34 3.76 2.153 3.76.335 0 .528-.94.528-1.205 0-.317-.802-.991-.802-2.31 0-2.738 2.072-4.68 4.753-4.68 2.306 0 4.012 1.319 4.012 3.74 0 1.81-.721 5.202-3.057 5.202-.843 0-1.564-.614-1.564-1.492 0-1.288.893-2.534.893-3.863 0-2.255-3.179-1.846-3.179.879 0 .572.072 1.206.325 1.727-.467 2.023-1.421 5.037-1.421 7.122 0 .644.091 1.277.152 1.921.115.13.058.116.234.051 1.706-2.35 1.645-2.81 2.417-5.886.416.797 1.493 1.226 2.346 1.226 3.595 0 5.21-3.525 5.21-6.703C13 2.207 10.095 0 6.906 0z" fill="#0B0E25"/></svg>