<svg width="24" height="18" fill="none" xmlns="http://www.w3.org/2000/svg"><path d="M1.91 9a18.875 18.875 0 012.548-3.453C6.267 3.62 8.82 1.8 12 1.8c3.18 0 5.733 1.819 7.541 3.747A18.868 18.868 0 0122.09 9a18.868 18.868 0 01-2.549 3.453C17.733 14.38 15.181 16.2 12 16.2c-3.18 0-5.734-1.819-7.541-3.747A18.875 18.875 0 011.91 9zM23 9l.715-.358-.001-.003-.003-.007-.011-.02a12.254 12.254 0 00-.188-.347 20.478 20.478 0 00-2.803-3.811C18.766 2.38 15.819.199 12 .199 8.18.2 5.234 2.381 3.291 4.453A20.475 20.475 0 00.488 8.264a12.17 12.17 0 00-.188.347l-.01.021-.004.007v.002C.284 8.64.283 8.642 1 9l-.716-.358a.8.8 0 000 .716L1 9l-.716.358.001.001.001.002.003.007.011.02c.01.019.022.044.04.076a18.293 18.293 0 00.723 1.22c.502.779 1.25 1.82 2.228 2.863C5.234 15.62 8.181 17.8 12 17.8c3.82 0 6.766-2.181 8.709-4.253a20.478 20.478 0 002.803-3.811 12.254 12.254 0 00.188-.347l.01-.021.004-.007V9.36c.001 0 .002-.001-.714-.359zm0 0l.715.358a.801.801 0 000-.716L23 9zM12 6.8a2.2 2.2 0 100 4.4 2.2 2.2 0 000-4.4zM8.2 9a3.8 3.8 0 117.6 0 3.8 3.8 0 01-7.6 0z" fill="#010705"/></svg>