<svg width="18" height="18" fill="none" xmlns="http://www.w3.org/2000/svg"><mask id="path-1-inside-1_56_2595" fill="#fff"><path d="M1 2.776v4.668h4.364M17 15.224v-4.668h-4.364"/><path d="M15.175 6.666a7.046 7.046 0 00-1.823-2.898 6.405 6.405 0 00-2.904-1.595 6.134 6.134 0 00-3.263.103 6.47 6.47 0 00-2.81 1.776L1 7.444m16 3.112l-3.374 3.392a6.472 6.472 0 01-2.811 1.776 6.135 6.135 0 01-3.264.103 6.404 6.404 0 01-2.903-1.595 7.046 7.046 0 01-1.823-2.898"/></mask><path d="M2.2 2.776a1.2 1.2 0 00-2.4 0h2.4zM1 7.444H-.2a1.2 1.2 0 001.2 1.2v-1.2zm4.364 1.2a1.2 1.2 0 000-2.4v2.4zm10.436 6.58a1.2 1.2 0 002.4 0h-2.4zm1.2-4.668h1.2a1.2 1.2 0 00-1.2-1.2v1.2zm-4.364-1.2a1.2 1.2 0 100 2.4v-2.4zm1.4-2.313a1.2 1.2 0 102.278-.754l-2.279.754zM4.374 4.052l.85.846.026-.027-.876-.819zm9.25 9.896l-.85-.846a1.117 1.117 0 00-.026.027l.877.819zm-9.66-2.99a1.2 1.2 0 00-2.279.753l2.279-.754zM-.2 2.775v4.668h2.4V2.776H-.2zM1 8.644h4.364v-2.4H1v2.4zm17.2 6.58v-4.668h-2.4v4.668h2.4zM17 9.356h-4.364v2.4H17v-2.4zm-.686-3.067a8.246 8.246 0 00-2.135-3.39l-1.654 1.739a5.847 5.847 0 011.51 2.405l2.279-.754zM14.179 2.9a7.604 7.604 0 00-3.448-1.893l-.565 2.333a5.21 5.21 0 012.36 1.299l1.653-1.74zm-3.448-1.893a7.334 7.334 0 00-3.9.123l.709 2.293a4.934 4.934 0 012.626-.083l.565-2.333zm-3.9.123a7.67 7.67 0 00-3.333 2.104L5.25 4.87a5.271 5.271 0 012.29-1.448L6.83 1.13zM3.524 3.206L.149 6.598 1.851 8.29l3.374-3.392-1.701-1.692zM16.149 9.71l-3.374 3.392 1.701 1.692 3.375-3.392-1.702-1.692zm-3.4 3.419a5.27 5.27 0 01-2.289 1.449l.71 2.293a7.67 7.67 0 003.332-2.104L12.75 13.13zm-2.289 1.449a4.934 4.934 0 01-2.626.083l-.565 2.333c1.29.312 2.632.27 3.9-.123l-.709-2.293zm-2.626.083a5.205 5.205 0 01-2.36-1.3l-1.653 1.74a7.605 7.605 0 003.448 1.893l.565-2.333zm-2.36-1.3a5.847 5.847 0 01-1.51-2.404l-2.278.754a8.247 8.247 0 002.135 3.39l1.653-1.74z" fill="#4B4B4B" mask="url(#path-1-inside-1_56_2595)"/></svg>