<svg version="1.1" id="Layer_1" xmlns="http://www.w3.org/2000/svg" x="0" y="0" viewBox="0 0 18 18" xml:space="preserve"><path d="M3 17.6c-.3 0-.6-.3-.6-.6V1.8c0-.2.1-.3.2-.4.1-.1 1-1 3.6-1 1.3 0 2.4.4 3.4.8s1.9.8 3 .8c2.1 0 2.8-.6 2.8-.6.2-.2.4-.2.7-.1.2.1.4.3.4.5v9.6c0 .2-.1.3-.2.4-.1.1-1 1-3.6 1-1.3 0-2.4-.4-3.4-.8s-1.9-.8-3-.8c-1.5 0-2.3.3-2.6.5V17c-.1.3-.4.6-.7.6zM6.2 10c1.3 0 2.4.4 3.4.8s1.9.8 3 .8c1.5 0 2.3-.3 2.6-.5V2.8c-.6.2-1.4.4-2.6.4-1.3 0-2.4-.4-3.4-.8s-1.9-.8-3-.8c-1.5 0-2.3.3-2.6.5v8.3c.6-.2 1.4-.4 2.6-.4z" fill="#4b4b4b"/></svg>