<svg version="1.1" id="Layer_1" xmlns="http://www.w3.org/2000/svg" x="0" y="0" viewBox="0 0 16 18" xml:space="preserve"><path d="M12.8 17.5c-1.6 0-2.9-1.3-2.9-2.9 0-.4.1-.7.2-1l-4.7-2.7c-.5.6-1.3 1-2.2 1C1.6 11.9.3 10.6.3 9c0-1.6 1.3-2.9 2.9-2.9.9 0 1.7.4 2.2 1l4.7-2.7c-.1-.3-.2-.7-.2-1 0-1.6 1.3-2.9 2.9-2.9s2.9 1.3 2.9 2.9-1.3 2.9-2.9 2.9c-.9 0-1.7-.4-2.2-1L5.9 8c.1.3.2.6.2 1s-.1.7-.2 1l4.7 2.7c.5-.6 1.3-1 2.2-1 1.6 0 2.9 1.3 2.9 2.9 0 1.6-1.3 2.9-2.9 2.9zm-1.7-3.8c-.1.3-.2.6-.2.9 0 1 .9 1.9 1.9 1.9s1.9-.9 1.9-1.9c0-1-.9-1.9-1.9-1.9-.7 0-1.3.3-1.6.9l-.1.1c.1 0 0 0 0 0zM3.2 7.1c-1 0-1.9.9-1.9 1.9s.9 1.9 1.9 1.9c.7 0 1.3-.4 1.6-.9.2-.3.3-.7.3-1 0-.3-.1-.7-.2-.9-.4-.6-1-1-1.7-1zm8-2.7c.3.5.9.9 1.6.9 1 0 1.9-.9 1.9-1.9s-.9-1.9-1.9-1.9-1.9.9-1.9 1.9c0 .3.1.7.3 1-.1-.1 0-.1 0 0z" fill="#4b4b4b"/></svg>