<svg width="18" height="18" fill="none" xmlns="http://www.w3.org/2000/svg"><path d="M16.362 16.97a.63.63 0 01-.628-.637 6.613 6.613 0 00-2.025-4.743 6.734 6.734 0 00-1.914-1.325 5.515 5.515 0 01-2.795.84 5.067 5.067 0 01-2.744-.81 6.57 6.57 0 00-3.98 6.068.637.637 0 11-1.276 0 7.99 7.99 0 014.05-6.978l.102-.06-.101-.092A5.054 5.054 0 017.3 1.29a5.07 5.07 0 016.184 2.435c.373.718.569 1.514.57 2.323A4.95 4.95 0 0112.9 9.253l-.071.091.101.061a8.221 8.221 0 011.732 1.295A7.927 7.927 0 0117 16.343a.637.637 0 01-.638.627zM9 2.265A3.79 3.79 0 005.501 4.6a3.778 3.778 0 002.76 5.156 3.789 3.789 0 004.526-3.708 3.779 3.779 0 00-1.109-2.675A3.79 3.79 0 009 2.265z" fill="#000"/></svg>