<svg width="24" height="24" fill="none" xmlns="http://www.w3.org/2000/svg"><path d="M8.283 13.693l.886-.362-.803-.52C6.63 11.689 5.5 9.798 5.5 7.68 5.5 4.3 8.399 1.5 12 1.5c3.6 0 6.5 2.8 6.5 6.181a5.964 5.964 0 01-.76 2.899 6.323 6.323 0 01-2.105 2.23l-.806.519.887.363c3.246 1.33 5.566 4.315 5.77 7.808h-1.002c-.268-4.29-3.974-7.636-8.484-7.636S3.784 17.21 3.516 21.5H2.515c.203-3.493 2.523-6.478 5.768-7.807zM17.5 7.682c0-2.945-2.473-5.273-5.5-5.273S6.5 4.737 6.5 7.682s2.473 5.272 5.5 5.272 5.5-2.327 5.5-5.272z" fill="#010705" stroke="#fff"/></svg>