<svg width="17" height="18" fill="none" xmlns="http://www.w3.org/2000/svg"><path d="M8.502 0h-.004C3.81 0 0 4.037 0 9c0 1.969.6 3.793 1.618 5.275L.558 17.62l3.268-1.106A8.097 8.097 0 008.502 18C13.19 18 17 13.962 17 9s-3.811-9-8.498-9zm4.946 12.71c-.205.612-1.019 1.12-1.668 1.27-.444.1-1.024.18-2.977-.678-2.498-1.096-4.107-3.783-4.232-3.958-.12-.174-1.01-1.423-1.01-2.714 0-1.292.62-1.92.87-2.19.205-.222.544-.324.869-.324.105 0 .2.006.285.01.25.012.375.027.54.445.204.523.704 1.815.763 1.947.06.133.121.313.036.487-.08.18-.15.26-.275.413-.125.153-.244.27-.37.434-.114.143-.244.296-.1.56.145.26.644 1.122 1.38 1.815.948.895 1.718 1.18 1.993 1.302.205.09.45.069.6-.1.19-.217.424-.577.663-.932.17-.254.385-.285.61-.195.23.084 1.444.72 1.694.851.25.133.414.196.475.307.06.112.06.635-.146 1.25z" fill="#4B4B4B"/></svg>