<svg width="16" height="14" fill="none" xmlns="http://www.w3.org/2000/svg"><path d="M3.255 1.414c1.2-.551 2.811-.405 4.343 1.194a.557.557 0 00.804 0c1.532-1.6 3.143-1.745 4.343-1.194 1.234.567 2.139 1.916 2.139 3.525 0 1.644-.67 2.91-1.629 3.997-.79.895-1.748 1.636-2.68 2.36a52.12 52.12 0 00-.66.514c-.391.31-.74.582-1.077.78-.336.198-.608.288-.838.288-.23 0-.502-.09-.838-.288-.337-.198-.686-.47-1.077-.78a60.262 60.262 0 00-.659-.514c-.933-.724-1.89-1.465-2.681-2.36-.96-1.086-1.629-2.353-1.629-3.997 0-1.609.905-2.958 2.14-3.525zM8 1.44C6.28-.108 4.353-.324 2.791.393 1.142 1.151 0 2.91 0 4.94c0 1.994.826 3.515 1.91 4.742.868.982 1.93 1.804 2.868 2.53.213.165.42.324.615.48.382.302.79.624 1.206.868.414.243.887.441 1.401.441s.987-.198 1.401-.441c.415-.244.824-.566 1.206-.868.196-.156.402-.315.615-.48.938-.726 2-1.548 2.868-2.53C15.174 8.454 16 6.933 16 4.939c0-2.029-1.142-3.788-2.791-4.546C11.647-.324 9.72-.107 8 1.44z" fill="#000"/></svg>