<svg version="1.1" id="Layer_1" xmlns="http://www.w3.org/2000/svg" x="0" y="0" viewBox="0 0 18 18" xml:space="preserve"><path d="M13.1 16.6H3.4c-.5 0-1-.2-1.4-.6-.4-.4-.6-.9-.6-1.4V4.9c0-.5.2-1 .6-1.4.4-.4.9-.6 1.4-.6h4.9c.3 0 .6.3.6.6s-.3.6-.6.6H3.4c-.2 0-.4.1-.6.2-.1.2-.2.4-.2.6v9.7c0 .2.1.4.2.6.1.1.4.2.6.2h9.7c.2 0 .4-.1.6-.2.1-.2.2-.3.2-.6V9.7c0-.3.3-.6.6-.6s.6.3.6.6v4.9c0 .5-.2 1-.6 1.4-.3.4-.8.6-1.4.6zm-6.9-4.2c-.2 0-.3-.1-.4-.2-.1-.1-.2-.4-.2-.6l.7-2.8c0-.1.1-.2.2-.3L13.1 2c.8-.8 2.2-.8 2.9 0 .4.4.6.9.6 1.5S16.4 4.6 16 5l-6.6 6.6c-.1.1-.2.1-.3.2l-2.8.7c0-.1-.1-.1-.1-.1zm1.2-3.1L7 11l1.7-.4 6.5-6.5c.2-.2.3-.4.3-.6 0-.2-.1-.5-.3-.6-.3-.3-.9-.3-1.2 0L7.4 9.3zm6.1-6.9z" fill="#4b4b4b"/></svg>