<svg width="24" height="19" fill="none" xmlns="http://www.w3.org/2000/svg"><path d="M22.98 1.83C22.329.498 21.622.253 20.184.16 18.747.047 15.134 0 12.003 0 8.867 0 5.251.047 3.816.157c-1.435.095-2.143.339-2.8 1.674C.345 3.163 0 5.456 0 9.495v.014c0 4.02.345 6.332 1.016 7.65.657 1.333 1.363 1.575 2.798 1.687 1.438.097 5.053.154 8.189.154 3.13 0 6.744-.057 8.183-.152 1.438-.112 2.145-.354 2.796-1.688C23.657 15.842 24 13.531 24 9.51v-.013c0-4.04-.342-6.334-1.02-7.666zM9 14.683V4.318L16.5 9.5 9 14.682z" fill="#4B4B4B"/></svg>