<svg width="18" height="18" viewBox="0 0 18 18" fill="none" xmlns="http://www.w3.org/2000/svg">
<path d="M2 15.2222L1.33333 15.2222L2 15.2222ZM3.77778 1L3.77778 0.333333L3.77778 1ZM15.6889 1L15.6889 1.66667L15.6889 1ZM16.2222 1.53333L16.8889 1.53333L16.2222 1.53333ZM15.5556 13.1902C15.5556 13.5584 15.854 13.8569 16.2222 13.8569C16.5904 13.8569 16.8889 13.5584 16.8889 13.1902H15.5556ZM16.2222 14.1111C16.5904 14.1111 16.8889 13.8126 16.8889 13.4444C16.8889 13.0763 16.5904 12.7778 16.2222 12.7778V14.1111ZM16.2222 17.6667C16.5904 17.6667 16.8889 17.3682 16.8889 17C16.8889 16.6318 16.5904 16.3333 16.2222 16.3333V17.6667ZM6.44444 3.88889C6.07625 3.88889 5.77778 4.18737 5.77778 4.55556C5.77778 4.92375 6.07625 5.22222 6.44444 5.22222V3.88889ZM11.7778 5.22222C12.146 5.22222 12.4444 4.92375 12.4444 4.55556C12.4444 4.18737 12.146 3.88889 11.7778 3.88889V5.22222ZM2.66667 15.2222V2.77778H1.33333V15.2222H2.66667ZM2.66667 2.77778C2.66667 2.48309 2.78373 2.20048 2.9921 1.9921L2.04929 1.04929C1.59087 1.50772 1.33333 2.12947 1.33333 2.77778H2.66667ZM2.9921 1.9921C3.20048 1.78373 3.48309 1.66667 3.77778 1.66667L3.77778 0.333333C3.12947 0.333333 2.50772 0.590872 2.04929 1.04929L2.9921 1.9921ZM3.77778 1.66667H15.6889V0.333333H3.77778V1.66667ZM15.6889 1.66667C15.6535 1.66667 15.6196 1.65262 15.5946 1.62761L16.5374 0.684805C16.3124 0.459761 16.0071 0.333333 15.6889 0.333333L15.6889 1.66667ZM15.5946 1.62761C15.5696 1.60261 15.5556 1.56869 15.5556 1.53333L16.8889 1.53333C16.8889 1.21507 16.7625 0.90985 16.5374 0.684805L15.5946 1.62761ZM15.5556 1.53333V13.1902H16.8889V1.53333H15.5556ZM3.77778 14.1111H16.2222V12.7778H3.77778V14.1111ZM3.77778 17.6667H16.2222V16.3333H3.77778V17.6667ZM3.77778 16.3333C3.48309 16.3333 3.20048 16.2163 2.9921 16.0079L2.04929 16.9507C2.50772 17.4091 3.12947 17.6667 3.77778 17.6667V16.3333ZM2.9921 16.0079C2.78373 15.7995 2.66667 15.5169 2.66667 15.2222L1.33333 15.2222C1.33333 15.8705 1.59087 16.4923 2.04929 16.9507L2.9921 16.0079ZM2.66667 15.2222C2.66667 14.9275 2.78373 14.6449 2.9921 14.4365L2.04929 13.4937C1.59087 13.9522 1.33333 14.5739 1.33333 15.2222H2.66667ZM2.9921 14.4365C3.20048 14.2282 3.48309 14.1111 3.77778 14.1111V12.7778C3.12947 12.7778 2.50772 13.0353 2.04929 13.4937L2.9921 14.4365ZM6.44444 5.22222H11.7778V3.88889H6.44444V5.22222Z" fill="black"/>
</svg>
