<svg width="18" height="20" viewBox="0 0 18 20" fill="none" xmlns="http://www.w3.org/2000/svg">
<path d="M5.22 0.280029C5.61764 0.280029 5.94 0.602384 5.94 1.00003V2.08003H11.7V1.00003C11.7 0.602384 12.0224 0.280029 12.42 0.280029C12.8176 0.280029 13.14 0.602384 13.14 1.00003V2.08003H15.12C16.5118 2.08003 17.64 3.20827 17.64 4.60003V17.2C17.64 18.5918 16.5118 19.72 15.12 19.72H2.52C1.12824 19.72 0 18.5918 0 17.2V4.60003C0 3.20827 1.12824 2.08003 2.52 2.08003H4.5V1.00003C4.5 0.602384 4.82235 0.280029 5.22 0.280029ZM4.5 3.52003H2.52C1.92353 3.52003 1.44 4.00356 1.44 4.60003V7.48003H16.2V4.60003C16.2 4.00356 15.7165 3.52003 15.12 3.52003H13.14V4.60003C13.14 4.99767 12.8176 5.32003 12.42 5.32003C12.0224 5.32003 11.7 4.99767 11.7 4.60003V3.52003H5.94V4.60003C5.94 4.99767 5.61764 5.32003 5.22 5.32003C4.82235 5.32003 4.5 4.99767 4.5 4.60003V3.52003ZM16.2 8.92003H1.44V17.2C1.44 17.7965 1.92353 18.28 2.52 18.28H15.12C15.7165 18.28 16.2 17.7965 16.2 17.2V8.92003Z" fill="#01129F"/>
</svg>
