<svg width="30" height="25" viewBox="0 0 30 25" fill="none" xmlns="http://www.w3.org/2000/svg">
<path d="M28.8228 3.14043H27.0423V1.25617C27.0423 0.558298 26.5048 0 25.833 0H1.20935C0.537487 0 0 0.558298 0 1.25617V20.2034C0 20.9013 0.537487 21.4596 1.20935 21.4596H2.98977V23.3438C2.98977 24.0417 3.52726 24.6 4.19912 24.6H28.7892C29.461 24.6 29.9985 24.0417 29.9985 23.3438V4.43149C30.0321 3.73362 29.4946 3.14043 28.8228 3.14043ZM1.24294 1.22128L25.833 1.25617V14.2017L20.3237 10.2238C20.1222 10.0843 19.8534 10.0843 19.6519 10.2238L14.7809 13.6783L9.27165 8.06043C9.0365 7.85106 8.70057 7.81617 8.46542 8.02553L1.20935 14.2715L1.24294 1.22128ZM1.17575 20.2034V15.8766L8.80135 9.3166L14.277 14.8996C14.4786 15.1089 14.8145 15.1438 15.0496 14.9694L19.9878 11.48L25.833 15.7021V20.2034C25.833 20.2034 25.833 20.2383 25.7994 20.2383L1.17575 20.2034ZM28.8228 23.4136L4.19912 23.3787V21.4945H25.833C26.5048 21.4945 27.0423 20.9362 27.0423 20.2383V4.3966L28.8563 4.43149L28.8228 23.4136Z" fill="#4B4B4B"/>
<path d="M18.5769 3.17532C17.0988 3.17532 15.9231 4.43149 15.9231 5.93191C15.9231 7.43234 17.0988 8.68851 18.5769 8.68851C20.055 8.68851 21.2308 7.43234 21.2308 5.93191C21.2308 4.43149 20.0214 3.17532 18.5769 3.17532ZM18.5769 7.46723C17.7707 7.46723 17.0988 6.76936 17.0988 5.93191C17.0988 5.09447 17.7707 4.3966 18.5769 4.3966C19.3831 4.3966 20.055 5.09447 20.055 5.93191C20.055 6.76936 19.3831 7.46723 18.5769 7.46723Z" fill="#4B4B4B"/>
</svg>
