<svg width="24" height="23" viewBox="0 0 24 23" fill="none" xmlns="http://www.w3.org/2000/svg">
<path d="M0.199951 0.999997C0.199951 0.558169 0.558123 0.199997 0.999951 0.199997H4.99995C5.38125 0.199997 5.70956 0.469105 5.78439 0.842991L6.65645 5.2H23C23.2384 5.2 23.4644 5.30634 23.6163 5.49004C23.7683 5.67374 23.8305 5.91566 23.7858 6.14986L22.1846 14.5459C22.0566 15.1904 21.706 15.7694 21.1941 16.1815C20.6843 16.5918 20.047 16.8106 19.3929 16.8H9.68697C9.03286 16.8106 8.39558 16.5918 7.88584 16.1815C7.37409 15.7695 7.02349 15.1907 6.89538 14.5464C6.89535 14.5462 6.89542 14.5465 6.89538 14.5464L5.22376 6.19451C5.21773 6.17037 5.2128 6.1458 5.20902 6.12084L4.3442 1.8H0.999951C0.558123 1.8 0.199951 1.44182 0.199951 0.999997ZM6.97668 6.8L8.46462 14.2341C8.51949 14.5104 8.66977 14.7585 8.88915 14.9351C9.10853 15.1117 9.38304 15.2055 9.66462 15.2001L9.67995 15.2H19.4L19.4153 15.2001C19.6969 15.2055 19.9714 15.1117 20.1908 14.9351C20.4095 14.7591 20.5595 14.5119 20.6148 14.2367C20.6149 14.2358 20.6151 14.235 20.6153 14.2341L22.033 6.8H6.97668ZM8.99995 20.8C8.88949 20.8 8.79995 20.8895 8.79995 21C8.79995 21.1105 8.88949 21.2 8.99995 21.2C9.11041 21.2 9.19995 21.1105 9.19995 21C9.19995 20.8895 9.11041 20.8 8.99995 20.8ZM7.19995 21C7.19995 20.0059 8.00584 19.2 8.99995 19.2C9.99406 19.2 10.8 20.0059 10.8 21C10.8 21.9941 9.99406 22.8 8.99995 22.8C8.00584 22.8 7.19995 21.9941 7.19995 21ZM20 20.8C19.8895 20.8 19.7999 20.8895 19.7999 21C19.7999 21.1105 19.8895 21.2 20 21.2C20.1104 21.2 20.2 21.1105 20.2 21C20.2 20.8895 20.1104 20.8 20 20.8ZM18.2 21C18.2 20.0059 19.0058 19.2 20 19.2C20.9941 19.2 21.7999 20.0059 21.7999 21C21.7999 21.9941 20.9941 22.8 20 22.8C19.0058 22.8 18.2 21.9941 18.2 21Z" fill="#010705"/>
</svg>
