<svg width="22" height="22" viewBox="0 0 22 22" fill="none" xmlns="http://www.w3.org/2000/svg">
<path d="M10.9492 1.75C5.84058 1.75 1.69922 5.89137 1.69922 11C1.69922 16.1086 5.84058 20.25 10.9492 20.25C16.0579 20.25 20.1992 16.1086 20.1992 11C20.1992 5.89137 16.0579 1.75 10.9492 1.75ZM0.199219 11C0.199219 5.06294 5.01216 0.25 10.9492 0.25C16.8863 0.25 21.6992 5.06294 21.6992 11C21.6992 16.9371 16.8863 21.75 10.9492 21.75C5.01216 21.75 0.199219 16.9371 0.199219 11ZM10.9492 4.25C11.3634 4.25 11.6992 4.58579 11.6992 5V10.5365L15.2846 12.3292C15.6551 12.5144 15.8053 12.9649 15.62 13.3354C15.4348 13.7059 14.9843 13.8561 14.6138 13.6708L10.6138 11.6708C10.3597 11.5438 10.1992 11.2841 10.1992 11V5C10.1992 4.58579 10.535 4.25 10.9492 4.25Z" fill="#01129F"/>
</svg>
