<svg width="16" height="16" viewBox="0 0 16 16" fill="none" xmlns="http://www.w3.org/2000/svg">
<path d="M8 5.75C7.85166 5.75 7.70666 5.79399 7.58332 5.8764C7.45999 5.95881 7.36386 6.07594 7.30709 6.21299C7.25032 6.35003 7.23547 6.50083 7.26441 6.64632C7.29335 6.7918 7.36478 6.92544 7.46967 7.03033C7.57456 7.13522 7.7082 7.20665 7.85368 7.23559C7.99917 7.26453 8.14997 7.24968 8.28701 7.19291C8.42406 7.13614 8.54119 7.04002 8.6236 6.91668C8.70601 6.79334 8.75 6.64834 8.75 6.5C8.75 6.30109 8.67098 6.11032 8.53033 5.96967C8.38968 5.82902 8.19891 5.75 8 5.75ZM13.25 0.5H2.75C2.15326 0.5 1.58097 0.737053 1.15901 1.15901C0.737053 1.58097 0.5 2.15326 0.5 2.75V10.25C0.5 10.8467 0.737053 11.419 1.15901 11.841C1.58097 12.2629 2.15326 12.5 2.75 12.5H11.4425L14.2175 15.2825C14.2876 15.352 14.3707 15.407 14.4621 15.4443C14.5534 15.4817 14.6513 15.5006 14.75 15.5C14.8484 15.5025 14.946 15.482 15.035 15.44C15.172 15.3837 15.2892 15.2882 15.372 15.1654C15.4547 15.0426 15.4993 14.8981 15.5 14.75V2.75C15.5 2.15326 15.2629 1.58097 14.841 1.15901C14.419 0.737053 13.8467 0.5 13.25 0.5ZM14 12.9425L12.2825 11.2175C12.2124 11.148 12.1293 11.093 12.0379 11.0557C11.9466 11.0183 11.8487 10.9994 11.75 11H2.75C2.55109 11 2.36032 10.921 2.21967 10.7803C2.07902 10.6397 2 10.4489 2 10.25V2.75C2 2.55109 2.07902 2.36032 2.21967 2.21967C2.36032 2.07902 2.55109 2 2.75 2H13.25C13.4489 2 13.6397 2.07902 13.7803 2.21967C13.921 2.36032 14 2.55109 14 2.75V12.9425ZM5 5.75C4.85166 5.75 4.70666 5.79399 4.58332 5.8764C4.45999 5.95881 4.36386 6.07594 4.30709 6.21299C4.25032 6.35003 4.23547 6.50083 4.26441 6.64632C4.29335 6.7918 4.36478 6.92544 4.46967 7.03033C4.57456 7.13522 4.7082 7.20665 4.85368 7.23559C4.99917 7.26453 5.14997 7.24968 5.28701 7.19291C5.42406 7.13614 5.54119 7.04002 5.6236 6.91668C5.70601 6.79334 5.75 6.64834 5.75 6.5C5.75 6.30109 5.67098 6.11032 5.53033 5.96967C5.38968 5.82902 5.19891 5.75 5 5.75ZM11 5.75C10.8517 5.75 10.7067 5.79399 10.5833 5.8764C10.46 5.95881 10.3639 6.07594 10.3071 6.21299C10.2503 6.35003 10.2355 6.50083 10.2644 6.64632C10.2933 6.7918 10.3648 6.92544 10.4697 7.03033C10.5746 7.13522 10.7082 7.20665 10.8537 7.23559C10.9992 7.26453 11.15 7.24968 11.287 7.19291C11.4241 7.13614 11.5412 7.04002 11.6236 6.91668C11.706 6.79334 11.75 6.64834 11.75 6.5C11.75 6.30109 11.671 6.11032 11.5303 5.96967C11.3897 5.82902 11.1989 5.75 11 5.75Z" fill="#DEBB67"/>
</svg>
