<svg width="20" height="20" viewBox="0 0 20 20" fill="none" xmlns="http://www.w3.org/2000/svg">
<path d="M2.94922 1.75C2.6177 1.75 2.29976 1.8817 2.06534 2.11612C1.83091 2.35054 1.69922 2.66848 1.69922 3V17.1893L4.41889 14.4697C4.55954 14.329 4.75031 14.25 4.94922 14.25H16.9492C17.2807 14.25 17.5987 14.1183 17.8331 13.8839C18.0675 13.6495 18.1992 13.3315 18.1992 13V3C18.1992 2.66848 18.0675 2.35054 17.8331 2.11612C17.5987 1.8817 17.2807 1.75 16.9492 1.75H2.94922ZM1.00468 1.05546C1.5204 0.539731 2.21987 0.25 2.94922 0.25H16.9492C17.6786 0.25 18.378 0.539731 18.8938 1.05546C19.4095 1.57118 19.6992 2.27065 19.6992 3V13C19.6992 13.7293 19.4095 14.4288 18.8938 14.9445C18.378 15.4603 17.6786 15.75 16.9492 15.75H5.25988L1.47955 19.5303C1.26505 19.7448 0.942462 19.809 0.662206 19.6929C0.38195 19.5768 0.199219 19.3033 0.199219 19V3C0.199219 2.27065 0.48895 1.57118 1.00468 1.05546Z" fill="#01129F"/>
</svg>
