<svg width="20" height="24" viewBox="0 0 20 24" fill="none" xmlns="http://www.w3.org/2000/svg">
<path d="M14.4343 0.434312C14.7467 0.121892 15.2532 0.121892 15.5656 0.434312L19.5656 4.43431C19.8781 4.74673 19.8781 5.25326 19.5656 5.56568L15.5656 9.56568C15.2532 9.8781 14.7467 9.8781 14.4343 9.56568C14.1218 9.25326 14.1218 8.74673 14.4343 8.43431L17.0686 5.8H4.99995C4.15126 5.8 3.33733 6.13714 2.73721 6.73726C2.13709 7.33737 1.79995 8.1513 1.79995 9V11C1.79995 11.4418 1.44178 11.8 0.999951 11.8C0.558123 11.8 0.199951 11.4418 0.199951 11V9C0.199951 7.72696 0.705664 6.50606 1.60584 5.60588C2.50601 4.70571 3.72691 4.2 4.99995 4.2H17.0686L14.4343 1.56568C14.1218 1.25326 14.1218 0.746731 14.4343 0.434312ZM19 12.2C19.4418 12.2 19.7999 12.5582 19.7999 13V15C19.7999 16.273 19.2942 17.4939 18.3941 18.3941C17.4939 19.2943 16.273 19.8 15 19.8H2.93132L5.56564 22.4343C5.87806 22.7467 5.87806 23.2533 5.56564 23.5657C5.25322 23.8781 4.74669 23.8781 4.43427 23.5657L0.434266 19.5657C0.121846 19.2533 0.121846 18.7467 0.434266 18.4343L4.43427 14.4343C4.74669 14.1219 5.25322 14.1219 5.56564 14.4343C5.87806 14.7467 5.87806 15.2533 5.56564 15.5657L2.93132 18.2H15C15.8486 18.2 16.6626 17.8629 17.2627 17.2627C17.8628 16.6626 18.2 15.8487 18.2 15V13C18.2 12.5582 18.5581 12.2 19 12.2Z" fill="#010705"/>
</svg>
