<svg width="22" height="18" viewBox="0 0 22 18" fill="none" xmlns="http://www.w3.org/2000/svg">
<path d="M1.86044 2.62583L11 9.02349L20.1395 2.62583C19.9807 2.14841 19.5277 1.80001 19 1.80001H2.99995C2.47217 1.80001 2.01921 2.14842 1.86044 2.62583ZM20.2 4.53654L11.4587 10.6554C11.1833 10.8482 10.8166 10.8482 10.5412 10.6554L1.79995 4.53654V15C1.79995 15.6582 2.34178 16.2 2.99995 16.2H19C19.6581 16.2 20.2 15.6582 20.2 15V4.53654ZM0.199951 3.00001C0.199951 1.45818 1.45812 0.200012 2.99995 0.200012H19C20.5418 0.200012 21.7999 1.45818 21.7999 3.00001V15C21.7999 16.5418 20.5418 17.8 19 17.8H2.99995C1.45812 17.8 0.199951 16.5418 0.199951 15V3.00001Z" fill="#010705"/>
</svg>
