<svg width="20" height="22" viewBox="0 0 20 22" fill="none" xmlns="http://www.w3.org/2000/svg">
<path d="M11.3185 0.266155C11.6443 0.40757 11.8378 0.746825 11.7938 1.09922L10.9062 8.2H19C19.3104 8.2 19.5928 8.37956 19.7244 8.66067C19.8561 8.94178 19.8133 9.27368 19.6145 9.51214L9.61454 21.5121C9.38718 21.785 9.00718 21.8753 8.68141 21.7338C8.35563 21.5924 8.16209 21.2532 8.20614 20.9008L9.09373 13.8H0.999961C0.689547 13.8 0.407153 13.6204 0.275489 13.3393C0.143826 13.0582 0.186662 12.7263 0.385384 12.4878L10.3854 0.487848C10.6127 0.215021 10.9927 0.12474 11.3185 0.266155ZM2.70799 12.2H9.99996C10.2294 12.2 10.4478 12.2985 10.5997 12.4706C10.7516 12.6426 10.8222 12.8715 10.7938 13.0992L10.1322 18.3916L17.2919 9.8H9.99996C9.7705 9.8 9.55208 9.70146 9.40022 9.52944C9.24836 9.35741 9.17768 9.12846 9.20614 8.90077L9.86769 3.60836L2.70799 12.2Z" fill="#010705"/>
</svg>
