<svg width="22" height="22" viewBox="0 0 22 22" fill="none" xmlns="http://www.w3.org/2000/svg">
<path d="M1.93167 10.1111H6.15285C6.36798 7.23397 7.34773 4.47424 8.97935 2.11371C5.20053 2.96934 2.31291 6.17352 1.93167 10.1111ZM11 2.37071C9.24013 4.59237 8.17375 7.28531 7.93621 10.1111H14.0637C13.8262 7.28531 12.7598 4.59237 11 2.37071ZM14.0637 11.8889H7.93621C8.17375 14.7146 9.24013 17.4076 11 19.6292C12.7598 17.4076 13.8262 14.7146 14.0637 11.8889ZM6.15285 11.8889H1.93167C2.31291 15.8264 5.20053 19.0306 8.97935 19.8862C7.34773 17.5257 6.36798 14.766 6.15285 11.8889ZM13.0206 19.8862C16.7994 19.0306 19.687 15.8264 20.0683 11.8889H15.8471C15.632 14.766 14.6522 17.5257 13.0206 19.8862ZM20.0683 10.1111C19.687 6.17352 16.7994 2.96934 13.0206 2.11371C14.6522 4.47424 15.632 7.23398 15.8471 10.1111H20.0683ZM0.111084 11C0.111084 4.98621 4.98621 0.111084 11 0.111084C17.0137 0.111084 21.8889 4.98621 21.8889 11C21.8889 17.0137 17.0137 21.8889 11 21.8889C4.98621 21.8889 0.111084 17.0137 0.111084 11Z" fill="black"/>
</svg>
