<svg width="16" height="16" viewBox="0 0 16 16" fill="none" xmlns="http://www.w3.org/2000/svg">
<path d="M1.5 13C1.89782 13 2.27936 13.158 2.56066 13.4393C2.84196 13.7206 3 14.1022 3 14.5C3 14.8978 2.84196 15.2794 2.56066 15.5607C2.27936 15.842 1.89782 16 1.5 16C1.10218 16 0.720644 15.842 0.43934 15.5607C0.158035 15.2794 0 14.8978 0 14.5C0 14.1022 0.158035 13.7206 0.43934 13.4393C0.720644 13.158 1.10218 13 1.5 13ZM8 13C8.39782 13 8.77936 13.158 9.06066 13.4393C9.34196 13.7206 9.5 14.1022 9.5 14.5C9.5 14.8978 9.34196 15.2794 9.06066 15.5607C8.77936 15.842 8.39782 16 8 16C7.60218 16 7.22064 15.842 6.93934 15.5607C6.65804 15.2794 6.5 14.8978 6.5 14.5C6.5 14.1022 6.65804 13.7206 6.93934 13.4393C7.22064 13.158 7.60218 13 8 13ZM14.5 13C14.8978 13 15.2794 13.158 15.5607 13.4393C15.842 13.7206 16 14.1022 16 14.5C16 14.8978 15.842 15.2794 15.5607 15.5607C15.2794 15.842 14.8978 16 14.5 16C14.1022 16 13.7206 15.842 13.4393 15.5607C13.158 15.2794 13 14.8978 13 14.5C13 14.1022 13.158 13.7206 13.4393 13.4393C13.7206 13.158 14.1022 13 14.5 13ZM1.5 6.5C1.89782 6.5 2.27936 6.65804 2.56066 6.93934C2.84196 7.22064 3 7.60218 3 8C3 8.39782 2.84196 8.77936 2.56066 9.06066C2.27936 9.34196 1.89782 9.5 1.5 9.5C1.10218 9.5 0.720644 9.34196 0.43934 9.06066C0.158035 8.77936 0 8.39782 0 8C0 7.60218 0.158035 7.22064 0.43934 6.93934C0.720644 6.65804 1.10218 6.5 1.5 6.5ZM8 6.5C8.39782 6.5 8.77936 6.65804 9.06066 6.93934C9.34196 7.22064 9.5 7.60218 9.5 8C9.5 8.39782 9.34196 8.77936 9.06066 9.06066C8.77936 9.34196 8.39782 9.5 8 9.5C7.60218 9.5 7.22064 9.34196 6.93934 9.06066C6.65804 8.77936 6.5 8.39782 6.5 8C6.5 7.60218 6.65804 7.22064 6.93934 6.93934C7.22064 6.65804 7.60218 6.5 8 6.5ZM14.5 6.5C14.8978 6.5 15.2794 6.65804 15.5607 6.93934C15.842 7.22064 16 7.60218 16 8C16 8.39782 15.842 8.77936 15.5607 9.06066C15.2794 9.34196 14.8978 9.5 14.5 9.5C14.1022 9.5 13.7206 9.34196 13.4393 9.06066C13.158 8.77936 13 8.39782 13 8C13 7.60218 13.158 7.22064 13.4393 6.93934C13.7206 6.65804 14.1022 6.5 14.5 6.5ZM1.5 0C1.69698 -4.1511e-09 1.89204 0.0387985 2.07403 0.114181C2.25601 0.189563 2.42137 0.300052 2.56066 0.43934C2.69995 0.578628 2.81044 0.743986 2.88582 0.925975C2.9612 1.10796 3 1.30302 3 1.5C3 1.69698 2.9612 1.89204 2.88582 2.07403C2.81044 2.25601 2.69995 2.42137 2.56066 2.56066C2.42137 2.69995 2.25601 2.81044 2.07403 2.88582C1.89204 2.9612 1.69698 3 1.5 3C1.10218 3 0.720644 2.84196 0.43934 2.56066C0.158035 2.27936 0 1.89782 0 1.5C0 1.10218 0.158035 0.720644 0.43934 0.43934C0.720644 0.158035 1.10218 8.38353e-09 1.5 0ZM8 0C8.19698 -4.1511e-09 8.39204 0.0387985 8.57403 0.114181C8.75601 0.189563 8.92137 0.300052 9.06066 0.43934C9.19995 0.578628 9.31044 0.743986 9.38582 0.925975C9.4612 1.10796 9.5 1.30302 9.5 1.5C9.5 1.69698 9.4612 1.89204 9.38582 2.07403C9.31044 2.25601 9.19995 2.42137 9.06066 2.56066C8.92137 2.69995 8.75601 2.81044 8.57403 2.88582C8.39204 2.9612 8.19698 3 8 3C7.60218 3 7.22064 2.84196 6.93934 2.56066C6.65804 2.27936 6.5 1.89782 6.5 1.5C6.5 1.10218 6.65804 0.720644 6.93934 0.43934C7.22064 0.158035 7.60218 8.38353e-09 8 0ZM14.5 0C14.697 -4.1511e-09 14.892 0.0387985 15.074 0.114181C15.256 0.189563 15.4214 0.300052 15.5607 0.43934C15.6999 0.578628 15.8104 0.743986 15.8858 0.925975C15.9612 1.10796 16 1.30302 16 1.5C16 1.69698 15.9612 1.89204 15.8858 2.07403C15.8104 2.25601 15.6999 2.42137 15.5607 2.56066C15.4214 2.69995 15.256 2.81044 15.074 2.88582C14.892 2.9612 14.697 3 14.5 3C14.1022 3 13.7206 2.84196 13.4393 2.56066C13.158 2.27936 13 1.89782 13 1.5C13 1.10218 13.158 0.720644 13.4393 0.43934C13.7206 0.158035 14.1022 8.38353e-09 14.5 0Z" fill="white"/>
</svg>
