<svg width="16" height="12" viewBox="0 0 16 12" fill="none" xmlns="http://www.w3.org/2000/svg">
<path d="M0.349976 0.999998C0.349976 0.641013 0.64099 0.349998 0.999976 0.349998H1.00872C1.36771 0.349998 1.65872 0.641013 1.65872 0.999998C1.65872 1.35898 1.36771 1.65 1.00872 1.65H0.999976C0.64099 1.65 0.349976 1.35898 0.349976 0.999998ZM2.79442 0.999998C2.79442 0.641013 3.08544 0.349998 3.44442 0.349998H15C15.359 0.349998 15.65 0.641013 15.65 0.999998C15.65 1.35898 15.359 1.65 15 1.65H3.44442C3.08544 1.65 2.79442 1.35898 2.79442 0.999998ZM0.349976 6C0.349976 5.64101 0.64099 5.35 0.999976 5.35H1.00872C1.36771 5.35 1.65872 5.64101 1.65872 6C1.65872 6.35898 1.36771 6.65 1.00872 6.65H0.999976C0.64099 6.65 0.349976 6.35898 0.349976 6ZM2.79442 6C2.79442 5.64101 3.08544 5.35 3.44442 5.35H15C15.359 5.35 15.65 5.64101 15.65 6C15.65 6.35898 15.359 6.65 15 6.65H3.44442C3.08544 6.65 2.79442 6.35898 2.79442 6ZM0.349976 11C0.349976 10.641 0.64099 10.35 0.999976 10.35H1.00872C1.36771 10.35 1.65872 10.641 1.65872 11C1.65872 11.359 1.36771 11.65 1.00872 11.65H0.999976C0.64099 11.65 0.349976 11.359 0.349976 11ZM2.79442 11C2.79442 10.641 3.08544 10.35 3.44442 10.35H15C15.359 10.35 15.65 10.641 15.65 11C15.65 11.359 15.359 11.65 15 11.65H3.44442C3.08544 11.65 2.79442 11.359 2.79442 11Z" fill="black"/>
</svg>
