<svg width="24" height="22" viewBox="0 0 24 22" fill="none" xmlns="http://www.w3.org/2000/svg">
<path d="M7.50386 0.131757L0.503861 4.13176C0.192286 4.3098 0 4.64114 0 5V21C0 21.3565 0.189758 21.686 0.498073 21.8649C0.806388 22.0438 1.18664 22.0451 1.49614 21.8682L8.03147 18.1338L15.5528 21.8944C15.8518 22.044 16.2058 22.0341 16.4961 21.8682L23.4961 17.8682C23.8077 17.6902 24 17.3589 24 17V1C24 0.64353 23.8102 0.314012 23.5019 0.13509C23.1936 -0.0438317 22.8134 -0.0451016 22.5039 0.131757L15.9685 3.86623L8.44721 0.105573C8.14816 -0.0439541 7.79416 -0.0341284 7.50386 0.131757ZM9 16.382V2.61803L15 5.61803V19.382L9 16.382ZM7 2.72318V16.4197L2 19.2768V5.58032L7 2.72318ZM17 5.58032L22 2.72318V16.4197L17 19.2768V5.58032Z" fill="#DEBB67"/>
</svg>
