<svg width="16" height="20" viewBox="0 0 16 20" fill="none" xmlns="http://www.w3.org/2000/svg">
<path d="M8.00039 0C4.83372 0 2.30039 2.5 2.30039 5.625V8.125C1.22372 8.125 0.400391 8.9375 0.400391 10V18.125C0.400391 19.1875 1.22372 20 2.30039 20H13.7004C14.7771 20 15.6004 19.1875 15.6004 18.125V10C15.6004 8.9375 14.7771 8.125 13.7004 8.125V5.625C13.7004 2.5 11.1671 0 8.00039 0ZM14.3337 10V18.125C14.3337 18.5 14.0804 18.75 13.7004 18.75H2.30039C1.92039 18.75 1.66706 18.5 1.66706 18.125V10C1.66706 9.625 1.92039 9.375 2.30039 9.375H13.7004C14.0804 9.375 14.3337 9.625 14.3337 10ZM3.56706 8.125V5.625C3.56706 3.1875 5.53039 1.25 8.00039 1.25C10.4704 1.25 12.4337 3.1875 12.4337 5.625V8.125H3.56706Z" fill="white"/>
<path d="M8.00039 11.25C6.92372 11.25 6.10039 12.0625 6.10039 13.125C6.10039 13.9375 6.60706 14.625 7.36706 14.875V16.25C7.36706 16.625 7.62039 16.875 8.00039 16.875C8.38039 16.875 8.63372 16.625 8.63372 16.25V14.875C9.39372 14.625 9.90039 13.9375 9.90039 13.125C9.90039 12.0625 9.07706 11.25 8.00039 11.25ZM8.00039 13.75C7.62039 13.75 7.36706 13.5 7.36706 13.125C7.36706 12.75 7.62039 12.5 8.00039 12.5C8.38039 12.5 8.63372 12.75 8.63372 13.125C8.63372 13.5 8.38039 13.75 8.00039 13.75Z" fill="white"/>
</svg>
