<svg width="30" height="30" viewBox="0 0 30 30" fill="none" xmlns="http://www.w3.org/2000/svg">
<path d="M23.4274 19.6312L28.5426 15.2683C28.7082 15.1294 28.8002 14.9211 28.8002 14.7001C28.8002 14.4791 28.7082 14.2708 28.5426 14.1319L23.4274 9.76901C23.1207 9.51014 22.673 9.55434 22.4215 9.86372C22.1701 10.1794 22.213 10.6403 22.5135 10.8992L26.1015 13.9614L1.9178 13.9614C1.52526 13.9614 1.2002 14.2897 1.2002 14.7001C1.2002 15.1042 1.51913 15.4388 1.9178 15.4388L26.1015 15.4388L22.5135 18.501C22.3418 18.6462 22.2559 18.8546 22.2559 19.0693C22.2559 19.2334 22.3111 19.4039 22.4215 19.5365C22.673 19.8459 23.1269 19.8901 23.4274 19.6312Z" fill="#DEBB67"/>
</svg>
