<svg width="30" height="30" viewBox="0 0 30 30" fill="none" xmlns="http://www.w3.org/2000/svg">
<path d="M6.57261 19.6312L1.45741 15.2683C1.29181 15.1294 1.19981 14.9211 1.19981 14.7001C1.19981 14.4791 1.29181 14.2708 1.45741 14.1319L6.57261 9.76901C6.87927 9.51014 7.32701 9.55434 7.57847 9.86372C7.82994 10.1794 7.787 10.6403 7.48647 10.8992L3.89847 13.9614L28.0822 13.9614C28.4747 13.9614 28.7998 14.2897 28.7998 14.7001C28.7998 15.1042 28.4809 15.4388 28.0822 15.4388L3.89847 15.4388L7.48647 18.501C7.65821 18.6462 7.74407 18.8546 7.74407 19.0693C7.74407 19.2334 7.68887 19.4039 7.57847 19.5365C7.32701 19.8459 6.87314 19.8901 6.57261 19.6312Z" fill="#DEBB67"/>
</svg>
