<svg width="20" height="24" viewBox="0 0 20 24" fill="none" xmlns="http://www.w3.org/2000/svg">
<path d="M9.99995 1.8C7.82518 1.8 5.73947 2.66392 4.20168 4.20172C2.66388 5.73952 1.79995 7.82522 1.79995 10C1.79995 13.1784 3.86254 16.2334 6.08071 18.5748C7.17344 19.7282 8.26889 20.6718 9.09204 21.3273C9.45796 21.6187 9.76879 21.8521 9.99995 22.0207C10.2311 21.8521 10.5419 21.6187 10.9079 21.3273C11.731 20.6718 12.8265 19.7282 13.9192 18.5748C16.1374 16.2334 18.2 13.1784 18.2 10C18.2 7.82522 17.336 5.73952 15.7982 4.20172C14.2604 2.66392 12.1747 1.8 9.99995 1.8ZM9.99995 23C9.55619 23.6656 9.55598 23.6655 9.55574 23.6653L9.55314 23.6636L9.54684 23.6594L9.52464 23.6444C9.50566 23.6315 9.47839 23.6128 9.44338 23.5886C9.37338 23.5401 9.27239 23.4692 9.14484 23.3771C8.88983 23.1929 8.52816 22.9236 8.09536 22.5789C7.23102 21.8907 6.07646 20.8968 4.91919 19.6752C2.63736 17.2666 0.199951 13.8216 0.199951 10C0.199951 7.40088 1.23245 4.90821 3.0703 3.07035C4.90816 1.23249 7.40083 0.199997 9.99995 0.199997C12.5991 0.199997 15.0917 1.23249 16.9296 3.07035C18.7675 4.90821 19.7999 7.40088 19.7999 10C19.7999 13.8216 17.3625 17.2666 15.0807 19.6752C13.9234 20.8968 12.7689 21.8907 11.9045 22.5789C11.4717 22.9236 11.1101 23.1929 10.8551 23.3771C10.7275 23.4692 10.6265 23.5401 10.5565 23.5886C10.5215 23.6128 10.4942 23.6315 10.4753 23.6444L10.4531 23.6594L10.4468 23.6636L10.4448 23.6649C10.4446 23.6651 10.4437 23.6656 9.99995 23ZM9.99995 23L10.4437 23.6656C10.175 23.8448 9.82446 23.8445 9.55574 23.6653L9.99995 23ZM9.99995 7.8C8.78492 7.8 7.79995 8.78497 7.79995 10C7.79995 11.215 8.78492 12.2 9.99995 12.2C11.215 12.2 12.2 11.215 12.2 10C12.2 8.78497 11.215 7.8 9.99995 7.8ZM6.19995 10C6.19995 7.90132 7.90127 6.2 9.99995 6.2C12.0986 6.2 13.8 7.90132 13.8 10C13.8 12.0987 12.0986 13.8 9.99995 13.8C7.90127 13.8 6.19995 12.0987 6.19995 10Z" fill="#010705"/>
</svg>
