<?xml version="1.0" encoding="utf-8"?>
<!-- Generator: Adobe Illustrator 27.8.1, SVG Export Plug-In . SVG Version: 6.00 Build 0)  -->
<svg version="1.1" id="Layer_1" xmlns="http://www.w3.org/2000/svg" xmlns:xlink="http://www.w3.org/1999/xlink" x="0px" y="0px"
	 viewBox="0 0 27 25" style="enable-background:new 0 0 27 25;" xml:space="preserve">
<style type="text/css">
	.st0{fill:#DEBB67;}
</style>
<g>
	<path class="st0" d="M20.6,24.7c-5.8,0-11.5-2.8-15.7-7.8C1.5,13-0.3,8.4,0.4,5.2l0.1-0.3c1.2-2,2.8-3.4,4.9-4.6L6,0l5.1,6.4
		l-2.3,3.7c0.2,0.7,1,2.3,2.6,3.8c1.8,1.7,3.8,2.4,4.5,2.7l4-2.1l7.2,4.9l-0.4,0.6c-1.2,2-2.8,3.5-5,4.6l-0.1,0.1l-0.2,0
		C21.1,24.7,20.9,24.7,20.6,24.7z M1.8,5.6C1.4,8.3,3,12.5,6,16c4.1,4.8,9.6,7.5,15.1,7.3c1.6-0.9,2.9-1.9,3.8-3.4l-5.2-3.6l-3.7,2
		l-0.3-0.1c-0.1,0-2.9-0.8-5.4-3.1c-2.4-2.2-3.1-4.8-3.1-4.9L7.1,10l2.1-3.4L5.6,2C4,2.9,2.8,4.1,1.8,5.6z M20.7,10.6l-0.2-0.7
		c-0.4-1.9-2-3.4-4.1-3.8L15.7,6l0.3-1.5l0.7,0.1c2.7,0.5,4.8,2.4,5.3,4.9l0.2,0.7L20.7,10.6z M25.3,10.6l-0.1-0.7
		c-0.5-4.3-4.1-7.6-8.8-8.1l-0.7-0.1l0.2-1.5l0.7,0.1c5.4,0.6,9.5,4.4,10.1,9.4l0.1,0.7L25.3,10.6z"/>
</g>
</svg>
