<?xml version="1.0" encoding="utf-8"?>
<!-- Generator: Adobe Illustrator 27.8.1, SVG Export Plug-In . SVG Version: 6.00 Build 0)  -->
<svg version="1.1" id="Layer_1" xmlns="http://www.w3.org/2000/svg" xmlns:xlink="http://www.w3.org/1999/xlink" x="0px" y="0px"
	 viewBox="0 0 18 18" style="enable-background:new 0 0 18 18;" xml:space="preserve">
<style type="text/css">
	.st0{fill:#4B4B4B;}
</style>
<g>
	<path class="st0" d="M14.6,16.6c-0.1,0-0.1,0-0.2,0c-2.3-0.2-4.4-1-6.3-2.2c-1.8-1.1-3.3-2.6-4.4-4.4C2.4,8,1.6,5.8,1.4,3.6
		c0-0.3,0-0.6,0.1-0.8c0.1-0.3,0.2-0.5,0.4-0.7c0.2-0.2,0.4-0.4,0.7-0.5c0.3-0.1,0.5-0.2,0.8-0.2h2.1c0.5,0,1,0.2,1.3,0.5
		c0.4,0.3,0.6,0.8,0.7,1.2C7.6,3.8,7.7,4.4,8,5c0.1,0.4,0.2,0.7,0.1,1.1C8,6.5,7.8,6.8,7.5,7.1L7,7.7C7.8,9,9,10.2,10.3,11l0.6-0.6
		c0.3-0.3,0.6-0.5,1-0.5c0.4-0.1,0.8-0.1,1.1,0.1c0.6,0.2,1.2,0.4,1.8,0.5c0.5,0.1,0.9,0.3,1.3,0.7c0.3,0.4,0.5,0.8,0.5,1.3v2.1
		c0,0.3-0.1,0.6-0.2,0.8c-0.1,0.3-0.3,0.5-0.5,0.7c-0.2,0.2-0.4,0.3-0.7,0.4C15,16.6,14.8,16.6,14.6,16.6z M5.5,2.6
		C5.5,2.6,5.5,2.6,5.5,2.6H3.4c-0.1,0-0.2,0-0.3,0.1C3,2.7,2.9,2.8,2.8,2.9C2.7,2.9,2.7,3,2.6,3.1c0,0.1,0,0.2,0,0.3
		c0.2,2.1,0.9,4.1,2.1,5.8c1,1.6,2.4,3,4,4c1.7,1.1,3.7,1.8,5.8,2.1c0.1,0,0.2,0,0.3,0c0.1,0,0.2-0.1,0.3-0.2
		c0.1-0.1,0.1-0.2,0.2-0.3c0-0.1,0.1-0.2,0.1-0.3v-2.1c0,0,0,0,0,0c0-0.2-0.1-0.4-0.2-0.5c-0.1-0.2-0.3-0.2-0.5-0.3
		c-0.7-0.1-1.4-0.3-2.1-0.5c-0.1-0.1-0.3-0.1-0.5,0c-0.1,0-0.3,0.1-0.4,0.2l-0.9,0.9c-0.2,0.2-0.5,0.2-0.7,0.1
		c-1.9-1.1-3.4-2.6-4.4-4.4C5.5,7.6,5.6,7.3,5.8,7.1l0.9-0.9C6.8,6.1,6.8,6,6.9,5.8c0-0.2,0-0.3,0-0.5C6.6,4.7,6.4,4,6.3,3.3
		c0-0.2-0.1-0.4-0.3-0.5C5.9,2.7,5.7,2.6,5.5,2.6z"/>
</g>
</svg>
