<svg width="13" height="17" viewBox="0 0 13 17" fill="none" xmlns="http://www.w3.org/2000/svg">
<path d="M6.90625 0C3.43281 0 0 2.32976 0 6.10029C0 8.49817 1.34063 9.8606 2.15313 9.8606C2.48828 9.8606 2.68125 8.92052 2.68125 8.65485C2.68125 8.33808 1.87891 7.66368 1.87891 6.34552C1.87891 3.60704 3.95078 1.66557 6.63203 1.66557C8.9375 1.66557 10.6438 2.98372 10.6438 5.40545C10.6438 7.21407 9.92266 10.6065 7.58672 10.6065C6.74375 10.6065 6.02266 9.99343 6.02266 9.11467C6.02266 7.82717 6.91641 6.58054 6.91641 5.25217C6.91641 2.99735 3.7375 3.40608 3.7375 6.13094C3.7375 6.70316 3.80859 7.33669 4.0625 7.85782C3.59531 9.88103 2.64062 12.8954 2.64062 14.9799C2.64062 15.6237 2.73203 16.2572 2.79297 16.901C2.90807 17.0304 2.85052 17.0168 3.02656 16.9521C4.73281 14.6019 4.67188 14.142 5.44375 11.0663C5.86016 11.8634 6.93672 12.2925 7.78984 12.2925C11.3852 12.2925 13 8.76725 13 5.58938C13 2.20714 10.0953 0 6.90625 0Z" fill="#0B0E25"/>
</svg>
