<svg width="24" height="18" viewBox="0 0 24 18" fill="none" xmlns="http://www.w3.org/2000/svg">
<path d="M1.91015 9.00001C2.02567 8.79663 2.19161 8.51654 2.40636 8.18403C2.87205 7.46296 3.56198 6.50354 4.45858 5.54717C6.26637 3.61886 8.81956 1.80001 12 1.80001C15.1803 1.80001 17.7335 3.61886 19.5413 5.54717C20.4379 6.50354 21.1279 7.46296 21.5935 8.18403C21.8083 8.51654 21.9742 8.79663 22.0898 9.00001C21.9742 9.20339 21.8083 9.48348 21.5935 9.81599C21.1279 10.5371 20.4379 11.4965 19.5413 12.4529C17.7335 14.3812 15.1803 16.2 12 16.2C8.81956 16.2 6.26637 14.3812 4.45858 12.4529C3.56198 11.4965 2.87205 10.5371 2.40636 9.81599C2.19161 9.48348 2.02567 9.20339 1.91015 9.00001ZM23 9.00001C23.7155 8.64224 23.7154 8.64197 23.7152 8.64166L23.7138 8.63882L23.7106 8.63248L23.6997 8.61128C23.6906 8.59341 23.6774 8.56815 23.6604 8.53599C23.6264 8.47168 23.5767 8.37972 23.5117 8.26405C23.3816 8.03283 23.1896 7.70623 22.9376 7.31599C22.4345 6.53706 21.687 5.49649 20.7086 4.45286C18.7664 2.38116 15.8196 0.200012 12 0.200012C8.18035 0.200012 5.23354 2.38116 3.29132 4.45286C2.31292 5.49649 1.56535 6.53706 1.06229 7.31599C0.810269 7.70623 0.618303 8.03283 0.488238 8.26405C0.423175 8.37972 0.373511 8.47168 0.33948 8.53599C0.322462 8.56815 0.309345 8.59341 0.300159 8.61128L0.289328 8.63248L0.286129 8.63882L0.285084 8.64089C0.284931 8.6412 0.284409 8.64224 0.999951 9.00001L0.284409 8.64224C0.171798 8.86746 0.171798 9.13256 0.284409 9.35778L0.999951 9.00001C0.284409 9.35778 0.284256 9.35748 0.284409 9.35778L0.285084 9.35913L0.286129 9.36121L0.289328 9.36754L0.300159 9.38874C0.309345 9.40661 0.322462 9.43187 0.33948 9.46403C0.373511 9.52834 0.423175 9.6203 0.488238 9.73597C0.618303 9.9672 0.810269 10.2938 1.06229 10.684C1.56535 11.463 2.31292 12.5035 3.29132 13.5472C5.23354 15.6189 8.18035 17.8 12 17.8C15.8196 17.8 18.7664 15.6189 20.7086 13.5472C21.687 12.5035 22.4345 11.463 22.9376 10.684C23.1896 10.2938 23.3816 9.9672 23.5117 9.73597C23.5767 9.6203 23.6264 9.52834 23.6604 9.46403C23.6774 9.43187 23.6906 9.40661 23.6997 9.38874L23.7106 9.36754L23.7138 9.36121L23.7148 9.35913C23.715 9.35882 23.7155 9.35778 23 9.00001ZM23 9.00001L23.7155 9.35778C23.8281 9.13256 23.8278 8.86688 23.7152 8.64166L23 9.00001ZM12 6.80001C10.7849 6.80001 9.79995 7.78499 9.79995 9.00001C9.79995 10.215 10.7849 11.2 12 11.2C13.215 11.2 14.2 10.215 14.2 9.00001C14.2 7.78499 13.215 6.80001 12 6.80001ZM8.19995 9.00001C8.19995 6.90133 9.90127 5.20001 12 5.20001C14.0986 5.20001 15.8 6.90133 15.8 9.00001C15.8 11.0987 14.0986 12.8 12 12.8C9.90127 12.8 8.19995 11.0987 8.19995 9.00001Z" fill="#010705"/>
</svg>
