<svg width="18" height="18" viewBox="0 0 18 18" fill="none" xmlns="http://www.w3.org/2000/svg">
<mask id="path-1-inside-1_56_2595" fill="white">
<path d="M1 2.77608V7.44398H5.36364"/>
<path d="M17 15.224V10.5561H12.6364"/>
<path d="M15.1745 6.66605C14.8057 5.55104 14.1788 4.55414 13.3524 3.76839C12.526 2.98264 11.5269 2.43365 10.4485 2.17263C9.3701 1.91161 8.24745 1.94708 7.18532 2.27572C6.12318 2.60437 5.15618 3.21548 4.37454 4.05203L1 7.44398M17 10.5561L13.6255 13.948C12.8438 14.7845 11.8768 15.3956 10.8147 15.7243C9.75255 16.0529 8.6299 16.0884 7.55148 15.8274C6.47306 15.5664 5.47404 15.0174 4.64761 14.2316C3.82119 13.4459 3.1943 12.449 2.82545 11.3339"/>
</mask>
<path d="M2.2 2.77608C2.2 2.11334 1.66274 1.57608 1 1.57608C0.337258 1.57608 -0.2 2.11334 -0.2 2.77608H2.2ZM1 7.44398H-0.2C-0.2 8.10672 0.337258 8.64398 1 8.64398L1 7.44398ZM5.36364 8.64398C6.02638 8.64398 6.56364 8.10672 6.56364 7.44398C6.56364 6.78123 6.02638 6.24398 5.36364 6.24398V8.64398ZM15.8 15.224C15.8 15.8867 16.3373 16.424 17 16.424C17.6627 16.424 18.2 15.8867 18.2 15.224H15.8ZM17 10.5561H18.2C18.2 9.89332 17.6627 9.35606 17 9.35606V10.5561ZM12.6364 9.35606C11.9736 9.35606 11.4364 9.89332 11.4364 10.5561C11.4364 11.2188 11.9736 11.7561 12.6364 11.7561V9.35606ZM14.0353 7.04293C14.2434 7.67214 14.9222 8.01348 15.5514 7.80534C16.1806 7.59719 16.522 6.91838 16.3138 6.28918L14.0353 7.04293ZM4.37454 4.05203L5.22525 4.89838C5.2341 4.88948 5.2428 4.88046 5.25137 4.87129L4.37454 4.05203ZM13.6255 13.948L12.7748 13.1016C12.7659 13.1105 12.7572 13.1195 12.7486 13.1287L13.6255 13.948ZM3.96474 10.9571C3.75659 10.3279 3.07779 9.98652 2.44858 10.1947C1.81937 10.4028 1.47803 11.0816 1.68617 11.7108L3.96474 10.9571ZM-0.2 2.77608V7.44398H2.2V2.77608H-0.2ZM1 8.64398H5.36364V6.24398H1V8.64398ZM18.2 15.224V10.5561H15.8V15.224H18.2ZM17 9.35606H12.6364V11.7561H17V9.35606ZM16.3138 6.28918C15.8849 4.99252 15.1531 3.82471 14.1792 2.89874L12.5255 4.63805C13.2045 5.28358 13.7265 6.10955 14.0353 7.04293L16.3138 6.28918ZM14.1792 2.89874C13.2049 1.9723 12.0195 1.31821 10.7308 1.00631L10.1662 3.33895C11.0344 3.54909 11.8471 3.99299 12.5255 4.63805L14.1792 2.89874ZM10.7308 1.00631C9.44169 0.694288 8.09895 0.736895 6.8306 1.12935L7.54003 3.4221C8.39595 3.15726 9.29851 3.12893 10.1662 3.33895L10.7308 1.00631ZM6.8306 1.12935C5.56282 1.52162 4.41753 2.24834 3.49772 3.23277L5.25137 4.87129C5.89483 4.18262 6.68354 3.68711 7.54003 3.4221L6.8306 1.12935ZM3.52384 3.20569L0.149293 6.59763L1.85071 8.29032L5.22525 4.89838L3.52384 3.20569ZM16.1493 9.70971L12.7748 13.1016L14.4762 14.7943L17.8507 11.4024L16.1493 9.70971ZM12.7486 13.1287C12.1052 13.8174 11.3165 14.3129 10.46 14.5779L11.1694 16.8707C12.4372 16.4784 13.5825 15.7517 14.5023 14.7672L12.7486 13.1287ZM10.46 14.5779C9.60405 14.8427 8.70149 14.8711 7.83378 14.661L7.26918 16.9937C8.5583 17.3057 9.90105 17.2631 11.1694 16.8707L10.46 14.5779ZM7.83378 14.661C6.96559 14.4509 6.15292 14.007 5.47447 13.3619L3.82075 15.1013C4.79515 16.0277 5.98054 16.6818 7.26918 16.9937L7.83378 14.661ZM5.47447 13.3619C4.79552 12.7164 4.2735 11.8904 3.96474 10.9571L1.68617 11.7108C2.11511 13.0075 2.84685 14.1753 3.82075 15.1013L5.47447 13.3619Z" fill="#4B4B4B" mask="url(#path-1-inside-1_56_2595)"/>
</svg>
