<svg width="10" height="11" viewBox="0 0 10 11" fill="none" xmlns="http://www.w3.org/2000/svg">
<path d="M7.9998 3.3L1.34355 9.975C1.19355 10.125 1.0153 10.2 0.808805 10.2C0.602805 10.2 0.424804 10.125 0.274804 9.975C0.124804 9.825 0.0498047 9.64675 0.0498047 9.44025C0.0498047 9.23425 0.124804 9.05625 0.274804 8.90625L6.9498 2.25H1.2498C1.0373 2.25 0.859055 2.17825 0.715055 2.03475C0.571555 1.89075 0.499805 1.7125 0.499805 1.5C0.499805 1.2875 0.571555 1.10925 0.715055 0.96525C0.859055 0.82175 1.0373 0.75 1.2498 0.75H8.7498C8.9623 0.75 9.1403 0.82175 9.2838 0.96525C9.4278 1.10925 9.4998 1.2875 9.4998 1.5V9C9.4998 9.2125 9.4278 9.3905 9.2838 9.534C9.1403 9.678 8.9623 9.75 8.7498 9.75C8.5373 9.75 8.3593 9.678 8.2158 9.534C8.0718 9.3905 7.9998 9.2125 7.9998 9V3.3Z" fill="#111111"/>
</svg>
