<?xml version="1.0" encoding="utf-8"?>
<!-- Generator: Adobe Illustrator 27.8.1, SVG Export Plug-In . SVG Version: 6.00 Build 0)  -->
<svg version="1.1" id="Layer_1" xmlns="http://www.w3.org/2000/svg" xmlns:xlink="http://www.w3.org/1999/xlink" x="0px" y="0px"
	 viewBox="0 0 18 18" style="enable-background:new 0 0 18 18;" xml:space="preserve">
<style type="text/css">
	.st0{fill:#4B4B4B;}
</style>
<g>
	<path class="st0" d="M3,17.6c-0.3,0-0.6-0.3-0.6-0.6V1.8c0-0.2,0.1-0.3,0.2-0.4c0.1-0.1,1-1,3.6-1c1.3,0,2.4,0.4,3.4,0.8
		c1,0.4,1.9,0.8,3,0.8c2.1,0,2.8-0.6,2.8-0.6c0.2-0.2,0.4-0.2,0.7-0.1c0.2,0.1,0.4,0.3,0.4,0.5v9.6c0,0.2-0.1,0.3-0.2,0.4
		c-0.1,0.1-1,1-3.6,1c-1.3,0-2.4-0.4-3.4-0.8c-1-0.4-1.9-0.8-3-0.8c-1.5,0-2.3,0.3-2.6,0.5V17C3.6,17.3,3.3,17.6,3,17.6z M6.2,10
		c1.3,0,2.4,0.4,3.4,0.8c1,0.4,1.9,0.8,3,0.8c1.5,0,2.3-0.3,2.6-0.5V2.8c-0.6,0.2-1.4,0.4-2.6,0.4c-1.3,0-2.4-0.4-3.4-0.8
		c-1-0.4-1.9-0.8-3-0.8c-1.5,0-2.3,0.3-2.6,0.5v8.3C4.2,10.2,5,10,6.2,10z"/>
</g>
</svg>
