<svg width="18" height="18" viewBox="0 0 18 18" fill="none" xmlns="http://www.w3.org/2000/svg">
<path d="M8.34045 1.8C4.72823 1.8 1.79995 4.72828 1.79995 8.3405C1.79995 11.9527 4.72823 14.881 8.34045 14.881C10.1059 14.881 11.708 14.1815 12.8847 13.0446C12.9071 13.0148 12.9319 12.9862 12.959 12.959C12.9861 12.9319 13.0147 12.9071 13.0445 12.8847C14.1815 11.708 14.881 10.106 14.881 8.3405C14.881 4.72828 11.9527 1.8 8.34045 1.8ZM14.6346 13.5033L17.5656 16.4343C17.8781 16.7467 17.8781 17.2533 17.5656 17.5657C17.2532 17.8781 16.7467 17.8781 16.4343 17.5657L13.5033 14.6347C12.0984 15.7884 10.3003 16.481 8.34045 16.481C3.84458 16.481 0.199951 12.8364 0.199951 8.3405C0.199951 3.84462 3.84458 0.199997 8.34045 0.199997C12.8363 0.199997 16.481 3.84462 16.481 8.3405C16.481 10.3003 15.7884 12.0984 14.6346 13.5033Z" fill="black"/>
</svg>
