<?xml version="1.0" encoding="utf-8"?>
<!-- Generator: Adobe Illustrator 27.8.1, SVG Export Plug-In . SVG Version: 6.00 Build 0)  -->
<svg version="1.1" id="Layer_1" xmlns="http://www.w3.org/2000/svg" xmlns:xlink="http://www.w3.org/1999/xlink" x="0px" y="0px"
	 viewBox="0 0 16 18" style="enable-background:new 0 0 16 18;" xml:space="preserve">
<style type="text/css">
	.st0{fill:#4B4B4B;}
</style>
<g>
	<path class="st0" d="M12.8,17.5c-1.6,0-2.9-1.3-2.9-2.9c0-0.4,0.1-0.7,0.2-1l-4.7-2.7c-0.5,0.6-1.3,1-2.2,1c-1.6,0-2.9-1.3-2.9-2.9
		c0-1.6,1.3-2.9,2.9-2.9c0.9,0,1.7,0.4,2.2,1l4.7-2.7c-0.1-0.3-0.2-0.7-0.2-1c0-1.6,1.3-2.9,2.9-2.9s2.9,1.3,2.9,2.9
		s-1.3,2.9-2.9,2.9c-0.9,0-1.7-0.4-2.2-1L5.9,8C6,8.3,6.1,8.6,6.1,9c0,0.4-0.1,0.7-0.2,1l4.7,2.7c0.5-0.6,1.3-1,2.2-1
		c1.6,0,2.9,1.3,2.9,2.9C15.7,16.2,14.4,17.5,12.8,17.5z M11.1,13.7c-0.1,0.3-0.2,0.6-0.2,0.9c0,1,0.9,1.9,1.9,1.9s1.9-0.9,1.9-1.9
		c0-1-0.9-1.9-1.9-1.9c-0.7,0-1.3,0.3-1.6,0.9C11.2,13.6,11.2,13.6,11.1,13.7C11.2,13.7,11.1,13.7,11.1,13.7z M3.2,7.1
		C2.2,7.1,1.3,8,1.3,9s0.9,1.9,1.9,1.9c0.7,0,1.3-0.4,1.6-0.9c0,0,0,0,0,0c0,0,0,0,0,0C5,9.7,5.1,9.3,5.1,9c0-0.3-0.1-0.7-0.2-0.9
		c0,0,0,0,0,0c0,0,0,0,0,0C4.5,7.5,3.9,7.1,3.2,7.1z M11.2,4.4c0.3,0.5,0.9,0.9,1.6,0.9c1,0,1.9-0.9,1.9-1.9s-0.9-1.9-1.9-1.9
		s-1.9,0.9-1.9,1.9C10.9,3.7,11,4.1,11.2,4.4C11.1,4.3,11.2,4.3,11.2,4.4C11.2,4.4,11.2,4.4,11.2,4.4z"/>
</g>
</svg>
