<svg width="17" height="17" viewBox="0 0 17 17" fill="none" xmlns="http://www.w3.org/2000/svg">
<path fill-rule="evenodd" clip-rule="evenodd" d="M0.39978 1.00002C0.39978 0.668654 0.668409 0.400024 0.99978 0.400024H8.82591C8.98504 0.400024 9.13765 0.463239 9.25017 0.57576L15.9741 7.29966C16.3773 7.70535 16.6037 8.25413 16.6037 8.82615C16.6037 9.39817 16.3773 9.94695 15.9741 10.3526L15.9728 10.3539L10.3617 15.965C10.1606 16.1663 9.92183 16.326 9.65897 16.435C9.39611 16.5439 9.11436 16.6 8.82982 16.6C8.54528 16.6 8.26352 16.5439 8.00067 16.435C7.73783 16.326 7.49904 16.1663 7.29796 15.965C7.29795 15.965 7.29797 15.965 7.29796 15.965L0.575763 9.25066C0.46309 9.13812 0.39978 8.9854 0.39978 8.82615V1.00002ZM1.59978 1.60002V8.57742L8.14644 15.1165C8.23608 15.2062 8.34302 15.2779 8.4602 15.3265C8.57737 15.375 8.70297 15.4 8.82982 15.4C8.95667 15.4 9.08227 15.375 9.19944 15.3265C9.31662 15.2779 9.42307 15.2067 9.51272 15.1169L15.123 9.50663C15.1232 9.50645 15.1228 9.50682 15.123 9.50663C15.3024 9.32584 15.4037 9.08088 15.4037 8.82615C15.4037 8.57145 15.303 8.32708 15.1236 8.14629C15.1234 8.14608 15.1239 8.1465 15.1236 8.14629L8.57738 1.60002H1.59978ZM4.31284 4.91309C4.31284 4.58172 4.58147 4.31309 4.91284 4.31309H4.92067C5.25204 4.31309 5.52067 4.58172 5.52067 4.91309C5.52067 5.24446 5.25204 5.51309 4.92067 5.51309H4.91284C4.58147 5.51309 4.31284 5.24446 4.31284 4.91309Z" fill="#4B4B4B"/>
</svg>
