<svg width="24" height="24" viewBox="0 0 24 24" fill="none" xmlns="http://www.w3.org/2000/svg">
<path d="M8.28345 13.6933L9.16931 13.3306L8.36554 12.8108C6.6314 11.6891 5.5 9.79816 5.5 7.68182C5.5 4.29985 8.39897 1.5 12 1.5C15.6008 1.5 18.4996 4.29946 18.5 7.6811C18.4985 8.6908 18.2379 9.68594 17.7395 10.5797C17.241 11.4736 16.5192 12.2397 15.6352 12.8093L14.8293 13.3286L15.7163 13.6923C18.9617 15.0228 21.2821 18.0071 21.4855 21.5H20.4844C20.2156 17.2106 16.5101 13.8636 12 13.8636C7.48985 13.8636 3.78442 17.2106 3.51561 21.5H2.51452C2.7179 18.0069 5.03836 15.022 8.28345 13.6933ZM17.5 7.68182C17.5 4.73706 15.027 2.40909 12 2.40909C8.97303 2.40909 6.5 4.73706 6.5 7.68182C6.5 10.6266 8.97303 12.9545 12 12.9545C15.027 12.9545 17.5 10.6266 17.5 7.68182Z" fill="#010705" stroke="white"/>
</svg>
