<svg width="18" height="18" viewBox="0 0 18 18" fill="none" xmlns="http://www.w3.org/2000/svg">
<path d="M16.362 16.9701C16.2789 16.9699 16.1966 16.9531 16.1199 16.9209C16.0433 16.8887 15.9738 16.8416 15.9154 16.7824C15.857 16.7232 15.8109 16.653 15.7798 16.5759C15.7487 16.4988 15.7331 16.4163 15.734 16.3331C15.7313 15.4472 15.5507 14.5709 15.2028 13.7562C14.8549 12.9414 14.347 12.2048 13.709 11.5901C13.1528 11.0407 12.5051 10.5923 11.795 10.2651C10.9557 10.791 9.99024 11.0812 9.00005 11.1051C8.02657 11.1043 7.07394 10.8231 6.25605 10.2951C5.07001 10.8039 4.06006 11.6506 3.35226 12.7298C2.64446 13.8089 2.27015 15.0726 2.27605 16.3631C2.27648 16.4896 2.23924 16.6134 2.16909 16.7186C2.09894 16.8238 1.99904 16.9058 1.88213 16.9541C1.76522 17.0024 1.63659 17.0147 1.51262 16.9896C1.38865 16.9645 1.27497 16.9031 1.18605 16.8131C1.0669 16.6937 1.00001 16.5318 1.00005 16.3631C0.99526 14.9453 1.36786 13.5517 2.07959 12.3254C2.79132 11.0991 3.81655 10.0843 5.05005 9.38513L5.15205 9.32513L5.05105 9.23313C4.54258 8.60413 4.1925 7.86229 4.03022 7.06992C3.86794 6.27756 3.8982 5.45782 4.11845 4.67958C4.33871 3.90133 4.74253 3.18732 5.29598 2.59752C5.84944 2.00772 6.53636 1.55937 7.29905 1.29013C8.45026 0.883355 9.70961 0.905689 10.8457 1.35303C11.9817 1.80036 12.9182 2.64265 13.483 3.72513C13.856 4.44313 14.052 5.23913 14.053 6.04813C14.0599 7.2192 13.6513 8.35478 12.9 9.25313L12.829 9.34413L12.93 9.40513C13.5619 9.75865 14.1442 10.1941 14.662 10.7001C15.4055 11.4394 15.9949 12.3188 16.3962 13.2875C16.7976 14.2561 17.0028 15.2947 17 16.3431C16.9974 16.5105 16.929 16.6701 16.8096 16.7875C16.6902 16.9048 16.5294 16.9704 16.362 16.9701ZM9.00005 2.26513C8.25141 2.26524 7.51957 2.48707 6.89686 2.90263C6.27415 3.31818 5.78845 3.90885 5.50105 4.60013C5.21432 5.29127 5.13927 6.05199 5.28544 6.78583C5.4316 7.51968 5.79239 8.19359 6.32205 8.72213C6.8518 9.25061 7.52617 9.6104 8.26013 9.75613C8.99409 9.90187 9.75477 9.82701 10.4462 9.54101C11.1377 9.25501 11.729 8.77066 12.1456 8.14906C12.5622 7.52745 12.7854 6.79641 12.787 6.04813C12.7871 5.55124 12.6892 5.05922 12.4989 4.60022C12.3086 4.14122 12.0296 3.72423 11.678 3.37313C10.9674 2.66359 10.0042 2.26509 9.00005 2.26513Z" fill="black"/>
</svg>
