<svg width="20" height="20" viewBox="0 0 20 20" fill="none" xmlns="http://www.w3.org/2000/svg">
<path d="M19.5625 9.99981C19.5626 8.40899 19.1657 6.84329 18.4079 5.44454C17.6502 4.04579 16.5554 2.85819 15.2228 1.98932C13.8903 1.12044 12.362 0.597749 10.7764 0.468586C9.19084 0.339422 7.5981 0.60787 6.14246 1.24961C4.68683 1.89135 3.41429 2.88611 2.44013 4.14377C1.46596 5.40143 0.820957 6.88226 0.563531 8.45212C0.306106 10.022 0.444398 11.6312 0.965879 13.1342C1.48736 14.6371 2.37555 15.9862 3.55 17.0592L3.6625 17.1529C5.40911 18.7042 7.66399 19.5609 10 19.5609C12.336 19.5609 14.5909 18.7042 16.3375 17.1529L16.45 17.0592C17.4316 16.1639 18.2154 15.0736 18.7514 13.858C19.2873 12.6424 19.5636 11.3283 19.5625 9.99981ZM1.5625 9.99981C1.56062 8.62236 1.896 7.26539 2.53936 6.04742C3.18272 4.82944 4.11448 3.7875 5.25329 3.01258C6.39209 2.23767 7.7033 1.75334 9.0724 1.60191C10.4415 1.45048 11.8269 1.63654 13.1075 2.14385C14.3881 2.65116 15.5251 3.46429 16.4191 4.51222C17.313 5.56016 17.9369 6.81103 18.2361 8.15559C18.5352 9.50016 18.5007 10.8975 18.1354 12.2257C17.7702 13.5538 17.0853 14.7723 16.1406 15.7748C15.2546 14.4042 13.934 13.3709 12.3906 12.8404C13.1611 12.3273 13.746 11.5798 14.0588 10.7085C14.3716 9.83725 14.3958 8.88844 14.1277 8.00238C13.8597 7.11632 13.3136 6.34004 12.5702 5.78831C11.8269 5.23659 10.9257 4.9387 10 4.9387C9.07428 4.9387 8.17312 5.23659 7.42978 5.78831C6.68643 6.34004 6.14035 7.11632 5.87228 8.00238C5.60421 8.88844 5.62837 9.83725 5.9412 10.7085C6.25402 11.5798 6.83891 12.3273 7.60938 12.8404C6.06596 13.3709 4.74537 14.4042 3.85938 15.7748C2.38276 14.2148 1.56069 12.1478 1.5625 9.99981ZM6.8125 9.24981C6.8125 8.61938 6.99945 8.00311 7.34969 7.47893C7.69994 6.95474 8.19776 6.5462 8.7802 6.30494C9.36264 6.06369 10.0035 6.00056 10.6219 6.12355C11.2402 6.24654 11.8081 6.55012 12.2539 6.9959C12.6997 7.44168 13.0033 8.00964 13.1263 8.62796C13.2492 9.24627 13.1861 9.88717 12.9449 10.4696C12.7036 11.052 12.2951 11.5499 11.7709 11.9001C11.2467 12.2504 10.6304 12.4373 10 12.4373C9.15538 12.4348 8.34607 12.0982 7.74883 11.501C7.15159 10.9037 6.81497 10.0944 6.8125 9.24981ZM4.69375 16.5623C5.2452 15.6481 6.02349 14.8919 6.95316 14.367C7.88284 13.842 8.93237 13.5662 10 13.5662C11.0676 13.5662 12.1172 13.842 13.0468 14.367C13.9765 14.8919 14.7548 15.6481 15.3063 16.5623C13.8038 17.7754 11.931 18.437 10 18.437C8.06896 18.437 6.19622 17.7754 4.69375 16.5623Z" fill="#DEBB67"/>
</svg>
