<?xml version="1.0" encoding="utf-8"?>
<!-- Generator: Adobe Illustrator 27.8.1, SVG Export Plug-In . SVG Version: 6.00 Build 0)  -->
<svg version="1.1" id="Layer_1" xmlns="http://www.w3.org/2000/svg" xmlns:xlink="http://www.w3.org/1999/xlink" x="0px" y="0px"
	 viewBox="0 0 18 18" style="enable-background:new 0 0 18 18;" xml:space="preserve">
<style type="text/css">
	.st0{fill:#4B4B4B;}
</style>
<g>
	<path class="st0" d="M2.5,16.6c-0.4,0-0.8-0.1-1.1-0.3c-0.3-0.2-0.6-0.5-0.8-0.8c-0.2-0.3-0.3-0.7-0.3-1.1c0-0.4,0.1-0.7,0.3-1.1
		L7.2,2.4c0,0,0,0,0,0C7.4,2.1,7.7,1.9,8,1.7c0.6-0.4,1.5-0.4,2.1,0c0.3,0.2,0.6,0.4,0.8,0.8l6.6,10.9c0.2,0.3,0.3,0.7,0.3,1.1
		c0,0.4-0.1,0.7-0.3,1.1c-0.2,0.3-0.5,0.6-0.8,0.8c-0.3,0.2-0.7,0.3-1.1,0.3H2.5z M8.3,3.1L1.7,14c-0.1,0.1-0.1,0.3-0.1,0.5
		c0,0.2,0,0.3,0.1,0.5c0.1,0.1,0.2,0.3,0.3,0.3c0.1,0.1,0.3,0.1,0.5,0.1h13.1c0.2,0,0.3,0,0.5-0.1c0.1-0.1,0.3-0.2,0.3-0.3
		c0.1-0.1,0.1-0.3,0.1-0.5c0-0.2,0-0.3-0.1-0.5L9.9,3.1C9.8,2.9,9.7,2.8,9.5,2.7c-0.3-0.2-0.6-0.2-0.9,0C8.5,2.8,8.4,2.9,8.3,3.1z
		 M9.1,13.5c-0.3,0-0.6-0.3-0.6-0.6s0.3-0.6,0.6-0.6h0c0.3,0,0.6,0.3,0.6,0.6S9.4,13.5,9.1,13.5z M9.1,10.4c-0.3,0-0.6-0.3-0.6-0.6
		V6.7c0-0.3,0.3-0.6,0.6-0.6s0.6,0.3,0.6,0.6v3.1C9.7,10.1,9.4,10.4,9.1,10.4z"/>
</g>
</svg>
