<svg width="17" height="18" viewBox="0 0 17 18" fill="none" xmlns="http://www.w3.org/2000/svg">
<path d="M8.50212 0H8.49788C3.81119 0 0 4.0365 0 9C0 10.9688 0.59925 12.7935 1.61819 14.2751L0.558875 17.6186L3.82606 16.5128C5.17013 17.4555 6.77344 18 8.50212 18C13.1888 18 17 13.9624 17 9C17 4.03763 13.1888 0 8.50212 0ZM13.4481 12.7091C13.243 13.3223 12.4291 13.8307 11.7799 13.9792C11.3358 14.0794 10.7557 14.1593 8.80281 13.302C6.30487 12.2063 4.69625 9.51862 4.57088 9.34425C4.45081 9.16988 3.5615 7.92112 3.5615 6.62963C3.5615 5.33813 4.18094 4.70925 4.43062 4.43925C4.63569 4.21763 4.97463 4.11637 5.29975 4.11637C5.40494 4.11637 5.4995 4.122 5.5845 4.1265C5.83419 4.13775 5.95956 4.1535 6.12425 4.57088C6.32931 5.094 6.82869 6.3855 6.88819 6.51825C6.94875 6.651 7.00931 6.831 6.92431 7.00538C6.84462 7.18538 6.7745 7.26525 6.64913 7.41825C6.52375 7.57125 6.40475 7.68825 6.27938 7.8525C6.16462 7.99538 6.035 8.14838 6.1795 8.41275C6.324 8.6715 6.82337 9.53437 7.55862 10.2274C8.50744 11.1217 9.27669 11.4075 9.55188 11.529C9.75694 11.619 10.0013 11.5976 10.1511 11.4289C10.3413 11.2118 10.5761 10.8518 10.8152 10.4974C10.9852 10.2431 11.1998 10.2116 11.4251 10.3016C11.6546 10.386 12.869 11.0216 13.1187 11.1532C13.3684 11.286 13.5331 11.349 13.5936 11.4604C13.6531 11.5718 13.6531 12.0949 13.4481 12.7091Z" fill="#4B4B4B"/>
</svg>
