<svg width="16" height="14" viewBox="0 0 16 14" fill="none" xmlns="http://www.w3.org/2000/svg">
<path d="M3.25534 1.41373C4.45475 0.86264 6.06635 1.00858 7.59784 2.60799C7.70307 2.71787 7.84826 2.77997 8 2.77997C8.15174 2.77997 8.29693 2.71787 8.40216 2.60799C9.93362 1.00858 11.5452 0.86264 12.7446 1.41373C13.9792 1.98098 14.8837 3.33021 14.8837 4.93913C14.8837 6.58288 14.2145 7.84983 13.2552 8.93559C12.4646 9.83054 11.5075 10.5722 10.5741 11.2956C10.3524 11.4674 10.132 11.6381 9.91553 11.8097C9.52402 12.1198 9.17485 12.3921 8.83825 12.5898C8.50151 12.7876 8.2304 12.878 8 12.878C7.7696 12.878 7.49849 12.7876 7.16175 12.5898C6.82515 12.3921 6.47597 12.1198 6.0845 11.8097C5.86802 11.6381 5.64766 11.4674 5.42596 11.2956C4.49253 10.5722 3.53542 9.83054 2.74477 8.93559C1.78547 7.84983 1.11628 6.58288 1.11628 4.93913C1.11628 3.33021 2.02074 1.98098 3.25534 1.41373ZM8 1.43963C6.2794 -0.107738 4.35271 -0.324196 2.79126 0.393235C1.14211 1.15097 0 2.91042 0 4.93913C0 6.93304 0.826419 8.45409 1.91012 9.68071C2.77795 10.663 3.84016 11.485 4.77829 12.2112C4.99095 12.3757 5.19723 12.5354 5.39343 12.6908C5.77462 12.9929 6.18384 13.315 6.59855 13.5586C7.01313 13.8021 7.48621 14 8 14C8.51379 14 8.98687 13.8021 9.40145 13.5586C9.81619 13.315 10.2253 12.9928 10.6066 12.6908C10.8028 12.5354 11.009 12.3757 11.2217 12.2112C12.1599 11.485 13.222 10.663 14.0899 9.68071C15.1736 8.45409 16 6.93304 16 4.93913C16 2.91042 14.8579 1.15097 13.2087 0.393235C11.6473 -0.324196 9.72063 -0.107738 8 1.43963Z" fill="black"/>
</svg>
