<?xml version="1.0" encoding="utf-8"?>
<!-- Generator: Adobe Illustrator 27.8.1, SVG Export Plug-In . SVG Version: 6.00 Build 0)  -->
<svg version="1.1" id="Layer_1" xmlns="http://www.w3.org/2000/svg" xmlns:xlink="http://www.w3.org/1999/xlink" x="0px" y="0px"
	 viewBox="0 0 18 18" style="enable-background:new 0 0 18 18;" xml:space="preserve">
<style type="text/css">
	.st0{fill:#4B4B4B;}
</style>
<g>
	<path class="st0" d="M13.1,16.6H3.4c-0.5,0-1-0.2-1.4-0.6c-0.4-0.4-0.6-0.9-0.6-1.4V4.9c0-0.5,0.2-1,0.6-1.4
		c0.4-0.4,0.9-0.6,1.4-0.6h4.9c0.3,0,0.6,0.3,0.6,0.6S8.6,4.1,8.3,4.1H3.4C3.2,4.1,3,4.2,2.8,4.3C2.7,4.5,2.6,4.7,2.6,4.9v9.7
		c0,0.2,0.1,0.4,0.2,0.6c0.1,0.1,0.4,0.2,0.6,0.2h9.7c0.2,0,0.4-0.1,0.6-0.2c0.1-0.2,0.2-0.3,0.2-0.6V9.7c0-0.3,0.3-0.6,0.6-0.6
		s0.6,0.3,0.6,0.6v4.9c0,0.5-0.2,1-0.6,1.4C14.2,16.4,13.7,16.6,13.1,16.6z M6.2,12.4c-0.2,0-0.3-0.1-0.4-0.2
		c-0.1-0.1-0.2-0.4-0.2-0.6l0.7-2.8c0-0.1,0.1-0.2,0.2-0.3L13.1,2c0.8-0.8,2.2-0.8,2.9,0c0.4,0.4,0.6,0.9,0.6,1.5
		c0,0.6-0.2,1.1-0.6,1.5l-6.6,6.6c-0.1,0.1-0.2,0.1-0.3,0.2l-2.8,0.7C6.3,12.4,6.2,12.4,6.2,12.4z M7.4,9.3L7,11l1.7-0.4l6.5-6.5
		c0.2-0.2,0.3-0.4,0.3-0.6c0-0.2-0.1-0.5-0.3-0.6c-0.3-0.3-0.9-0.3-1.2,0c0,0,0,0,0,0L7.4,9.3z M13.5,2.4L13.5,2.4L13.5,2.4z"/>
</g>
</svg>
