<svg width="24" height="19" viewBox="0 0 24 19" fill="none" xmlns="http://www.w3.org/2000/svg">
<path d="M22.98 1.83091C22.329 0.497454 21.6225 0.252182 20.184 0.158909C18.747 0.0466364 15.1335 0 12.003 0C8.8665 0 5.2515 0.0466365 3.816 0.157182C2.3805 0.252182 1.6725 0.495727 1.0155 1.83091C0.345 3.16264 0 5.45645 0 9.49482C0 9.49827 0 9.5 0 9.5C0 9.50345 0 9.50518 0 9.50518V9.50864C0 13.5297 0.345 15.8408 1.0155 17.1587C1.6725 18.4922 2.379 18.734 3.8145 18.8463C5.2515 18.943 8.8665 19 12.003 19C15.1335 19 18.747 18.943 20.1855 18.848C21.624 18.7357 22.3305 18.4939 22.9815 17.1605C23.658 15.8425 24 13.5315 24 9.51036C24 9.51036 24 9.50518 24 9.50173C24 9.50173 24 9.49827 24 9.49655C24 5.45645 23.658 3.16264 22.98 1.83091ZM9 14.6818V4.31818L16.5 9.5L9 14.6818Z" fill="#4B4B4B"/>
</svg>
