<svg width="159" height="115" viewBox="0 0 159 115" fill="none" xmlns="http://www.w3.org/2000/svg">
<path d="M159 71.875C159 95.7016 139.941 115 116.411 115L113.571 115C107.29 115 102.214 109.861 102.214 103.5C102.214 97.1391 107.29 92 113.571 92L116.411 92C127.377 92 136.286 82.9797 136.286 71.875L136.286 69L113.571 69C101.043 69 90.8571 58.6859 90.8571 46L90.8571 23C90.8571 10.3141 101.043 1.0192e-05 113.571 1.12873e-05L136.286 1.3273e-05C148.814 1.43683e-05 159 10.3141 159 23L159 71.875ZM68.1428 71.875C68.1428 95.7016 49.0841 115 25.5536 115L22.7143 115C16.4323 115 11.3571 109.861 11.3571 103.5C11.3571 97.1391 16.4323 92 22.7143 92L25.5536 92C36.5203 92 45.4286 82.9797 45.4286 71.875L45.4286 69L22.7143 69C10.1859 69 -1.03357e-05 58.6859 -9.22662e-06 46L-7.21589e-06 23C-6.10686e-06 10.3141 10.1859 2.24905e-06 22.7143 3.34431e-06L45.4286 5.33006e-06C57.9569 6.42532e-06 68.1429 10.3141 68.1429 23L68.1428 71.875Z" fill="#F7F6F6"/>
</svg>
