<svg width="158" height="89" viewBox="0 0 158 89" fill="none" xmlns="http://www.w3.org/2000/svg">
<path d="M50.0079 1.50502C50.0092 1.80415 49.9221 2.09694 49.7576 2.34629C49.5931 2.59564 49.3587 2.79033 49.084 2.9057C48.8093 3.02107 48.5067 3.05193 48.2145 2.99437C47.9224 2.93681 47.6538 2.79341 47.4428 2.58235C47.2318 2.37129 47.0879 2.10206 47.0293 1.80877C46.9708 1.51547 47.0002 1.21132 47.1138 0.934827C47.2275 0.658337 47.4202 0.421956 47.6677 0.255629C47.9151 0.0893016 48.2062 0.000512476 48.5039 0.000509673C48.7011 -0.000351746 48.8965 0.0379278 49.079 0.113151C49.2614 0.188374 49.4273 0.299058 49.567 0.438851C49.7068 0.578643 49.8176 0.74479 49.8933 0.927753C49.969 1.11072 50.0079 1.30689 50.0079 1.50502Z" fill="#C5C5C5"/>
<path d="M65.3407 1.50502C65.342 1.80415 65.2549 2.09694 65.0904 2.34629C64.926 2.59564 64.6915 2.79033 64.4168 2.9057C64.1421 3.02107 63.8395 3.05193 63.5473 2.99437C63.2552 2.93681 62.9866 2.79341 62.7756 2.58235C62.5646 2.37129 62.4207 2.10206 62.3622 1.80877C62.3036 1.51547 62.333 1.21132 62.4466 0.934827C62.5603 0.658337 62.753 0.421956 63.0005 0.255629C63.248 0.0893016 63.539 0.000512476 63.8367 0.000509673C64.2345 0.000505929 64.6161 0.158807 64.8979 0.440771C65.1798 0.722735 65.339 1.1054 65.3407 1.50502Z" fill="#C5C5C5"/>
<path d="M80.6671 1.50502C80.6671 1.80258 80.5792 2.09346 80.4147 2.34088C80.2501 2.58829 80.0163 2.78113 79.7426 2.895C79.469 3.00888 79.1679 3.03867 78.8774 2.98062C78.587 2.92257 78.3201 2.77928 78.1107 2.56887C77.9013 2.35846 77.7587 2.09038 77.7009 1.79853C77.6431 1.50669 77.6728 1.20418 77.7861 0.929268C77.8994 0.654355 78.0914 0.419383 78.3376 0.254065C78.5839 0.0887476 78.8734 0.000509673 79.1696 0.000509673C79.5667 0.000509673 79.9476 0.15902 80.2285 0.44117C80.5093 0.72332 80.6671 1.106 80.6671 1.50502Z" fill="#C5C5C5"/>
<path d="M95.9999 1.50502C96.0011 1.8058 95.9129 2.1001 95.7466 2.35024C95.5804 2.60037 95.3436 2.79496 95.0666 2.90909C94.7896 3.02323 94.485 3.05171 94.1918 2.99089C93.8986 2.93008 93.6302 2.78273 93.4208 2.56772C93.2115 2.35271 93.0707 2.07981 93.0167 1.78398C92.9626 1.48814 92.9976 1.18282 93.1173 0.9071C93.2369 0.631385 93.4358 0.397822 93.6883 0.236313C93.9409 0.0748044 94.2357 -0.00730054 94.535 0.000509673C94.9264 0.00906223 95.299 0.17134 95.5729 0.452569C95.8467 0.733797 96 1.1116 95.9999 1.50502Z" fill="#C5C5C5"/>
<path d="M50.0079 13.5018C50.0092 13.801 49.9221 14.0938 49.7576 14.3431C49.5931 14.5925 49.3587 14.7872 49.084 14.9025C48.8093 15.0179 48.5067 15.0488 48.2145 14.9912C47.9224 14.9336 47.6538 14.7902 47.4428 14.5792C47.2318 14.3681 47.0879 14.0989 47.0293 13.8056C46.9708 13.5123 47.0002 13.2081 47.1138 12.9317C47.2275 12.6552 47.4202 12.4188 47.6677 12.2525C47.9151 12.0861 48.2062 11.9973 48.5039 11.9973C48.7011 11.9965 48.8965 12.0348 49.079 12.11C49.2614 12.1852 49.4273 12.2959 49.567 12.4357C49.7068 12.5755 49.8176 12.7416 49.8933 12.9246C49.969 13.1075 50.0079 13.3037 50.0079 13.5018Z" fill="#C5C5C5"/>
<path d="M65.3407 13.5018C65.342 13.801 65.2549 14.0938 65.0904 14.3431C64.926 14.5925 64.6915 14.7872 64.4168 14.9025C64.1421 15.0179 63.8395 15.0488 63.5473 14.9912C63.2552 14.9336 62.9866 14.7902 62.7756 14.5792C62.5646 14.3681 62.4207 14.0989 62.3622 13.8056C62.3036 13.5123 62.333 13.2081 62.4466 12.9317C62.5603 12.6552 62.753 12.4188 63.0005 12.2525C63.248 12.0861 63.539 11.9973 63.8367 11.9973C64.2345 11.9973 64.6161 12.1556 64.8979 12.4376C65.1798 12.7196 65.339 13.1022 65.3407 13.5018Z" fill="#C5C5C5"/>
<path d="M80.6671 13.5018C80.6671 13.7994 80.5792 14.0903 80.4147 14.3377C80.2501 14.5851 80.0163 14.778 79.7426 14.8918C79.469 15.0057 79.1679 15.0355 78.8774 14.9774C78.587 14.9194 78.3201 14.7761 78.1107 14.5657C77.9013 14.3553 77.7587 14.0872 77.7009 13.7954C77.6431 13.5035 77.6728 13.201 77.7861 12.9261C77.8994 12.6512 78.0914 12.4162 78.3376 12.2509C78.5839 12.0856 78.8734 11.9973 79.1696 11.9973C79.5667 11.9973 79.9476 12.1558 80.2285 12.438C80.5093 12.7201 80.6671 13.1028 80.6671 13.5018Z" fill="#C5C5C5"/>
<path d="M95.9999 13.5018C96.0012 13.8013 95.9139 14.0943 95.7491 14.3438C95.5844 14.5933 95.3495 14.788 95.0745 14.9031C94.7994 15.0183 94.4965 15.0488 94.2041 14.9907C93.9118 14.9326 93.6432 14.7886 93.4324 14.5768C93.2217 14.3651 93.0783 14.0953 93.0205 13.8016C92.9627 13.5078 92.993 13.2035 93.1077 12.9271C93.2223 12.6507 93.4161 12.4148 93.6644 12.2493C93.9127 12.0837 94.2044 11.996 94.5024 11.9973C94.8996 11.9973 95.2804 12.1558 95.5613 12.438C95.8421 12.7201 95.9999 13.1028 95.9999 13.5018Z" fill="#C5C5C5"/>
<path d="M50.0079 25.5118C50.0079 25.8106 49.9197 26.1028 49.7544 26.3512C49.5892 26.5997 49.3543 26.7934 49.0795 26.9078C48.8047 27.0221 48.5023 27.0521 48.2105 26.9938C47.9188 26.9355 47.6508 26.7915 47.4404 26.5802C47.2301 26.3689 47.0869 26.0997 47.0288 25.8065C46.9708 25.5134 47.0006 25.2096 47.1144 24.9335C47.2283 24.6574 47.421 24.4214 47.6684 24.2554C47.9157 24.0893 48.2065 24.0007 48.5039 24.0007C48.7017 23.9998 48.8976 24.0383 49.0805 24.114C49.2634 24.1896 49.4295 24.3009 49.5693 24.4413C49.7092 24.5818 49.8199 24.7488 49.8952 24.9325C49.9705 25.1162 50.0088 25.3131 50.0079 25.5118Z" fill="#C5C5C5"/>
<path d="M65.3407 25.5118C65.3407 25.8106 65.2525 26.1028 65.0873 26.3512C64.922 26.5997 64.6871 26.7934 64.4123 26.9078C64.1375 27.0221 63.8351 27.0521 63.5433 26.9938C63.2516 26.9355 62.9836 26.7915 62.7733 26.5802C62.5629 26.3689 62.4197 26.0997 62.3617 25.8065C62.3036 25.5134 62.3334 25.2096 62.4473 24.9335C62.5611 24.6574 62.7539 24.4214 63.0012 24.2554C63.2485 24.0893 63.5393 24.0007 63.8367 24.0007C64.2356 24.0007 64.6182 24.1599 64.9002 24.4433C65.1823 24.7267 65.3407 25.111 65.3407 25.5118Z" fill="#C5C5C5"/>
<path d="M80.6671 25.5118C80.6658 25.809 80.5769 26.0993 80.4115 26.3458C80.2462 26.5924 80.0119 26.7842 79.7381 26.8971C79.4644 27.0099 79.1635 27.0388 78.8735 26.98C78.5834 26.9212 78.3172 26.7774 78.1084 26.5667C77.8997 26.3561 77.7577 26.088 77.7004 25.7963C77.6432 25.5047 77.6732 25.2025 77.7867 24.928C77.9003 24.6534 78.0922 24.4188 78.3383 24.2538C78.5844 24.0888 78.8737 24.0007 79.1696 24.0007C79.3668 24.0007 79.562 24.0398 79.7441 24.1158C79.9262 24.1919 80.0916 24.3033 80.2308 24.4437C80.3699 24.5841 80.4801 24.7507 80.5549 24.934C80.6298 25.1173 80.6679 25.3136 80.6671 25.5118Z" fill="#C5C5C5"/>
<path d="M95.9999 25.5118C95.9998 25.8123 95.9105 26.1059 95.7435 26.3552C95.5764 26.6045 95.3392 26.798 95.0621 26.9111C94.785 27.0243 94.4806 27.0518 94.1878 26.9903C93.8951 26.9287 93.6272 26.7808 93.4185 26.5656C93.2098 26.3503 93.0697 26.0774 93.0162 25.7817C92.9627 25.4861 92.9981 25.1811 93.1179 24.9058C93.2378 24.6305 93.4366 24.3973 93.689 24.2361C93.9414 24.0748 94.236 23.9929 94.535 24.0007C94.9276 24.0093 95.3011 24.1725 95.5751 24.4551C95.8491 24.7377 96.0017 25.1172 95.9999 25.5118Z" fill="#C5C5C5"/>
<path d="M50.0079 37.502C50.0053 37.8003 49.915 38.0912 49.7481 38.3379C49.5813 38.5847 49.3455 38.7763 49.0705 38.8887C48.7955 39.0011 48.4935 39.0291 48.2026 38.9694C47.9117 38.9096 47.645 38.7646 47.4359 38.5528C47.2269 38.341 47.0849 38.0717 47.028 37.779C46.971 37.4862 47.0015 37.1831 47.1157 36.9077C47.2299 36.6324 47.4227 36.3971 47.6697 36.2317C47.9168 36.0662 48.207 35.9779 48.5039 35.9779C48.7025 35.9779 48.8992 36.0174 49.0825 36.0942C49.2658 36.1709 49.4322 36.2834 49.572 36.4251C49.7119 36.5668 49.8224 36.7349 49.8972 36.9198C49.972 37.1046 50.0096 37.3025 50.0079 37.502Z" fill="#C5C5C5"/>
<path d="M65.3407 37.502C65.3382 37.8003 65.2478 38.0912 65.081 38.3379C64.9141 38.5847 64.6784 38.7763 64.4033 38.8887C64.1283 39.0011 63.8263 39.0291 63.5354 38.9694C63.2446 38.9096 62.9778 38.7646 62.7688 38.5528C62.5597 38.341 62.4178 38.0717 62.3608 37.779C62.3038 37.4862 62.3343 37.1831 62.4485 36.9077C62.5628 36.6324 62.7555 36.3971 63.0025 36.2317C63.2496 36.0662 63.5398 35.9779 63.8367 35.9779C64.0351 35.9788 64.2314 36.0189 64.4143 36.0959C64.5972 36.173 64.7633 36.2855 64.9029 36.427C65.0426 36.5685 65.1531 36.7363 65.2283 36.9208C65.3034 37.1052 65.3416 37.3027 65.3407 37.502Z" fill="#C5C5C5"/>
<path d="M80.6671 37.502C80.6632 37.7987 80.5721 38.0877 80.4052 38.3325C80.2384 38.5773 80.0032 38.7671 79.7292 38.8779C79.4553 38.9888 79.1548 39.0158 78.8656 38.9556C78.5765 38.8953 78.3115 38.7505 78.104 38.5393C77.8965 38.3282 77.7558 38.0601 77.6996 37.7688C77.6434 37.4775 77.6742 37.176 77.7881 36.9022C77.902 36.6284 78.0939 36.3946 78.3397 36.2302C78.5855 36.0657 78.8743 35.9779 79.1696 35.9779C79.3676 35.9788 79.5636 36.0189 79.7462 36.096C79.9287 36.1732 80.0943 36.2858 80.2335 36.4274C80.3726 36.569 80.4825 36.7369 80.5569 36.9213C80.6314 37.1057 80.6688 37.3031 80.6671 37.502Z" fill="#C5C5C5"/>
<path d="M95.9999 37.502C95.9972 37.802 95.9057 38.0943 95.7371 38.3418C95.5685 38.5894 95.3304 38.7809 95.0531 38.892C94.7758 39.0031 94.4718 39.0288 94.1799 38.9658C93.8881 38.9027 93.6214 38.7539 93.4141 38.5381C93.2067 38.3223 93.0679 38.0494 93.0154 37.7542C92.9629 37.4589 92.9991 37.1546 93.1193 36.88C93.2395 36.6055 93.4383 36.3731 93.6904 36.2124C93.9425 36.0518 94.2365 35.9701 94.535 35.9779C94.9293 35.9882 95.3038 36.1537 95.5779 36.4388C95.8519 36.7239 96.0034 37.1057 95.9999 37.502Z" fill="#C5C5C5"/>
<path d="M112.008 1.50502C112.009 1.80415 111.922 2.09694 111.758 2.34629C111.593 2.59564 111.359 2.79033 111.084 2.9057C110.809 3.02107 110.507 3.05193 110.215 2.99437C109.922 2.93681 109.654 2.79341 109.443 2.58235C109.232 2.37129 109.088 2.10206 109.029 1.80877C108.971 1.51547 109 1.21132 109.114 0.934827C109.227 0.658337 109.42 0.421956 109.668 0.255629C109.915 0.0893016 110.206 0.000512476 110.504 0.000509673C110.701 -0.000351746 110.897 0.0379278 111.079 0.113151C111.261 0.188374 111.427 0.299058 111.567 0.438851C111.707 0.578643 111.818 0.74479 111.893 0.927753C111.969 1.11072 112.008 1.30689 112.008 1.50502Z" fill="#C5C5C5"/>
<path d="M127.341 1.50502C127.342 1.80415 127.255 2.09694 127.09 2.34629C126.926 2.59564 126.692 2.79033 126.417 2.9057C126.142 3.02107 125.84 3.05193 125.547 2.99437C125.255 2.93681 124.987 2.79341 124.776 2.58235C124.565 2.37129 124.421 2.10206 124.362 1.80877C124.304 1.51547 124.333 1.21132 124.447 0.934827C124.56 0.658337 124.753 0.421956 125.001 0.255629C125.248 0.0893016 125.539 0.000512476 125.837 0.000509673C126.235 0.000505929 126.616 0.158807 126.898 0.440771C127.18 0.722735 127.339 1.1054 127.341 1.50502Z" fill="#C5C5C5"/>
<path d="M142.667 1.50502C142.667 1.80258 142.579 2.09346 142.415 2.34088C142.25 2.58829 142.016 2.78113 141.743 2.895C141.469 3.00888 141.168 3.03867 140.877 2.98062C140.587 2.92257 140.32 2.77928 140.111 2.56887C139.901 2.35846 139.759 2.09038 139.701 1.79853C139.643 1.50669 139.673 1.20418 139.786 0.929268C139.899 0.654355 140.091 0.419383 140.338 0.254065C140.584 0.0887476 140.873 0.000509673 141.17 0.000509673C141.567 0.000509673 141.948 0.15902 142.228 0.44117C142.509 0.72332 142.667 1.106 142.667 1.50502Z" fill="#C5C5C5"/>
<path d="M158 1.50502C158.001 1.8058 157.913 2.1001 157.747 2.35024C157.58 2.60037 157.344 2.79496 157.067 2.90909C156.79 3.02323 156.485 3.05171 156.192 2.99089C155.899 2.93008 155.63 2.78273 155.421 2.56772C155.211 2.35271 155.071 2.07981 155.017 1.78398C154.963 1.48814 154.998 1.18282 155.117 0.9071C155.237 0.631385 155.436 0.397822 155.688 0.236313C155.941 0.0748044 156.236 -0.00730054 156.535 0.000509673C156.926 0.00906223 157.299 0.17134 157.573 0.452569C157.847 0.733797 158 1.1116 158 1.50502Z" fill="#C5C5C5"/>
<path d="M112.008 13.5018C112.009 13.801 111.922 14.0938 111.758 14.3431C111.593 14.5925 111.359 14.7872 111.084 14.9025C110.809 15.0179 110.507 15.0488 110.215 14.9912C109.922 14.9336 109.654 14.7902 109.443 14.5792C109.232 14.3681 109.088 14.0989 109.029 13.8056C108.971 13.5123 109 13.2081 109.114 12.9317C109.227 12.6552 109.42 12.4188 109.668 12.2525C109.915 12.0861 110.206 11.9973 110.504 11.9973C110.701 11.9965 110.897 12.0348 111.079 12.11C111.261 12.1852 111.427 12.2959 111.567 12.4357C111.707 12.5755 111.818 12.7416 111.893 12.9246C111.969 13.1075 112.008 13.3037 112.008 13.5018Z" fill="#C5C5C5"/>
<path d="M127.341 13.5018C127.342 13.801 127.255 14.0938 127.09 14.3431C126.926 14.5925 126.692 14.7872 126.417 14.9025C126.142 15.0179 125.84 15.0488 125.547 14.9912C125.255 14.9336 124.987 14.7902 124.776 14.5792C124.565 14.3681 124.421 14.0989 124.362 13.8056C124.304 13.5123 124.333 13.2081 124.447 12.9317C124.56 12.6552 124.753 12.4188 125.001 12.2525C125.248 12.0861 125.539 11.9973 125.837 11.9973C126.235 11.9973 126.616 12.1556 126.898 12.4376C127.18 12.7196 127.339 13.1022 127.341 13.5018Z" fill="#C5C5C5"/>
<path d="M142.667 13.5018C142.667 13.7994 142.579 14.0903 142.415 14.3377C142.25 14.5851 142.016 14.778 141.743 14.8918C141.469 15.0057 141.168 15.0355 140.877 14.9774C140.587 14.9194 140.32 14.7761 140.111 14.5657C139.901 14.3553 139.759 14.0872 139.701 13.7954C139.643 13.5035 139.673 13.201 139.786 12.9261C139.899 12.6512 140.091 12.4162 140.338 12.2509C140.584 12.0856 140.873 11.9973 141.17 11.9973C141.567 11.9973 141.948 12.1558 142.228 12.438C142.509 12.7201 142.667 13.1028 142.667 13.5018Z" fill="#C5C5C5"/>
<path d="M158 13.5018C158.001 13.8013 157.914 14.0943 157.749 14.3438C157.584 14.5933 157.35 14.788 157.074 14.9031C156.799 15.0183 156.496 15.0488 156.204 14.9907C155.912 14.9326 155.643 14.7886 155.432 14.5768C155.222 14.3651 155.078 14.0953 155.021 13.8016C154.963 13.5078 154.993 13.2035 155.108 12.9271C155.222 12.6507 155.416 12.4148 155.664 12.2493C155.913 12.0837 156.204 11.996 156.502 11.9973C156.9 11.9973 157.28 12.1558 157.561 12.438C157.842 12.7201 158 13.1028 158 13.5018Z" fill="#C5C5C5"/>
<path d="M112.008 25.5118C112.008 25.8106 111.92 26.1028 111.754 26.3512C111.589 26.5997 111.354 26.7934 111.079 26.9078C110.805 27.0221 110.502 27.0521 110.211 26.9938C109.919 26.9355 109.651 26.7915 109.44 26.5802C109.23 26.3689 109.087 26.0997 109.029 25.8065C108.971 25.5134 109.001 25.2096 109.114 24.9335C109.228 24.6574 109.421 24.4214 109.668 24.2554C109.916 24.0893 110.206 24.0007 110.504 24.0007C110.702 23.9998 110.898 24.0383 111.08 24.114C111.263 24.1896 111.429 24.3009 111.569 24.4413C111.709 24.5818 111.82 24.7488 111.895 24.9325C111.97 25.1162 112.009 25.3131 112.008 25.5118Z" fill="#C5C5C5"/>
<path d="M127.341 25.5118C127.341 25.8106 127.253 26.1028 127.087 26.3512C126.922 26.5997 126.687 26.7934 126.412 26.9078C126.137 27.0221 125.835 27.0521 125.543 26.9938C125.252 26.9355 124.984 26.7915 124.773 26.5802C124.563 26.3689 124.42 26.0997 124.362 25.8065C124.304 25.5134 124.333 25.2096 124.447 24.9335C124.561 24.6574 124.754 24.4214 125.001 24.2554C125.249 24.0893 125.539 24.0007 125.837 24.0007C126.236 24.0007 126.618 24.1599 126.9 24.4433C127.182 24.7267 127.341 25.111 127.341 25.5118Z" fill="#C5C5C5"/>
<path d="M142.667 25.5118C142.666 25.809 142.577 26.0993 142.412 26.3458C142.246 26.5924 142.012 26.7842 141.738 26.8971C141.464 27.0099 141.164 27.0388 140.873 26.98C140.583 26.9212 140.317 26.7774 140.108 26.5667C139.9 26.3561 139.758 26.088 139.7 25.7963C139.643 25.5047 139.673 25.2025 139.787 24.928C139.9 24.6534 140.092 24.4188 140.338 24.2538C140.584 24.0888 140.874 24.0007 141.17 24.0007C141.367 24.0007 141.562 24.0398 141.744 24.1158C141.926 24.1919 142.092 24.3033 142.231 24.4437C142.37 24.5841 142.48 24.7507 142.555 24.934C142.63 25.1173 142.668 25.3136 142.667 25.5118Z" fill="#C5C5C5"/>
<path d="M158 25.5118C158 25.8123 157.911 26.1059 157.743 26.3552C157.576 26.6045 157.339 26.798 157.062 26.9111C156.785 27.0243 156.481 27.0518 156.188 26.9903C155.895 26.9287 155.627 26.7808 155.419 26.5656C155.21 26.3503 155.07 26.0774 155.016 25.7817C154.963 25.4861 154.998 25.1811 155.118 24.9058C155.238 24.6305 155.437 24.3973 155.689 24.2361C155.941 24.0748 156.236 23.9929 156.535 24.0007C156.928 24.0093 157.301 24.1725 157.575 24.4551C157.849 24.7377 158.002 25.1172 158 25.5118Z" fill="#C5C5C5"/>
<path d="M112.008 37.502C112.005 37.8003 111.915 38.0912 111.748 38.3379C111.581 38.5847 111.346 38.7763 111.071 38.8887C110.795 39.0011 110.493 39.0291 110.203 38.9694C109.912 38.9096 109.645 38.7646 109.436 38.5528C109.227 38.341 109.085 38.0717 109.028 37.779C108.971 37.4862 109.002 37.1831 109.116 36.9077C109.23 36.6324 109.423 36.3971 109.67 36.2317C109.917 36.0662 110.207 35.9779 110.504 35.9779C110.703 35.9779 110.899 36.0174 111.083 36.0942C111.266 36.1709 111.432 36.2834 111.572 36.4251C111.712 36.5668 111.822 36.7349 111.897 36.9198C111.972 37.1046 112.01 37.3025 112.008 37.502Z" fill="#C5C5C5"/>
<path d="M127.341 37.502C127.338 37.8003 127.248 38.0912 127.081 38.3379C126.914 38.5847 126.678 38.7763 126.403 38.8887C126.128 39.0011 125.826 39.0291 125.535 38.9694C125.245 38.9096 124.978 38.7646 124.769 38.5528C124.56 38.341 124.418 38.0717 124.361 37.779C124.304 37.4862 124.334 37.1831 124.449 36.9077C124.563 36.6324 124.756 36.3971 125.003 36.2317C125.25 36.0662 125.54 35.9779 125.837 35.9779C126.035 35.9788 126.231 36.0189 126.414 36.0959C126.597 36.173 126.763 36.2855 126.903 36.427C127.043 36.5685 127.153 36.7363 127.228 36.9208C127.303 37.1052 127.342 37.3027 127.341 37.502Z" fill="#C5C5C5"/>
<path d="M142.667 37.502C142.663 37.7987 142.572 38.0877 142.405 38.3325C142.238 38.5773 142.003 38.7671 141.729 38.8779C141.455 38.9888 141.155 39.0158 140.866 38.9556C140.576 38.8953 140.311 38.7505 140.104 38.5393C139.897 38.3282 139.756 38.0601 139.7 37.7688C139.643 37.4775 139.674 37.176 139.788 36.9022C139.902 36.6284 140.094 36.3946 140.34 36.2302C140.586 36.0657 140.874 35.9779 141.17 35.9779C141.368 35.9788 141.564 36.0189 141.746 36.096C141.929 36.1732 142.094 36.2858 142.233 36.4274C142.373 36.569 142.483 36.7369 142.557 36.9213C142.631 37.1057 142.669 37.3031 142.667 37.502Z" fill="#C5C5C5"/>
<path d="M158 37.502C157.997 37.802 157.906 38.0943 157.737 38.3418C157.569 38.5894 157.33 38.7809 157.053 38.892C156.776 39.0031 156.472 39.0288 156.18 38.9658C155.888 38.9027 155.621 38.7539 155.414 38.5381C155.207 38.3223 155.068 38.0494 155.015 37.7542C154.963 37.4589 154.999 37.1546 155.119 36.88C155.239 36.6055 155.438 36.3731 155.69 36.2124C155.943 36.0518 156.237 35.9701 156.535 35.9779C156.929 35.9882 157.304 36.1537 157.578 36.4388C157.852 36.7239 158.003 37.1057 158 37.502Z" fill="#C5C5C5"/>
<path d="M50.0079 51.505C50.0092 51.8042 49.9221 52.0969 49.7576 52.3463C49.5931 52.5956 49.3587 52.7903 49.084 52.9057C48.8093 53.0211 48.5067 53.0519 48.2145 52.9944C47.9224 52.9368 47.6538 52.7934 47.4428 52.5823C47.2318 52.3713 47.0879 52.1021 47.0293 51.8088C46.9708 51.5155 47.0002 51.2113 47.1138 50.9348C47.2275 50.6583 47.4202 50.422 47.6677 50.2556C47.9151 50.0893 48.2062 50.0005 48.5039 50.0005C48.7011 49.9996 48.8965 50.0379 49.079 50.1132C49.2614 50.1884 49.4273 50.2991 49.567 50.4389C49.7068 50.5786 49.8176 50.7448 49.8933 50.9278C49.969 51.1107 50.0079 51.3069 50.0079 51.505Z" fill="#C5C5C5"/>
<path d="M65.3407 51.505C65.342 51.8042 65.2549 52.0969 65.0904 52.3463C64.926 52.5956 64.6915 52.7903 64.4168 52.9057C64.1421 53.0211 63.8395 53.0519 63.5473 52.9944C63.2552 52.9368 62.9866 52.7934 62.7756 52.5823C62.5646 52.3713 62.4207 52.1021 62.3622 51.8088C62.3036 51.5155 62.333 51.2113 62.4466 50.9348C62.5603 50.6583 62.753 50.422 63.0005 50.2556C63.248 50.0893 63.539 50.0005 63.8367 50.0005C64.2345 50.0005 64.6161 50.1588 64.8979 50.4408C65.1798 50.7227 65.339 51.1054 65.3407 51.505Z" fill="#C5C5C5"/>
<path d="M80.6671 51.505C80.6671 51.8026 80.5792 52.0935 80.4147 52.3409C80.2501 52.5883 80.0163 52.7811 79.7426 52.895C79.469 53.0089 79.1679 53.0387 78.8774 52.9806C78.587 52.9226 78.3201 52.7793 78.1107 52.5689C77.9013 52.3585 77.7587 52.0904 77.7009 51.7985C77.6431 51.5067 77.6728 51.2042 77.7861 50.9293C77.8994 50.6544 78.0914 50.4194 78.3376 50.2541C78.5839 50.0887 78.8734 50.0005 79.1696 50.0005C79.5667 50.0005 79.9476 50.159 80.2285 50.4412C80.5093 50.7233 80.6671 51.106 80.6671 51.505Z" fill="#C5C5C5"/>
<path d="M95.9999 51.505C96.0011 51.8058 95.9129 52.1001 95.7466 52.3502C95.5804 52.6004 95.3436 52.795 95.0666 52.9091C94.7896 53.0232 94.485 53.0517 94.1918 52.9909C93.8986 52.9301 93.6302 52.7827 93.4208 52.5677C93.2115 52.3527 93.0707 52.0798 93.0167 51.784C92.9626 51.4881 92.9976 51.1828 93.1173 50.9071C93.2369 50.6314 93.4358 50.3978 93.6883 50.2363C93.9409 50.0748 94.2357 49.9927 94.535 50.0005C94.9264 50.0091 95.299 50.1713 95.5729 50.4526C95.8467 50.7338 96 51.1116 95.9999 51.505Z" fill="#C5C5C5"/>
<path d="M50.0079 63.5018C50.0092 63.801 49.9221 64.0938 49.7576 64.3431C49.5931 64.5925 49.3587 64.7872 49.084 64.9025C48.8093 65.0179 48.5067 65.0488 48.2145 64.9912C47.9224 64.9336 47.6538 64.7902 47.4428 64.5792C47.2318 64.3681 47.0879 64.0989 47.0293 63.8056C46.9708 63.5123 47.0002 63.2081 47.1138 62.9317C47.2275 62.6552 47.4202 62.4188 47.6677 62.2525C47.9151 62.0861 48.2062 61.9973 48.5039 61.9973C48.7011 61.9965 48.8965 62.0348 49.079 62.11C49.2614 62.1852 49.4273 62.2959 49.567 62.4357C49.7068 62.5755 49.8176 62.7416 49.8933 62.9246C49.969 63.1075 50.0079 63.3037 50.0079 63.5018Z" fill="#C5C5C5"/>
<path d="M65.3407 63.5018C65.342 63.801 65.2549 64.0938 65.0904 64.3431C64.926 64.5925 64.6915 64.7872 64.4168 64.9025C64.1421 65.0179 63.8395 65.0488 63.5473 64.9912C63.2552 64.9336 62.9866 64.7902 62.7756 64.5792C62.5646 64.3681 62.4207 64.0989 62.3622 63.8056C62.3036 63.5123 62.333 63.2081 62.4466 62.9317C62.5603 62.6552 62.753 62.4188 63.0005 62.2525C63.248 62.0861 63.539 61.9973 63.8367 61.9973C64.2345 61.9973 64.6161 62.1556 64.8979 62.4376C65.1798 62.7196 65.339 63.1022 65.3407 63.5018Z" fill="#C5C5C5"/>
<path d="M80.6671 63.5018C80.6671 63.7994 80.5792 64.0903 80.4147 64.3377C80.2501 64.5851 80.0163 64.778 79.7426 64.8918C79.469 65.0057 79.1679 65.0355 78.8774 64.9774C78.587 64.9194 78.3201 64.7761 78.1107 64.5657C77.9013 64.3553 77.7587 64.0872 77.7009 63.7954C77.6431 63.5035 77.6728 63.201 77.7861 62.9261C77.8994 62.6512 78.0914 62.4162 78.3376 62.2509C78.5839 62.0856 78.8734 61.9973 79.1696 61.9973C79.5667 61.9973 79.9476 62.1558 80.2285 62.438C80.5093 62.7201 80.6671 63.1028 80.6671 63.5018Z" fill="#C5C5C5"/>
<path d="M95.9999 63.5018C96.0012 63.8013 95.9139 64.0943 95.7491 64.3438C95.5844 64.5933 95.3495 64.788 95.0745 64.9032C94.7994 65.0183 94.4965 65.0488 94.2041 64.9907C93.9118 64.9326 93.6432 64.7886 93.4324 64.5768C93.2217 64.3651 93.0783 64.0953 93.0205 63.8016C92.9627 63.5078 92.993 63.2035 93.1077 62.9271C93.2223 62.6507 93.4161 62.4148 93.6644 62.2493C93.9127 62.0837 94.2044 61.996 94.5024 61.9973C94.8996 61.9973 95.2804 62.1558 95.5613 62.438C95.8421 62.7201 95.9999 63.1028 95.9999 63.5018Z" fill="#C5C5C5"/>
<path d="M50.0079 75.5117C50.0079 75.8106 49.9197 76.1028 49.7544 76.3512C49.5892 76.5997 49.3543 76.7934 49.0795 76.9078C48.8047 77.0221 48.5023 77.0521 48.2105 76.9938C47.9188 76.9355 47.6508 76.7915 47.4404 76.5802C47.2301 76.3689 47.0869 76.0997 47.0288 75.8065C46.9708 75.5134 47.0006 75.2096 47.1144 74.9335C47.2283 74.6574 47.421 74.4214 47.6684 74.2554C47.9157 74.0893 48.2065 74.0007 48.5039 74.0007C48.7017 73.9998 48.8976 74.0383 49.0805 74.114C49.2634 74.1896 49.4295 74.3009 49.5693 74.4413C49.7092 74.5818 49.8199 74.7487 49.8952 74.9325C49.9705 75.1162 50.0088 75.3131 50.0079 75.5117Z" fill="#C5C5C5"/>
<path d="M65.3407 75.5117C65.3407 75.8106 65.2525 76.1028 65.0873 76.3512C64.922 76.5997 64.6871 76.7934 64.4123 76.9078C64.1375 77.0221 63.8351 77.0521 63.5433 76.9938C63.2516 76.9355 62.9836 76.7915 62.7733 76.5802C62.5629 76.3689 62.4197 76.0997 62.3617 75.8065C62.3036 75.5134 62.3334 75.2096 62.4473 74.9335C62.5611 74.6574 62.7539 74.4214 63.0012 74.2554C63.2485 74.0893 63.5393 74.0007 63.8367 74.0007C64.2356 74.0007 64.6182 74.1599 64.9002 74.4433C65.1823 74.7267 65.3407 75.111 65.3407 75.5117Z" fill="#C5C5C5"/>
<path d="M80.6671 75.5117C80.6658 75.809 80.5769 76.0993 80.4115 76.3458C80.2462 76.5924 80.0119 76.7842 79.7381 76.8971C79.4644 77.0099 79.1635 77.0388 78.8735 76.98C78.5834 76.9212 78.3172 76.7774 78.1084 76.5667C77.8997 76.3561 77.7577 76.088 77.7004 75.7963C77.6432 75.5047 77.6732 75.2025 77.7867 74.928C77.9003 74.6534 78.0922 74.4188 78.3383 74.2538C78.5844 74.0888 78.8737 74.0007 79.1696 74.0007C79.3668 74.0007 79.562 74.0398 79.7441 74.1158C79.9262 74.1919 80.0916 74.3033 80.2308 74.4437C80.3699 74.5841 80.4801 74.7507 80.5549 74.934C80.6298 75.1173 80.6679 75.3136 80.6671 75.5117Z" fill="#C5C5C5"/>
<path d="M95.9999 75.5118C95.9998 75.8123 95.9105 76.1059 95.7435 76.3552C95.5764 76.6045 95.3392 76.798 95.0621 76.9111C94.785 77.0243 94.4806 77.0518 94.1878 76.9903C93.8951 76.9287 93.6272 76.7808 93.4185 76.5656C93.2098 76.3503 93.0697 76.0774 93.0162 75.7817C92.9627 75.4861 92.9981 75.1811 93.1179 74.9058C93.2378 74.6305 93.4366 74.3973 93.689 74.2361C93.9414 74.0748 94.236 73.9929 94.535 74.0007C94.9276 74.0093 95.3011 74.1725 95.5751 74.4551C95.8491 74.7377 96.0017 75.1172 95.9999 75.5118Z" fill="#C5C5C5"/>
<path d="M50.0079 87.502C50.0053 87.8003 49.915 88.0912 49.7481 88.3379C49.5813 88.5847 49.3455 88.7763 49.0705 88.8887C48.7955 89.0011 48.4935 89.0291 48.2026 88.9694C47.9117 88.9096 47.645 88.7646 47.4359 88.5528C47.2269 88.341 47.0849 88.0717 47.028 87.779C46.971 87.4862 47.0015 87.1831 47.1157 86.9077C47.2299 86.6324 47.4227 86.3971 47.6697 86.2317C47.9168 86.0662 48.207 85.9779 48.5039 85.9779C48.7025 85.9779 48.8992 86.0174 49.0825 86.0942C49.2658 86.1709 49.4322 86.2834 49.572 86.4251C49.7119 86.5668 49.8224 86.7349 49.8972 86.9198C49.972 87.1046 50.0096 87.3025 50.0079 87.502Z" fill="#C5C5C5"/>
<path d="M65.3407 87.502C65.3382 87.8003 65.2478 88.0912 65.081 88.3379C64.9141 88.5847 64.6784 88.7763 64.4033 88.8887C64.1283 89.0011 63.8263 89.0291 63.5354 88.9694C63.2446 88.9096 62.9778 88.7646 62.7688 88.5528C62.5597 88.341 62.4178 88.0717 62.3608 87.779C62.3038 87.4862 62.3343 87.1831 62.4485 86.9077C62.5628 86.6324 62.7555 86.3971 63.0025 86.2317C63.2496 86.0662 63.5398 85.9779 63.8367 85.9779C64.0351 85.9788 64.2314 86.0189 64.4143 86.0959C64.5972 86.173 64.7633 86.2855 64.9029 86.427C65.0426 86.5686 65.1531 86.7363 65.2283 86.9208C65.3034 87.1052 65.3416 87.3027 65.3407 87.502Z" fill="#C5C5C5"/>
<path d="M80.6671 87.502C80.6632 87.7987 80.5721 88.0877 80.4052 88.3325C80.2384 88.5773 80.0032 88.7671 79.7292 88.878C79.4553 88.9888 79.1548 89.0158 78.8656 88.9556C78.5765 88.8953 78.3115 88.7505 78.104 88.5393C77.8965 88.3282 77.7558 88.0601 77.6996 87.7688C77.6434 87.4775 77.6742 87.176 77.7881 86.9022C77.902 86.6284 78.0939 86.3946 78.3397 86.2302C78.5855 86.0657 78.8743 85.9779 79.1696 85.9779C79.3676 85.9788 79.5636 86.0189 79.7462 86.096C79.9287 86.1732 80.0943 86.2858 80.2335 86.4274C80.3726 86.569 80.4825 86.7369 80.5569 86.9213C80.6314 87.1057 80.6688 87.3031 80.6671 87.502Z" fill="#C5C5C5"/>
<path d="M95.9999 87.502C95.9972 87.802 95.9057 88.0943 95.7371 88.3419C95.5685 88.5894 95.3304 88.7809 95.0531 88.892C94.7758 89.0031 94.4718 89.0288 94.1799 88.9658C93.8881 88.9027 93.6214 88.7539 93.4141 88.5381C93.2067 88.3223 93.0679 88.0494 93.0154 87.7542C92.9629 87.4589 92.9991 87.1546 93.1193 86.88C93.2395 86.6055 93.4383 86.3731 93.6904 86.2124C93.9425 86.0518 94.2365 85.9701 94.535 85.9779C94.9293 85.9882 95.3038 86.1537 95.5779 86.4388C95.8519 86.7239 96.0034 87.1057 95.9999 87.502Z" fill="#C5C5C5"/>
<path d="M112.008 51.505C112.009 51.8042 111.922 52.0969 111.758 52.3463C111.593 52.5956 111.359 52.7903 111.084 52.9057C110.809 53.0211 110.507 53.0519 110.215 52.9944C109.922 52.9368 109.654 52.7934 109.443 52.5823C109.232 52.3713 109.088 52.1021 109.029 51.8088C108.971 51.5155 109 51.2113 109.114 50.9348C109.227 50.6583 109.42 50.422 109.668 50.2556C109.915 50.0893 110.206 50.0005 110.504 50.0005C110.701 49.9996 110.897 50.0379 111.079 50.1132C111.261 50.1884 111.427 50.2991 111.567 50.4389C111.707 50.5786 111.818 50.7448 111.893 50.9278C111.969 51.1107 112.008 51.3069 112.008 51.505Z" fill="#C5C5C5"/>
<path d="M127.341 51.505C127.342 51.8042 127.255 52.0969 127.09 52.3463C126.926 52.5956 126.692 52.7903 126.417 52.9057C126.142 53.0211 125.84 53.0519 125.547 52.9944C125.255 52.9368 124.987 52.7934 124.776 52.5823C124.565 52.3713 124.421 52.1021 124.362 51.8088C124.304 51.5155 124.333 51.2113 124.447 50.9348C124.56 50.6583 124.753 50.422 125.001 50.2556C125.248 50.0893 125.539 50.0005 125.837 50.0005C126.235 50.0005 126.616 50.1588 126.898 50.4408C127.18 50.7227 127.339 51.1054 127.341 51.505Z" fill="#C5C5C5"/>
<path d="M142.667 51.505C142.667 51.8026 142.579 52.0935 142.415 52.3409C142.25 52.5883 142.016 52.7811 141.743 52.895C141.469 53.0089 141.168 53.0387 140.877 52.9806C140.587 52.9226 140.32 52.7793 140.111 52.5689C139.901 52.3585 139.759 52.0904 139.701 51.7985C139.643 51.5067 139.673 51.2042 139.786 50.9293C139.899 50.6544 140.091 50.4194 140.338 50.2541C140.584 50.0887 140.873 50.0005 141.17 50.0005C141.567 50.0005 141.948 50.159 142.228 50.4412C142.509 50.7233 142.667 51.106 142.667 51.505Z" fill="#C5C5C5"/>
<path d="M158 51.505C158.001 51.8058 157.913 52.1001 157.747 52.3502C157.58 52.6004 157.344 52.795 157.067 52.9091C156.79 53.0232 156.485 53.0517 156.192 52.9909C155.899 52.9301 155.63 52.7827 155.421 52.5677C155.211 52.3527 155.071 52.0798 155.017 51.784C154.963 51.4881 154.998 51.1828 155.117 50.9071C155.237 50.6314 155.436 50.3978 155.688 50.2363C155.941 50.0748 156.236 49.9927 156.535 50.0005C156.926 50.0091 157.299 50.1713 157.573 50.4526C157.847 50.7338 158 51.1116 158 51.505Z" fill="#C5C5C5"/>
<path d="M112.008 63.5018C112.009 63.801 111.922 64.0938 111.758 64.3431C111.593 64.5925 111.359 64.7872 111.084 64.9025C110.809 65.0179 110.507 65.0488 110.215 64.9912C109.922 64.9336 109.654 64.7902 109.443 64.5792C109.232 64.3681 109.088 64.0989 109.029 63.8056C108.971 63.5123 109 63.2081 109.114 62.9317C109.227 62.6552 109.42 62.4188 109.668 62.2525C109.915 62.0861 110.206 61.9973 110.504 61.9973C110.701 61.9965 110.897 62.0348 111.079 62.11C111.261 62.1852 111.427 62.2959 111.567 62.4357C111.707 62.5755 111.818 62.7416 111.893 62.9246C111.969 63.1075 112.008 63.3037 112.008 63.5018Z" fill="#C5C5C5"/>
<path d="M127.341 63.5018C127.342 63.801 127.255 64.0938 127.09 64.3431C126.926 64.5925 126.692 64.7872 126.417 64.9025C126.142 65.0179 125.84 65.0488 125.547 64.9912C125.255 64.9336 124.987 64.7902 124.776 64.5792C124.565 64.3681 124.421 64.0989 124.362 63.8056C124.304 63.5123 124.333 63.2081 124.447 62.9317C124.56 62.6552 124.753 62.4188 125.001 62.2525C125.248 62.0861 125.539 61.9973 125.837 61.9973C126.235 61.9973 126.616 62.1556 126.898 62.4376C127.18 62.7196 127.339 63.1022 127.341 63.5018Z" fill="#C5C5C5"/>
<path d="M142.667 63.5018C142.667 63.7994 142.579 64.0903 142.415 64.3377C142.25 64.5851 142.016 64.778 141.743 64.8918C141.469 65.0057 141.168 65.0355 140.877 64.9774C140.587 64.9194 140.32 64.7761 140.111 64.5657C139.901 64.3553 139.759 64.0872 139.701 63.7954C139.643 63.5035 139.673 63.201 139.786 62.9261C139.899 62.6512 140.091 62.4162 140.338 62.2509C140.584 62.0856 140.873 61.9973 141.17 61.9973C141.567 61.9973 141.948 62.1558 142.228 62.438C142.509 62.7201 142.667 63.1028 142.667 63.5018Z" fill="#C5C5C5"/>
<path d="M158 63.5018C158.001 63.8013 157.914 64.0943 157.749 64.3438C157.584 64.5933 157.35 64.788 157.074 64.9032C156.799 65.0183 156.496 65.0488 156.204 64.9907C155.912 64.9326 155.643 64.7886 155.432 64.5768C155.222 64.3651 155.078 64.0953 155.021 63.8016C154.963 63.5078 154.993 63.2035 155.108 62.9271C155.222 62.6507 155.416 62.4148 155.664 62.2493C155.913 62.0837 156.204 61.996 156.502 61.9973C156.9 61.9973 157.28 62.1558 157.561 62.438C157.842 62.7201 158 63.1028 158 63.5018Z" fill="#C5C5C5"/>
<path d="M112.008 75.5117C112.008 75.8106 111.92 76.1028 111.754 76.3512C111.589 76.5997 111.354 76.7934 111.079 76.9078C110.805 77.0221 110.502 77.0521 110.211 76.9938C109.919 76.9355 109.651 76.7915 109.44 76.5802C109.23 76.3689 109.087 76.0997 109.029 75.8065C108.971 75.5134 109.001 75.2096 109.114 74.9335C109.228 74.6574 109.421 74.4214 109.668 74.2554C109.916 74.0893 110.206 74.0007 110.504 74.0007C110.702 73.9998 110.898 74.0383 111.08 74.114C111.263 74.1896 111.429 74.3009 111.569 74.4413C111.709 74.5818 111.82 74.7487 111.895 74.9325C111.97 75.1162 112.009 75.3131 112.008 75.5117Z" fill="#C5C5C5"/>
<path d="M127.341 75.5117C127.341 75.8106 127.253 76.1028 127.087 76.3512C126.922 76.5997 126.687 76.7934 126.412 76.9078C126.137 77.0221 125.835 77.0521 125.543 76.9938C125.252 76.9355 124.984 76.7915 124.773 76.5802C124.563 76.3689 124.42 76.0997 124.362 75.8065C124.304 75.5134 124.333 75.2096 124.447 74.9335C124.561 74.6574 124.754 74.4214 125.001 74.2554C125.249 74.0893 125.539 74.0007 125.837 74.0007C126.236 74.0007 126.618 74.1599 126.9 74.4433C127.182 74.7267 127.341 75.111 127.341 75.5117Z" fill="#C5C5C5"/>
<path d="M142.667 75.5117C142.666 75.809 142.577 76.0993 142.412 76.3458C142.246 76.5924 142.012 76.7842 141.738 76.8971C141.464 77.0099 141.164 77.0388 140.873 76.98C140.583 76.9212 140.317 76.7774 140.108 76.5667C139.9 76.3561 139.758 76.088 139.7 75.7963C139.643 75.5047 139.673 75.2025 139.787 74.928C139.9 74.6534 140.092 74.4188 140.338 74.2538C140.584 74.0888 140.874 74.0007 141.17 74.0007C141.367 74.0007 141.562 74.0398 141.744 74.1158C141.926 74.1919 142.092 74.3033 142.231 74.4437C142.37 74.5841 142.48 74.7507 142.555 74.934C142.63 75.1173 142.668 75.3136 142.667 75.5117Z" fill="#C5C5C5"/>
<path d="M158 75.5118C158 75.8123 157.911 76.1059 157.743 76.3552C157.576 76.6045 157.339 76.798 157.062 76.9111C156.785 77.0243 156.481 77.0518 156.188 76.9903C155.895 76.9287 155.627 76.7808 155.419 76.5656C155.21 76.3503 155.07 76.0774 155.016 75.7817C154.963 75.4861 154.998 75.1811 155.118 74.9058C155.238 74.6305 155.437 74.3973 155.689 74.2361C155.941 74.0748 156.236 73.9929 156.535 74.0007C156.928 74.0093 157.301 74.1725 157.575 74.4551C157.849 74.7377 158.002 75.1172 158 75.5118Z" fill="#C5C5C5"/>
<path d="M112.008 87.502C112.005 87.8003 111.915 88.0912 111.748 88.3379C111.581 88.5847 111.346 88.7763 111.071 88.8887C110.795 89.0011 110.493 89.0291 110.203 88.9694C109.912 88.9096 109.645 88.7646 109.436 88.5528C109.227 88.341 109.085 88.0717 109.028 87.779C108.971 87.4862 109.002 87.1831 109.116 86.9077C109.23 86.6324 109.423 86.3971 109.67 86.2317C109.917 86.0662 110.207 85.9779 110.504 85.9779C110.703 85.9779 110.899 86.0174 111.083 86.0942C111.266 86.1709 111.432 86.2834 111.572 86.4251C111.712 86.5668 111.822 86.7349 111.897 86.9198C111.972 87.1046 112.01 87.3025 112.008 87.502Z" fill="#C5C5C5"/>
<path d="M127.341 87.502C127.338 87.8003 127.248 88.0912 127.081 88.3379C126.914 88.5847 126.678 88.7763 126.403 88.8887C126.128 89.0011 125.826 89.0291 125.535 88.9694C125.245 88.9096 124.978 88.7646 124.769 88.5528C124.56 88.341 124.418 88.0717 124.361 87.779C124.304 87.4862 124.334 87.1831 124.449 86.9077C124.563 86.6324 124.756 86.3971 125.003 86.2317C125.25 86.0662 125.54 85.9779 125.837 85.9779C126.035 85.9788 126.231 86.0189 126.414 86.0959C126.597 86.173 126.763 86.2855 126.903 86.427C127.043 86.5686 127.153 86.7363 127.228 86.9208C127.303 87.1052 127.342 87.3027 127.341 87.502Z" fill="#C5C5C5"/>
<path d="M142.667 87.502C142.663 87.7987 142.572 88.0877 142.405 88.3325C142.238 88.5773 142.003 88.7671 141.729 88.878C141.455 88.9888 141.155 89.0158 140.866 88.9556C140.576 88.8953 140.311 88.7505 140.104 88.5393C139.897 88.3282 139.756 88.0601 139.7 87.7688C139.643 87.4775 139.674 87.176 139.788 86.9022C139.902 86.6284 140.094 86.3946 140.34 86.2302C140.586 86.0657 140.874 85.9779 141.17 85.9779C141.368 85.9788 141.564 86.0189 141.746 86.096C141.929 86.1732 142.094 86.2858 142.233 86.4274C142.373 86.569 142.483 86.7369 142.557 86.9213C142.631 87.1057 142.669 87.3031 142.667 87.502Z" fill="#C5C5C5"/>
<path d="M158 87.502C157.997 87.802 157.906 88.0943 157.737 88.3419C157.569 88.5894 157.33 88.7809 157.053 88.892C156.776 89.0031 156.472 89.0288 156.18 88.9658C155.888 88.9027 155.621 88.7539 155.414 88.5381C155.207 88.3223 155.068 88.0494 155.015 87.7542C154.963 87.4589 154.999 87.1546 155.119 86.88C155.239 86.6055 155.438 86.3731 155.69 86.2124C155.943 86.0518 156.237 85.9701 156.535 85.9779C156.929 85.9882 157.304 86.1537 157.578 86.4388C157.852 86.7239 158.003 87.1057 158 87.502Z" fill="#C5C5C5"/>
<path d="M3.34074 1.50502C3.34202 1.80415 3.25491 2.09694 3.09044 2.34629C2.92596 2.59564 2.69152 2.79033 2.41682 2.9057C2.14212 3.02107 1.83952 3.05193 1.54735 2.99437C1.25517 2.93681 0.986583 2.79341 0.775595 2.58235C0.564608 2.37129 0.42072 2.10206 0.362159 1.80877C0.303597 1.51547 0.333 1.21132 0.446639 0.934827C0.560278 0.658337 0.753042 0.421956 1.00051 0.255629C1.24798 0.0893016 1.53902 0.000512476 1.83675 0.000509673C2.23451 0.000505929 2.61607 0.158807 2.89793 0.440771C3.1798 0.722735 3.33901 1.1054 3.34074 1.50502Z" fill="#C5C5C5"/>
<path d="M18.6671 1.50502C18.6671 1.80258 18.5792 2.09346 18.4147 2.34088C18.2501 2.58829 18.0163 2.78113 17.7426 2.895C17.469 3.00888 17.1679 3.03867 16.8774 2.98062C16.587 2.92257 16.3201 2.77928 16.1107 2.56887C15.9013 2.35846 15.7587 2.09038 15.7009 1.79853C15.6431 1.50669 15.6728 1.20418 15.7861 0.929268C15.8994 0.654355 16.0914 0.419383 16.3376 0.254065C16.5839 0.0887476 16.8734 0.000509673 17.1696 0.000509673C17.5667 0.000509673 17.9476 0.15902 18.2285 0.44117C18.5093 0.72332 18.6671 1.106 18.6671 1.50502Z" fill="#C5C5C5"/>
<path d="M33.9999 1.50502C34.0011 1.8058 33.9129 2.1001 33.7466 2.35024C33.5804 2.60037 33.3436 2.79496 33.0666 2.90909C32.7896 3.02323 32.485 3.05171 32.1918 2.99089C31.8986 2.93008 31.6302 2.78273 31.4208 2.56772C31.2115 2.35271 31.0707 2.07981 31.0167 1.78398C30.9626 1.48814 30.9976 1.18282 31.1173 0.9071C31.2369 0.631385 31.4358 0.397822 31.6883 0.236313C31.9409 0.0748044 32.2357 -0.00730054 32.535 0.000509673C32.9264 0.00906223 33.299 0.17134 33.5729 0.452569C33.8467 0.733797 34 1.1116 33.9999 1.50502Z" fill="#C5C5C5"/>
<path d="M3.34074 13.5018C3.34202 13.801 3.25491 14.0938 3.09044 14.3431C2.92596 14.5925 2.69152 14.7872 2.41682 14.9025C2.14212 15.0179 1.83952 15.0488 1.54735 14.9912C1.25517 14.9336 0.986583 14.7902 0.775595 14.5792C0.564608 14.3681 0.42072 14.0989 0.362159 13.8056C0.303597 13.5123 0.333 13.2081 0.446639 12.9317C0.560278 12.6552 0.753042 12.4188 1.00051 12.2525C1.24798 12.0861 1.53902 11.9973 1.83675 11.9973C2.23451 11.9973 2.61607 12.1556 2.89793 12.4376C3.1798 12.7196 3.33901 13.1022 3.34074 13.5018Z" fill="#C5C5C5"/>
<path d="M18.6671 13.5018C18.6671 13.7994 18.5792 14.0903 18.4147 14.3377C18.2501 14.5851 18.0163 14.778 17.7426 14.8918C17.469 15.0057 17.1679 15.0355 16.8774 14.9774C16.587 14.9194 16.3201 14.7761 16.1107 14.5657C15.9013 14.3553 15.7587 14.0872 15.7009 13.7954C15.6431 13.5035 15.6728 13.201 15.7861 12.9261C15.8994 12.6512 16.0914 12.4162 16.3376 12.2509C16.5839 12.0856 16.8734 11.9973 17.1696 11.9973C17.5667 11.9973 17.9476 12.1558 18.2285 12.438C18.5093 12.7201 18.6671 13.1028 18.6671 13.5018Z" fill="#C5C5C5"/>
<path d="M33.9999 13.5018C34.0012 13.8013 33.9139 14.0943 33.7491 14.3438C33.5844 14.5933 33.3495 14.788 33.0745 14.9031C32.7994 15.0183 32.4964 15.0488 32.2041 14.9907C31.9117 14.9326 31.6432 14.7886 31.4324 14.5768C31.2217 14.3651 31.0783 14.0953 31.0205 13.8016C30.9627 13.5078 30.993 13.2035 31.1077 12.9271C31.2223 12.6507 31.4161 12.4148 31.6644 12.2493C31.9127 12.0837 32.2044 11.996 32.5024 11.9973C32.8996 11.9973 33.2804 12.1558 33.5613 12.438C33.8421 12.7201 33.9999 13.1028 33.9999 13.5018Z" fill="#C5C5C5"/>
<path d="M3.34074 25.5118C3.34074 25.8106 3.25252 26.1028 3.08726 26.3512C2.922 26.5997 2.68712 26.7934 2.4123 26.9078C2.13748 27.0221 1.83508 27.0521 1.54333 26.9938C1.25159 26.9355 0.983612 26.7915 0.773276 26.5802C0.56294 26.3689 0.419694 26.0997 0.361663 25.8065C0.303631 25.5134 0.333416 25.2096 0.447249 24.9335C0.561082 24.6574 0.753852 24.4214 1.00118 24.2554C1.24851 24.0893 1.53929 24.0007 1.83675 24.0007C2.23563 24.0007 2.61818 24.1599 2.90023 24.4433C3.18228 24.7267 3.34074 25.111 3.34074 25.5118Z" fill="#C5C5C5"/>
<path d="M18.6671 25.5118C18.6658 25.809 18.5768 26.0993 18.4115 26.3458C18.2462 26.5924 18.0119 26.7842 17.7381 26.8971C17.4644 27.0099 17.1635 27.0388 16.8735 26.98C16.5834 26.9212 16.3172 26.7774 16.1084 26.5667C15.8997 26.3561 15.7577 26.088 15.7004 25.7963C15.6432 25.5047 15.6732 25.2025 15.7867 24.928C15.9003 24.6534 16.0922 24.4188 16.3383 24.2538C16.5844 24.0888 16.8737 24.0007 17.1696 24.0007C17.3668 24.0007 17.562 24.0398 17.7441 24.1158C17.9263 24.1919 18.0916 24.3033 18.2308 24.4437C18.3699 24.5841 18.4801 24.7507 18.5549 24.934C18.6298 25.1173 18.6679 25.3136 18.6671 25.5118Z" fill="#C5C5C5"/>
<path d="M33.9999 25.5118C33.9998 25.8123 33.9105 26.1059 33.7434 26.3552C33.5764 26.6045 33.3392 26.798 33.0621 26.9111C32.785 27.0243 32.4806 27.0518 32.1878 26.9903C31.8951 26.9287 31.6272 26.7808 31.4185 26.5656C31.2098 26.3503 31.0697 26.0774 31.0162 25.7817C30.9627 25.4861 30.9981 25.1811 31.1179 24.9058C31.2378 24.6305 31.4366 24.3973 31.689 24.2361C31.9414 24.0748 32.236 23.9929 32.535 24.0007C32.9276 24.0093 33.3011 24.1725 33.5751 24.4551C33.8491 24.7377 34.0017 25.1172 33.9999 25.5118Z" fill="#C5C5C5"/>
<path d="M3.34074 37.502C3.33816 37.8003 3.24778 38.0912 3.08096 38.3379C2.91415 38.5847 2.67837 38.7763 2.40333 38.8887C2.1283 39.0011 1.82632 39.0291 1.53544 38.9694C1.24456 38.9096 0.977795 38.7646 0.76876 38.5528C0.559724 38.341 0.417769 38.0717 0.360785 37.779C0.303801 37.4862 0.334333 37.1831 0.448539 36.9077C0.562744 36.6324 0.755516 36.3971 1.00255 36.2317C1.24959 36.0662 1.53985 35.9779 1.83675 35.9779C2.03511 35.9788 2.23136 36.0189 2.4143 36.0959C2.59723 36.173 2.76327 36.2855 2.90293 36.427C3.04259 36.5685 3.15313 36.7363 3.22825 36.9208C3.30337 37.1052 3.34159 37.3027 3.34074 37.502Z" fill="#C5C5C5"/>
<path d="M18.6671 37.502C18.6632 37.7987 18.5721 38.0877 18.4052 38.3325C18.2384 38.5773 18.0032 38.7671 17.7292 38.8779C17.4553 38.9888 17.1548 39.0158 16.8656 38.9556C16.5765 38.8953 16.3115 38.7505 16.104 38.5393C15.8965 38.3282 15.7558 38.0601 15.6996 37.7688C15.6434 37.4775 15.6742 37.176 15.7881 36.9022C15.902 36.6284 16.0939 36.3946 16.3397 36.2302C16.5855 36.0657 16.8742 35.9779 17.1696 35.9779C17.3676 35.9788 17.5636 36.0189 17.7461 36.096C17.9287 36.1732 18.0943 36.2858 18.2335 36.4274C18.3726 36.569 18.4825 36.7369 18.5569 36.9213C18.6313 37.1057 18.6688 37.3031 18.6671 37.502Z" fill="#C5C5C5"/>
<path d="M33.9999 37.502C33.9972 37.802 33.9057 38.0943 33.7371 38.3418C33.5685 38.5894 33.3304 38.7809 33.0531 38.892C32.7758 39.0031 32.4718 39.0288 32.1799 38.9658C31.8881 38.9027 31.6215 38.7539 31.4141 38.5381C31.2067 38.3223 31.0679 38.0494 31.0154 37.7542C30.9629 37.4589 30.9991 37.1546 31.1193 36.88C31.2395 36.6055 31.4383 36.3731 31.6904 36.2124C31.9425 36.0518 32.2365 35.9701 32.535 35.9779C32.9293 35.9882 33.3038 36.1537 33.5779 36.4388C33.8519 36.7239 34.0034 37.1057 33.9999 37.502Z" fill="#C5C5C5"/>
<path d="M3.34074 51.505C3.34202 51.8042 3.25491 52.0969 3.09044 52.3463C2.92596 52.5956 2.69152 52.7903 2.41682 52.9057C2.14212 53.0211 1.83952 53.0519 1.54735 52.9944C1.25517 52.9368 0.986583 52.7934 0.775595 52.5823C0.564608 52.3713 0.42072 52.1021 0.362159 51.8088C0.303597 51.5155 0.333 51.2113 0.446639 50.9348C0.560278 50.6583 0.753042 50.422 1.00051 50.2556C1.24798 50.0893 1.53902 50.0005 1.83675 50.0005C2.23451 50.0005 2.61607 50.1588 2.89793 50.4408C3.1798 50.7227 3.33901 51.1054 3.34074 51.505Z" fill="#C5C5C5"/>
<path d="M18.6671 51.505C18.6671 51.8026 18.5792 52.0935 18.4147 52.3409C18.2501 52.5883 18.0163 52.7811 17.7426 52.895C17.469 53.0089 17.1679 53.0387 16.8774 52.9806C16.587 52.9226 16.3201 52.7793 16.1107 52.5689C15.9013 52.3585 15.7587 52.0904 15.7009 51.7985C15.6431 51.5067 15.6728 51.2042 15.7861 50.9293C15.8994 50.6544 16.0914 50.4194 16.3376 50.2541C16.5839 50.0887 16.8734 50.0005 17.1696 50.0005C17.5667 50.0005 17.9476 50.159 18.2285 50.4412C18.5093 50.7233 18.6671 51.106 18.6671 51.505Z" fill="#C5C5C5"/>
<path d="M33.9999 51.505C34.0011 51.8058 33.9129 52.1001 33.7466 52.3502C33.5804 52.6004 33.3436 52.795 33.0666 52.9091C32.7896 53.0232 32.485 53.0517 32.1918 52.9909C31.8986 52.9301 31.6302 52.7827 31.4208 52.5677C31.2115 52.3527 31.0707 52.0798 31.0167 51.784C30.9626 51.4881 30.9976 51.1828 31.1173 50.9071C31.2369 50.6314 31.4358 50.3978 31.6883 50.2363C31.9409 50.0748 32.2357 49.9927 32.535 50.0005C32.9264 50.0091 33.299 50.1713 33.5729 50.4526C33.8467 50.7338 34 51.1116 33.9999 51.505Z" fill="#C5C5C5"/>
<path d="M3.34074 63.5018C3.34202 63.801 3.25491 64.0938 3.09044 64.3431C2.92596 64.5925 2.69152 64.7872 2.41682 64.9025C2.14212 65.0179 1.83952 65.0488 1.54735 64.9912C1.25517 64.9336 0.986583 64.7902 0.775595 64.5792C0.564608 64.3681 0.42072 64.0989 0.362159 63.8056C0.303597 63.5123 0.333 63.2081 0.446639 62.9317C0.560278 62.6552 0.753042 62.4188 1.00051 62.2525C1.24798 62.0861 1.53902 61.9973 1.83675 61.9973C2.23451 61.9973 2.61607 62.1556 2.89793 62.4376C3.1798 62.7196 3.33901 63.1022 3.34074 63.5018Z" fill="#C5C5C5"/>
<path d="M18.6671 63.5018C18.6671 63.7994 18.5792 64.0903 18.4147 64.3377C18.2501 64.5851 18.0163 64.778 17.7426 64.8918C17.469 65.0057 17.1679 65.0355 16.8774 64.9774C16.587 64.9194 16.3201 64.7761 16.1107 64.5657C15.9013 64.3553 15.7587 64.0872 15.7009 63.7954C15.6431 63.5035 15.6728 63.201 15.7861 62.9261C15.8994 62.6512 16.0914 62.4162 16.3376 62.2509C16.5839 62.0856 16.8734 61.9973 17.1696 61.9973C17.5667 61.9973 17.9476 62.1558 18.2285 62.438C18.5093 62.7201 18.6671 63.1028 18.6671 63.5018Z" fill="#C5C5C5"/>
<path d="M33.9999 63.5018C34.0012 63.8013 33.9139 64.0943 33.7491 64.3438C33.5844 64.5933 33.3495 64.788 33.0745 64.9032C32.7994 65.0183 32.4964 65.0488 32.2041 64.9907C31.9117 64.9326 31.6432 64.7886 31.4324 64.5768C31.2217 64.3651 31.0783 64.0953 31.0205 63.8016C30.9627 63.5078 30.993 63.2035 31.1077 62.9271C31.2223 62.6507 31.4161 62.4148 31.6644 62.2493C31.9127 62.0837 32.2044 61.996 32.5024 61.9973C32.8996 61.9973 33.2804 62.1558 33.5613 62.438C33.8421 62.7201 33.9999 63.1028 33.9999 63.5018Z" fill="#C5C5C5"/>
<path d="M3.34074 75.5117C3.34074 75.8106 3.25252 76.1028 3.08726 76.3512C2.922 76.5997 2.68712 76.7934 2.4123 76.9078C2.13748 77.0221 1.83508 77.0521 1.54333 76.9938C1.25159 76.9355 0.983612 76.7915 0.773276 76.5802C0.56294 76.3689 0.419694 76.0997 0.361663 75.8065C0.303631 75.5134 0.333416 75.2096 0.447249 74.9335C0.561082 74.6574 0.753852 74.4214 1.00118 74.2554C1.24851 74.0893 1.53929 74.0007 1.83675 74.0007C2.23563 74.0007 2.61818 74.1599 2.90023 74.4433C3.18228 74.7267 3.34074 75.111 3.34074 75.5117Z" fill="#C5C5C5"/>
<path d="M18.6671 75.5117C18.6658 75.809 18.5768 76.0993 18.4115 76.3458C18.2462 76.5924 18.0119 76.7842 17.7381 76.8971C17.4644 77.0099 17.1635 77.0388 16.8735 76.98C16.5834 76.9212 16.3172 76.7774 16.1084 76.5667C15.8997 76.3561 15.7577 76.088 15.7004 75.7963C15.6432 75.5047 15.6732 75.2025 15.7867 74.928C15.9003 74.6534 16.0922 74.4188 16.3383 74.2538C16.5844 74.0888 16.8737 74.0007 17.1696 74.0007C17.3668 74.0007 17.562 74.0398 17.7441 74.1158C17.9263 74.1919 18.0916 74.3033 18.2308 74.4437C18.3699 74.5841 18.4801 74.7507 18.5549 74.934C18.6298 75.1173 18.6679 75.3136 18.6671 75.5117Z" fill="#C5C5C5"/>
<path d="M33.9999 75.5118C33.9998 75.8123 33.9105 76.1059 33.7434 76.3552C33.5764 76.6045 33.3392 76.798 33.0621 76.9111C32.785 77.0243 32.4806 77.0518 32.1878 76.9903C31.8951 76.9287 31.6272 76.7808 31.4185 76.5656C31.2098 76.3503 31.0697 76.0774 31.0162 75.7817C30.9627 75.4861 30.9981 75.1811 31.1179 74.9058C31.2378 74.6305 31.4366 74.3973 31.689 74.2361C31.9414 74.0748 32.236 73.9929 32.535 74.0007C32.9276 74.0093 33.3011 74.1725 33.5751 74.4551C33.8491 74.7377 34.0017 75.1172 33.9999 75.5118Z" fill="#C5C5C5"/>
<path d="M3.34074 87.502C3.33816 87.8003 3.24778 88.0912 3.08096 88.3379C2.91415 88.5847 2.67837 88.7763 2.40333 88.8887C2.1283 89.0011 1.82632 89.0291 1.53544 88.9694C1.24456 88.9096 0.977795 88.7646 0.76876 88.5528C0.559724 88.341 0.417769 88.0717 0.360785 87.779C0.303801 87.4862 0.334333 87.1831 0.448539 86.9077C0.562744 86.6324 0.755516 86.3971 1.00255 86.2317C1.24959 86.0662 1.53985 85.9779 1.83675 85.9779C2.03511 85.9788 2.23136 86.0189 2.4143 86.0959C2.59723 86.173 2.76327 86.2855 2.90293 86.427C3.04259 86.5686 3.15313 86.7363 3.22825 86.9208C3.30337 87.1052 3.34159 87.3027 3.34074 87.502Z" fill="#C5C5C5"/>
<path d="M18.6671 87.502C18.6632 87.7987 18.5721 88.0877 18.4052 88.3325C18.2384 88.5773 18.0032 88.7671 17.7292 88.878C17.4553 88.9888 17.1548 89.0158 16.8656 88.9556C16.5765 88.8953 16.3115 88.7505 16.104 88.5393C15.8965 88.3282 15.7558 88.0601 15.6996 87.7688C15.6434 87.4775 15.6742 87.176 15.7881 86.9022C15.902 86.6284 16.0939 86.3946 16.3397 86.2302C16.5855 86.0657 16.8742 85.9779 17.1696 85.9779C17.3676 85.9788 17.5636 86.0189 17.7461 86.096C17.9287 86.1732 18.0943 86.2858 18.2335 86.4274C18.3726 86.569 18.4825 86.7369 18.5569 86.9213C18.6313 87.1057 18.6688 87.3031 18.6671 87.502Z" fill="#C5C5C5"/>
<path d="M33.9999 87.502C33.9972 87.802 33.9057 88.0943 33.7371 88.3419C33.5685 88.5894 33.3304 88.7809 33.0531 88.892C32.7758 89.0031 32.4718 89.0288 32.1799 88.9658C31.8881 88.9027 31.6215 88.7539 31.4141 88.5381C31.2067 88.3223 31.0679 88.0494 31.0154 87.7542C30.9629 87.4589 30.9991 87.1546 31.1193 86.88C31.2395 86.6055 31.4383 86.3731 31.6904 86.2124C31.9425 86.0518 32.2365 85.9701 32.535 85.9779C32.9293 85.9882 33.3038 86.1537 33.5779 86.4388C33.8519 86.7239 34.0034 87.1057 33.9999 87.502Z" fill="#C5C5C5"/>
</svg>
