<svg width="40" height="32" viewBox="0 0 40 32" fill="none" xmlns="http://www.w3.org/2000/svg">
<path d="M10.8323 6.85725C10.5284 6.85725 10.237 6.97766 10.0221 7.19199C9.80718 7.40632 9.68646 7.69702 9.68646 8.00013C9.68646 8.30324 9.80718 8.59393 10.0221 8.80826C10.237 9.02259 10.5284 9.143 10.8323 9.143H24.5825C24.8864 9.143 25.1778 9.02259 25.3927 8.80826C25.6076 8.59393 25.7283 8.30324 25.7283 8.00013C25.7283 7.69702 25.6076 7.40632 25.3927 7.19199C25.1778 6.97766 24.8864 6.85725 24.5825 6.85725H10.8323ZM17.7807 14.8574C17.3682 14.0254 16.8411 13.2574 16.227 12.5716H31.4576C31.7615 12.5716 32.0529 12.692 32.2678 12.9064C32.4827 13.1207 32.6034 13.4114 32.6034 13.7145C32.6034 14.0176 32.4827 14.3083 32.2678 14.5226C32.0529 14.737 31.7615 14.8574 31.4576 14.8574H17.7807ZM18.8532 19.4289C18.8532 19.8159 18.8326 20.1969 18.7914 20.5718H26.8742C27.1781 20.5718 27.4695 20.4513 27.6844 20.237C27.8993 20.0227 28.02 19.732 28.02 19.4289C28.02 19.1258 27.8993 18.8351 27.6844 18.6207C27.4695 18.4064 27.1781 18.286 26.8742 18.286H18.7914C18.8326 18.6609 18.8532 19.0418 18.8532 19.4289ZM5.10307 5.71438V9.72815C4.29428 10.0141 3.52443 10.3995 2.81137 10.8756V5.71438C2.81137 4.19883 3.41499 2.74536 4.48943 1.6737C5.56387 0.602049 7.02112 0 8.54061 0H33.7493C35.2687 0 36.726 0.602049 37.8004 1.6737C38.8749 2.74536 39.4785 4.19883 39.4785 5.71438V21.7146C39.4785 23.2302 38.8749 24.6836 37.8004 25.7553C36.726 26.827 35.2687 27.429 33.7493 27.429H21.4222L19.1305 25.1433H33.7493C34.6609 25.1433 35.5353 24.782 36.18 24.139C36.8246 23.496 37.1868 22.624 37.1868 21.7146V5.71438C37.1868 4.80505 36.8246 3.93296 36.18 3.28997C35.5353 2.64698 34.6609 2.28575 33.7493 2.28575H8.54061C7.62892 2.28575 6.75456 2.64698 6.1099 3.28997C5.46524 3.93296 5.10307 4.80505 5.10307 5.71438ZM8.54061 27.429C10.3419 27.429 12.0057 26.8347 13.344 25.8358L19.1878 31.6645C19.2942 31.7708 19.4205 31.8551 19.5596 31.9126C19.6987 31.9702 19.8477 31.9999 19.9983 32C20.1488 32.0001 20.2979 31.9706 20.4371 31.9133C20.5762 31.8559 20.7027 31.7718 20.8092 31.6656C20.9157 31.5595 21.0003 31.4335 21.058 31.2948C21.1157 31.1561 21.1455 31.0075 21.1456 30.8573C21.1457 30.7071 21.1161 30.5584 21.0586 30.4196C21.0011 30.2809 20.9167 30.1547 20.8103 30.0485L14.9665 24.2198C16.0482 22.777 16.61 21.0122 16.5609 19.2113C16.5118 17.4104 15.8546 15.6787 14.6959 14.2967C13.5371 12.9147 11.9446 11.9632 10.1761 11.5964C8.40769 11.2295 6.56688 11.4688 4.95175 12.2754C3.33662 13.082 2.04175 14.4088 1.27678 16.0408C0.511821 17.6729 0.321561 19.5147 0.736809 21.268C1.15206 23.0214 2.1485 24.5836 3.5648 25.7017C4.9811 26.8199 6.73433 27.4285 8.54061 27.429ZM8.54061 25.1433C7.02112 25.1433 5.56387 24.5412 4.48943 23.4696C3.41499 22.3979 2.81137 20.9444 2.81137 19.4289C2.81137 17.9133 3.41499 16.4599 4.48943 15.3882C5.56387 14.3166 7.02112 13.7145 8.54061 13.7145C10.0601 13.7145 11.5174 14.3166 12.5918 15.3882C13.6662 16.4599 14.2698 17.9133 14.2698 19.4289C14.2698 20.9444 13.6662 22.3979 12.5918 23.4696C11.5174 24.5412 10.0601 25.1433 8.54061 25.1433Z" fill="#030100"/>
</svg>
