<svg width="33" height="30" viewBox="0 0 33 30" fill="none" xmlns="http://www.w3.org/2000/svg">
<path d="M32.1149 9.618C31.7831 9.23509 31.375 8.92845 30.9178 8.71845C30.4606 8.50845 29.9648 8.3999 29.4633 8.4H21.2135V6C21.2135 4.4087 20.5927 2.88258 19.4876 1.75736C18.3825 0.632141 16.8837 3.07653e-07 15.3209 3.07653e-07C15.1019 -0.000159301 14.8873 0.0617867 14.701 0.178892C14.5147 0.295998 14.3641 0.463633 14.2661 0.663L8.7005 12H2.35706C1.73193 12 1.1324 12.2529 0.690367 12.7029C0.248332 13.153 0 13.7635 0 14.4V27.6C0 28.2365 0.248332 28.847 0.690367 29.2971C1.1324 29.7471 1.73193 30 2.35706 30H27.6955C28.5568 30.0003 29.3887 29.6804 30.0348 29.1004C30.6809 28.5204 31.0969 27.7202 31.2045 26.85L32.9723 12.45C33.035 11.943 32.9909 11.4283 32.8431 10.94C32.6953 10.4517 32.4471 10.0011 32.1149 9.618ZM2.35706 14.4H8.24971V27.6H2.35706V14.4ZM30.6329 12.15L28.8652 26.55C28.8293 26.8401 28.6906 27.1068 28.4752 27.3001C28.2599 27.4935 27.9826 27.6001 27.6955 27.6H10.6068V13.4835L16.0148 2.469C16.8163 2.63234 17.5375 3.07344 18.0556 3.71721C18.5737 4.36099 18.8567 5.16768 18.8565 6V9.6C18.8565 9.91826 18.9806 10.2235 19.2017 10.4485C19.4227 10.6736 19.7224 10.8 20.035 10.8H29.4633C29.6305 10.7999 29.7958 10.8361 29.9483 10.9061C30.1007 10.9762 30.2368 11.0784 30.3474 11.2061C30.4581 11.3338 30.5407 11.484 30.59 11.6468C30.6392 11.8095 30.6539 11.9811 30.6329 12.15Z" fill="black"/>
</svg>
