<svg width="35" height="32" viewBox="0 0 35 32" fill="none" xmlns="http://www.w3.org/2000/svg">
<path d="M26.8889 30C26.8889 26.6995 25.5778 23.5342 23.244 21.2004C20.9102 18.8667 17.7449 17.5556 14.4444 17.5556M14.4444 17.5556C11.144 17.5556 7.97868 18.8667 5.64489 21.2004C3.31111 23.5342 2 26.6995 2 30M14.4444 17.5556C18.74 17.5556 22.2222 14.0733 22.2222 9.77778C22.2222 5.48223 18.74 2 14.4444 2C10.1489 2 6.66667 5.48223 6.66667 9.77778C6.66667 14.0733 10.1489 17.5556 14.4444 17.5556ZM33.1111 28.4444C33.1111 23.2022 30 18.3333 26.8889 16C27.9115 15.2328 28.7293 14.2252 29.2698 13.0666C29.8103 11.908 30.0568 10.6341 29.9876 9.35747C29.9184 8.08087 29.5355 6.84102 28.873 5.74764C28.2104 4.65427 27.2885 3.74107 26.1889 3.08889" stroke="black" stroke-width="2.8" stroke-linecap="round" stroke-linejoin="round"/>
</svg>
